<svg width="97" height="122" viewBox="0 0 97 122" fill="none" xmlns="http://www.w3.org/2000/svg">
<g clip-path="url(#clip0)">
<path d="M24.2203 121.999C37.5846 121.999 48.431 112.889 48.431 101.665V81.332H24.2203C10.856 81.332 0.00964355 90.4414 0.00964355 101.665C0.00964355 112.889 10.856 121.999 24.2203 121.999Z" fill="#0ACF83"/>
<path d="M0.00964355 61.0013C0.00964355 49.7773 10.856 40.668 24.2203 40.668H48.431V81.3346H24.2203C10.856 81.3346 0.00964355 72.2253 0.00964355 61.0013Z" fill="#A259FF"/>
<path d="M0.0106201 20.3333C0.0106201 9.10933 10.857 0 24.2213 0H48.4319V40.6667H24.2213C10.857 40.6667 0.0106201 31.5573 0.0106201 20.3333Z" fill="#F24E1E"/>
<path d="M48.431 0H72.6417C86.006 0 96.8524 9.10933 96.8524 20.3333C96.8524 31.5573 86.006 40.6667 72.6417 40.6667H48.431V0Z" fill="#FF7262"/>
<path d="M96.8524 61.0013C96.8524 72.2253 86.006 81.3346 72.6417 81.3346C59.2774 81.3346 48.431 72.2253 48.431 61.0013C48.431 49.7773 59.2774 40.668 72.6417 40.668C86.006 40.668 96.8524 49.7773 96.8524 61.0013Z" fill="#1ABCFE"/>
</g>
<defs>
<clipPath id="clip0">
<rect width="96.862" height="122" fill="white"/>
</clipPath>
</defs>
</svg>
