<svg width="124" height="94" viewBox="0 0 124 94" fill="none" xmlns="http://www.w3.org/2000/svg">
<g clip-path="url(#clip0)">
<path d="M26.9443 3.09333L61.7473 0L96.5503 3.09333L123.495 33.5023L61.7473 93.9533L0 33.5023L26.9443 3.09333Z" fill="#FDB300"/>
<path d="M25.0108 33.502L61.7474 93.9529L0 33.502H25.0108Z" fill="#EA6C00"/>
<path d="M98.4839 33.502L61.7473 93.9529L123.495 33.502H98.4839Z" fill="#EA6C00"/>
<path d="M25.0107 33.502H98.484L61.7474 93.9529L25.0107 33.502Z" fill="#FDAD00"/>
<path d="M61.7473 0L26.9442 3.09329L25.0107 33.5023L61.7473 0Z" fill="#FDD231"/>
<path d="M61.747 0L96.5502 3.09329L98.4836 33.5023L61.747 0Z" fill="#FDD231"/>
<path d="M123.495 33.5028L96.5501 3.09375L98.4839 33.5028H123.495Z" fill="#FDAD00"/>
<path d="M0 33.5028L26.9442 3.09375L25.0108 33.5028H0Z" fill="#FDAD00"/>
<path d="M61.7474 0L25.0107 33.5023H98.484L61.7474 0Z" fill="#FEEEB7"/>
</g>
<defs>
<clipPath id="clip0">
<rect width="123.744" height="94" fill="white"/>
</clipPath>
</defs>
</svg>
