<svg width="457" height="248" viewBox="0 0 457 248" fill="none" xmlns="http://www.w3.org/2000/svg">
<g clip-path="url(#clip0)">
<path d="M229.966 247.999C353.886 247.999 454.342 241.362 454.342 233.175C454.342 224.988 353.886 218.352 229.966 218.352C106.047 218.352 5.59058 224.988 5.59058 233.175C5.59058 241.362 106.047 247.999 229.966 247.999Z" fill="#F2F2F2"/>
<path d="M221.367 70.8945C184.81 70.8945 158.562 94.3006 158.562 148.915C158.562 210.811 184.81 227.195 221.367 227.195C257.924 227.195 285.735 209.251 285.735 148.915C285.735 84.4181 257.924 70.8945 221.367 70.8945ZM221.607 206.65C196.287 206.65 183.059 191.825 183.059 148.955C183.059 111.128 196.828 91.1798 222.148 91.1798C247.469 91.1798 261.238 104.283 261.238 148.955C261.238 190.745 246.927 206.65 221.607 206.65Z" fill="#2F2E41"/>
<path d="M136.672 184.023H121.557V139.605C121.557 137.246 120.618 134.983 118.947 133.315C117.275 131.647 115.008 130.709 112.644 130.709H109.102C107.931 130.709 106.772 130.94 105.691 131.387C104.609 131.834 103.627 132.489 102.799 133.315C101.971 134.141 101.315 135.122 100.867 136.201C100.419 137.28 100.188 138.437 100.188 139.605V184.023H57.5547C56.6776 184.023 55.8154 183.797 55.0518 183.367C54.2882 182.936 53.649 182.316 53.1963 181.566C52.7436 180.817 52.4927 179.963 52.468 179.088C52.4433 178.213 52.6457 177.347 53.0554 176.573L98.1783 91.3435C98.7409 90.2809 99.0818 89.1156 99.1806 87.9179C99.2795 86.7201 99.1341 85.5148 98.7532 84.3747C98.3724 83.2346 97.764 82.1834 96.9648 81.2844C96.1656 80.3854 95.1921 79.6573 94.1032 79.1442L91.4395 77.8889C89.3712 76.9142 87.0065 76.7702 84.8348 77.4869C82.6631 78.2035 80.8506 79.7259 79.7723 81.739L24.739 184.479C23.8018 186.229 23.3115 188.182 23.3115 190.166C23.3115 191.75 23.6242 193.318 24.2316 194.782C24.839 196.245 25.7293 197.575 26.8517 198.695C27.9741 199.815 29.3065 200.704 30.7729 201.31C32.2394 201.916 33.8111 202.228 35.3984 202.228H100.188V230.315C100.188 231.716 100.465 233.102 101.002 234.396C101.538 235.689 102.326 236.865 103.318 237.855C104.31 238.845 105.488 239.631 106.784 240.166C108.08 240.702 109.47 240.978 110.873 240.978H110.873C112.276 240.978 113.665 240.702 114.962 240.166C116.258 239.631 117.436 238.845 118.428 237.855C119.42 236.865 120.207 235.689 120.744 234.396C121.281 233.102 121.557 231.716 121.557 230.315V202.228H136.672C139.091 202.228 141.411 201.269 143.122 199.562C144.832 197.855 145.793 195.54 145.793 193.126C145.793 190.712 144.832 188.396 143.122 186.689C141.411 184.982 139.091 184.023 136.672 184.023Z" fill="#1A75FF"/>
<path d="M416.555 184.023H401.441V139.605C401.441 137.246 400.502 134.983 398.83 133.315C397.158 131.647 394.891 130.709 392.527 130.709H388.985C387.815 130.709 386.656 130.94 385.574 131.387C384.493 131.834 383.51 132.489 382.682 133.315C381.855 134.141 381.198 135.122 380.75 136.201C380.302 137.28 380.072 138.437 380.072 139.605V184.023H337.438C336.561 184.023 335.699 183.797 334.935 183.367C334.171 182.936 333.532 182.316 333.08 181.566C332.627 180.817 332.376 179.963 332.351 179.088C332.327 178.213 332.529 177.347 332.939 176.573L378.062 91.3435C378.624 90.281 378.965 89.1156 379.064 87.9179C379.163 86.7201 379.017 85.5148 378.637 84.3747C378.256 83.2346 377.647 82.1834 376.848 81.2844C376.049 80.3854 375.075 79.6573 373.987 79.1442L371.323 77.8889C369.254 76.9142 366.89 76.7702 364.718 77.4869C362.546 78.2035 360.734 79.7259 359.656 81.739L304.622 184.479C303.685 186.229 303.195 188.182 303.195 190.166C303.195 193.365 304.468 196.433 306.735 198.695C309.002 200.957 312.076 202.228 315.282 202.228H380.072V230.315C380.072 233.143 381.197 235.855 383.201 237.855C385.205 239.855 387.922 240.978 390.756 240.978C393.59 240.978 396.307 239.855 398.311 237.855C400.315 235.855 401.441 233.143 401.441 230.315V202.228H416.555C418.974 202.228 421.294 201.269 423.005 199.562C424.715 197.855 425.676 195.54 425.676 193.126C425.676 190.712 424.715 188.396 423.005 186.689C421.294 184.982 418.974 184.023 416.555 184.023Z" fill="#1A75FF"/>
<path d="M140.842 178.822H125.727V134.404C125.727 133.236 125.496 132.079 125.048 131C124.6 129.92 123.944 128.94 123.116 128.114C122.288 127.288 121.306 126.632 120.224 126.185C119.143 125.738 117.984 125.508 116.813 125.508H113.271C110.907 125.508 108.64 126.446 106.968 128.114C105.297 129.782 104.358 132.045 104.358 134.404V178.822H61.7241C60.847 178.822 59.9849 178.596 59.2212 178.165C58.4576 177.735 57.8184 177.115 57.3657 176.365C56.913 175.615 56.6621 174.762 56.6375 173.887C56.6128 173.012 56.8151 172.145 57.2248 171.372L102.348 86.1424C102.91 85.0798 103.251 83.9145 103.35 82.7167C103.449 81.519 103.303 80.3137 102.923 79.1736C102.542 78.0335 101.933 76.9822 101.134 76.0832C100.335 75.1842 99.3616 74.4562 98.2726 73.943L95.6089 72.6877C93.5406 71.713 91.1759 71.5691 89.0042 72.2857C86.8326 73.0024 85.02 74.5247 83.9417 76.5378L28.9084 179.278C27.9712 181.028 27.481 182.981 27.481 184.965V184.965C27.481 188.164 28.7544 191.232 31.0211 193.494C33.2878 195.756 36.3622 197.027 39.5678 197.027H104.358V225.114C104.358 226.514 104.634 227.901 105.171 229.195C105.708 230.488 106.495 231.664 107.487 232.654C108.479 233.644 109.657 234.429 110.953 234.965C112.25 235.501 113.639 235.777 115.042 235.777H115.042C117.876 235.777 120.594 234.654 122.597 232.654C124.601 230.654 125.727 227.942 125.727 225.114V197.027H140.842C142.039 197.027 143.225 196.791 144.332 196.334C145.439 195.877 146.444 195.206 147.291 194.361C148.138 193.516 148.81 192.512 149.268 191.408C149.727 190.304 149.962 189.12 149.962 187.925V187.925C149.962 186.729 149.727 185.546 149.268 184.441C148.81 183.337 148.138 182.333 147.291 181.488C146.444 180.643 145.439 179.972 144.332 179.515C143.225 179.058 142.039 178.822 140.842 178.822V178.822Z" stroke="#3F3D56" stroke-miterlimit="10"/>
<path d="M424.373 178.822H409.259V134.404C409.259 132.045 408.319 129.782 406.648 128.114C404.976 126.446 402.709 125.508 400.345 125.508H396.803C395.633 125.508 394.473 125.738 393.392 126.185C392.311 126.632 391.328 127.288 390.5 128.114C389.672 128.94 389.016 129.92 388.568 131C388.12 132.079 387.889 133.236 387.889 134.404V178.822H345.256C344.379 178.822 343.517 178.596 342.753 178.165C341.989 177.735 341.35 177.115 340.897 176.365C340.445 175.615 340.194 174.762 340.169 173.887C340.145 173.012 340.347 172.145 340.757 171.372L385.879 86.1424C386.442 85.0798 386.783 83.9145 386.882 82.7167C386.981 81.519 386.835 80.3137 386.454 79.1736C386.074 78.0335 385.465 76.9822 384.666 76.0832C383.867 75.1842 382.893 74.4562 381.804 73.943L379.141 72.6877C377.072 71.713 374.708 71.5691 372.536 72.2857C370.364 73.0024 368.552 74.5247 367.473 76.5378L312.44 179.278C311.503 181.028 311.013 182.981 311.013 184.965C311.013 188.164 312.286 191.232 314.553 193.494C316.82 195.756 319.894 197.027 323.1 197.027H387.889V225.114C387.889 227.942 389.015 230.654 391.019 232.654C393.023 234.654 395.74 235.777 398.574 235.777V235.777C401.408 235.777 404.125 234.654 406.129 232.654C408.133 230.654 409.258 227.942 409.258 225.114V197.027H424.373C425.571 197.027 426.757 196.791 427.864 196.334C428.97 195.877 429.976 195.206 430.823 194.361C431.67 193.516 432.342 192.512 432.8 191.408C433.258 190.304 433.494 189.12 433.494 187.925V187.925C433.494 185.51 432.533 183.195 430.823 181.488C429.112 179.781 426.792 178.822 424.373 178.822V178.822Z" stroke="#3F3D56" stroke-miterlimit="10"/>
<path d="M229.706 66.2129C193.149 66.2129 166.901 89.619 166.901 144.233C166.901 206.129 193.149 222.514 229.706 222.514C266.263 222.514 294.074 204.569 294.074 144.233C294.074 79.7364 266.263 66.2129 229.706 66.2129ZM229.946 201.968C204.626 201.968 191.398 187.144 191.398 144.273C191.398 106.446 205.167 86.4982 230.488 86.4982C255.808 86.4982 269.577 99.6012 269.577 144.273C269.577 186.063 255.266 201.968 229.946 201.968V201.968Z" stroke="#3F3D56" stroke-miterlimit="10"/>
<path d="M200.403 13.2224C203.434 13.2224 205.891 10.7705 205.891 7.74595C205.891 4.72141 203.434 2.26953 200.403 2.26953C197.372 2.26953 194.916 4.72141 194.916 7.74595C194.916 10.7705 197.372 13.2224 200.403 13.2224Z" fill="#2F2E41"/>
<path d="M213.788 39.8042C222.288 39.8042 229.18 30.8937 229.18 19.9021C229.18 8.91047 222.288 0 213.788 0C205.287 0 198.396 8.91047 198.396 19.9021C198.396 30.8937 205.287 39.8042 213.788 39.8042Z" fill="#2F2E41"/>
<path opacity="0.1" d="M213.788 33.7932C206.077 33.7932 199.691 26.4621 198.57 16.8965C198.454 17.894 198.395 18.8975 198.396 19.9018C198.396 30.8935 205.287 39.8039 213.788 39.8039C222.288 39.8039 229.18 30.8935 229.18 19.9018C229.18 18.8975 229.122 17.894 229.005 16.8965C227.884 26.4621 221.498 33.7932 213.788 33.7932Z" fill="black"/>
<path d="M245.109 78.1876C244.778 79.5432 243.353 80.6289 241.774 81.3874C238.456 82.9821 234.362 83.458 230.392 83.6177C229.379 83.6792 228.363 83.6604 227.353 83.5617C225.396 83.3728 223.56 82.5306 222.142 81.1712C222.041 81.1054 221.958 81.015 221.901 80.9086C221.844 80.8021 221.816 80.6831 221.817 80.5625C221.819 80.4419 221.852 80.3238 221.912 80.2192C221.972 80.1145 222.057 80.0267 222.161 79.964C224.274 77.6468 227.802 76.2259 231.355 75.2029C234.05 74.4272 238.748 72.4179 241.687 72.689C244.534 72.9517 245.526 76.476 245.109 78.1876Z" fill="#3F3D56"/>
<path opacity="0.1" d="M245.109 78.1876C244.778 79.5432 243.353 80.6289 241.774 81.3874C238.456 82.9821 234.362 83.458 230.392 83.6177C229.379 83.6792 228.363 83.6604 227.353 83.5617C225.396 83.3728 223.56 82.5306 222.142 81.1712C222.041 81.1054 221.958 81.015 221.901 80.9086C221.844 80.8021 221.816 80.6831 221.817 80.5625C221.819 80.4419 221.852 80.3238 221.912 80.2192C221.972 80.1145 222.057 80.0267 222.161 79.964C224.274 77.6468 227.802 76.2259 231.355 75.2029C234.05 74.4272 238.748 72.4179 241.687 72.689C244.534 72.9517 245.526 76.476 245.109 78.1876Z" fill="black"/>
<path d="M202.914 68.0547C201.901 70.036 201.717 72.3377 202.404 74.4538C203.102 76.554 204.409 78.4002 206.16 79.7586C210.453 83.1934 216.363 83.6661 221.866 83.6184C226.688 83.5765 231.504 83.2471 236.288 82.6319C237.89 82.4902 239.466 82.1252 240.967 81.5476C242.763 80.7722 244.341 79.3498 244.981 77.5041C245.62 75.6583 245.166 73.3982 243.648 72.1664C242.313 71.0841 240.473 70.9352 238.757 70.8323L228.937 70.2433C229.907 69.2634 231.199 68.7092 232.38 67.9969C233.948 67.0518 234.989 65.465 236.129 64.0344C237.885 61.9398 239.796 59.9793 241.845 58.1692C242.165 59.9989 243.325 61.5014 244.69 62.7639C246.055 64.0263 247.628 65.0427 249.047 66.2447C252.483 69.1561 254.958 73.1074 258.572 75.7959C261.058 75.144 263.382 73.9861 265.398 72.3948L263.993 69.8558C263.876 69.5945 263.694 69.3675 263.464 69.1966C263.067 68.9526 262.554 69.0783 262.092 69.0092C260.858 68.8246 260.32 67.403 259.835 66.2554C258.506 63.105 255.961 60.6607 253.788 58.0187C252.184 56.0685 250.76 53.9766 249.536 51.769C248.806 50.4524 248.137 49.0816 247.147 47.9473C246.156 46.813 244.767 45.9212 243.259 45.918C241.927 45.9152 240.698 46.5902 239.553 47.2692C236.064 49.3373 232.707 51.6196 229.502 54.103C227.824 55.4027 226.157 56.7758 224.189 57.5727C223.361 57.9082 222.487 58.1375 221.693 58.5458C220.3 59.2608 219.244 60.4706 218.106 61.5444C214.049 65.3747 208.495 67.8563 202.914 68.0547Z" fill="#3F3D56"/>
<path d="M223.448 40.7937C223.403 41.9645 223.153 43.1184 222.711 44.2037C222.487 44.7451 222.153 45.2345 221.731 45.6415C221.309 46.0485 220.807 46.3643 220.258 46.5693C219.477 46.778 218.658 46.8045 217.866 46.6467C217.175 46.5747 216.508 46.3483 215.917 45.9842C214.996 45.3524 214.537 44.2251 214.37 43.1218C214.202 42.0198 214.277 40.8938 214.17 39.7839C214.066 38.8873 213.895 37.9998 213.659 37.1285C213.587 36.8386 213.513 36.5501 213.441 36.2616C213.37 35.9731 213.3 35.6846 213.236 35.3961C213.177 35.1249 213.122 34.8524 213.075 34.5786C213.037 34.3475 213.002 34.1151 212.976 33.8814C212.953 33.1884 212.837 32.5016 212.632 31.8391C212.44 31.4094 212.199 31.0029 211.915 30.6276C211.793 30.4539 211.675 30.2803 211.567 30.1C211.253 29.6314 211.108 29.0708 211.153 28.5091C211.166 28.4223 211.187 28.3369 211.216 28.254C211.227 28.222 211.239 28.1899 211.252 28.1592C211.373 28.1266 211.484 28.0651 211.575 27.9801C211.666 27.8952 211.735 27.7893 211.776 27.6716C211.822 27.4189 211.8 27.1586 211.713 26.917C211.613 26.5793 211.476 26.2537 211.305 25.9459C211.192 25.7429 210.811 25.3769 210.808 25.1445C210.803 24.677 211.718 24.3003 212.089 24.116C213.221 23.5504 214.483 23.2951 215.746 23.376C216.555 23.4307 217.433 23.6792 217.88 24.3564C218.282 24.9668 218.228 25.7575 218.4 26.4668C218.418 26.5699 218.462 26.6668 218.527 26.7486C218.614 26.8281 218.724 26.8785 218.841 26.8929C219.04 26.9323 219.243 26.9404 219.444 26.917H219.445C219.498 26.9128 219.551 26.9052 219.603 26.8942C219.916 26.8367 220.211 26.7093 220.468 26.5216C220.634 26.4775 220.801 26.4414 220.97 26.4134C220.976 26.4127 220.983 26.4113 220.99 26.4094C221.66 28.5211 221.747 30.7852 222.296 32.9357C222.568 34.0056 222.957 35.0621 223.012 36.1627C223.016 36.2108 223.017 36.2602 223.019 36.3097C223.027 36.6636 222.999 37.0203 223.013 37.3729C223.019 37.5317 223.036 37.6898 223.067 37.8457C223.127 38.0965 223.202 38.3436 223.29 38.5857L223.294 38.5977C223.32 38.6752 223.344 38.754 223.364 38.8328C223.379 38.8903 223.392 38.9464 223.403 39.0038L223.404 39.0078C223.503 39.598 223.518 40.1993 223.448 40.7937Z" fill="#FBBEBE"/>
<path d="M214.055 26.9821C218.417 26.9821 221.952 23.4538 221.952 19.1014C221.952 14.749 218.417 11.2207 214.055 11.2207C209.694 11.2207 206.158 14.749 206.158 19.1014C206.158 23.4538 209.694 26.9821 214.055 26.9821Z" fill="#FBBEBE"/>
<path d="M264.19 62.0397C263.962 59.8896 263.196 57.8313 261.963 56.0531C262.168 57.2685 262.373 58.4836 262.579 59.6982C262.323 59.772 262.052 59.7698 261.797 59.6917C261.543 59.6137 261.317 59.4632 261.147 59.2588C260.814 58.8444 260.56 58.3733 260.396 57.8683C259.499 55.6457 258.326 53.5442 256.904 51.6132C251.877 51.1951 246.907 49.1154 242.486 46.6911C238.064 44.2681 233.926 41.3629 229.562 38.8371C228.806 38.3808 228.018 37.979 227.204 37.6349C225.839 37.0886 224.306 36.8054 223.012 36.163C222.925 36.1202 222.838 36.0748 222.752 36.0281C222.46 35.8694 222.183 35.6838 221.925 35.4737C221.786 35.3608 221.653 35.2395 221.529 35.1104C220.883 34.3607 220.371 33.5059 220.015 32.5833C219.321 31.0499 219.073 29.1999 218.38 27.6665C218.698 27.3693 219.056 27.1172 219.444 26.9172H219.445C219.501 26.8878 219.557 26.8597 219.615 26.833C219.889 26.7041 220.175 26.5999 220.468 26.5218C220.634 26.4777 220.801 26.4417 220.97 26.4136C220.976 26.4129 220.983 26.4116 220.99 26.4096C221.772 26.2824 222.573 26.3457 223.325 26.5939C224.425 26.9653 225.353 27.7066 226.278 28.4078C227.78 29.4642 229.221 30.605 230.594 31.8246C231.357 32.5538 232.053 33.3553 232.874 34.0178C233.555 34.5429 234.274 35.0183 235.024 35.4403C239.464 38.0797 243.904 40.7186 248.345 43.3571C249.848 44.2507 251.352 45.1443 252.822 46.09C255.054 47.5272 257.206 49.0846 259.357 50.6407C260.625 51.557 261.892 52.4738 263.158 53.391C263.574 53.6555 263.939 53.9921 264.236 54.3847C264.498 54.8306 264.661 55.3276 264.714 55.842C265.032 57.9202 264.852 60.0439 264.19 62.0397Z" fill="#FBBEBE"/>
<path d="M225.406 46.7189C224.874 49.1032 222.459 50.5444 221.197 52.6388C219.628 55.2381 220.268 58.2594 220.857 61.2367C219.781 62.1624 218.704 63.088 217.627 64.0137C217.033 64.5226 216.439 65.0342 215.799 65.4843C214.866 66.1081 213.891 66.6669 212.881 67.1566C211.928 67.6455 210.975 68.1348 210.022 68.6246C209.137 69.1217 208.198 69.5186 207.224 69.808C205.346 70.2889 203.352 69.9523 201.494 69.3953C201.275 69.3379 201.064 69.2522 200.867 69.1401C200.752 69.0712 200.651 68.9799 200.57 68.8717C200.387 68.544 200.321 68.164 200.382 67.7938C200.57 64.6735 201.335 61.6188 202.096 58.5867C202.503 56.7677 203.05 54.9827 203.733 53.2479C204.403 51.7613 205.172 50.3217 206.037 48.9389C206.991 47.199 208.121 45.5613 209.409 44.0515C210.037 43.4704 210.565 42.7909 210.973 42.0399C211.448 40.958 211.265 39.7171 211.361 38.539C211.435 37.6539 211.67 36.7897 212.056 35.9891V35.9878C212.262 35.5566 212.51 35.1468 212.797 34.7643C212.927 35.0662 213.057 35.3676 213.186 35.6686C213.272 35.8663 213.357 36.0635 213.441 36.2603C213.551 36.5141 213.659 36.767 213.767 37.019C214.079 37.743 214.391 38.4665 214.702 39.1895C215.038 40.1002 215.517 40.9519 216.12 41.7127C216.396 42.1023 216.769 42.4137 217.202 42.6167C217.634 42.8197 218.112 42.9072 218.589 42.8707C219.066 42.8342 219.525 42.675 219.921 42.4086C220.318 42.1422 220.638 41.7777 220.852 41.3507C221.302 40.5536 221.627 39.693 221.818 38.7982C222.082 37.7086 222.119 36.5765 221.925 35.4722C221.603 33.3458 220.696 31.1739 220.038 29.1984C219.77 28.5397 219.615 27.8408 219.579 27.1307C219.58 27.0509 219.588 26.9714 219.603 26.893C219.607 26.8729 219.611 26.8516 219.615 26.8315C219.889 26.7026 220.175 26.5984 220.468 26.5203C220.634 26.4762 220.801 26.4402 220.969 26.4121C221.549 29.543 222.13 32.6739 222.711 35.8048C222.724 35.8783 222.739 35.9518 222.752 36.0266C222.835 36.4754 222.92 36.9242 223.013 37.3716C223.098 37.7777 223.189 38.1824 223.29 38.5844L223.294 38.5965C223.329 38.7327 223.365 38.8676 223.403 39.0025L223.404 39.0065C223.507 39.3752 223.622 39.7412 223.752 40.1018C224.539 42.275 225.911 44.4629 225.406 46.7189Z" fill="#1A75FF"/>
<path d="M257.455 80.2268C257.43 80.6861 257.519 81.1445 257.714 81.5611C258.208 82.4625 259.394 82.6674 260.42 82.7517C266.415 83.2435 272.445 83.0601 278.398 82.2051C278.721 82.1831 279.035 82.086 279.314 81.9217C280.16 81.3295 279.638 79.8862 278.714 79.4242C277.79 78.9622 276.693 79.0735 275.679 78.8734C274.672 78.6203 273.712 78.2051 272.838 77.644C270.782 76.4649 268.755 75.2356 266.759 73.956C265.57 73.1942 264.167 72.3812 262.829 72.8329C259.202 74.0571 257.431 76.3231 257.455 80.2268Z" fill="#3F3D56"/>
<path d="M213.267 35.2276V35.229C213.258 35.2851 213.248 35.3398 213.236 35.3946C213.221 35.4854 213.204 35.5776 213.187 35.6684C213.021 36.5166 212.817 37.3607 212.583 38.1996C211.941 40.517 211.08 42.7971 210.226 45.0438C207.935 51.0678 205.643 57.0923 203.35 63.1173C202.772 64.6346 202.195 66.1533 201.538 67.64C201.319 68.1355 201.092 68.6351 200.868 69.14C200.062 70.9472 199.288 72.8132 199.031 74.7366C198.792 76.0025 198.764 77.2992 198.95 78.5741C199.207 79.835 199.974 81.0665 201.174 81.5327C201.76 81.7611 202.6 82.067 202.439 82.6747C202.352 83.0087 201.972 83.1716 201.631 83.2277C201.18 83.2994 200.719 83.2712 200.28 83.1452C199.842 83.0192 199.436 82.7984 199.093 82.4984C198.452 81.9308 197.959 81.0479 197.107 80.953C196.516 80.8889 195.973 81.2415 195.432 81.4886C193.226 82.4944 190.657 81.7905 188.34 81.0759C188.522 80.1396 189.464 79.5225 190.4 79.3355C191.335 79.1471 192.303 79.2807 193.257 79.2553C193.563 79.2716 193.866 79.1937 194.126 79.0323C194.359 78.8189 194.522 78.5406 194.594 78.2335C195.209 76.4158 195.666 74.5487 195.961 72.6529C196.269 70.6721 196.397 68.6605 196.836 66.7037C197.178 65.1769 197.705 63.6983 198.157 62.1996C199.032 59.114 199.75 55.9862 200.31 52.8283C200.592 51.5163 200.795 50.1884 200.916 48.8519C200.992 47.7432 200.956 46.6292 201.063 45.5246C201.243 44.0875 201.543 42.668 201.961 41.2811C202.371 39.7677 202.78 38.2552 203.188 36.7437C203.795 34.5063 204.445 32.1822 205.982 30.4431C206.515 29.8309 207.169 29.3345 207.903 28.9848C208.637 28.6351 209.435 28.4395 210.247 28.4102C210.552 28.4098 210.856 28.4425 211.154 28.5077C211.203 28.5197 211.253 28.5317 211.302 28.5451C211.626 28.6297 211.938 28.7582 212.227 28.9271C212.701 28.6265 212.942 28.7321 213.256 29.1956C213.532 29.6861 213.662 30.2448 213.631 30.8064C213.658 32.2886 213.536 33.7697 213.267 35.2276Z" fill="#FBBEBE"/>
<path d="M213.787 37.0002L213.767 37.0202L213.659 37.1284L212.583 38.201L212.056 35.9904L210.247 28.4115C210.552 28.4112 210.856 28.4438 211.153 28.509C211.166 28.4222 211.187 28.3368 211.216 28.2539L211.302 28.5464L211.915 30.6275L213.075 34.5785L213.267 35.229V35.2303L213.787 37.0002Z" fill="#1A75FF"/>
<path d="M220.616 12.8203C220.615 13.5221 220.476 14.2168 220.206 14.8647C219.936 15.5127 219.54 16.1011 219.042 16.5965C218.862 16.7768 218.668 16.9437 218.464 17.0958C217.54 17.7907 216.415 18.1668 215.258 18.1673H208.837C207.418 18.1651 206.058 17.6011 205.056 16.5991C204.053 15.597 203.49 14.2389 203.49 12.8229C203.49 11.4069 204.053 10.0488 205.056 9.04677C206.058 8.04474 207.418 7.4807 208.837 7.47852H215.258C216.677 7.4822 218.037 8.04602 219.041 9.04685C220.045 10.0477 220.611 11.4042 220.616 12.8203Z" fill="#2F2E41"/>
<path d="M226.637 13.2224C229.667 13.2224 232.124 10.7705 232.124 7.74595C232.124 4.72141 229.667 2.26953 226.637 2.26953C223.606 2.26953 221.149 4.72141 221.149 7.74595C221.149 10.7705 223.606 13.2224 226.637 13.2224Z" fill="#2F2E41"/>
<path opacity="0.1" d="M226.503 2.27148C226.435 2.27148 226.369 2.27415 226.302 2.27655C227.722 2.32805 229.066 2.92704 230.052 3.94749C231.038 4.96794 231.589 6.33029 231.589 7.7479C231.589 9.16551 231.038 10.5279 230.052 11.5483C229.066 12.5688 227.722 13.1677 226.302 13.2192C226.369 13.2216 226.435 13.2243 226.503 13.2243C227.958 13.2243 229.354 12.6473 230.383 11.6203C231.412 10.5933 231.99 9.20034 231.99 7.7479C231.99 6.29547 231.412 4.90252 230.383 3.87549C229.354 2.84846 227.958 2.27148 226.503 2.27148Z" fill="black"/>
<path opacity="0.1" d="M200.403 2.27148C200.47 2.27148 200.537 2.27415 200.604 2.27655C199.184 2.32805 197.84 2.92704 196.854 3.94749C195.868 4.96794 195.317 6.33029 195.317 7.7479C195.317 9.16551 195.868 10.5279 196.854 11.5483C197.84 12.5688 199.184 13.1677 200.604 13.2192C200.537 13.2216 200.47 13.2243 200.403 13.2243C198.949 13.223 197.554 12.6455 196.526 11.6186C195.498 10.5917 194.92 9.1995 194.92 7.7479C194.92 6.2963 195.498 4.90408 196.526 3.87719C197.554 2.85031 198.949 2.27276 200.403 2.27148Z" fill="black"/>
<path opacity="0.1" d="M218.464 17.0957C217.54 17.7906 216.415 18.1666 215.258 18.1672H208.837C207.68 18.1666 206.555 17.7906 205.632 17.0957H218.464Z" fill="black"/>
<path d="M259.929 56.7771C259.929 56.7771 261.313 60.7552 262.579 59.696L261.57 54.4961L259.929 56.7771Z" fill="#FBBEBE"/>
<path d="M428.276 178.095C429.565 178.562 430.945 178.725 432.307 178.569C433.669 178.414 434.976 177.945 436.126 177.199C437.275 176.453 438.236 175.451 438.931 174.272C439.626 173.093 440.037 171.769 440.132 170.404C440.227 169.039 440.003 167.67 439.478 166.407C438.953 165.143 438.141 164.018 437.105 163.121C436.07 162.224 434.84 161.579 433.513 161.237C432.185 160.895 430.796 160.866 429.455 161.151L429.677 165.698L427.521 161.801C425.405 162.794 423.771 164.583 422.977 166.778C422.695 167.546 422.523 168.351 422.467 169.167C422.331 171.083 422.825 172.991 423.873 174.602C424.921 176.213 426.467 177.439 428.276 178.095Z" fill="#57B894"/>
<path d="M438.943 230.835C438.182 226.968 441.48 223.539 444.737 221.311C447.994 219.082 451.8 216.893 452.911 213.111C454.509 207.676 449.751 202.698 446.048 198.406C443.301 195.221 440.941 191.721 439.019 187.982C438.249 186.482 437.541 184.915 437.338 183.242C437.046 180.833 437.822 178.435 438.603 176.137C441.206 168.482 443.989 160.89 446.952 153.363" stroke="#3F3D56" stroke-miterlimit="10"/>
<path d="M428.641 176.923C429.93 177.39 431.309 177.553 432.671 177.397C434.034 177.242 435.341 176.773 436.49 176.027C437.64 175.281 438.6 174.28 439.296 173.1C439.991 171.921 440.402 170.597 440.497 169.232C440.592 167.867 440.368 166.499 439.843 165.235C439.317 163.971 438.505 162.846 437.47 161.949C436.435 161.052 435.205 160.407 433.877 160.065C432.55 159.723 431.161 159.694 429.82 159.979L430.042 164.527L427.886 160.63C425.77 161.622 424.136 163.411 423.341 165.606C423.059 166.374 422.888 167.179 422.832 167.995C422.696 169.911 423.19 171.819 424.238 173.43C425.286 175.041 426.832 176.267 428.641 176.923V176.923Z" stroke="#3F3D56" stroke-miterlimit="10"/>
<path d="M437.861 151.792C438.367 150.4 439.216 149.157 440.329 148.178C441.443 147.199 442.785 146.515 444.233 146.19L444.962 150.513L446.313 145.973C448.19 146 450.008 146.623 451.507 147.749C453.006 148.876 454.108 150.449 454.652 152.241C455.197 154.033 455.157 155.951 454.538 157.719C453.919 159.487 452.753 161.013 451.209 162.076C449.664 163.14 447.821 163.686 445.945 163.636C444.069 163.586 442.258 162.942 440.773 161.798C439.287 160.653 438.205 159.067 437.682 157.269C437.158 155.47 437.221 153.553 437.861 151.792H437.861Z" fill="#57B894"/>
<path d="M438.347 150.232C438.853 148.839 439.702 147.596 440.815 146.617C441.929 145.638 443.271 144.955 444.719 144.629L445.448 148.952L446.799 144.412C448.676 144.44 450.495 145.062 451.993 146.189C453.492 147.315 454.594 148.888 455.138 150.68C455.683 152.472 455.643 154.391 455.024 156.159C454.405 157.926 453.239 159.452 451.695 160.516C450.15 161.579 448.307 162.125 446.431 162.075C444.555 162.025 442.744 161.381 441.259 160.237C439.773 159.093 438.691 157.507 438.168 155.708C437.644 153.91 437.707 151.992 438.347 150.232H438.347Z" stroke="#3F3D56" stroke-miterlimit="10"/>
<path d="M444.494 198.494C446.537 199.234 448.782 199.197 450.8 198.391C452.819 197.586 454.469 196.067 455.437 194.125C456.406 192.182 456.624 189.952 456.051 187.86C455.477 185.767 454.152 183.959 452.329 182.778L451.29 186.267L450.554 181.893C450.547 181.89 450.539 181.887 450.531 181.885C449.438 181.488 448.278 181.311 447.116 181.362C445.954 181.414 444.814 181.693 443.76 182.184C442.707 182.675 441.761 183.369 440.976 184.225C440.191 185.082 439.583 186.084 439.186 187.175C438.79 188.266 438.612 189.424 438.664 190.584C438.717 191.743 438.997 192.881 439.49 193.932C439.983 194.983 440.679 195.927 441.537 196.71C442.396 197.493 443.4 198.099 444.494 198.494H444.494Z" fill="#57B894"/>
<path d="M444.915 196.912C446.959 197.652 449.204 197.615 451.222 196.809C453.24 196.004 454.891 194.485 455.859 192.543C456.827 190.6 457.045 188.37 456.472 186.278C455.899 184.185 454.574 182.377 452.75 181.196L451.712 184.685L450.975 180.311C450.968 180.308 450.96 180.305 450.953 180.303C449.86 179.906 448.699 179.729 447.537 179.78C446.376 179.831 445.235 180.111 444.182 180.602C443.128 181.093 442.182 181.787 441.397 182.643C440.612 183.5 440.004 184.502 439.608 185.593C439.211 186.684 439.034 187.842 439.086 189.002C439.138 190.161 439.418 191.299 439.911 192.35C440.404 193.401 441.1 194.345 441.959 195.128C442.817 195.911 443.822 196.517 444.915 196.912H444.915Z" stroke="#3F3D56" stroke-miterlimit="10"/>
<path d="M435.278 213.165C435.629 215.16 436.657 216.974 438.19 218.303C439.722 219.631 441.666 220.393 443.694 220.462C445.723 220.53 447.714 219.9 449.332 218.677C450.951 217.454 452.099 215.714 452.584 213.747C453.069 211.78 452.862 209.706 451.996 207.873C451.131 206.041 449.661 204.561 447.832 203.682C446.003 202.802 443.927 202.577 441.952 203.045C439.977 203.512 438.223 204.642 436.984 206.247L440.928 212.171L435.539 209.027C435.121 210.365 435.031 211.785 435.278 213.165Z" fill="#57B894"/>
<path d="M435.642 211.993C435.994 213.988 437.022 215.802 438.554 217.131C440.087 218.459 442.03 219.222 444.059 219.29C446.088 219.358 448.078 218.728 449.697 217.505C451.315 216.283 452.463 214.542 452.948 212.575C453.433 210.608 453.226 208.534 452.361 206.701C451.496 204.869 450.025 203.389 448.197 202.51C446.368 201.631 444.292 201.406 442.317 201.873C440.341 202.34 438.587 203.47 437.348 205.075L441.292 210.999L435.903 207.855C435.485 209.194 435.396 210.613 435.642 211.993V211.993Z" stroke="#3F3D56" stroke-miterlimit="10"/>
<path d="M3.83132 199.615C4.6779 199.922 5.5844 200.029 6.47936 199.927C7.37433 199.825 8.23329 199.517 8.98855 199.027C9.7438 198.537 10.3747 197.879 10.8315 197.104C11.2884 196.329 11.5586 195.459 11.621 194.562C11.6834 193.665 11.5363 192.766 11.1911 191.936C10.846 191.106 10.3123 190.367 9.63213 189.777C8.95197 189.188 8.14393 188.764 7.2717 188.54C6.39947 188.315 5.48689 188.296 4.60589 188.483L4.75148 191.471L3.33509 188.91C1.94499 189.562 0.871085 190.738 0.349361 192.18C0.164074 192.685 0.051434 193.213 0.0148001 193.75C-0.0746026 195.009 0.249608 196.262 0.938301 197.321C1.62699 198.379 2.64263 199.185 3.83132 199.615Z" fill="#57B894"/>
<path d="M10.8396 234.268C10.3396 231.727 12.5062 229.474 14.6462 228.01C16.7862 226.546 19.2868 225.107 20.0169 222.623C21.0663 219.052 17.9405 215.781 15.5076 212.961C13.7025 210.868 12.1525 208.569 10.8898 206.112C10.3408 205.147 9.96688 204.093 9.78524 202.998C9.59341 201.415 10.103 199.84 10.6164 198.33C12.3265 193.3 14.155 188.313 16.1018 183.367" stroke="#3F3D56" stroke-miterlimit="10"/>
<path d="M4.07082 198.846C4.91741 199.153 5.82391 199.26 6.71887 199.157C7.61383 199.055 8.47279 198.747 9.22805 198.257C9.9833 197.767 10.6142 197.109 11.071 196.334C11.5279 195.559 11.7981 194.689 11.8605 193.793C11.9229 192.896 11.7758 191.997 11.4306 191.166C11.0855 190.336 10.5518 189.597 9.87162 189.008C9.19147 188.418 8.38343 187.995 7.5112 187.77C6.63897 187.545 5.72639 187.526 4.8454 187.714L4.99098 190.701L3.5746 188.141C2.1845 188.793 1.11059 189.968 0.588863 191.41C0.403579 191.915 0.29094 192.444 0.254304 192.98C0.164895 194.239 0.489104 195.493 1.1778 196.551C1.86649 197.61 2.88213 198.415 4.07082 198.846V198.846Z" stroke="#3F3D56" stroke-miterlimit="10"/>
<path d="M10.1288 182.335C10.461 181.42 11.0186 180.604 11.7503 179.961C12.4819 179.317 13.3639 178.868 14.3152 178.654L14.7941 181.495L15.682 178.512C16.9147 178.53 18.1098 178.939 19.0946 179.679C20.0794 180.419 20.803 181.453 21.161 182.63C21.5189 183.807 21.4926 185.068 21.0859 186.229C20.6793 187.391 19.9132 188.393 18.8984 189.092C17.8836 189.791 16.6726 190.15 15.4401 190.117C14.2077 190.084 13.0176 189.661 12.0417 188.909C11.0658 188.157 10.3546 187.115 10.0108 185.933C9.66693 184.752 9.70827 183.492 10.1288 182.335Z" fill="#57B894"/>
<path d="M10.4481 181.31C10.7804 180.395 11.338 179.578 12.0696 178.935C12.8012 178.292 13.6833 177.843 14.6345 177.629L15.1134 180.469L16.0013 177.486C17.2341 177.505 18.4291 177.913 19.4139 178.654C20.3988 179.394 21.1224 180.427 21.4803 181.605C21.8382 182.782 21.8119 184.042 21.4053 185.204C20.9986 186.365 20.2326 187.368 19.2178 188.067C18.203 188.765 16.9919 189.124 15.7594 189.091C14.527 189.058 13.3369 188.635 12.361 187.884C11.3851 187.132 10.6739 186.09 10.3301 184.908C9.98627 183.727 10.0276 182.466 10.4481 181.31V181.31Z" stroke="#3F3D56" stroke-miterlimit="10"/>
<path d="M14.4866 213.018C15.8292 213.504 17.304 213.48 18.63 212.95C19.9561 212.421 21.0405 211.423 21.6767 210.147C22.3128 208.871 22.4562 207.406 22.0795 206.031C21.7028 204.656 20.8324 203.468 19.6341 202.692L18.9519 204.985L18.4681 202.111C18.4633 202.109 18.4584 202.107 18.4533 202.105C17.7351 201.845 16.9726 201.728 16.2092 201.762C15.4458 201.795 14.6965 201.979 14.0041 202.301C13.3118 202.624 12.69 203.08 12.1742 203.643C11.6585 204.205 11.2589 204.864 10.9983 205.581C10.7377 206.298 10.6212 207.059 10.6555 207.821C10.6898 208.582 10.8742 209.33 11.1982 210.021C11.5221 210.711 11.9793 211.332 12.5435 211.846C13.1078 212.36 13.768 212.758 14.4866 213.018Z" fill="#57B894"/>
<path d="M14.7633 211.979C16.1059 212.465 17.5808 212.441 18.9068 211.912C20.2328 211.382 21.3173 210.384 21.9534 209.108C22.5896 207.832 22.733 206.367 22.3563 204.992C21.9796 203.618 21.1091 202.429 19.9109 201.654L19.2286 203.946L18.7448 201.072C18.7401 201.07 18.7351 201.068 18.73 201.067C18.0121 200.807 17.2498 200.69 16.4868 200.725C15.7238 200.759 14.975 200.942 14.2831 201.265C12.8858 201.917 11.8053 203.097 11.2793 204.544C10.7533 205.991 10.8248 207.587 11.4782 208.981C12.1316 210.376 13.3133 211.454 14.7633 211.979V211.979Z" stroke="#3F3D56" stroke-miterlimit="10"/>
<path d="M8.43139 222.657C8.66224 223.968 9.33773 225.16 10.3446 226.033C11.3514 226.906 12.6284 227.406 13.9613 227.451C15.2942 227.496 16.602 227.082 17.6654 226.279C18.7288 225.475 19.4831 224.332 19.8018 223.039C20.1205 221.747 19.9842 220.384 19.4158 219.18C18.8474 217.976 17.8814 217.004 16.6799 216.426C15.4783 215.849 14.1143 215.701 12.8166 216.008C11.5188 216.315 10.3663 217.058 9.55221 218.112L12.1436 222.004L8.60278 219.938C8.32824 220.818 8.26946 221.75 8.43139 222.657Z" fill="#57B894"/>
<path d="M8.6709 221.888C8.90174 223.199 9.57723 224.39 10.5841 225.263C11.5909 226.136 12.8679 226.637 14.2008 226.682C15.5337 226.726 16.8415 226.312 17.9049 225.509C18.9683 224.706 19.7226 223.562 20.0413 222.27C20.36 220.977 20.2237 219.615 19.6553 218.411C19.0869 217.207 18.1209 216.234 16.9194 215.657C15.7178 215.079 14.3538 214.931 13.0561 215.238C11.7583 215.545 10.6058 216.288 9.79171 217.342L12.3831 221.235L8.84228 219.169C8.56774 220.048 8.50896 220.981 8.6709 221.888V221.888Z" stroke="#3F3D56" stroke-miterlimit="10"/>
<path d="M204.574 144.801C208.567 144.801 211.805 140.619 211.805 135.462C211.805 130.304 208.567 126.123 204.574 126.123C200.58 126.123 197.343 130.304 197.343 135.462C197.343 140.619 200.58 144.801 204.574 144.801Z" fill="#2F2E41"/>
<path d="M243.919 145.012C247.913 145.012 251.15 140.83 251.15 135.673C251.15 130.515 247.913 126.334 243.919 126.334C239.925 126.334 236.688 130.515 236.688 135.673C236.688 140.83 239.925 145.012 243.919 145.012Z" fill="#2F2E41"/>
<path d="M238.389 163.266C238.389 167.485 232.486 170.907 225.203 170.907C217.921 170.907 212.017 167.485 212.017 163.266C212.017 159.611 216.445 156.555 222.362 155.808C223.304 155.684 224.253 155.623 225.203 155.625C226.795 155.62 228.383 155.791 229.938 156.135C234.88 157.234 238.389 160.014 238.389 163.266Z" fill="#2F2E41"/>
<path d="M206.275 142.678C210.269 142.678 213.506 138.496 213.506 133.339C213.506 128.181 210.269 124 206.275 124C202.281 124 199.044 128.181 199.044 133.339C199.044 138.496 202.281 142.678 206.275 142.678Z" stroke="#3F3D56" stroke-miterlimit="10"/>
<path d="M245.62 142.89C249.614 142.89 252.852 138.709 252.852 133.552C252.852 128.394 249.614 124.213 245.62 124.213C241.627 124.213 238.389 128.394 238.389 133.552C238.389 138.709 241.627 142.89 245.62 142.89Z" stroke="#3F3D56" stroke-miterlimit="10"/>
<path d="M226.905 168.784C234.187 168.784 240.091 165.363 240.091 161.143C240.091 156.923 234.187 153.502 226.905 153.502C219.622 153.502 213.719 156.923 213.719 161.143C213.719 165.363 219.622 168.784 226.905 168.784Z" stroke="#3F3D56" stroke-miterlimit="10"/>
<path d="M230.095 156.771C230.099 157.304 229.898 157.819 229.534 158.21C229.362 158.398 229.153 158.548 228.92 158.65C228.687 158.753 228.436 158.807 228.181 158.808H223.927C223.403 158.79 222.908 158.565 222.549 158.184C222.19 157.802 221.998 157.294 222.013 156.771C222.011 156.357 222.133 155.952 222.362 155.607C223.303 155.475 224.253 155.41 225.203 155.412C226.797 155.407 228.387 155.589 229.938 155.956C230.043 156.214 230.096 156.491 230.095 156.771Z" fill="white"/>
<path d="M206.275 132.915C207.45 132.915 208.402 131.965 208.402 130.792C208.402 129.62 207.45 128.67 206.275 128.67C205.101 128.67 204.148 129.62 204.148 130.792C204.148 131.965 205.101 132.915 206.275 132.915Z" fill="white"/>
<path d="M245.833 132.915C247.008 132.915 247.96 131.965 247.96 130.792C247.96 129.62 247.008 128.67 245.833 128.67C244.659 128.67 243.707 129.62 243.707 130.792C243.707 131.965 244.659 132.915 245.833 132.915Z" fill="white"/>
<path opacity="0.3" d="M247.96 152.866C249.135 152.866 250.087 151.916 250.087 150.744C250.087 149.571 249.135 148.621 247.96 148.621C246.785 148.621 245.833 149.571 245.833 150.744C245.833 151.916 246.785 152.866 247.96 152.866Z" fill="#1A75FF"/>
<path opacity="0.3" d="M196.066 152.866C197.241 152.866 198.193 151.916 198.193 150.744C198.193 149.571 197.241 148.621 196.066 148.621C194.892 148.621 193.94 149.571 193.94 150.744C193.94 151.916 194.892 152.866 196.066 152.866Z" fill="#1A75FF"/>
</g>
<defs>
<clipPath id="clip0">
<rect width="457" height="248" fill="white"/>
</clipPath>
</defs>
</svg>
