<svg width="438" height="354" viewBox="0 0 438 354" fill="none" xmlns="http://www.w3.org/2000/svg">
<g clip-path="url(#clip0)">
<path opacity="0.1" d="M225.31 354.004C334.627 354.004 423.247 274.758 423.247 177.002C423.247 79.2466 334.627 0 225.31 0C115.992 0 27.373 79.2466 27.373 177.002C27.373 274.758 115.992 354.004 225.31 354.004Z" fill="#1A75FF"/>
<path opacity="0.1" d="M72.983 278.878C113.29 278.878 145.966 273.804 145.966 267.544C145.966 261.284 113.29 256.209 72.983 256.209C32.6756 256.209 0 261.284 0 267.544C0 273.804 32.6756 278.878 72.983 278.878Z" fill="#1A75FF"/>
<path opacity="0.1" d="M108.061 332.878C123.739 332.878 136.448 330.248 136.448 327.003C136.448 323.758 123.739 321.127 108.061 321.127C92.3836 321.127 79.6743 323.758 79.6743 327.003C79.6743 330.248 92.3836 332.878 108.061 332.878Z" fill="#1A75FF"/>
<path opacity="0.1" d="M302.031 310.273C317.709 310.273 330.418 307.642 330.418 304.397C330.418 301.152 317.709 298.521 302.031 298.521C286.353 298.521 273.644 301.152 273.644 304.397C273.644 307.642 286.353 310.273 302.031 310.273Z" fill="#1A75FF"/>
<path opacity="0.1" d="M205.706 305.341C231.201 305.341 251.868 301.833 251.868 297.506C251.868 293.178 231.201 289.67 205.706 289.67C180.212 289.67 159.544 293.178 159.544 297.506C159.544 301.833 180.212 305.341 205.706 305.341Z" fill="#1A75FF"/>
<path opacity="0.1" d="M341.722 273.828C394.897 273.828 438.004 267.063 438.004 258.718C438.004 250.372 394.897 243.607 341.722 243.607C288.547 243.607 245.439 250.372 245.439 258.718C245.439 267.063 288.547 273.828 341.722 273.828Z" fill="#1A75FF"/>
<path d="M19.9559 232.345C17.7931 236.56 16.783 241.275 17.0282 246.009C17.2734 250.742 18.7652 255.327 21.3519 259.295C22.2006 260.571 22.9813 261.489 23.6051 261.732C26.5965 262.909 32.5879 265.805 32.5879 265.805L47.0148 260.124C47.0148 260.124 49.3571 247.71 51.572 237.051C53.0826 229.781 54.5422 223.331 55.1405 222.2C56.6341 219.416 55.1405 189.097 55.1405 189.097C55.1405 189.097 40.7137 188.128 36.7463 199.272L35.0108 202.673L19.9559 232.345Z" fill="#A8A8A8"/>
<path opacity="0.1" d="M39.1094 235.695C47.8801 245.767 51.5801 237.055 51.5801 237.055C53.0907 229.785 54.5504 223.335 55.1487 222.204C56.6423 219.419 55.1487 189.101 55.1487 189.101C55.1487 189.101 40.7218 188.132 36.7544 199.275L35.0189 202.677C33.9072 211.592 32.8082 228.446 39.1094 235.695Z" fill="white"/>
<path d="M41.0361 263.769L91.9545 257.876L101.039 197.98L94.1695 182.423C91.2672 175.798 87.2481 169.723 82.2885 164.464C78.8303 160.812 74.6508 157.301 70.2548 155.536C69.6541 155.294 69.0408 155.083 68.4175 154.907C67.701 154.689 66.9433 154.643 66.206 154.774C65.4686 154.905 64.7725 155.208 64.1743 155.659C57.8944 160.119 55.6497 179.081 54.9241 188.21C54.6256 191.961 54.1199 195.692 53.4093 199.387L41.0361 263.769Z" fill="#A8A8A8"/>
<path opacity="0.1" d="M74.9347 197.334L64.3267 223.481C69.8852 219.408 78.1213 197.228 78.1213 197.228L85.5002 222.516L79.6191 195.863C80.4801 190.075 80.7304 184.212 80.3659 178.372C79.8992 171.68 73.632 160.94 70.2289 155.532C69.6282 155.29 69.0149 155.08 68.3916 154.903C67.6752 154.685 66.9174 154.639 66.1801 154.77C65.4428 154.901 64.7467 155.204 64.1484 155.656C66.8217 161.034 73.5047 174.482 75.5414 178.478C78.1255 183.512 74.9347 197.334 74.9347 197.334Z" fill="white"/>
<path d="M83.5952 265.805H111.223C112.359 265.805 113.484 265.574 114.528 265.125C115.573 264.676 116.515 264.019 117.298 263.194C118.081 262.368 118.689 261.392 119.083 260.325C119.478 259.257 119.652 258.12 119.595 256.982C118.984 245.112 117.435 223.948 113.752 210.513C111.762 203.264 109.449 199.458 107.327 197.583C106.333 196.621 105.048 196.016 103.674 195.862C102.632 195.771 101.589 196.025 100.704 196.584C95.5738 201.512 89.5824 227.442 89.5824 227.442L83.5952 265.805Z" fill="#A8A8A8"/>
<path opacity="0.1" d="M109.101 242.808C110.238 245.967 110.688 249.611 109.101 253.161L102.944 256.209C102.944 256.209 86.3956 249.181 88.4068 234.777C88.4068 234.777 88.95 231.801 94.6486 232.03C97.8534 232.185 100.94 233.293 103.514 235.213C106.087 237.132 108.033 239.776 109.101 242.808Z" fill="white"/>
<path opacity="0.1" d="M102.524 204.945C102.333 199.894 105.07 198.142 107.331 197.585C106.337 196.623 105.052 196.018 103.678 195.863C102.104 197.183 100.988 198.97 100.491 200.965L94.7207 229.149C94.7207 229.149 102.846 213.41 102.524 204.945Z" fill="white"/>
<path d="M76.3269 227.23L90.007 245.98L92.3789 261.456L83.587 265.805L70.9126 268.611C69.6919 268.883 68.4368 268.965 67.1913 268.853L32.605 265.805L37.3107 254.874L53.5621 232.014L76.3269 227.23Z" fill="#A8A8A8"/>
<path opacity="0.1" d="M71.0311 220.793C71.0311 220.793 80.3662 221.435 76.8613 237.506C73.3564 253.577 37.2935 254.865 37.2935 254.865C37.2935 254.865 44.9567 241.26 56.7443 231.511C58.0682 230.418 59.3454 229.279 60.5632 228.063C63.2746 225.346 68.4597 220.571 71.0311 220.793Z" fill="white"/>
<path opacity="0.1" d="M79.4287 232.91C79.4287 232.91 92.0777 244.445 90.8853 262.195L79.4287 232.91Z" fill="black"/>
<path opacity="0.1" d="M100.708 196.584C100.708 196.584 87.4357 214.271 85.9463 241.485L100.708 196.584Z" fill="black"/>
<path opacity="0.1" d="M55.1532 189.09C55.1532 189.09 61.5774 218.32 45.5381 240.351L55.1532 189.09Z" fill="black"/>
<path d="M172.16 297.344H241.383C242.052 297.341 242.709 297.164 243.29 296.83C243.87 296.497 244.355 296.019 244.697 295.443C245.038 294.866 245.225 294.211 245.24 293.541C245.254 292.87 245.095 292.208 244.778 291.617L210.183 227.214C209.851 226.597 209.359 226.081 208.758 225.721C208.158 225.362 207.471 225.172 206.771 225.172C206.072 225.172 205.385 225.362 204.784 225.721C204.184 226.081 203.691 226.597 203.36 227.214L168.748 291.617C168.43 292.209 168.271 292.873 168.286 293.545C168.301 294.217 168.49 294.873 168.833 295.45C169.177 296.027 169.664 296.505 170.247 296.837C170.83 297.169 171.489 297.344 172.16 297.344ZM211.176 285.576H202.367V276.754H211.176V285.576ZM211.176 270.87H202.367V253.221H211.176V270.87Z" fill="#464353"/>
<path opacity="0.1" d="M172.16 297.344H241.383C242.052 297.341 242.709 297.164 243.29 296.83C243.87 296.497 244.355 296.019 244.697 295.443C245.038 294.866 245.225 294.211 245.24 293.541C245.254 292.87 245.095 292.208 244.778 291.617L210.183 227.214C209.851 226.597 209.359 226.081 208.758 225.721C208.158 225.362 207.471 225.172 206.771 225.172C206.072 225.172 205.385 225.362 204.784 225.721C204.184 226.081 203.691 226.597 203.36 227.214L168.748 291.617C168.43 292.209 168.271 292.873 168.286 293.545C168.301 294.217 168.49 294.873 168.833 295.45C169.177 296.027 169.664 296.505 170.247 296.837C170.83 297.169 171.489 297.344 172.16 297.344ZM211.176 285.576H202.367V276.754H211.176V285.576ZM211.176 270.87H202.367V253.221H211.176V270.87Z" fill="black"/>
<path d="M172.16 299.469H241.383C242.052 299.466 242.709 299.289 243.29 298.955C243.87 298.622 244.355 298.144 244.697 297.568C245.038 296.991 245.225 296.336 245.24 295.666C245.254 294.995 245.095 294.333 244.778 293.742L210.183 229.339C209.851 228.722 209.359 228.206 208.758 227.846C208.158 227.487 207.471 227.297 206.771 227.297C206.072 227.297 205.385 227.487 204.784 227.846C204.184 228.206 203.691 228.722 203.36 229.339L168.748 293.742C168.43 294.334 168.271 294.998 168.286 295.67C168.301 296.342 168.49 296.998 168.833 297.575C169.177 298.152 169.664 298.63 170.247 298.962C170.83 299.294 171.489 299.469 172.16 299.469ZM211.176 287.701H202.367V278.879H211.176V287.701ZM211.176 272.995H202.367V255.346H211.176V272.995Z" fill="#464353"/>
<path d="M99.21 100.645C99.1634 101.534 99.6047 102.346 99.8635 103.196C100.292 104.838 100.249 106.568 99.7404 108.187C99.2652 109.888 98.4675 111.686 99.0742 113.349C99.2143 113.74 99.4264 114.097 99.5537 114.488C100.08 116.104 99.104 117.804 98.0347 119.127L102.231 122.073C102.844 122.582 103.573 122.931 104.353 123.089C105.138 123.183 106.05 122.762 106.211 121.988C106.266 121.724 106.211 121.448 106.262 121.18C106.314 120.834 106.448 120.505 106.652 120.221C106.856 119.937 107.126 119.706 107.438 119.548C108.068 119.238 108.771 119.107 109.47 119.169C112.046 119.309 114.235 121.006 116.577 122.094C118.122 122.764 119.722 123.296 121.36 123.684C122.289 123.927 123.32 124.148 124.16 123.684C125 123.221 125.386 122.145 125.323 121.172C125.192 120.203 124.891 119.266 124.432 118.404C123.969 117.543 123.69 116.594 123.613 115.619C123.613 114.191 124.393 112.89 124.657 111.487C125.026 109.493 124.275 107.465 123.358 105.653C122.442 103.842 121.33 102.099 120.884 100.126C120.796 99.5283 120.641 98.9422 120.422 98.3789C120.209 97.9512 119.922 97.5652 119.573 97.2395C117.999 95.6792 115.754 94.9394 113.556 94.7778C111.358 94.6163 109.139 94.9776 106.958 95.356C106.126 95.475 105.306 95.67 104.51 95.9385C103.371 96.3918 102.29 96.9784 101.289 97.6859C100.296 98.3747 99.2737 99.3823 99.21 100.645Z" fill="#464353"/>
<g opacity="0.1">
<path opacity="0.1" d="M123.6 114.745C123.6 114.873 123.6 115 123.626 115.123C123.757 113.878 124.411 112.709 124.644 111.463C124.734 110.964 124.761 110.455 124.725 109.949C124.725 110.17 124.682 110.374 124.644 110.612C124.377 112.015 123.583 113.316 123.6 114.745Z" fill="black"/>
<path opacity="0.1" d="M100.148 104.895C100.198 104.035 100.102 103.173 99.8639 102.345C99.6128 101.699 99.4072 101.037 99.2486 100.363C99.2486 100.453 99.2147 100.538 99.2105 100.627C99.1638 101.515 99.6051 102.328 99.8639 103.178C100.028 103.737 100.123 104.313 100.148 104.895Z" fill="black"/>
<path opacity="0.1" d="M125.285 120.937C125.255 121.317 125.137 121.684 124.939 122.01C124.742 122.336 124.471 122.61 124.148 122.812C123.299 123.275 122.277 123.054 121.347 122.812C119.709 122.424 118.109 121.89 116.565 121.217C114.223 120.133 112.034 118.437 109.458 118.296C108.759 118.234 108.056 118.365 107.425 118.675C107.114 118.833 106.844 119.064 106.64 119.348C106.435 119.632 106.302 119.961 106.25 120.307C106.22 120.575 106.25 120.852 106.199 121.115C106.034 121.889 105.126 122.31 104.341 122.216C103.561 122.058 102.832 121.709 102.219 121.2L98.4468 118.547C98.3068 118.738 98.1667 118.926 98.0225 119.1L102.219 122.05C102.832 122.559 103.561 122.908 104.341 123.067C105.126 123.16 106.038 122.739 106.199 121.965C106.254 121.702 106.199 121.425 106.25 121.158C106.302 120.811 106.435 120.482 106.64 120.198C106.844 119.914 107.114 119.683 107.425 119.525C108.056 119.215 108.759 119.084 109.458 119.147C112.034 119.287 114.223 120.983 116.565 122.067C118.109 122.741 119.709 123.274 121.347 123.662C122.277 123.904 123.308 124.125 124.148 123.662C124.988 123.198 125.374 122.123 125.31 121.149C125.306 121.077 125.294 121.009 125.285 120.937Z" fill="black"/>
<path opacity="0.1" d="M99.554 114.466C99.6063 114.636 99.6446 114.811 99.6685 114.988C99.7343 114.528 99.6951 114.058 99.554 113.615C99.4267 113.224 99.2145 112.867 99.0745 112.476C98.9724 112.192 98.9068 111.896 98.8793 111.596C98.8166 112.18 98.8833 112.771 99.0745 113.326C99.2145 113.717 99.4267 114.079 99.554 114.466Z" fill="black"/>
</g>
<path d="M104.535 275.793C104.506 275.914 104.438 276.021 104.34 276.099C104.237 276.152 104.121 276.177 104.005 276.171C102.495 276.205 100.984 276.171 99.4776 276.277C98.0519 276.401 96.6219 276.702 95.2005 276.541C94.7457 276.557 94.2972 276.431 93.9171 276.18C93.537 275.93 93.244 275.567 93.0789 275.142C92.9892 274.957 92.9099 274.766 92.8413 274.572C92.4496 273.57 92.2523 272.502 92.2599 271.426C92.2599 271.141 92.2599 270.865 92.2599 270.576C92.2414 270.264 92.2002 269.955 92.1369 269.649C92.0082 269.299 92.0235 268.912 92.1793 268.573C92.7818 267.472 94.2373 267.251 95.3575 267.166C97.9527 266.97 100.562 267.162 103.101 267.736C103.301 268.714 103.526 269.683 103.763 270.652C103.939 271.364 104.125 272.072 104.323 272.778C104.456 273.215 104.564 273.66 104.646 274.109C104.751 274.671 104.713 275.25 104.535 275.793Z" fill="#464353"/>
<path opacity="0.06" d="M104.536 275.792C104.506 275.914 104.438 276.021 104.34 276.099C104.237 276.152 104.121 276.177 104.005 276.171C102.495 276.205 100.984 276.171 99.4777 276.277C98.052 276.4 96.622 276.702 95.2005 276.541C94.7458 276.557 94.2973 276.431 93.9172 276.18C93.537 275.93 93.2441 275.567 93.0789 275.142C92.9892 274.957 92.9099 274.766 92.8413 274.572H93.3844C95.1708 274.572 96.9615 274.509 98.7478 274.509C99.2867 274.509 99.8299 274.483 100.365 274.419C100.899 274.355 101.336 274.266 101.824 274.207C102.555 274.136 103.288 274.107 104.022 274.117H104.625C104.735 274.674 104.704 275.25 104.536 275.792Z" fill="black"/>
<path d="M135.786 267.896C135.313 268.45 134.709 268.875 134.03 269.134C131.009 270.409 127.516 269.835 124.398 268.798C123.7 268.538 122.984 268.332 122.255 268.181C121.59 268.088 120.919 268.041 120.248 268.041C119.768 268.041 119.289 268.003 118.809 267.973C117.596 267.896 116.386 267.777 115.181 267.658C114.341 267.597 113.507 267.47 112.686 267.28C112.453 267.22 112.229 267.128 112.02 267.008C111.842 266.929 111.69 266.802 111.582 266.64C111.474 266.478 111.414 266.289 111.409 266.094C111.443 265.554 112.003 265.243 112.495 265.01C116.862 263.118 121.606 262.297 126.316 261.638C126.795 261.558 127.261 261.415 127.703 261.213C128.233 261 128.289 261.349 128.552 261.74C128.676 261.921 128.818 262.089 128.976 262.242C129.488 262.705 130.088 263.058 130.741 263.279C131.887 263.704 133.113 263.819 134.259 264.223C134.605 264.344 134.937 264.503 135.247 264.699C135.521 264.849 135.758 265.059 135.938 265.314C136.118 265.569 136.238 265.862 136.288 266.171C136.338 266.479 136.317 266.795 136.226 267.094C136.136 267.393 135.978 267.668 135.765 267.896H135.786Z" fill="#464353"/>
<path opacity="0.06" d="M135.787 267.896C135.314 268.45 134.71 268.875 134.03 269.134C131.009 270.409 127.517 269.835 124.398 268.798C123.7 268.538 122.984 268.332 122.255 268.181C121.59 268.088 120.919 268.041 120.248 268.041C119.769 268.041 119.289 268.003 118.81 267.973C119.2 267.603 119.599 267.242 120.006 266.893C120.301 266.616 120.641 266.392 121.012 266.23C121.473 266.078 121.964 266.045 122.442 266.132C124.869 266.468 127.05 268.173 129.498 268.024C130.639 267.892 131.742 267.535 132.744 266.974C133.559 266.641 134.286 266.123 134.866 265.46C135.041 265.232 135.175 264.974 135.26 264.699C135.534 264.849 135.771 265.059 135.951 265.314C136.131 265.569 136.251 265.862 136.301 266.171C136.351 266.479 136.33 266.795 136.239 267.094C136.149 267.393 135.991 267.668 135.778 267.896H135.787Z" fill="black"/>
<path d="M134.934 194.009C134.51 194.859 133.966 195.781 133.05 196.045C131.718 196.428 130.436 195.229 129.855 193.97C129.062 192.123 128.913 190.063 129.43 188.12C129.672 187.138 130.041 186.194 130.249 185.208C130.399 184.378 130.49 183.538 130.521 182.695C130.646 181.438 130.616 180.17 130.432 178.92C129.749 175.268 126.613 172.542 125.569 168.954C125.043 167.164 125.068 165.259 125.098 163.393C125.088 162.921 125.137 162.45 125.242 161.99C125.274 161.864 125.317 161.742 125.37 161.624C126.07 160.068 128.145 159.856 129.587 158.95C130.385 158.452 132.197 156.85 132.867 158.312C133.012 158.638 133.12 158.979 133.19 159.328C133.466 160.629 133.355 162.156 133.423 163.384C133.682 168.027 134.836 172.661 134.302 177.279C134.174 178.066 134.112 178.862 134.115 179.659C134.229 181.658 135.477 183.388 136.05 185.301C136.932 188.18 136.224 191.313 134.934 194.009Z" fill="#FBBEBE"/>
<path opacity="0.1" d="M133.211 159.338C132.896 159.223 132.55 159.223 132.235 159.338L129.363 160.188C128.356 160.457 127.375 160.814 126.431 161.255C126.018 161.458 125.627 161.701 125.264 161.982C125.295 161.857 125.338 161.734 125.391 161.616C126.091 160.06 128.166 159.848 129.609 158.942C130.406 158.445 132.218 156.842 132.889 158.304C133.035 158.635 133.143 158.982 133.211 159.338Z" fill="black"/>
<path d="M133.398 159.014C133.225 158.909 133.029 158.846 132.828 158.829C132.626 158.813 132.423 158.844 132.235 158.921L129.362 159.771C128.356 160.04 127.375 160.397 126.43 160.838C125.929 161.082 125.46 161.388 125.034 161.748C123.694 159.414 123.337 156.646 123.091 153.968C122.955 152.407 122.853 150.843 122.794 149.291C122.727 148.174 122.75 147.054 122.862 145.941C123.023 144.665 123.392 143.419 123.621 142.152C123.758 141.411 123.846 140.661 123.884 139.908C123.995 138.262 123.919 136.609 123.66 134.98C123.413 133.249 123.018 131.542 122.48 129.878C122.208 129.117 121.882 128.382 121.585 127.633L121.483 127.37C120.946 125.998 120.508 124.59 120.172 123.156C120.036 122.57 120.027 121.953 119.578 121.553C120 121.503 120.426 121.485 120.851 121.502C120.935 121.502 121.02 121.502 121.105 121.502C122.848 121.612 124.528 122.201 125.959 123.203C127.803 124.536 129.205 126.394 129.982 128.535C130.877 130.928 131.026 133.53 131.14 136.085C131.369 141.108 131.511 146.133 131.565 151.162C131.565 152.127 131.607 153.156 132.159 153.951C132.314 154.147 132.455 154.352 132.583 154.567C132.782 154.992 132.753 155.464 132.914 155.894C133.032 156.151 133.167 156.401 133.317 156.642C133.507 157.006 133.613 157.408 133.627 157.819C133.641 158.229 133.563 158.638 133.398 159.014Z" fill="#464353"/>
<path d="M105.155 109.109C104.731 108.968 104.307 108.82 103.882 108.684L104.765 108.752C104.912 108.851 105.044 108.971 105.155 109.109Z" fill="#FBBEBE"/>
<path d="M122.531 124.453C122.446 124.742 122.361 125.031 122.267 125.303C122.052 126.002 121.79 126.685 121.482 127.348C121.002 128.438 120.321 129.427 119.475 130.265C119.196 130.559 118.854 130.786 118.474 130.928C118.153 131.01 117.821 131.042 117.49 131.021C116.358 131.021 115.227 131.004 114.095 130.97C113.214 130.98 112.335 130.893 111.473 130.711C110.524 130.452 109.622 130.044 108.8 129.504C105.63 127.539 103.025 124.546 101.909 121C101.769 120.55 101.671 120.01 101.981 119.657C102.286 119.408 102.67 119.276 103.063 119.287H103.114C104.026 119.168 104.905 118.866 105.698 118.398C106.211 118.135 106.626 117.711 106.877 117.191C107.049 116.574 107.036 115.921 106.839 115.312L105.897 111.026C105.799 110.34 105.542 109.686 105.146 109.117C105.422 109.215 105.698 109.304 105.995 109.381C108.617 110.091 111.486 109.661 114.057 110.592C115.041 110.954 116.026 111.604 116.323 112.616C116.819 114.317 115.16 116.081 115.635 117.782C115.954 118.938 117.129 119.606 118.181 120.146L118.89 120.507L120.855 121.506L121.126 121.642L121.169 121.664C121.788 121.978 122.441 122.369 122.658 123.037C122.75 123.511 122.706 124.002 122.531 124.453Z" fill="#FBBEBE"/>
<path opacity="0.1" d="M127.707 134.436C127.635 135.523 127.371 136.588 126.927 137.582C126.075 139.301 125.618 141.19 125.59 143.109C125.263 148.849 123.086 155.681 126.205 160.502C126.282 160.621 126.358 160.74 126.43 160.864C125.929 161.108 125.46 161.413 125.034 161.773C123.693 159.439 123.337 156.671 123.091 153.993C122.955 152.433 122.853 150.868 122.794 149.316C122.727 148.199 122.75 147.079 122.862 145.966C123.023 144.691 123.392 143.445 123.621 142.178C123.758 141.436 123.845 140.686 123.884 139.933C123.994 138.287 123.919 136.634 123.659 135.005C123.413 133.274 123.018 131.567 122.48 129.903C122.208 129.142 121.881 128.407 121.584 127.659L121.482 127.395C121.002 128.485 120.321 129.474 119.475 130.312C119.196 130.606 118.854 130.833 118.474 130.975C118.153 131.057 117.821 131.089 117.49 131.068C116.358 131.068 115.227 131.051 114.095 131.017C113.214 131.027 112.335 130.94 111.473 130.758C110.524 130.499 109.622 130.091 108.8 129.551C105.63 127.586 103.025 124.593 101.909 121.047C101.769 120.597 101.671 120.057 101.981 119.704C102.286 119.455 102.67 119.323 103.063 119.334H103.114L106.933 124.066C107.371 124.567 107.741 125.123 108.036 125.72C108.093 125.92 108.212 126.097 108.375 126.226C108.508 126.287 108.654 126.313 108.8 126.302C112.385 126.302 117.163 126.302 120.748 126.302C120.76 125.666 120.576 125.041 120.222 124.512C120.112 124.538 119.963 124.546 120.193 124.478C119.985 123.098 119.54 121.765 118.877 120.537C118.838 120.453 118.794 120.371 118.746 120.291C118.461 119.87 118.248 119.404 118.118 118.913C118.57 118.769 119.057 118.769 119.509 118.913C120.031 119.138 120.303 119.704 120.532 120.227C120.727 120.652 120.922 121.107 121.096 121.553C121.096 121.6 121.139 121.651 121.156 121.698C121.526 122.578 121.763 123.508 121.86 124.457C121.886 124.806 121.97 125.248 122.259 125.363C122.304 125.384 122.353 125.395 122.403 125.397C122.702 125.287 123.027 125.269 123.336 125.345C123.645 125.421 123.924 125.587 124.139 125.822C124.556 126.301 124.848 126.877 124.987 127.497C125.125 128.117 125.327 128.721 125.59 129.3C126.137 130.346 125.301 130.813 126.29 131.455C126.752 131.71 127.15 132.068 127.453 132.501C127.732 133.105 127.821 133.78 127.707 134.436Z" fill="black"/>
<path opacity="0.1" d="M103.063 267.751C103.263 268.729 103.488 269.699 103.725 270.668L103.7 270.728C101.761 269.877 99.7747 268.989 97.6574 268.802C95.6928 268.631 93.5585 269.163 92.2218 270.591C92.2033 270.28 92.1621 269.97 92.0988 269.665C91.9701 269.315 91.9854 268.928 92.1412 268.589C92.7438 267.488 94.1992 267.267 95.3194 267.182C97.9146 266.986 100.524 267.178 103.063 267.751Z" fill="black"/>
<path opacity="0.1" d="M119.777 125.291C119.976 125.291 119.904 125.291 119.806 125.325C119.709 125.359 119.548 125.359 119.777 125.291Z" fill="black"/>
<path opacity="0.1" d="M128.997 262.242C127.105 263.45 125.327 264.829 123.685 266.362C123.208 266.873 122.639 267.29 122.009 267.59C121.357 267.8 120.669 267.871 119.989 267.799C117.32 267.69 114.659 267.426 112.02 267.008C111.842 266.929 111.69 266.802 111.582 266.64C111.474 266.478 111.414 266.289 111.409 266.094C111.443 265.554 112.003 265.243 112.495 265.01C116.862 263.118 121.606 262.297 126.316 261.638C126.795 261.558 127.261 261.415 127.703 261.213C128.233 261 128.289 261.349 128.552 261.74C128.683 261.922 128.832 262.09 128.997 262.242Z" fill="black"/>
<path d="M97.865 120.359C98.4888 120.916 99.2016 121.366 99.8339 121.906C101.531 123.348 102.6 125.363 103.653 127.327C103.029 127.553 102.354 127.599 101.705 127.459C101.371 129.345 101.428 131.28 101.871 133.143C101.022 133.727 100.362 134.547 99.9739 135.503C99.6722 136.473 99.4648 137.469 99.3544 138.479C98.7434 142.903 98.1295 147.328 97.5129 151.752C97.5005 152.186 97.352 152.604 97.0885 152.947C96.9708 153.042 96.8627 153.149 96.766 153.266C96.6362 153.552 96.5849 153.868 96.6175 154.18C96.5921 154.49 96.3884 154.86 96.0787 154.818C95.9281 154.782 95.7947 154.695 95.701 154.571C95.3912 154.242 95.1074 153.89 94.8524 153.517C92.3489 158.33 91.1438 163.517 89.8199 168.78C88.8737 172.53 87.9275 176.322 87.8808 180.191C87.8936 182.022 88.0083 183.85 88.2245 185.667L88.5979 189.4C88.8992 192.402 89.2004 195.408 89.5272 198.409C89.7393 200.314 89.9515 202.236 90.6346 204.03C91.653 206.755 90.5243 209.829 90.9571 212.712C91.2966 214.969 91.9712 217.303 91.2923 219.48C91.0208 220.352 90.5455 221.147 90.1891 221.989C89.315 224.08 89.2259 226.406 89.1495 228.672C89.0121 230.659 89.0861 232.654 89.3702 234.624C89.7351 236.661 90.554 238.655 90.3928 240.713C90.1679 243.642 88.0123 246.146 87.7493 249.071C87.5413 251.405 88.564 253.659 89.6629 255.729C90.4734 257.256 89.3447 259.228 88.9161 260.908C88.0675 264.198 89.4805 267.642 91.2117 270.563C91.2559 270.663 91.334 270.745 91.4323 270.793C91.6318 270.865 91.81 270.669 91.9415 270.504C93.2442 268.828 95.5525 268.195 97.6699 268.378C99.7872 268.561 101.769 269.436 103.712 270.304L106.466 264.16C106.933 263.119 107.408 261.992 107.175 260.874C107.009 260.074 106.496 259.398 106.131 258.667C105.282 256.941 105.24 254.93 105.231 252.996L105.18 242.069C107.327 239.365 108.639 236.151 109.466 232.792C110.735 237.516 110.823 242.481 109.721 247.247C109.517 247.968 109.375 248.705 109.296 249.45C109.131 252.481 111.503 255.045 112.135 258.012C112.196 258.239 112.213 258.476 112.186 258.71C112.115 258.997 111.996 259.27 111.834 259.517C110.696 261.584 110.82 264.088 110.985 266.443C113.961 266.962 116.967 267.285 119.985 267.408C120.665 267.477 121.352 267.406 122.005 267.2C122.635 266.898 123.204 266.48 123.681 265.967C125.607 264.151 127.723 262.548 129.99 261.184C128.724 259.079 126.952 257.325 124.835 256.082C125.518 255.075 127.075 255.155 127.983 254.348C128.439 253.896 128.737 253.308 128.832 252.672C129.171 251.006 128.751 249.271 128.331 247.634C127.517 244.412 126.698 241.176 125.361 238.132C124.756 236.881 124.224 235.596 123.766 234.284C122.654 230.619 123.43 226.631 122.59 222.886C122.319 221.687 121.882 220.45 122.187 219.255C122.654 217.414 124.733 216.321 125.191 214.476C126.833 207.907 127.126 201.101 128.06 194.396C128.268 193.115 128.38 191.82 128.395 190.523C128.395 189.166 128.153 187.823 128.055 186.471C127.674 181.059 129.4 175.659 128.959 170.251C128.677 166.918 127.581 163.706 125.768 160.898C122.65 156.072 124.826 149.244 125.153 143.504C125.178 141.585 125.633 139.696 126.485 137.977C126.934 136.984 127.2 135.919 127.27 134.831C127.401 134.161 127.318 133.466 127.033 132.846C126.734 132.411 126.337 132.052 125.874 131.8C124.886 131.154 125.722 130.686 125.174 129.64C124.911 129.062 124.709 128.458 124.572 127.837C124.433 127.218 124.141 126.643 123.723 126.166C123.508 125.931 123.229 125.765 122.92 125.689C122.611 125.614 122.286 125.632 121.988 125.741C121.585 125.741 121.474 125.206 121.44 124.802C121.326 123.322 120.715 121.932 120.116 120.571C119.887 120.048 119.616 119.483 119.094 119.258C118.639 119.115 118.152 119.115 117.698 119.258C117.829 119.751 118.043 120.218 118.33 120.639C119.065 121.932 119.555 123.351 119.773 124.823C119.348 124.95 120.197 124.823 119.773 124.823C120.153 125.353 120.348 125.994 120.329 126.647C116.747 126.647 111.969 126.647 108.384 126.647C108.238 126.658 108.092 126.632 107.96 126.57C107.796 126.441 107.676 126.264 107.616 126.064C107.324 125.467 106.953 124.912 106.513 124.415L102.312 119.224C102.219 119.088 102.095 118.976 101.951 118.896C101.778 118.847 101.594 118.847 101.421 118.896C100.059 119.096 99.0531 119.666 97.865 120.359Z" fill="#1A75FF"/>
<path opacity="0.1" d="M112.941 190.696C113.666 190.686 114.379 190.871 115.008 191.231C115.32 191.415 115.578 191.677 115.758 191.992C115.939 192.307 116.034 192.663 116.035 193.026C115.988 193.829 115.373 194.467 114.927 195.151C114.651 195.569 114.432 196.02 114.274 196.495C114.225 196.603 114.213 196.724 114.24 196.839C114.291 197.001 114.465 197.082 114.613 197.154C115.153 197.398 115.614 197.789 115.945 198.282C116.275 198.774 116.462 199.35 116.484 199.943C116.446 201.601 114.829 202.945 114.919 204.62C114.959 204.968 115.019 205.315 115.097 205.657C115.291 207.085 115.093 208.538 114.524 209.862C114.011 211.197 113.31 212.451 112.759 213.773C111.269 217.366 110.947 221.345 111.062 225.253C111.151 227.906 110.213 230.431 109.364 232.956C109.844 227.87 109.971 222.755 109.746 217.651C109.687 216.265 109.513 214.955 109.576 213.565C109.678 211.358 110.909 209.352 111.223 207.188C111.401 205.95 111.282 204.692 111.312 203.442C111.371 200.891 112.063 198.374 112.11 195.815C112.169 194.008 112.004 192.145 112.941 190.696Z" fill="black"/>
<path d="M95.2344 121.268C94.3908 121.689 93.6015 122.212 92.8837 122.824C92.1337 123.57 91.5064 124.431 91.0252 125.375C90.4392 126.444 89.9136 127.546 89.451 128.674C88.8527 130.136 88.3562 131.756 88.7678 133.283C89.1412 134.664 90.1978 135.74 90.9276 136.969C91.6574 138.197 92.086 139.639 92.6461 140.987C93.3929 142.785 94.4155 144.46 95.1538 146.263C95.8921 148.065 96.3377 150.089 95.8709 151.964C95.7351 152.517 94.8398 152.946 94.8398 153.512C94.8398 154.447 96.1892 155.463 97.0845 155.735C98.1156 156.054 99.24 155.578 100.084 154.885C101.633 153.656 102.575 151.815 103.271 149.962C104.391 146.986 104.99 143.827 105.528 140.689C105.919 138.385 106.284 136.076 106.492 133.755C106.683 131.663 106.742 129.503 106.19 127.496C105.676 125.654 104.674 123.986 103.292 122.666C102.189 121.604 100.381 120.175 98.7775 120.137C97.5088 120.132 96.3207 120.668 95.2344 121.268Z" fill="#464353"/>
<path d="M107.298 172.522C107.252 172.813 107.144 173.09 106.98 173.334C106.817 173.579 106.602 173.785 106.352 173.938C105.851 174.243 105.305 174.467 104.735 174.601C103.598 174.933 102.393 175.239 101.243 174.945C100.339 174.651 99.5049 174.175 98.7904 173.547L85.942 163.691C84.9099 162.958 83.9608 162.114 83.1118 161.175C82.6244 160.568 82.1765 159.93 81.7709 159.266C81.234 158.505 80.8135 157.668 80.5234 156.783C80.4199 156.393 80.3685 155.991 80.3707 155.588C80.3673 155.207 80.4607 154.831 80.6423 154.495C80.952 153.977 81.6139 153.87 82.1571 153.726C83.98 153.254 85.8722 153.11 87.7454 153.301C87.9099 153.293 88.0726 153.339 88.2088 153.431C88.345 153.524 88.4475 153.659 88.5007 153.815C88.785 154.338 89.0311 154.882 89.2857 155.426C89.6764 156.354 90.1856 157.227 90.8005 158.024C91.3929 158.669 92.0234 159.278 92.6887 159.848C94.0465 161.124 95.1582 162.654 96.6052 163.828C98.2812 165.184 100.318 165.996 102.227 166.995C104.137 167.994 106.021 169.291 106.98 171.225C107.202 171.62 107.312 172.069 107.298 172.522Z" fill="#FBBEBE"/>
<path opacity="0.1" d="M122.17 103.763C122.171 106.448 121.148 109.031 119.31 110.984C117.473 112.938 114.961 114.115 112.287 114.274C109.612 114.433 106.978 113.562 104.923 111.84C102.869 110.118 101.548 107.674 101.231 105.009C100.915 102.343 101.627 99.6574 103.221 97.5003C104.815 95.3432 107.172 93.8778 109.809 93.4038C112.445 92.9297 115.163 93.4829 117.407 94.9502C119.65 96.4174 121.249 98.688 121.877 101.297C122.072 102.105 122.17 102.933 122.17 103.763Z" fill="black"/>
<path d="M122.17 103.339C122.171 106.024 121.148 108.607 119.31 110.56C117.473 112.514 114.961 113.691 112.287 113.85C109.612 114.009 106.978 113.138 104.923 111.416C102.869 109.694 101.548 107.25 101.231 104.585C100.915 101.92 101.627 99.2336 103.221 97.0765C104.815 94.9193 107.172 93.4539 109.809 92.9799C112.445 92.5059 115.163 93.0591 117.407 94.5264C119.65 95.9936 121.249 98.2641 121.877 100.874C122.072 101.681 122.17 102.509 122.17 103.339Z" fill="#FBBEBE"/>
<path opacity="0.1" d="M89.2857 155.409C88.8019 155.72 88.0848 155.618 87.4865 155.482C85.1273 154.954 82.522 154.576 80.3707 155.588C80.3673 155.207 80.4607 154.831 80.6423 154.495C80.952 153.977 81.6139 153.87 82.1571 153.726C83.98 153.254 85.8722 153.11 87.7454 153.301C87.9099 153.293 88.0726 153.339 88.2088 153.431C88.345 153.524 88.4475 153.659 88.5007 153.815C88.785 154.321 89.0311 154.865 89.2857 155.409Z" fill="black"/>
<path d="M84.851 141.094C84.3291 142.795 83.9005 144.542 82.8779 145.983C82.5398 146.362 82.2853 146.808 82.1311 147.293C82.1195 147.65 82.061 148.005 81.9571 148.347C81.8129 148.636 81.5073 148.828 81.3843 149.125C81.2018 149.55 81.4395 150.099 81.1976 150.498C81.0844 150.659 80.9486 150.802 80.7945 150.924C80.2174 151.459 80.0731 152.314 80.0604 153.105C80.0477 153.895 80.1241 154.703 79.8652 155.447C82.1056 154.108 84.9571 154.508 87.503 155.077C88.2116 155.235 89.09 155.354 89.5482 154.784C90.0065 154.214 89.7434 153.466 89.807 152.781C89.8919 151.889 90.5029 151.149 90.8806 150.337C91.3049 149.423 91.4492 148.402 91.7759 147.45C92.4506 145.447 93.8975 143.815 94.8267 141.923C95.1707 141.272 95.3759 140.557 95.4293 139.823C95.3972 138.871 95.1491 137.939 94.7037 137.097C93.8206 135.138 92.7701 133.259 91.5637 131.481C91.0248 130.686 90.0956 129.215 89.2597 130.486C88.5808 131.511 88.1564 132.816 87.6557 133.938C86.5767 136.264 85.6401 138.654 84.851 141.094Z" fill="#464353"/>
<path d="M123.138 124.589C121.864 124.677 120.586 124.479 119.398 124.009C118.211 123.539 117.143 122.809 116.272 121.873C116.126 121.739 116.02 121.567 115.967 121.375C115.943 121.127 116.012 120.878 116.162 120.678C116.671 119.891 117.55 119.373 117.957 118.527C118.364 117.681 118.224 116.707 118.262 115.78C118.33 114.118 118.984 112.472 119.039 110.836C119.059 110.417 119.027 109.997 118.946 109.586C118.75 108.975 118.631 108.342 118.589 107.702C118.644 106.456 119.764 105.487 119.951 104.258C120.193 102.694 118.899 101.333 117.596 100.432C116.603 99.7416 115.525 99.1829 114.388 98.7695C113.69 98.519 112.968 98.3438 112.233 98.2466C110.862 98.0611 109.468 98.2173 108.172 98.7015C107.636 98.9042 107.128 99.1758 106.661 99.5093C106.384 99.6854 106.152 99.9261 105.987 100.211C105.851 100.531 105.79 100.879 105.809 101.227C105.783 102.966 105.978 104.815 105.151 106.329C104.727 107.141 104.005 107.8 103.653 108.659C103.509 109.016 103.419 109.393 103.386 109.777C103.343 110.175 103.322 110.575 103.322 110.976C103.297 113.216 103.322 115.58 104.459 117.523C104.861 118.111 105.225 118.723 105.55 119.356C105.707 119.676 105.78 120.031 105.762 120.388C105.743 120.744 105.634 121.09 105.444 121.392C105.214 121.668 104.923 121.886 104.595 122.03C103.753 122.435 102.836 122.661 101.902 122.695C100.968 122.729 100.037 122.569 99.168 122.226C100.185 121.26 100.883 120.007 101.17 118.633C101.456 117.26 101.317 115.831 100.772 114.539C100.465 114.017 100.266 113.438 100.186 112.838C100.229 112.297 100.373 111.769 100.611 111.282C101.192 109.684 101.282 107.949 100.869 106.299C100.611 105.287 100.161 104.309 100.08 103.268C100.013 102.481 100.047 101.69 100.182 100.912C100.415 99.5213 101.026 98.2218 101.95 97.1571C102.873 96.0925 104.072 95.3042 105.414 94.8793C105.63 94.8071 105.838 94.739 106.076 94.6795C107.105 94.4505 108.157 94.3379 109.212 94.3436C111.567 94.2671 113.956 94.1991 116.226 94.8156C117.558 95.1652 118.798 95.8038 119.858 96.6863C120.61 97.3198 121.21 98.1146 121.614 99.0119C121.835 99.5288 122.002 100.067 122.111 100.619C122.209 101.074 122.281 101.533 122.353 101.992C122.866 105.262 123.38 108.595 122.832 111.86C122.616 113.136 122.238 114.411 122.069 115.712C121.657 118.709 122.399 121.69 123.138 124.589Z" fill="#464353"/>
<path d="M108.062 128.789C108.498 128.789 108.851 128.435 108.851 127.998C108.851 127.561 108.498 127.207 108.062 127.207C107.626 127.207 107.272 127.561 107.272 127.998C107.272 128.435 107.626 128.789 108.062 128.789Z" fill="white"/>
<path d="M121.381 128.416C121.817 128.416 122.17 128.062 122.17 127.625C122.17 127.188 121.817 126.834 121.381 126.834C120.945 126.834 120.592 127.188 120.592 127.625C120.592 128.062 120.945 128.416 121.381 128.416Z" fill="white"/>
<path opacity="0.1" d="M108.062 88.0331L106.364 84.8231C106.472 84.6948 106.59 84.5753 106.716 84.466C106.962 84.3147 107.249 84.2461 107.535 84.2704L108.062 88.0331Z" fill="black"/>
<path opacity="0.1" d="M112.742 84.1232L110.82 86.9718L109.725 83.8468C110.192 83.6458 110.698 83.55 111.206 83.5662C111.745 83.6649 112.265 83.8531 112.742 84.1232Z" fill="black"/>
<g opacity="0.1">
<path opacity="0.1" d="M105.444 120.548C105.214 120.824 104.923 121.042 104.595 121.186C103.09 121.908 101.374 122.051 99.7705 121.59C99.5841 121.817 99.3828 122.032 99.168 122.232C100.037 122.575 100.968 122.735 101.902 122.702C102.836 122.668 103.753 122.442 104.595 122.037C104.923 121.893 105.214 121.674 105.444 121.399C105.59 121.187 105.689 120.946 105.736 120.692C105.783 120.439 105.776 120.178 105.715 119.928C105.673 120.153 105.58 120.365 105.444 120.548Z" fill="black"/>
<path opacity="0.1" d="M100.84 106.311C100.978 106.868 101.059 107.438 101.082 108.011C101.131 107.154 101.049 106.293 100.84 105.46C100.581 104.448 100.131 103.471 100.051 102.429C100.051 102.297 100.051 102.165 100.029 102.029C100.009 102.446 100.016 102.864 100.051 103.279C100.131 104.321 100.581 105.299 100.84 106.311Z" fill="black"/>
<path opacity="0.1" d="M122.802 111.872C122.983 110.748 123.059 109.609 123.032 108.471C123.017 109.325 122.94 110.178 122.802 111.022C122.586 112.297 122.208 113.573 122.039 114.874C121.951 115.571 121.918 116.275 121.941 116.978C121.953 116.559 121.985 116.14 122.039 115.724C122.208 114.423 122.586 113.16 122.802 111.872Z" fill="black"/>
<path opacity="0.1" d="M100.755 113.695C100.533 113.276 100.354 112.836 100.221 112.381C100.185 112.534 100.167 112.691 100.17 112.849C100.25 113.449 100.449 114.027 100.755 114.549C101.067 115.262 101.246 116.025 101.286 116.803C101.362 115.739 101.18 114.672 100.755 113.695Z" fill="black"/>
<path opacity="0.1" d="M118.945 109.567C118.983 109.761 119.01 109.956 119.026 110.153C119.026 110.089 119.026 110.03 119.026 109.966C119.046 109.547 119.014 109.128 118.933 108.716C118.839 108.27 118.687 107.828 118.614 107.377C118.593 107.478 118.581 107.58 118.576 107.683C118.622 108.324 118.746 108.956 118.945 109.567Z" fill="black"/>
<path opacity="0.1" d="M116.272 121.004C116.207 120.936 116.146 120.863 116.09 120.787C115.985 120.957 115.942 121.158 115.967 121.357C116.02 121.548 116.126 121.721 116.272 121.854C117.143 122.791 118.211 123.521 119.398 123.991C120.586 124.461 121.864 124.659 123.138 124.571C123.066 124.29 122.993 124.014 122.926 123.721C121.686 123.778 120.45 123.564 119.301 123.095C118.152 122.626 117.119 121.913 116.272 121.004Z" fill="black"/>
<path opacity="0.1" d="M119.943 103.449C119.941 103.433 119.941 103.418 119.943 103.402C120.185 101.837 118.89 100.477 117.588 99.5756C116.594 98.8853 115.516 98.3266 114.38 97.9132C113.682 97.6627 112.959 97.4874 112.224 97.3902C110.854 97.2047 109.459 97.361 108.164 97.8452C107.627 98.0479 107.12 98.3194 106.653 98.653C106.375 98.8291 106.144 99.0697 105.978 99.3545C105.842 99.6751 105.781 100.023 105.8 100.371C105.8 100.664 105.8 100.957 105.8 101.255V101.221C105.781 100.873 105.842 100.525 105.978 100.205C106.144 99.92 106.375 99.6794 106.653 99.5033C107.12 99.1697 107.627 98.8982 108.164 98.6955C109.459 98.2113 110.854 98.0551 112.224 98.2406C112.959 98.3377 113.682 98.513 114.38 98.7635C115.516 99.1769 116.594 99.7356 117.588 100.426C118.67 101.157 119.735 102.212 119.943 103.449Z" fill="black"/>
<path opacity="0.1" d="M105.151 105.485C104.727 106.297 104.005 106.956 103.653 107.815C103.509 108.172 103.419 108.549 103.386 108.933C103.343 109.331 103.322 109.732 103.322 110.132C103.322 110.493 103.322 110.859 103.322 111.225C103.322 111.144 103.322 111.063 103.322 110.982C103.322 110.582 103.343 110.182 103.386 109.783C103.419 109.399 103.509 109.023 103.653 108.665C104.005 107.815 104.71 107.147 105.151 106.335C105.834 105.06 105.822 103.593 105.809 102.135C105.865 103.289 105.639 104.439 105.151 105.485Z" fill="black"/>
</g>
<path opacity="0.1" d="M122.081 100.648C122.023 100.732 121.954 100.807 121.878 100.874C121.728 100.997 121.56 101.097 121.381 101.171C120.146 101.707 120.197 99.9596 119.552 99.3601C119.139 99.0544 118.631 98.9039 118.118 98.9349C116.876 98.8726 115.633 98.8173 114.388 98.7691C112.313 98.6926 110.243 98.6543 108.172 98.7011C107.179 98.7181 106.189 98.7592 105.202 98.8244C104.056 98.9009 102.826 99.0497 101.85 99.5939C101.516 99.7781 101.213 100.015 100.954 100.295C100.721 100.551 100.475 100.874 100.152 100.933C100.385 99.5422 100.997 98.2426 101.92 97.178C102.843 96.1133 104.042 95.3251 105.384 94.9002C107.557 93.2784 110.272 92.561 112.96 92.8977C115.649 93.2344 118.103 94.5993 119.811 96.7071C120.563 97.3406 121.164 98.1354 121.568 99.0327C121.795 99.5517 121.967 100.093 122.081 100.648Z" fill="black"/>
<path d="M121.381 100.32C120.146 100.856 120.197 99.1088 119.552 98.5093C119.138 98.2036 118.631 98.0531 118.118 98.0841C113.818 97.8008 109.506 97.7638 105.202 97.9736C103.67 98.0756 101.989 98.3052 100.958 99.4446C100.695 99.7337 100.419 100.108 100.025 100.095C99.8933 99.2448 99.7999 98.3605 99.7363 97.4889C99.6978 97.1624 99.715 96.8317 99.7872 96.511C99.8933 96.1454 100.135 95.835 100.258 95.4779C100.379 95.0237 100.422 94.5521 100.385 94.0834C100.404 92.3488 100.869 90.6485 101.736 89.1469C102.603 87.6453 103.842 86.3933 105.333 85.5122C105.707 85.3288 106.054 85.0941 106.364 84.8149C106.472 84.6866 106.59 84.5671 106.716 84.4578C106.961 84.3065 107.248 84.2379 107.535 84.2622C107.739 84.2622 107.96 84.2622 108.138 84.2622C108.687 84.2016 109.223 84.0583 109.729 83.8371C110.196 83.636 110.702 83.5402 111.21 83.5565C111.749 83.6551 112.268 83.8433 112.746 84.1134C112.975 84.2242 113.216 84.3111 113.463 84.3728C113.849 84.462 114.248 84.4578 114.634 84.5343C115.26 84.6938 115.854 84.9583 116.391 85.3166C117.032 85.6631 117.625 86.0919 118.156 86.5921C118.733 87.2527 119.195 88.0058 119.522 88.8199C120.084 89.9446 120.512 91.132 120.795 92.3572C121.139 94.1174 120.969 96.0221 121.784 97.6207C122.28 98.6241 122.734 99.738 121.381 100.32Z" fill="#FED253"/>
<path opacity="0.1" d="M99.8721 98.9854C99.8721 98.9854 108.668 90.9669 121.767 97.6164C121.767 97.6164 106.979 94.2449 99.8721 98.9854Z" fill="black"/>
<path d="M4.02656 139.958C2.82997 137.994 1.03086 136.196 1.31091 133.968C4.60363 134.346 7.72662 133.543 10.7435 132.144C13.7605 130.745 16.561 128.93 19.3869 127.148C20.4987 126.447 21.6061 125.758 22.7094 125.12C24.4576 124.117 26.193 122.995 27.9709 122.013C30.5168 120.61 33.1137 119.462 35.9736 119.241C36.4916 119.2 37.0115 119.187 37.5309 119.202C41.0527 119.27 44.7019 120.218 47.7994 118.637L47.9903 118.535C49.747 117.57 51.0242 115.929 52.5306 114.598C53.6135 113.659 54.7926 112.838 56.0482 112.149C58.3353 110.873 60.8133 109.853 63.1513 108.65C63.7498 108.341 64.318 107.977 64.8486 107.561L65.2474 107.243L65.3365 107.166C65.4341 107.085 65.5317 107.004 65.6251 106.919L65.8075 106.758L65.9942 106.588L66.1385 106.452L66.3719 106.231L66.3973 106.201L66.7665 105.835L66.915 105.686L67.1739 105.419L67.3266 105.266C67.5854 104.998 67.8443 104.726 68.1074 104.462C68.3704 104.198 68.7269 103.841 69.0451 103.548L69.3506 103.276L69.4397 103.199L69.6858 102.995L69.8004 102.897L70.0423 102.71L70.1611 102.617C70.2799 102.528 70.4029 102.442 70.526 102.357C70.6392 102.279 70.7584 102.209 70.8824 102.149L70.0889 100.223L72.3718 99.2793L103.856 175.829L101.569 176.773L83.5611 132.982L83.4338 133.109C79.2622 137.234 74.1523 140.28 68.5444 141.987H68.5105C65.3747 142.935 61.8656 143.606 59.2263 145.367C58.2905 145.976 57.4772 146.756 56.8289 147.667C56.2094 148.551 55.7766 149.559 55.1316 150.409C55.0086 150.566 54.8728 150.719 54.737 150.864C53.9654 151.63 53.1115 152.309 52.1911 152.888L51.788 153.164C49.0542 155.091 46.206 156.85 43.2592 158.432C41.5587 159.319 39.7856 160.058 37.9594 160.642C36.6313 161.068 35.2607 161.378 33.9326 161.799C33.0392 162.07 32.1716 162.42 31.34 162.845C29.0911 164.022 27.3642 165.868 25.7305 167.836C24.3006 169.562 22.9427 171.39 21.3728 172.964C20.3883 173.941 18.8905 174.868 17.7024 174.294L17.4605 174.154C17.4987 174.09 17.5284 174.026 17.5624 173.958C18.5001 171.99 17.346 169.558 15.7929 167.981C15.6317 167.815 15.4662 167.653 15.2965 167.5C15.1268 167.347 14.8213 167.075 14.5794 166.863C13.2513 165.719 11.8383 164.656 10.9175 163.181C10.2147 161.941 9.73771 160.587 9.50877 159.18C9.08445 157.177 8.80015 155.115 7.71389 153.411C7.00104 152.284 5.94024 151.323 5.16797 150.243C4.67981 149.604 4.35891 148.853 4.23447 148.058C4.0605 146.676 4.70122 145.324 4.94308 143.946C5.01504 143.571 5.04492 143.189 5.03219 142.807C4.94355 141.787 4.59749 140.807 4.02656 139.958Z" fill="url(#paint0_linear)"/>
<path d="M100.769 176.116L103.017 175.188L72.0572 99.9246L69.8093 100.853L100.769 176.116Z" fill="#D6D8E1"/>
<path d="M8.47364 153.143C9.53869 154.823 9.82298 156.846 10.2346 158.815C10.4629 160.199 10.9325 161.531 11.6221 162.752C12.5301 164.202 13.9177 165.248 15.2203 166.37C15.458 166.578 15.6956 166.795 15.9247 166.999C16.0902 167.148 16.2557 167.31 16.4127 167.467C17.9402 169.019 19.0732 171.412 18.1524 173.347C18.1241 173.413 18.0915 173.477 18.0548 173.538C18.1293 173.589 18.2073 173.634 18.2882 173.674C19.4593 174.244 20.9317 173.334 21.8991 172.369C23.4437 170.821 24.7803 169.027 26.1848 167.331C27.7887 165.392 29.4902 163.577 31.7009 162.42C32.517 162.001 33.3691 161.657 34.2468 161.391C35.5495 160.966 36.8988 160.664 38.2057 160.256C40.0008 159.681 41.7439 158.954 43.4164 158.084C46.3186 156.527 49.1242 154.797 51.8179 152.901L52.2168 152.629C53.1213 152.061 53.9609 151.395 54.7203 150.643C54.8561 150.499 54.9876 150.35 55.1106 150.193C55.7641 149.342 56.1927 148.369 56.8079 147.497C57.446 146.602 58.2463 145.835 59.1672 145.235C61.764 143.505 65.2095 142.842 68.2943 141.911H68.3282C73.8407 140.23 78.864 137.235 82.9673 133.182C83.3073 132.897 83.5615 132.524 83.7013 132.102C83.8329 131.503 83.5104 130.907 83.2006 130.38C82.84 129.76 82.4878 129.139 82.1398 128.51C80.575 125.656 79.178 122.713 77.956 119.696C77.6887 119.033 77.4299 118.374 77.1795 117.706C76.5374 116.006 75.9518 114.281 75.4229 112.532C75.2489 111.954 75.0791 111.371 74.9179 110.789C74.8882 110.678 74.8543 110.559 74.8246 110.432C74.1202 107.596 73.1782 100.959 70.2758 102.945C69.4127 103.563 68.6099 104.262 67.8784 105.032C67.3141 105.606 66.7625 106.197 66.1812 106.767C65.7077 107.234 65.2075 107.672 64.6833 108.081C64.1513 108.489 63.5832 108.848 62.986 109.152C60.682 110.334 58.2464 111.325 56.0017 112.592C54.7656 113.268 53.605 114.075 52.5393 114.998C51.0584 116.308 49.8024 117.923 48.0754 118.871L47.8887 118.973C44.8421 120.525 41.2566 119.594 37.7899 119.526C37.2804 119.513 36.7706 119.526 36.2624 119.564C33.4491 119.777 30.8777 120.908 28.3912 122.29C26.643 123.259 24.9373 124.356 23.2188 125.346C22.1325 125.971 21.0462 126.647 19.9515 127.34C17.1764 129.092 14.3632 130.929 11.4651 132.255C8.49486 133.607 5.42703 134.415 2.18947 134.045C1.91366 136.235 3.67883 138.003 4.85844 139.934C5.425 140.763 5.76844 141.725 5.85559 142.727C5.87118 143.101 5.84413 143.477 5.77497 143.845C5.53735 145.201 4.92633 146.528 5.07908 147.893C5.19949 148.671 5.5132 149.406 5.99137 150.031C6.72969 151.09 7.76927 152.038 8.47364 153.143Z" fill="#F86D70"/>
<path d="M94.7423 161.998C94.7423 161.998 98.4593 165.246 102.227 166.977C105.995 168.707 103.5 174.914 103.5 174.914C103.5 174.914 99.5074 175.833 96.7111 171.938C93.9149 168.044 94.7423 161.998 94.7423 161.998Z" fill="#FBBEBE"/>
<path d="M295.038 217.29C295.038 217.29 285.194 230.27 277.026 230.376C268.858 230.483 264.063 235.844 267.941 239.194C271.819 242.544 314.082 237.281 314.082 237.281C314.082 237.281 314.481 221.329 310.819 218.999C307.157 216.669 295.038 217.29 295.038 217.29Z" fill="#444176"/>
<path d="M400.885 232.872C400.885 232.872 402.391 243.152 397.736 250.163C393.082 257.174 406.146 259.878 406.146 259.878C406.146 259.878 415.639 262.527 416.33 253.131C417.022 243.735 416.797 236.55 415.906 235.784C415.015 235.019 414.272 229.734 414.272 229.734L400.885 232.872Z" fill="#444176"/>
<path d="M251.863 252.29C251.863 252.29 251.52 219.039 284.358 205.523L291.983 190.987L295.641 182.058C296.965 178.825 299.049 175.959 301.715 173.704C304.381 171.45 307.55 169.873 310.954 169.108L316.869 167.777L318.698 160.056C319.672 155.929 321.831 152.178 324.909 149.267C327.986 146.355 331.847 144.41 336.015 143.671C339.611 143.002 343.261 142.66 346.92 142.65C348.538 142.675 350.123 143.118 351.52 143.938C352.917 144.757 354.079 145.925 354.893 147.327C354.893 147.327 386.004 146.983 387.383 163.955C387.383 163.955 390.497 179.537 394.991 182.309C394.991 182.309 402.595 180.579 410.198 191.663L418.494 220.063C418.494 220.063 440.27 240.496 433.701 259.178C433.701 259.178 424.714 271.992 379.087 263.332C379.087 263.332 330.35 278.212 304.407 257.805C304.403 257.83 261.198 266.142 251.863 252.29Z" fill="#A8A8A8"/>
<path opacity="0.1" d="M273.64 247.093C273.64 247.093 280.556 237.395 280.208 230.465C279.86 223.535 281.838 206.656 281.838 206.656" stroke="black" stroke-miterlimit="10"/>
<path opacity="0.1" d="M298.874 221.117C298.874 221.117 305.786 208.303 305.095 201.377C305.095 201.377 312.355 188.197 317.884 189.251" stroke="black" stroke-miterlimit="10"/>
<path opacity="0.1" d="M336.897 184.749C336.897 184.749 355.907 177.823 356.947 172.283" stroke="black" stroke-miterlimit="10"/>
<path opacity="0.1" d="M343.81 200.683C343.81 200.683 363.859 191.678 363.859 189.25H373.877C373.877 189.25 388.397 208.301 386.67 216.613" stroke="black" stroke-miterlimit="10"/>
<path opacity="0.1" d="M367.317 214.535C367.317 214.535 347.96 213.149 341.043 218.693C334.127 224.237 321.686 227.005 321.686 227.005C321.686 227.005 314.426 242.591 311.659 245.359C308.892 248.127 304.399 257.829 304.399 257.829" stroke="black" stroke-miterlimit="10"/>
<path opacity="0.1" d="M367.317 232.895C367.317 232.895 369.388 240.165 372.154 244.323C374.921 248.481 379.066 263.37 379.066 263.37" stroke="black" stroke-miterlimit="10"/>
<path opacity="0.1" d="M399.807 254.02C399.807 254.02 404.195 266.251 408.052 266.37" stroke="black" stroke-miterlimit="10"/>
<path opacity="0.1" d="M371.068 201.516C371.068 201.516 382.465 204.602 387.23 212.081C391.995 219.559 406.549 226.341 406.549 226.341" stroke="black" stroke-miterlimit="10"/>
<path opacity="0.1" d="M375.956 164.672C375.956 164.672 375.956 180.603 380.45 180.603C384.943 180.603 394.97 182.333 394.97 182.333" stroke="black" stroke-miterlimit="10"/>
<path opacity="0.1" d="M353.934 145.752C353.934 145.752 352.784 173.272 346.907 180.398" stroke="black" stroke-miterlimit="10"/>
<g opacity="0.05">
<path opacity="0.05" d="M417.781 219.731L409.486 191.331C401.882 180.247 394.278 181.977 394.278 181.977C389.785 179.205 386.674 163.619 386.674 163.619C385.291 146.646 354.18 146.995 354.18 146.995C353.365 145.59 352.2 144.421 350.8 143.602C349.4 142.782 347.812 142.34 346.19 142.318C344.722 142.318 343.22 142.365 341.718 142.488C342.566 142.573 343.38 142.694 344.158 142.85L346.576 147.008C346.576 147.008 377.683 146.659 379.066 163.632C379.066 163.632 382.181 179.218 386.674 181.99C386.674 181.99 394.278 180.255 401.882 191.343L410.178 219.744C410.178 219.744 431.954 240.177 425.385 258.859C425.385 258.859 420.951 265.181 402.506 265.946C427.375 266.86 432.989 258.859 432.989 258.859C439.557 240.164 417.781 219.731 417.781 219.731Z" fill="black"/>
<path opacity="0.05" d="M296.108 257.482C288.79 258.802 281.391 259.613 273.962 259.91C282.623 260.242 291.631 259.302 297.436 258.503C296.986 258.158 296.545 257.827 296.108 257.482Z" fill="black"/>
<path opacity="0.05" d="M370.771 263.025C360.129 266.016 349.176 267.751 338.132 268.195C354.066 268.774 369.159 265.445 375.379 263.846C373.877 263.595 372.354 263.31 370.771 263.025Z" fill="black"/>
</g>
<path d="M94.5596 317.045C94.5596 317.045 104.069 316.752 106.933 314.707C109.797 312.662 121.555 310.221 122.268 313.499C122.981 316.777 136.555 329.804 125.819 329.893C115.084 329.982 100.882 328.218 98.022 326.471C95.1621 324.723 94.5596 317.045 94.5596 317.045Z" fill="#A8A8A8"/>
<path opacity="0.2" d="M126.014 328.749C115.279 328.838 101.073 327.074 98.213 325.348C96.0362 324.017 95.1663 319.247 94.8778 317.049H94.5596C94.5596 317.049 95.1621 324.731 98.022 326.475C100.882 328.218 115.088 329.982 125.819 329.897C128.921 329.872 129.99 328.766 129.931 327.129C129.502 328.116 128.318 328.732 126.014 328.749Z" fill="black"/>
<path d="M326.383 293.151C326.383 293.151 315.185 290.906 312.202 287.913C309.219 284.92 295.781 279.691 294.287 283.428C292.794 287.165 274.136 299.881 286.824 302.135C299.511 304.388 316.679 305.111 320.413 303.631C324.147 302.152 326.383 293.151 326.383 293.151Z" fill="#A8A8A8"/>
<path opacity="0.2" d="M286.823 300.724C299.515 302.965 316.678 303.7 320.412 302.217C323.251 301.077 325.228 295.605 326.009 293.059L326.383 293.139C326.383 293.139 324.142 302.11 320.412 303.607C316.683 305.103 299.515 304.355 286.823 302.11C283.161 301.464 282.113 299.942 282.508 298.02C282.822 299.287 284.099 300.252 286.823 300.724Z" fill="black"/>
<path opacity="0.1" d="M219.161 48.8293H216.497C216.992 48.8293 217.467 48.6322 217.817 48.2814C218.167 47.9306 218.364 47.4547 218.364 46.9586C218.364 46.4625 218.167 45.9866 217.817 45.6358C217.467 45.285 216.992 45.0879 216.497 45.0879H194.907C194.412 45.0879 193.937 45.285 193.587 45.6358C193.237 45.9866 193.04 46.4625 193.04 46.9586C193.04 47.4547 193.237 47.9306 193.587 48.2814C193.937 48.6322 194.412 48.8293 194.907 48.8293H197.572C197.093 48.8522 196.641 49.0591 196.31 49.407C195.979 49.7549 195.794 50.2172 195.794 50.6979C195.794 51.1786 195.979 51.6408 196.31 51.9887C196.641 52.3367 197.093 52.5435 197.572 52.5664H193.842C193.347 52.5664 192.872 52.7635 192.522 53.1144C192.172 53.4652 191.975 53.941 191.975 54.4371C191.975 54.9333 192.172 55.4091 192.522 55.7599C192.872 56.1107 193.347 56.3078 193.842 56.3078H215.432C215.927 56.3078 216.402 56.1107 216.752 55.7599C217.102 55.4091 217.299 54.9333 217.299 54.4371C217.299 53.941 217.102 53.4652 216.752 53.1144C216.402 52.7635 215.927 52.5664 215.432 52.5664H219.161C219.414 52.5785 219.666 52.5391 219.903 52.4507C220.139 52.3622 220.356 52.2265 220.539 52.0518C220.721 51.8771 220.867 51.667 220.966 51.4343C221.066 51.2016 221.117 50.951 221.117 50.6979C221.117 50.4447 221.066 50.1942 220.966 49.9614C220.867 49.7287 220.721 49.5186 220.539 49.3439C220.356 49.1692 220.139 49.0335 219.903 48.9451C219.666 48.8566 219.414 48.8172 219.161 48.8293Z" fill="#1A75FF"/>
<path opacity="0.1" d="M303.015 114.647H300.351C300.83 114.625 301.282 114.418 301.613 114.07C301.944 113.722 302.129 113.26 302.129 112.779C302.129 112.298 301.944 111.836 301.613 111.488C301.282 111.14 300.83 110.933 300.351 110.91H278.74C278.488 110.898 278.236 110.938 277.999 111.026C277.762 111.115 277.546 111.25 277.363 111.425C277.18 111.6 277.034 111.81 276.935 112.042C276.835 112.275 276.784 112.526 276.784 112.779C276.784 113.032 276.835 113.283 276.935 113.515C277.034 113.748 277.18 113.958 277.363 114.133C277.546 114.308 277.762 114.443 277.999 114.532C278.236 114.62 278.488 114.66 278.74 114.647H281.405C280.926 114.67 280.474 114.877 280.143 115.225C279.812 115.573 279.627 116.035 279.627 116.516C279.627 116.997 279.812 117.459 280.143 117.807C280.474 118.155 280.926 118.362 281.405 118.385H277.675C277.18 118.385 276.705 118.582 276.355 118.933C276.005 119.283 275.808 119.759 275.808 120.255C275.808 120.751 276.005 121.227 276.355 121.578C276.705 121.929 277.18 122.126 277.675 122.126H299.26C299.755 122.126 300.23 121.929 300.58 121.578C300.931 121.227 301.127 120.751 301.127 120.255C301.127 119.759 300.931 119.283 300.58 118.933C300.23 118.582 299.755 118.385 299.26 118.385H303.015C303.268 118.397 303.52 118.357 303.757 118.269C303.994 118.18 304.21 118.045 304.393 117.87C304.576 117.695 304.721 117.485 304.821 117.252C304.92 117.02 304.971 116.769 304.971 116.516C304.971 116.263 304.92 116.012 304.821 115.78C304.721 115.547 304.576 115.337 304.393 115.162C304.21 114.987 303.994 114.852 303.757 114.763C303.52 114.675 303.268 114.635 303.015 114.647Z" fill="#1A75FF"/>
<path opacity="0.1" d="M178.762 102.472H176.097C176.349 102.484 176.601 102.444 176.838 102.356C177.075 102.267 177.291 102.132 177.474 101.957C177.657 101.782 177.803 101.572 177.902 101.34C178.002 101.107 178.053 100.856 178.053 100.603C178.053 100.35 178.002 100.099 177.902 99.8667C177.803 99.6339 177.657 99.4239 177.474 99.2492C177.291 99.0745 177.075 98.9388 176.838 98.8503C176.601 98.7619 176.349 98.7225 176.097 98.7345H154.503C154.251 98.7225 153.999 98.7619 153.762 98.8503C153.525 98.9388 153.309 99.0745 153.126 99.2492C152.943 99.4239 152.797 99.6339 152.698 99.8667C152.598 100.099 152.547 100.35 152.547 100.603C152.547 100.856 152.598 101.107 152.698 101.34C152.797 101.572 152.943 101.782 153.126 101.957C153.309 102.132 153.525 102.267 153.762 102.356C153.999 102.444 154.251 102.484 154.503 102.472H157.168C156.916 102.46 156.663 102.499 156.427 102.587C156.19 102.676 155.973 102.812 155.791 102.986C155.608 103.161 155.462 103.371 155.363 103.604C155.263 103.837 155.212 104.087 155.212 104.34C155.212 104.593 155.263 104.844 155.363 105.077C155.462 105.309 155.608 105.519 155.791 105.694C155.973 105.869 156.19 106.005 156.427 106.093C156.663 106.182 156.916 106.221 157.168 106.209H153.434C152.939 106.209 152.464 106.406 152.114 106.757C151.764 107.108 151.567 107.583 151.567 108.08C151.567 108.576 151.764 109.051 152.114 109.402C152.464 109.753 152.939 109.95 153.434 109.95H175.023C175.518 109.95 175.993 109.753 176.343 109.402C176.694 109.051 176.89 108.576 176.89 108.08C176.89 107.583 176.694 107.108 176.343 106.757C175.993 106.406 175.518 106.209 175.023 106.209H178.753C179.005 106.221 179.258 106.182 179.494 106.093C179.731 106.005 179.948 105.869 180.13 105.694C180.313 105.519 180.459 105.309 180.558 105.077C180.658 104.844 180.709 104.593 180.709 104.34C180.709 104.087 180.658 103.837 180.558 103.604C180.459 103.371 180.313 103.161 180.13 102.986C179.948 102.812 179.731 102.676 179.494 102.587C179.258 102.499 179.005 102.46 178.753 102.472H178.762Z" fill="#1A75FF"/>
</g>
<defs>
<linearGradient id="paint0_linear" x1="-307741" y1="27863.7" x2="-332545" y2="27863.7" gradientUnits="userSpaceOnUse">
<stop stop-color="#808080" stop-opacity="0.25"/>
<stop offset="0.54" stop-color="#808080" stop-opacity="0.12"/>
<stop offset="1" stop-color="#808080" stop-opacity="0.1"/>
</linearGradient>
<clipPath id="clip0">
<rect width="438" height="354" fill="white"/>
</clipPath>
</defs>
</svg>
