<svg width="450" height="276" viewBox="0 0 450 276" fill="none" xmlns="http://www.w3.org/2000/svg">
<g clip-path="url(#clip0)">
<path opacity="0.1" d="M450 177.268C450.007 184.746 449.1 192.197 447.298 199.456C446.692 201.902 445.988 204.297 445.186 206.641C444.204 209.535 443.066 212.373 441.778 215.144C441.128 216.546 440.442 217.92 439.718 219.266C439.73 226.935 438.147 234.522 435.069 241.549C429.504 254.157 419.582 264.351 407.109 270.274C399.311 273.984 390.789 275.935 382.149 275.989H85.4248C72.2229 276.017 59.2491 272.559 47.8223 265.965L47.6465 265.866C46.0189 264.917 44.4321 263.911 42.886 262.849C39.4074 260.453 36.1392 257.766 33.1167 254.818C29.0257 250.832 25.4209 246.378 22.3769 241.549C15.2278 230.23 11.4405 217.123 11.4538 203.746C4.21373 191.079 -0.00805664 175.905 -0.00805664 159.599C-0.00805664 139.027 6.70095 120.26 17.7234 106.054C20.0214 103.086 22.5386 100.293 25.2539 97.6994C27.933 95.1326 30.8127 92.7822 33.8655 90.6706C36.3081 88.9793 38.8608 87.4521 41.5068 86.099C42.6109 85.5389 43.7189 85.0094 44.846 84.5179C45.8355 84.0798 46.8365 83.6722 47.849 83.2874C49.064 82.8277 50.2942 82.4048 51.5397 82.0188C52.7853 81.6327 54.0142 81.295 55.2266 81.0054C57.0096 80.5711 58.8231 80.2181 60.6672 79.9463C62.1954 79.7215 63.7237 79.5654 65.2519 79.4473C66.4669 79.3558 67.6933 79.3063 68.9274 79.2911H69.596C70.9561 79.2911 72.3086 79.3444 73.6497 79.4358C73.791 79.1539 73.9438 78.8682 74.0852 78.5901C74.6201 77.5729 75.1741 76.5595 75.7319 75.569C75.7306 75.5602 75.7306 75.5512 75.7319 75.5423C75.8274 75.3671 75.9229 75.1957 76.0222 75.028C76.4731 74.2166 76.943 73.4127 77.4244 72.6165C77.646 72.2355 77.8638 71.8774 78.0892 71.5193C78.1369 71.4303 78.1892 71.3438 78.2458 71.2603C78.4751 70.8793 78.7081 70.4983 78.945 70.1173C80.1243 68.2379 81.3507 66.3915 82.6243 64.5781L82.949 64.1133C83.1477 63.8314 83.3311 63.5571 83.5527 63.2752C84.0799 62.5399 84.6225 61.8008 85.1688 61.077C85.5509 60.5589 85.9329 60.0445 86.3456 59.5531C87.3389 58.2832 88.3577 57.0133 89.4021 55.7434C90.4464 54.4735 91.5314 53.2201 92.6572 51.9833C92.8101 51.8118 92.9629 51.6442 93.1233 51.4766L94.7547 49.7013C94.835 49.6175 94.9037 49.5413 94.9802 49.4651C95.175 49.2555 95.3622 49.046 95.5723 48.8441C96.4473 47.9183 97.3451 47.0116 98.2468 46.1087C102.836 41.5514 107.724 37.3043 112.88 33.3958C113.082 33.2358 113.289 33.0834 113.491 32.931C114.461 32.2034 115.447 31.4834 116.433 30.7748C121.855 26.8963 127.522 23.3714 133.4 20.2219C133.805 19.9896 134.218 19.7724 134.634 19.5591C139.904 16.7792 145.324 14.2915 150.868 12.1073C153.89 10.9149 156.981 9.79485 160.091 8.77004C162.162 8.09192 164.24 7.44808 166.345 6.84234C169.636 5.89754 172.95 5.05052 176.287 4.30129C186.117 2.1019 196.117 0.743259 206.179 0.240164C209.236 0.0852371 212.327 0.00523482 215.452 0.000155246C230.532 -0.0197518 245.553 1.87492 260.153 5.63848C260.304 5.86595 260.511 6.0514 260.753 6.17736C260.996 6.30332 261.267 6.36566 261.54 6.35851H262.824C263.382 6.5109 263.936 6.66329 264.493 6.82329C267.608 7.7173 270.679 8.69385 273.705 9.75294L274.469 10.0272C281.937 12.6753 289.204 15.8584 296.212 19.5514C302.529 22.8725 308.612 26.6198 314.417 30.7671C315.311 31.4072 316.193 32.0523 317.061 32.7025C318.116 32.0294 319.188 31.3843 320.278 30.7671C324.488 28.3763 328.96 26.4755 333.605 25.1021C343.316 22.2366 353.591 21.8359 363.497 23.9364C376.201 26.6222 387.701 33.2892 396.989 42.7715C400.77 46.6512 404.137 50.9131 407.033 55.4882C407.243 55.8158 407.453 56.1472 407.656 56.4825C410.145 60.5318 412.285 64.7847 414.051 69.1954C414.116 69.3592 414.181 69.5116 414.239 69.6716C415.87 73.8017 417.185 78.0489 418.174 82.3769C418.22 82.5979 418.273 82.815 418.319 83.036C419.244 87.2244 419.872 91.4725 420.199 95.7489C420.199 95.9013 420.199 96.0575 420.229 96.2175C420.39 98.4296 420.471 100.665 420.474 102.923C420.474 104.942 420.405 106.946 420.279 108.934C420.279 109.151 420.249 109.376 420.229 109.601C420.195 110.176 420.145 110.744 420.096 111.323C423.014 113.67 425.745 116.239 428.264 119.007C429.377 120.218 430.455 121.476 431.496 122.779C434.67 126.744 437.458 131.001 439.825 135.492C446.286 147.652 450 161.957 450 177.268Z" fill="#1A75FF"/>
<path opacity="0.1" d="M406.827 268.864C406.827 271.466 397.837 273.904 382.15 276H85.4252C72.2234 276.028 59.2495 272.569 47.8227 265.976L47.647 265.877C52.1553 264.239 60.2932 262.712 71.3692 261.332L71.8659 261.272C76.8327 260.666 82.384 260.09 88.4512 259.546C88.604 259.546 88.7606 259.523 88.9135 259.504C93.7274 259.077 98.8483 258.677 104.276 258.304C104.448 258.304 104.616 258.273 104.788 258.266C106.882 258.116 109.019 257.974 111.199 257.839L112.04 257.786C127.914 256.803 145.959 256.018 165.528 255.5H165.551C168.292 255.424 171.062 255.356 173.861 255.298C176.974 255.224 180.124 255.16 183.313 255.104C185.747 255.05 188.211 255.012 190.683 254.974H190.741C201.893 254.806 213.416 254.723 225.199 254.723C254.335 254.723 281.874 255.252 306.276 256.205H306.345C310.097 256.349 313.78 256.509 317.371 256.673L320.428 256.818C324.48 257.011 328.428 257.218 332.272 257.439C377.469 260.003 406.827 264.167 406.827 268.864Z" fill="#1A75FF"/>
<g opacity="0.2">
<path opacity="0.2" d="M259.909 252.973C259.897 253.384 259.85 253.793 259.768 254.196C257.109 253.774 254.434 253.393 251.744 253.053C251.744 252.946 251.744 252.836 251.744 252.725C251.769 251.583 252.099 250.468 252.7 249.494C253.487 248.253 254.682 247.475 256.001 247.517C257.319 247.559 258.461 248.409 259.168 249.693C259.702 250.701 259.958 251.833 259.909 252.973Z" fill="#3F3D56"/>
<path opacity="0.2" d="M260.129 246.464C260.222 243.518 258.468 241.071 256.212 241C253.955 240.929 252.05 243.26 251.957 246.206C251.863 249.153 253.617 251.599 255.873 251.67C258.13 251.741 260.035 249.41 260.129 246.464Z" fill="#3F3D56"/>
<path opacity="0.2" d="M260.337 239.942C260.43 236.996 258.677 234.55 256.42 234.479C254.163 234.408 252.258 236.739 252.165 239.685C252.072 242.631 253.825 245.077 256.082 245.148C258.339 245.219 260.244 242.889 260.337 239.942Z" fill="#3F3D56"/>
<path opacity="0.2" d="M260.542 233.419C260.635 230.473 258.881 228.027 256.625 227.955C254.368 227.884 252.463 230.215 252.37 233.161C252.276 236.108 254.03 238.554 256.286 238.625C258.543 238.696 260.448 236.365 260.542 233.419Z" fill="#3F3D56"/>
<path opacity="0.2" d="M260.746 226.895C260.839 223.949 259.086 221.503 256.829 221.432C254.573 221.361 252.667 223.692 252.574 226.638C252.481 229.584 254.234 232.03 256.491 232.101C258.748 232.173 260.653 229.842 260.746 226.895Z" fill="#3F3D56"/>
<path opacity="0.2" d="M242.754 181.641C242.216 180.914 241.731 180.15 241.303 179.355L252.1 177.934L240.477 177.656C239.44 175.203 238.916 172.564 238.936 169.902C238.957 167.24 239.521 164.61 240.596 162.173L255.924 170.726L241.883 159.739C243.3 157.455 245.173 155.486 247.387 153.956C249.601 152.426 252.107 151.368 254.749 150.847C257.392 150.327 260.113 150.355 262.744 150.93C265.375 151.505 267.859 152.615 270.04 154.191C272.221 155.766 274.054 157.773 275.422 160.086C276.791 162.399 277.666 164.969 277.994 167.635C278.322 170.301 278.095 173.005 277.327 175.579C276.56 178.154 275.268 180.543 273.533 182.597C274.37 183.727 275.081 184.944 275.654 186.228L261.483 193.009L276.51 188.502C277.456 191.615 277.608 194.915 276.953 198.102C276.298 201.289 274.856 204.263 272.758 206.754C274.939 209.706 276.244 213.21 276.522 216.866C276.801 220.522 276.042 224.182 274.332 227.428C272.622 230.674 270.031 233.375 266.855 235.222C263.678 237.069 260.044 237.987 256.369 237.871C252.694 237.756 249.125 236.611 246.072 234.569C243.018 232.526 240.603 229.668 239.102 226.321C237.6 222.974 237.074 219.273 237.583 215.642C238.092 212.01 239.615 208.595 241.979 205.787C239.372 202.259 238.031 197.961 238.169 193.582C238.308 189.203 239.919 184.997 242.743 181.641H242.754Z" fill="#1A75FF"/>
<path opacity="0.1" d="M277.343 194.815C277.209 199.197 275.593 203.404 272.758 206.755C274.939 209.706 276.244 213.21 276.522 216.866C276.801 220.522 276.042 224.183 274.332 227.429C272.622 230.675 270.031 233.376 266.855 235.222C263.678 237.069 260.044 237.987 256.369 237.872C252.694 237.756 249.125 236.612 246.072 234.569C243.018 232.526 240.603 229.668 239.102 226.321C237.6 222.974 237.074 219.273 237.583 215.642C238.092 212.011 239.615 208.595 241.979 205.787C239.469 202.385 277.411 192.624 277.343 194.815Z" fill="black"/>
</g>
<g opacity="0.2">
<path opacity="0.2" d="M201.836 252.973C201.823 253.384 201.776 253.793 201.694 254.196C199.035 253.774 196.361 253.393 193.671 253.053C193.671 252.946 193.671 252.836 193.671 252.725C193.696 251.583 194.025 250.468 194.626 249.494C195.413 248.253 196.609 247.475 197.927 247.517C199.245 247.559 200.388 248.409 201.094 249.693C201.629 250.701 201.885 251.833 201.836 252.973Z" fill="#3F3D56"/>
<path opacity="0.2" d="M202.051 246.466C202.144 243.519 200.391 241.073 198.134 241.002C195.877 240.931 193.972 243.262 193.879 246.208C193.785 249.155 195.539 251.601 197.796 251.672C200.052 251.743 201.957 249.412 202.051 246.466Z" fill="#3F3D56"/>
<path opacity="0.2" d="M202.259 239.942C202.353 236.996 200.599 234.55 198.342 234.479C196.086 234.408 194.181 236.739 194.087 239.685C193.994 242.631 195.748 245.077 198.004 245.148C200.261 245.219 202.166 242.889 202.259 239.942Z" fill="#3F3D56"/>
<path opacity="0.2" d="M202.464 233.421C202.557 230.475 200.804 228.029 198.547 227.957C196.29 227.886 194.385 230.217 194.292 233.163C194.198 236.11 195.952 238.556 198.209 238.627C200.465 238.698 202.371 236.367 202.464 233.421Z" fill="#3F3D56"/>
<path opacity="0.2" d="M202.669 226.897C202.762 223.951 201.008 221.505 198.752 221.434C196.495 221.363 194.59 223.694 194.496 226.64C194.403 229.586 196.157 232.032 198.413 232.103C200.67 232.174 202.575 229.844 202.669 226.897Z" fill="#3F3D56"/>
<path opacity="0.2" d="M184.681 181.641C184.143 180.914 183.658 180.15 183.229 179.355L194.026 177.934L182.404 177.656C181.367 175.203 180.842 172.564 180.863 169.902C180.883 167.24 181.448 164.61 182.522 162.173L197.851 170.726L183.81 159.739C185.226 157.455 187.1 155.486 189.314 153.956C191.527 152.426 194.034 151.368 196.676 150.847C199.318 150.327 202.04 150.355 204.671 150.93C207.302 151.505 209.785 152.615 211.967 154.191C214.148 155.766 215.98 157.773 217.349 160.086C218.717 162.399 219.593 164.969 219.921 167.635C220.248 170.301 220.021 173.005 219.254 175.579C218.486 178.154 217.195 180.543 215.46 182.597C216.297 183.727 217.008 184.944 217.58 186.228L203.41 193.009L218.436 188.502C219.382 191.615 219.535 194.915 218.88 198.102C218.225 201.289 216.783 204.263 214.684 206.754C216.866 209.706 218.171 213.21 218.449 216.866C218.727 220.522 217.968 224.182 216.259 227.428C214.549 230.674 211.958 233.375 208.781 235.222C205.605 237.069 201.971 237.987 198.296 237.871C194.62 237.756 191.052 236.611 187.998 234.569C184.945 232.526 182.529 229.668 181.028 226.321C179.527 222.974 179.001 219.273 179.509 215.642C180.018 212.01 181.542 208.595 183.905 205.787C181.299 202.259 179.957 197.961 180.096 193.582C180.234 189.203 181.845 184.997 184.67 181.641H184.681Z" fill="#1A75FF"/>
<path opacity="0.1" d="M219.269 194.815C219.135 199.197 217.52 203.404 214.684 206.755C216.866 209.706 218.171 213.21 218.449 216.866C218.727 220.522 217.968 224.183 216.259 227.429C214.549 230.675 211.958 233.376 208.781 235.222C205.605 237.069 201.971 237.987 198.296 237.872C194.62 237.756 191.052 236.612 187.998 234.569C184.945 232.526 182.529 229.668 181.028 226.321C179.527 222.974 179.001 219.273 179.509 215.642C180.018 212.011 181.542 208.595 183.905 205.787C181.395 202.385 219.338 192.624 219.269 194.815Z" fill="black"/>
</g>
<g opacity="0.2">
<path opacity="0.2" d="M360.468 257.142C360.439 257.921 360.345 258.695 360.189 259.458C355.069 258.643 349.913 257.914 344.719 257.272C344.719 257.066 344.719 256.856 344.719 256.643C344.768 254.443 345.403 252.296 346.561 250.422C348.089 248.033 350.381 246.536 352.914 246.612C355.447 246.688 357.652 248.33 359.027 250.803C360.065 252.75 360.562 254.939 360.468 257.142Z" fill="#3F3D56"/>
<path opacity="0.2" d="M360.883 244.6C361.063 238.926 357.685 234.215 353.339 234.078C348.992 233.941 345.323 238.43 345.143 244.104C344.963 249.777 348.341 254.488 352.687 254.625C357.034 254.762 360.704 250.273 360.883 244.6Z" fill="#3F3D56"/>
<path opacity="0.2" d="M361.281 232.041C361.46 226.367 358.082 221.657 353.736 221.52C349.389 221.383 345.72 225.871 345.54 231.545C345.36 237.219 348.738 241.929 353.085 242.066C357.431 242.203 361.101 237.715 361.281 232.041Z" fill="#3F3D56"/>
<path opacity="0.2" d="M361.681 219.486C361.861 213.812 358.483 209.102 354.137 208.965C349.79 208.828 346.121 213.316 345.941 218.99C345.761 224.664 349.139 229.375 353.485 229.512C357.832 229.649 361.502 225.16 361.681 219.486Z" fill="#3F3D56"/>
<path opacity="0.2" d="M361.631 206.357C361.801 200.68 358.414 195.973 354.066 195.843C349.717 195.713 346.053 200.209 345.882 205.886C345.711 211.562 349.098 216.27 353.447 216.4C357.796 216.53 361.46 212.033 361.631 206.357Z" fill="#3F3D56"/>
<path opacity="0.2" d="M327.438 119.818C326.408 118.42 325.474 116.952 324.646 115.426L345.43 112.69L323.06 112.153C321.062 107.431 320.051 102.352 320.089 97.227C320.127 92.1018 321.214 87.0383 323.282 82.3463L352.796 98.8079L325.769 77.6565C328.502 73.2693 332.111 69.4903 336.373 66.5551C340.634 63.6199 345.457 61.5913 350.539 60.5959C355.621 59.6004 360.855 59.6594 365.913 60.7691C370.972 61.8788 375.747 64.0155 379.941 67.046C384.135 70.0764 387.658 73.9358 390.29 78.3835C392.923 82.8311 394.609 87.7718 395.243 92.8976C395.876 98.0234 395.445 103.224 393.974 108.177C392.504 113.129 390.026 117.726 386.696 121.681C388.306 123.858 389.675 126.202 390.78 128.672L363.497 141.735L392.423 133.049C394.246 139.036 394.543 145.381 393.287 151.511C392.031 157.641 389.261 163.362 385.229 168.156C389.428 173.838 391.939 180.583 392.474 187.621C393.01 194.659 391.548 201.705 388.257 207.954C384.965 214.203 379.977 219.402 373.862 222.957C367.747 226.512 360.752 228.279 353.677 228.057C346.602 227.834 339.732 225.631 333.854 221.699C327.976 217.767 323.326 212.265 320.435 205.822C317.545 199.379 316.532 192.255 317.511 185.265C318.49 178.274 321.422 171.7 325.971 166.293C320.956 159.502 318.375 151.229 318.641 142.8C318.907 134.372 322.005 126.277 327.438 119.814V119.818Z" fill="#1A75FF"/>
<path opacity="0.1" d="M394.032 145.175C393.781 153.605 390.685 161.705 385.244 168.162C389.444 173.845 391.954 180.59 392.49 187.628C393.025 194.666 391.564 201.712 388.272 207.961C384.981 214.21 379.992 219.409 373.877 222.964C367.762 226.519 360.767 228.286 353.692 228.064C346.617 227.841 339.748 225.638 333.869 221.706C327.991 217.774 323.341 212.272 320.451 205.829C317.56 199.386 316.547 192.262 317.526 185.272C318.505 178.281 321.437 171.707 325.987 166.3C321.119 159.743 394.166 140.958 394.032 145.175Z" fill="black"/>
</g>
<path d="M60.297 257.813L64.3048 257.801H69.9555L77.1001 142.071L147.854 24.34L144.779 21.0485V12.7129L68.2592 139.343L60.297 257.813Z" fill="#F1C0C0"/>
<path opacity="0.1" d="M64.7328 257.801H69.9556L77.1001 142.071L147.854 24.3404L144.779 21.0488L71.7971 140.307L64.7328 257.801Z" fill="black"/>
<path d="M48.4874 258.777L231.82 272.766L231.976 272.778L409.402 261.897L409.536 261.89V254.419L214.035 250.842L50.9288 250.686H49.7368L49.6069 251.524L48.4874 258.777Z" fill="#F1C0C0"/>
<path opacity="0.1" d="M48.4874 258.777L231.82 272.766L231.976 272.778L409.402 261.897L409.536 261.753V254.575H409.379L231.82 260.488L50.9288 250.686H50.9021L50.5811 250.895L49.6069 251.524L48.4874 258.777Z" fill="black"/>
<path opacity="0.1" d="M48.4874 258.777L231.82 272.766V260.487L50.5811 250.895L49.6069 251.523L48.4874 258.777Z" fill="black"/>
<path d="M144.756 20.8925L225.581 107.395L223.082 259.554L229.948 260.381L230.062 260.396H236.928L237.749 113.929L389.096 164.338L391.648 254.095L397.172 254.712L399.044 254.921L394.712 158.113L236.5 102.728L149.749 12.8008H144.756V20.8925Z" fill="#F1C0C0"/>
<path opacity="0.1" d="M237.127 111.129L237.749 113.929L389.096 164.339L391.648 254.095L397.172 254.712L392.84 162.472L237.127 111.129Z" fill="black"/>
<path opacity="0.1" d="M144.756 20.8925L225.581 107.395L223.082 259.554L229.948 260.381L231.82 102.416L144.756 12.8008V20.8925Z" fill="black"/>
<path d="M237.421 172.193L292.931 183.092L292.95 183.096L390.173 202.194L394.624 200.415L394.609 200.103L394.318 193.912L237.478 162.311L237.421 172.193Z" fill="#F1C0C0"/>
<path opacity="0.1" d="M292.95 183.098L390.173 202.196L394.624 200.416L394.609 200.104L292.95 183.098Z" fill="black"/>
<path d="M296.667 133.553L298.169 215.971L298.944 258.255L305.779 258.026L310.081 257.882L308.744 134.745L305.779 133.762L305.13 133.553H296.667Z" fill="#F1C0C0"/>
<path opacity="0.1" d="M296.728 133.533V133.552L298.169 215.971L298.944 258.255L305.779 258.026V133.533H296.728Z" fill="black"/>
<path d="M189.602 154.6C190.003 154.818 190.386 155.066 190.748 155.343C191.176 155.717 191.561 156.137 191.894 156.597C193.533 158.711 195.046 161.168 194.886 163.835C194.889 164.223 194.816 164.608 194.67 164.967C194.523 165.327 194.307 165.654 194.034 165.93C193.358 166.506 192.387 166.532 191.501 166.532C190.538 166.532 189.526 166.532 188.693 166.037C187.86 165.542 187.164 164.578 186.179 164.601C186.04 164.624 185.898 164.624 185.758 164.601C185.418 164.49 185.35 164.045 185.128 163.763C184.746 163.256 183.94 163.382 183.34 163.603C182.74 163.824 182.075 164.155 181.483 163.9C181.139 163.719 180.858 163.439 180.677 163.096C179.26 160.81 178.958 158.063 178.69 155.408C178.526 153.793 177.273 148.284 180.731 149.537C182.259 150.086 183.688 151.183 185.078 151.987L189.602 154.6Z" fill="#3F3D56"/>
<path d="M186.186 155.145C186.495 155.367 186.869 155.479 187.25 155.464C187.63 155.449 187.994 155.307 188.284 155.061C188.853 154.549 189.215 153.847 189.304 153.088C189.686 152.97 189.881 153.469 190.125 153.774C190.553 154.292 191.424 154.284 191.814 154.837C192.085 155.218 192.024 155.747 192.215 156.178C192.464 156.734 193.079 157.023 193.499 157.473C193.896 157.964 194.182 158.534 194.34 159.145L194.966 161.02C195.266 161.799 195.459 162.616 195.539 163.447C195.579 163.862 195.535 164.281 195.41 164.679C195.286 165.078 195.083 165.447 194.813 165.767C193.973 166.67 192.593 166.765 191.375 166.738C190.968 166.747 190.561 166.699 190.167 166.597C189.086 166.262 188.395 165.176 188.108 164.083C187.822 162.989 187.852 161.843 187.684 160.723C187.502 159.622 187.181 158.55 186.729 157.53C186.393 156.738 185.468 155.557 185.483 154.715C185.758 154.715 185.957 154.966 186.186 155.145Z" fill="#3F3D56"/>
<path d="M187.558 151.286C187.379 150.745 187.275 150.182 187.249 149.613C187.249 148.47 187.772 147.396 188.299 146.375L183.932 146.965C183.405 147.038 182.817 147.145 182.519 147.583C182.405 147.8 182.346 148.041 182.346 148.286C182.346 148.53 182.405 148.771 182.519 148.988C182.738 149.423 182.912 149.879 183.038 150.348C183.048 150.76 183.095 151.169 183.18 151.571C183.315 151.867 183.506 152.135 183.741 152.36C184.991 153.739 185.927 155.366 186.859 156.977C186.832 156.932 189.491 154.878 189.384 154.208C189.323 153.827 188.555 153.37 188.311 153.004C187.973 152.473 187.719 151.893 187.558 151.286Z" fill="#BE6F72"/>
<path d="M225 136.402V140.155L160.558 152.689L157.215 154.708H145.68V152.593L208.995 137.34L225 136.402Z" fill="#F1C0C0"/>
<path opacity="0.1" d="M225 140.154L160.558 152.688L157.215 154.707H145.68L209.465 141.095L225 140.154Z" fill="black"/>
<path d="M173.261 242.928C172.543 242.061 171.552 241.462 170.449 241.228C169.346 240.994 168.196 241.14 167.186 241.64C166.97 241.742 166.78 241.89 166.629 242.075C166.247 242.608 166.491 243.343 166.525 244.002C166.613 245.61 165.33 246.917 164.176 248.041C163.557 248.643 162.926 249.286 162.647 250.105C162.369 250.925 162.575 251.965 163.324 252.391C163.651 252.555 164.006 252.653 164.371 252.681C165.592 252.918 166.844 252.953 168.077 252.784C169.295 252.551 170.491 251.862 171.018 250.742C171.12 250.438 171.289 250.161 171.511 249.93C172.184 249.401 173.215 250.022 173.979 249.644C174.61 249.332 174.637 248.841 174.644 248.193C174.667 246.402 174.4 244.376 173.261 242.928Z" fill="#1A75FF"/>
<path d="M182.431 242.86C182.901 244.094 182.966 245.439 183.027 246.757C183.061 247.519 183.084 248.334 182.671 248.978C182.259 249.622 181.453 249.961 180.681 250.121C179.088 250.449 177.242 250.14 176.215 248.879C175.427 247.915 175.263 246.593 175.408 245.344C175.531 244.319 175.79 243.119 175.053 242.391C174.862 242.197 174.614 242.06 174.438 241.85C174.056 241.385 174.117 240.684 174.323 240.113C174.592 239.566 174.793 238.99 174.923 238.395C174.954 238.113 180.096 238.593 180.57 238.825C181.216 239.142 181.116 239.671 181.311 240.311C181.583 241.203 182.102 242.006 182.431 242.86Z" fill="#1A75FF"/>
<path d="M183.374 188.131C184.383 188.782 184.773 190.062 184.929 191.251C185.361 194.508 184.605 197.8 184.547 201.087C184.494 205.693 185.831 210.383 184.689 214.844C184.005 217.511 184.586 220.559 183.944 223.252C183.753 224.052 183.401 224.807 183.218 225.607C182.836 227.34 183.237 229.153 183.776 230.849C183.948 231.306 184.057 231.784 184.1 232.27C184.074 233.018 183.884 233.752 183.543 234.418L181.25 239.824C180.994 240.43 179.986 240.529 179.34 240.609C178.125 240.754 176.769 240.857 175.802 240.106C174.835 239.356 174.602 238.099 174.453 236.925C174.168 234.673 174.04 232.403 174.071 230.132C174.113 229.54 174.06 228.945 173.915 228.369C173.704 227.717 173.242 227.153 173.116 226.464C172.956 225.572 173.41 224.696 173.578 223.797C173.694 222.976 173.681 222.142 173.54 221.325C173.391 220.105 173.219 218.886 173.024 217.675C172.749 215.98 173.143 214.307 173.406 212.608C173.655 211.012 173.338 209.385 173.024 207.8C173.051 209.086 172.891 210.37 172.547 211.61C172.344 212.216 172.054 212.795 171.878 213.412C171.095 216.181 172.765 219.088 172.528 221.957C172.417 223.298 171.89 224.624 172.039 225.946C172.142 226.913 172.593 227.801 172.902 228.723C173.212 229.645 173.372 230.7 172.902 231.561C171.66 233.9 172.589 237.081 173.701 239.481C173.926 239.907 174.123 240.347 174.289 240.8C174.618 241.882 174.342 243.043 174.43 244.171C174.11 244.223 173.783 244.202 173.472 244.109C173.162 244.016 172.877 243.854 172.639 243.634C172.47 243.459 172.333 243.253 172.169 243.07C171.71 242.634 171.166 242.296 170.572 242.076C170.222 241.881 169.825 241.79 169.425 241.813C169.005 241.93 168.628 242.164 168.336 242.487C167.959 242.819 167.558 243.123 167.137 243.398C166.958 243.535 166.748 243.628 166.526 243.668C166.414 243.686 166.299 243.667 166.198 243.616C166.098 243.565 166.016 243.483 165.964 243.383C165.94 243.319 165.926 243.252 165.922 243.184C165.78 242.034 165.705 240.877 165.696 239.718C165.696 237.725 163.305 236.354 163.003 234.384C162.762 232.795 163.209 231.176 163.06 229.576C162.988 228.753 162.758 227.946 162.774 227.123C162.774 226.589 162.896 226.068 162.938 225.538C162.973 224.95 162.964 224.361 162.911 223.774L162.793 221.934C162.678 220.117 162.552 218.262 161.834 216.6C160.982 214.661 160.478 212.588 160.344 210.475C160.267 209.141 160.317 207.808 160.164 206.471C160.027 205.263 159.721 204.063 159.809 202.851C159.881 201.914 160.191 201.007 160.264 200.07C160.413 198.268 159.725 196.516 159.186 194.79C158.647 193.064 158.25 191.152 158.957 189.487C159.058 189.214 159.226 188.97 159.446 188.778C159.717 188.6 160.025 188.485 160.348 188.443C166.903 187.07 173.622 186.643 180.299 187.175C181.387 187.236 182.444 187.565 183.374 188.131Z" fill="#3F3D56"/>
<path d="M161.685 147.667C165.065 147.667 167.805 144.935 167.805 141.564C167.805 138.193 165.065 135.461 161.685 135.461C158.304 135.461 155.564 138.193 155.564 141.564C155.564 144.935 158.304 147.667 161.685 147.667Z" fill="#BE6F72"/>
<path d="M160.5 149.186C160.588 149.535 160.588 149.9 160.5 150.249C160.404 150.493 160.269 150.719 160.099 150.92C159.507 151.682 158.851 152.393 158.139 153.045C158.502 153.853 159.155 154.496 159.969 154.847C160.778 155.191 161.626 155.433 162.495 155.567C162.928 155.681 163.379 155.712 163.824 155.659C164.234 155.556 164.623 155.381 164.97 155.141L168.371 153.11C168.884 152.833 169.359 152.491 169.784 152.093C170.408 151.454 170.761 150.6 170.77 149.708C170.786 149.548 170.742 149.389 170.648 149.259C170.518 149.146 170.354 149.077 170.182 149.064C168.986 148.802 168.042 147.834 167.507 146.737C167.024 145.612 166.711 144.422 166.579 143.205L162.953 145.11C162.414 145.396 161.88 145.681 161.322 145.929C160.966 146.089 160.248 146.222 159.996 146.546C159.515 147.144 160.374 148.466 160.5 149.186Z" fill="#BE6F72"/>
<path d="M158.162 151.937C157.646 152.359 157.243 152.903 156.989 153.518C156.752 154.28 156.989 155.084 157.203 155.838C158.206 159.053 158.972 162.337 159.496 165.663C159.816 167.949 159.935 170.269 160.092 172.582C160.412 177.298 160.879 184.819 161.501 189.504C163.794 189.607 166.029 188.941 168.302 188.697C172.551 188.247 176.925 189.276 181.086 188.316C180.077 184.342 179.069 177.557 178.06 173.588C177.614 172.024 177.304 170.424 177.135 168.806C177.047 167.645 177.101 166.479 177.116 165.309C177.151 163.023 177.025 160.738 176.898 158.452C176.753 155.785 176.608 153.118 175.974 150.509C175.93 150.176 175.773 149.868 175.531 149.636C175.149 149.358 174.652 149.457 174.197 149.518C172.805 149.694 171.396 149.361 170.231 148.581C169.727 148.238 169.051 147.819 168.581 148.2C168.38 148.43 168.248 148.711 168.199 149.011C167.991 149.55 167.67 150.039 167.258 150.444C166.845 150.85 166.351 151.162 165.807 151.362C164.718 151.755 163.578 151.989 162.422 152.055C162.068 152.131 161.699 152.09 161.371 151.937C160.829 151.606 160.791 150.413 160.107 150.333C159.507 150.265 158.567 151.552 158.162 151.937Z" fill="#3F3D56"/>
<path d="M167.202 161.24C165.792 159.895 165.173 157.944 164.145 156.287C163.445 155.173 162.551 154.192 161.505 153.392C160.979 153.046 160.497 152.638 160.069 152.177C159.706 151.731 159.431 151.137 158.88 150.965C158.653 150.916 158.417 150.922 158.193 150.984C157.968 151.046 157.763 151.161 157.593 151.319C157.256 151.639 156.937 151.978 156.638 152.333C155.018 154.005 152.171 154.238 150.888 156.173C150.541 156.583 150.306 157.075 150.204 157.602C149.834 160.418 150.565 163.269 152.244 165.564C152.569 166.096 153.068 166.499 153.658 166.707C153.578 167.417 153.672 168.136 153.933 168.802C154.64 171.213 155.509 173.574 156.534 175.869C156.289 176.767 156.118 177.683 156.023 178.608C155.755 180.936 156.003 183.298 155.751 185.629C155.545 187.534 154.987 189.39 154.968 191.298C154.968 191.603 154.995 191.965 155.258 192.121C155.399 192.193 155.556 192.226 155.713 192.216L160.412 192.357C163.14 192.437 165.895 192.517 168.581 192.014C168.939 191.962 169.286 191.852 169.609 191.691C170.518 191.184 170.82 190.041 170.965 189.024C171.155 187.704 171.23 186.371 171.19 185.039C171.76 186.833 172.436 188.689 174.155 189.466C175.065 189.877 176.104 189.847 177.101 189.82C179.25 189.725 181.392 189.505 183.516 189.161C183.647 189.177 183.779 189.163 183.904 189.118C184.028 189.074 184.14 189.002 184.231 188.906C184.322 188.811 184.389 188.696 184.428 188.57C184.466 188.445 184.474 188.311 184.452 188.182L184.475 186.102C184.521 181.877 183.47 177.839 183.061 173.633C182.931 172.307 182.943 170.966 182.618 169.667C182.484 169.122 182.289 168.589 182.171 168.04C182.069 167.503 182.005 166.959 181.98 166.413L181.682 162.223C181.54 160.284 181.338 158.413 181.189 156.478C181.107 154.593 180.833 152.722 180.371 150.893C180.039 149.75 179.347 148.455 178.152 148.314C177.514 148.241 176.895 148.519 176.287 148.714C174.794 149.182 173.192 149.176 171.702 148.695C171.242 148.513 170.763 148.386 170.273 148.314C170.027 148.28 169.776 148.313 169.547 148.408C169.317 148.503 169.117 148.657 168.967 148.855C168.819 149.152 168.749 149.483 168.764 149.815C168.585 153.62 168.252 157.541 167.202 161.24Z" fill="#1A75FF"/>
<path d="M161.054 161.354C159.293 159.503 157.486 157.617 155.217 156.44C154.322 155.975 153.306 155.625 152.317 155.8C151.327 155.975 150.406 156.832 150.452 157.834C150.483 158.455 150.861 159.004 150.979 159.613C151.117 160.299 150.918 161.031 151.132 161.693C151.306 162.13 151.566 162.528 151.896 162.863L154.601 166.059C155.748 167.393 156.894 168.745 158.369 169.667C159.843 170.589 161.754 171.019 163.374 170.364C164.526 169.83 165.484 168.953 166.117 167.854C166.789 166.787 167.263 165.621 167.893 164.52C168.874 162.761 170.169 161.195 171.714 159.899C170.919 159.693 169.922 159.404 169.422 158.756C169.279 158.55 169.158 158.331 169.059 158.101L168.44 156.767C168.229 156.757 168.019 156.789 167.821 156.863C167.624 156.937 167.444 157.051 167.293 157.198C167.028 157.504 166.743 157.793 166.441 158.063C165.903 158.467 165.173 158.577 164.684 159.038C164.495 159.236 164.323 159.45 164.172 159.678C163.802 160.163 163.333 160.563 162.795 160.852C162.257 161.141 161.664 161.313 161.054 161.354Z" fill="#3F3D56"/>
<path d="M171.855 153.389C173.181 150.977 173.12 148.086 173.498 145.362C173.539 144.64 173.793 143.947 174.228 143.369C174.992 142.508 176.341 142.497 177.494 142.607C177.834 142.645 178.259 142.805 178.239 143.144C178.213 143.266 178.153 143.378 178.068 143.468C176.949 144.908 176.292 146.649 176.18 148.467C176.78 148.882 177.708 148.028 178.285 148.467C178.667 148.787 178.492 149.419 178.262 149.876C177.73 150.935 177.181 151.987 176.616 153.031C176.164 153.951 175.576 154.797 174.87 155.541C174.384 156.006 173.815 156.372 173.322 156.829C172.176 157.899 171.485 159.412 170.3 160.456C170.2 160.564 170.065 160.633 169.918 160.65C169.767 160.639 169.625 160.576 169.517 160.471C168.925 159.991 168.435 159.399 168.073 158.73C167.622 157.899 167.691 157.656 168.401 157.069C169.731 156.021 171.026 154.897 171.855 153.389Z" fill="#BE6F72"/>
<path d="M158.838 159.716C159.068 159.857 159.35 160.017 159.603 159.899C159.706 159.837 159.793 159.752 159.859 159.651C160.295 159.07 160.66 158.438 160.944 157.769C160.992 157.675 161.02 157.571 161.024 157.464C161.024 157.221 160.806 157.042 160.604 156.901C159.519 156.211 158.352 155.658 157.131 155.255C156.122 154.874 155.067 154.542 153.998 154.638C153.596 154.665 153.203 154.772 152.844 154.954C152.485 155.136 152.167 155.389 151.908 155.697C151.144 156.676 152.424 156.973 153.226 157.327C155.083 158.169 157.092 158.657 158.838 159.716Z" fill="#1A75FF"/>
<path opacity="0.1" d="M157.635 166.193C157.622 166.28 157.63 166.368 157.658 166.452C157.685 166.535 157.733 166.611 157.795 166.673C157.906 166.132 157.761 165.56 157.876 165.016C158.044 164.196 158.842 163.579 158.911 162.756C157.448 162.471 157.646 165.309 157.635 166.193Z" fill="black"/>
<path opacity="0.2" d="M225 136.402V140.155L209.465 141.096L208.995 137.34L225 136.402Z" fill="black"/>
<path d="M156.175 142.471C157.146 141.682 156.584 140.029 157.241 138.97C157.623 138.39 158.269 138.086 158.903 137.827C159.669 137.47 160.489 137.243 161.329 137.156C161.75 137.116 162.175 137.171 162.572 137.316C162.969 137.462 163.328 137.695 163.622 137.998C163.87 138.28 164.038 138.623 164.271 138.916C164.56 139.258 164.936 139.516 165.36 139.663C165.784 139.809 166.239 139.838 166.678 139.747C167.186 139.632 167.714 139.248 167.679 138.73C167.622 138.414 167.46 138.127 167.221 137.914L166.128 136.707C164.886 135.335 163.507 133.88 161.685 133.537C160.416 133.297 159.117 133.636 157.895 134.044C157.402 134.207 156.848 134.451 156.71 134.95C156.619 135.293 156.756 135.667 156.676 136.013C156.519 136.703 155.633 136.935 155.22 137.514C154.808 138.093 154.934 138.779 154.815 139.419C154.697 140.059 154.353 140.684 154.311 141.347C154.284 141.747 154.487 142.49 154.938 142.634C155.388 142.779 155.896 141.994 156.175 142.471Z" fill="#3F3D56"/>
<path d="M167.309 138.182C166.987 136.506 166.292 134.923 165.276 133.549C164.373 132.266 163.116 131.271 161.658 130.684C160.929 130.4 160.145 130.285 159.365 130.346C158.585 130.407 157.829 130.644 157.153 131.039C156.151 131.752 155.371 132.733 154.903 133.869C153.914 135.995 153.547 138.593 154.697 140.635C155.155 140.079 155.942 140.331 156.638 140.129C157.509 139.881 158.246 139.302 159.075 138.94C161.578 137.839 164.634 138.73 167.309 138.182Z" fill="#FED253"/>
<path opacity="0.1" d="M155.281 138.063C155.193 137.377 155.136 136.581 155.625 136.094C155.649 136.064 155.68 136.04 155.716 136.024C155.751 136.008 155.789 136.001 155.828 136.002C155.862 136.013 155.893 136.031 155.92 136.055C155.947 136.078 155.969 136.107 155.984 136.139C156.267 136.584 156.507 137.053 156.703 137.541C156.418 137.476 156.12 137.497 155.847 137.602C155.575 137.708 155.34 137.892 155.174 138.132" fill="black"/>
<path opacity="0.1" d="M164.21 136.128L164.073 134.768C164.05 134.656 164.06 134.54 164.099 134.433C164.157 134.343 164.246 134.278 164.349 134.25C164.452 134.222 164.562 134.232 164.657 134.28C164.845 134.384 165 134.539 165.104 134.726C165.422 135.213 165.686 135.733 165.891 136.277C165.276 136.158 164.643 136.166 164.031 136.3" fill="black"/>
<path opacity="0.1" d="M167.63 191.326V194.435L164.997 194.61H151.151V191.326H167.63Z" fill="black"/>
<path d="M167.63 191.327V194.611H151.151L107.375 139.931V137.348H116.552L167.63 191.327Z" fill="#F1C0C0"/>
<path opacity="0.1" d="M167.63 191.327V194.611H151.151L107.375 139.931V137.348H116.552L167.63 191.327Z" fill="black"/>
<path opacity="0.1" d="M167.63 191.327V194.611H151.151L107.375 139.931V137.348L151.388 191.327H167.63Z" fill="black"/>
<path d="M113.113 246.133C113.142 246.287 113.139 246.446 113.103 246.599C113.067 246.752 113.001 246.896 112.907 247.023C112.813 247.149 112.694 247.254 112.557 247.333C112.42 247.411 112.269 247.46 112.112 247.477C111.05 247.836 109.923 248.19 109.17 249.001C108.418 249.813 108.269 251.318 109.17 251.977C109.631 252.254 110.16 252.398 110.699 252.392C112.429 252.51 114.233 252.487 115.803 251.756C116.926 251.238 117.985 250.354 119.219 250.434C119.857 250.472 120.537 250.769 121.106 250.479C121.675 250.19 121.836 249.382 121.84 248.708C121.854 247.3 121.641 245.899 121.209 244.559C121.152 244.376 118.722 244.235 118.432 244.178L115.486 243.797C114.928 243.725 113.725 243.306 113.285 243.771C112.846 244.235 113.113 245.58 113.113 246.133Z" fill="#1A75FF"/>
<path d="M130.692 236.624C130.817 237.31 131.019 237.98 131.296 238.62C131.704 239.657 132.228 240.758 133.229 241.261C134.138 241.714 135.254 241.55 136.178 241.12C136.564 240.96 136.902 240.704 137.16 240.377C137.458 239.858 137.592 239.262 137.542 238.666C137.542 237.192 137.454 235.668 136.778 234.357C136.197 233.214 135.185 232.232 135.17 230.967L131.689 231.637C131.503 231.655 131.325 231.725 131.177 231.839C131.067 231.955 130.99 232.099 130.955 232.254C130.584 233.68 130.494 235.164 130.692 236.624Z" fill="#1A75FF"/>
<path d="M89.1273 200.432C88.9822 201.659 89.0433 202.974 89.6852 204.033C90.327 205.092 91.6795 205.793 92.8486 205.37C92.9085 205.355 92.9647 205.327 93.014 205.29C93.0632 205.253 93.1044 205.206 93.1352 205.153C93.1663 205.024 93.1486 204.888 93.0855 204.772C92.5694 203.398 92.6119 201.878 93.2039 200.535C93.2804 200.36 93.4446 200.154 93.6242 200.223C93.6993 200.261 93.7598 200.322 93.7961 200.398C93.9811 200.717 94.0737 201.081 94.0636 201.45C94.0097 201.783 93.9994 202.123 94.033 202.459C94.1056 202.787 94.4571 203.095 94.7628 202.954C94.8511 202.9 94.9275 202.829 94.9873 202.744C95.0471 202.66 95.0889 202.564 95.1104 202.463C95.9624 200.006 95.5765 197.32 95.1868 194.748C95.1901 194.689 95.1803 194.63 95.1582 194.575C95.136 194.521 95.1021 194.471 95.0587 194.431C95.0153 194.391 94.9636 194.36 94.9072 194.342C94.8508 194.324 94.791 194.318 94.7322 194.326C92.9289 194.146 91.9431 193.716 90.9116 195.388C90.0252 196.798 89.1273 198.737 89.1273 200.432Z" fill="#1A75FF"/>
<path d="M110.21 194.18C109.675 196.397 109.136 198.641 109.102 200.919C109.111 202.338 109.218 203.755 109.422 205.159L109.824 208.459C109.961 209.571 110.095 210.68 110.29 211.781C110.414 212.348 110.482 212.926 110.492 213.506C110.455 214.079 110.364 214.646 110.221 215.202C109.981 216.368 109.846 217.554 109.82 218.745C109.778 220.65 110.015 222.554 110.164 224.459C110.461 228.255 110.416 232.07 110.03 235.858C109.876 236.88 110.098 237.924 110.657 238.795C110.883 239.07 111.07 239.375 111.211 239.702C111.497 240.574 110.828 241.447 110.657 242.342C110.547 243.04 110.719 243.753 111.136 244.325C111.553 244.896 112.18 245.279 112.88 245.39C115.937 245.752 119.077 245.588 121.832 246.982C122.122 246.136 121.488 245.176 121.778 244.315C121.962 243.782 122.466 243.435 122.81 242.986C123.272 242.301 123.502 241.487 123.467 240.662C123.481 239.585 123.289 238.516 122.902 237.511C122.577 236.673 122.111 235.846 122.138 234.947C122.138 234.505 122.294 234.041 122.115 233.633C121.991 233.399 121.824 233.191 121.622 233.02C120.48 231.772 119.778 230.187 119.624 228.505C119.475 226.836 119.528 225.155 119.784 223.499C119.971 221.922 120.223 220.257 121.228 219.027C120.762 215.295 121.036 211.509 122.034 207.883C122.134 207.548 122.29 207.16 122.634 207.08C122.771 207.066 122.909 207.085 123.036 207.135C123.164 207.185 123.278 207.266 123.368 207.369C123.968 207.929 124.254 208.741 124.514 209.518C124.8 210.36 125.091 211.259 124.873 212.12C124.781 212.501 124.598 212.836 124.491 213.202C124.259 213.937 124.299 214.73 124.606 215.438C124.755 215.697 124.849 215.983 124.881 216.28C124.845 216.535 124.768 216.782 124.651 217.011C124.51 217.462 124.465 217.938 124.519 218.407C124.574 218.876 124.727 219.329 124.969 219.735C125.456 220.544 126.056 221.279 126.753 221.918C126.42 223.38 126.506 224.906 127.001 226.322C127.037 226.386 127.06 226.456 127.068 226.529C127.077 226.601 127.071 226.675 127.051 226.745C126.982 226.89 126.806 226.943 126.669 227.046C126.287 227.358 126.524 227.949 126.78 228.357C127.481 229.475 128.256 230.547 129.099 231.564C129.863 232.475 129.794 234.231 130.933 234.559C131.411 234.662 131.906 234.662 132.384 234.559C133.508 234.387 134.761 234.063 135.311 233.073C135.536 232.665 135.628 232.17 135.98 231.865C136.331 231.561 136.786 231.507 136.981 231.141C137.175 230.776 136.958 230.296 137.023 229.873C137.088 229.45 137.458 229.111 137.577 228.665C137.859 227.637 136.656 226.791 136.492 225.739C136.255 224.215 138.18 223.073 138.1 221.549C137.932 218.238 137.825 214.912 137.653 211.602C137.437 208.636 137.407 205.66 137.561 202.691C137.695 200.843 137.943 198.908 137.263 197.19C136.285 194.767 133.588 193.407 130.978 193.148C128.369 192.888 125.767 193.506 123.181 193.909C118.888 194.569 114.526 194.66 110.21 194.18Z" fill="#3F3D56"/>
<path d="M117.965 157.767C121.346 157.767 124.086 155.034 124.086 151.664C124.086 148.293 121.346 145.561 117.965 145.561C114.585 145.561 111.845 148.293 111.845 151.664C111.845 155.034 114.585 157.767 117.965 157.767Z" fill="#FBBEBE"/>
<path d="M115.474 158.907C115.266 159.389 114.917 159.798 114.471 160.079C114.026 160.36 113.506 160.5 112.979 160.48C112.758 161.394 113.289 162.316 113.896 163.036C115.158 164.5 116.788 165.602 118.619 166.228C120.449 166.854 122.415 166.982 124.311 166.598C125.05 166.467 125.75 166.175 126.363 165.745C127.19 165.057 127.745 164.098 127.93 163.04C128.105 161.989 128.155 160.921 128.079 159.859C128.1 159.649 128.04 159.439 127.91 159.272C127.758 159.154 127.569 159.092 127.376 159.097C126.084 158.983 124.735 158.933 123.601 158.301C122.466 157.668 121.66 156.24 122.206 155.066C122.118 155.249 119.887 155.337 119.593 155.375C118.672 155.505 117.751 155.649 116.834 155.817C116.394 155.841 115.958 155.923 115.539 156.061C114.985 156.346 115.192 156.206 115.321 156.724C115.516 157.516 115.803 158.084 115.474 158.907Z" fill="#FBBEBE"/>
<path d="M120.132 162.616C119.307 162.625 118.485 162.535 117.683 162.345C116.873 162.157 116.159 161.682 115.673 161.008C115.39 160.582 115.207 160.044 114.756 159.804C114.019 159.423 113.178 160.067 112.59 160.658C112.054 161.24 111.433 161.738 110.748 162.136C109.931 162.566 108.975 162.719 108.204 163.225C107.601 163.68 107.083 164.237 106.675 164.871L101.262 172.224C99.0877 175.18 97.1965 178.354 95.2594 181.474C93.5822 184.175 92.7034 187.284 91.4388 190.198C91.3386 190.376 91.2972 190.582 91.3204 190.785C91.3662 190.983 91.6069 191.143 91.775 191.029C91.2057 191.592 91.7062 192.552 91.5725 193.345C91.4205 193.899 91.1035 194.395 90.6632 194.766C91.5041 194.656 92.3579 194.696 93.1848 194.884C94.0395 195.125 94.846 195.512 95.5689 196.027C96.0312 195.954 95.9892 195.135 96.333 194.831C96.5393 194.652 96.845 194.674 97.1162 194.621C98.1363 194.423 98.5413 193.2 99.3245 192.51C99.9779 191.935 100.902 191.749 101.594 191.208C102.717 190.328 102.958 188.762 103.546 187.463C104.047 186.362 104.834 185.402 105.273 184.274C105.56 183.543 105.697 182.75 106.106 182.076C106.759 180.986 107.99 180.407 109.163 179.885C109.904 179.554 110.691 179.211 111.489 179.264C111.447 181.036 111.222 182.781 111.608 184.51C111.742 185.12 111.929 185.714 112.089 186.32C112.819 189.047 112.991 191.89 113.025 194.701C114.781 194.301 116.574 194.086 118.374 194.061C119.792 194.019 121.205 194.202 122.623 194.175C124.304 194.145 125.966 193.821 127.647 193.707C129.328 193.592 131.085 193.707 132.572 194.469C132.451 192.054 132.519 189.634 132.774 187.23L133.179 183.443C133.27 182.343 133.44 181.251 133.687 180.175C133.909 179.306 134.23 178.468 134.474 177.603C135.334 174.555 135.177 171.302 135.013 168.129C134.929 166.498 134.298 164.894 133.557 163.443C133.289 162.903 132.983 162.384 132.64 161.888C131.745 160.658 130.551 159.673 129.171 159.027C127.79 158.381 126.269 158.094 124.747 158.193C124.553 158.199 124.361 158.24 124.181 158.315C123.859 158.521 123.607 158.82 123.459 159.172C122.669 160.589 121.522 161.776 120.132 162.616Z" fill="#3F3D56"/>
<path d="M112.582 153.686C112.754 153.305 113.216 153.164 113.499 152.86C114.042 152.281 113.797 151.355 113.881 150.574C114.019 149.431 114.97 148.475 116.059 148.067C117.169 147.712 118.351 147.637 119.497 147.85C120.049 147.89 120.583 148.067 121.049 148.364C121.247 148.509 121.431 148.696 121.618 148.829C121.959 149.035 122.368 149.099 122.756 149.009C123.144 148.918 123.482 148.68 123.696 148.345C122.344 146.722 120.846 145.008 118.791 144.509C118.086 144.365 117.367 144.298 116.647 144.307C115.696 144.288 114.714 144.273 113.835 144.635C112.639 145.126 111.799 146.257 111.367 147.477C110.99 148.712 110.788 149.995 110.767 151.286C110.689 152.148 110.689 153.015 110.767 153.877C110.915 155.054 111.354 156.176 112.043 157.142C112.137 157.292 112.269 157.414 112.426 157.496C114.168 158.258 112.441 154.003 112.582 153.686Z" fill="#3F3D56"/>
<path d="M123.498 147.404C123.288 145.61 122.004 144.128 120.64 142.935C119.541 141.901 118.231 141.115 116.8 140.63C115.36 140.207 113.702 140.299 112.468 141.156C111.474 141.846 110.844 142.943 110.359 144.048C109.721 145.351 109.405 146.788 109.438 148.238C109.533 149.678 110.236 151.137 111.489 151.865C111.94 151.202 112.724 150.859 113.476 150.589C116.757 149.348 120.102 148.285 123.498 147.404Z" fill="#FED253"/>
<path opacity="0.1" d="M111.91 146.658C112.032 146.658 112.112 146.784 112.173 146.887C112.484 147.37 112.752 147.88 112.972 148.411C112.525 148.506 111.757 148.613 111.535 148.22C111.417 148.022 111.558 146.639 111.91 146.658Z" fill="black"/>
<path opacity="0.1" d="M120.617 145.797C120.525 145.885 120.418 145.706 120.418 145.576V144.098C120.416 144.057 120.425 144.016 120.445 143.98C120.461 143.962 120.48 143.947 120.502 143.937C120.523 143.926 120.547 143.92 120.571 143.919C120.881 143.885 121.137 144.148 121.335 144.399C121.637 144.807 121.899 145.242 122.118 145.698L120.502 145.649" fill="black"/>
<path d="M140.786 170.273C141.137 169.941 141.513 169.634 141.909 169.355C142.967 168.65 144.247 168.372 145.436 167.923C146.624 167.473 147.831 166.746 148.293 165.565C148.525 164.826 148.6 164.048 148.515 163.279C148.526 162.957 148.469 162.636 148.347 162.338C148.201 162.074 147.994 161.849 147.743 161.682C146.131 160.494 143.968 160.399 141.966 160.521C137.553 160.793 133.226 161.87 129.202 163.698C128.989 163.768 128.802 163.901 128.667 164.079C128.589 164.244 128.553 164.426 128.564 164.608C128.493 165.732 128.639 166.858 128.995 167.927C129.523 169.283 130.608 170.376 131.062 171.759C131.269 172.38 131.338 173.039 131.517 173.664C131.664 174.309 132.047 174.877 132.591 175.256C134.1 176.155 135.525 174.948 136.572 174.011L140.786 170.273Z" fill="#3F3D56"/>
<path d="M121.022 175.55L119.085 171.336C118.801 170.752 118.556 170.15 118.351 169.534C118.13 168.799 118.023 168.037 117.816 167.298C117.136 164.837 115.421 162.787 114.584 160.376C114.531 160.158 114.423 159.957 114.271 159.793C114.149 159.707 114.009 159.648 113.862 159.622C113.715 159.596 113.563 159.602 113.419 159.64C112.25 159.842 111.337 160.73 110.267 161.233C109.77 161.462 109.235 161.614 108.739 161.877C108.49 161.994 108.27 162.163 108.094 162.373C107.917 162.583 107.788 162.828 107.715 163.092C107.596 163.675 107.887 164.235 108.131 164.803C109.17 167.142 109.407 169.755 109.453 172.315C109.487 174.037 109.4 175.885 108.379 177.268C106.419 179.935 107.673 183.851 108.406 187.078C108.494 187.459 108.597 187.87 108.658 188.274C108.723 188.779 108.752 189.289 108.746 189.798C108.746 191.508 108.651 193.272 107.932 194.823C108.642 195.199 109.423 195.42 110.225 195.471C112.443 195.752 114.671 195.951 116.907 196.065C117.608 196.131 118.314 196.095 119.005 195.958C119.824 195.737 120.547 195.25 121.058 194.574C121.57 193.898 121.84 193.071 121.828 192.225C121.95 193.28 122.176 194.427 122.944 195.158C123.712 195.89 124.831 196 125.874 196.057C128.818 196.213 131.769 196.13 134.7 195.81C134.887 195.801 135.071 195.759 135.242 195.684C135.808 195.402 135.838 194.625 135.792 194C135.708 192.83 135.62 191.661 135.479 190.499C135.359 189.758 135.298 189.009 135.296 188.259C135.354 187.487 135.482 186.722 135.678 185.973C136.19 183.596 136.595 181.169 136.423 178.735C136.355 178.142 136.331 177.544 136.35 176.948C136.45 175.603 137.16 174.323 137.026 172.986C136.644 169.054 136.335 165.02 135.235 161.225C135.036 160.547 134.784 159.82 134.192 159.431C133.427 158.92 132.354 159.187 131.479 158.863C131.068 158.673 130.678 158.442 130.314 158.174C129.522 157.68 128.614 157.402 127.681 157.366C126.978 157.339 126.195 157.496 125.771 158.059C125.575 158.377 125.445 158.731 125.389 159.1C124.835 161.423 124.185 163.721 123.536 166.018L122.913 168.22L121.243 174.133C121.079 174.761 121.19 174.955 121.022 175.55Z" fill="#1A75FF"/>
<path d="M130.791 152.482L167.748 191.208V194.492H151.27L123.498 158.349" fill="#F1C0C0"/>
<path opacity="0.1" d="M130.791 152.482L167.748 191.208V194.492H151.27L123.498 158.349" fill="black"/>
<path opacity="0.1" d="M124.086 157.838L124.204 157.88L151.507 191.207H167.748V194.491H151.27L123.498 158.348L124.086 157.838Z" fill="black"/>
<path d="M128.338 158.655C127.001 159.237 125.515 159.984 125.114 161.386C125.035 161.632 125.018 161.894 125.064 162.148C125.162 162.447 125.348 162.709 125.599 162.9C125.849 163.092 126.151 163.202 126.466 163.219C127.095 163.234 127.721 163.12 128.304 162.883L136.194 160.285C136.408 160.217 136.652 160.114 136.706 159.904C136.719 159.772 136.693 159.64 136.629 159.523C136.385 158.929 136.144 157.714 135.632 157.298C135.212 156.963 134.379 157.081 133.871 157.089C131.914 157.104 130.077 157.893 128.338 158.655Z" fill="#1A75FF"/>
<path d="M135.372 160.593C136.701 160.589 138.023 160.794 139.288 161.199C140.559 161.611 141.685 162.378 142.532 163.409C142.779 163.697 142.954 164.039 143.044 164.407C143.12 164.788 144.366 165.016 144.091 165.275C144.928 165.142 144.729 165.535 145.577 165.527C146.425 165.519 147.342 165.302 147.85 164.628C148.203 164.074 148.361 163.418 148.297 162.765C148.308 162.313 148.222 161.863 148.045 161.447C147.663 160.647 146.784 160.216 145.974 159.847L139.151 156.734C138.755 156.524 138.33 156.374 137.89 156.288C137.52 156.254 137.146 156.262 136.778 156.315L133.687 156.669C134.363 157.106 134.914 157.71 135.284 158.423C135.654 159.135 135.832 159.932 135.8 160.734" fill="#3F3D56"/>
</g>
<defs>
<clipPath id="clip0">
<rect width="450" height="276" fill="white"/>
</clipPath>
</defs>
</svg>
