<svg width="488" height="352" viewBox="0 0 488 352" fill="none" xmlns="http://www.w3.org/2000/svg">
<g opacity="0.5">
<path opacity="0.5" d="M481.706 164.104H434.56C431.084 164.104 428.266 166.925 428.266 170.405V217.607C428.266 221.088 431.084 223.909 434.56 223.909H481.706C485.182 223.909 488 221.088 488 217.607V170.405C488 166.925 485.182 164.104 481.706 164.104Z" fill="#D0D2D5"/>
<path opacity="0.1" d="M449.663 181.291H466.603C466.603 181.291 480.868 193.788 466.603 206.731H449.663C449.663 206.731 435.398 195.127 449.663 181.291Z" fill="black"/>
<path opacity="0.5" d="M453.675 188.428H451.446V195.122H453.675V188.428Z" fill="#3F3D56"/>
<path opacity="0.5" d="M464.82 187.535H462.591V195.569H464.82V187.535Z" fill="#3F3D56"/>
<path opacity="0.5" d="M458.133 199.139C458.842 199.139 459.523 199.421 460.024 199.923C460.526 200.425 460.808 201.106 460.808 201.817V204.048H455.458V201.817C455.458 201.106 455.74 200.425 456.242 199.923C456.743 199.421 457.424 199.139 458.133 199.139Z" fill="#3F3D56"/>
</g>
<path d="M277.17 106.427C278.583 106.396 279.992 106.503 281.401 106.427C282.689 106.365 283.968 106.155 285.257 106.026C287.459 105.807 289.679 105.825 291.89 105.731C293.343 105.669 294.876 105.526 296.053 104.669C297.159 103.87 297.774 102.567 298.759 101.621C302.771 97.76 305.522 92.5962 309.088 88.3116C309.979 87.2226 310.911 86.1381 311.718 84.9732C313.265 82.7417 314.357 80.2111 315.445 77.7118C315.873 76.7852 316.231 75.8273 316.514 74.8465C316.715 74.061 316.818 73.2487 317.085 72.481C317.638 70.91 318.966 69.5354 319.127 67.8796L318.939 67.9063C320.562 65.8399 320.312 62.2382 321.115 59.5916C321.628 58.0196 322.249 56.4851 322.974 54.9991L325.956 48.4963C326.469 47.3806 327.003 46.2291 327.891 45.3722C328.965 44.3323 330.463 43.8145 331.541 42.7791C332.183 42.1416 332.663 41.3596 332.941 40.4985L333.035 40.5877C333.605 41.1456 334.051 41.8285 334.608 42.4042C335.808 43.6449 337.47 44.3546 338.692 45.573C339.316 46.1934 339.828 46.9476 340.582 47.3984C340.966 47.6088 341.407 47.6931 341.842 47.6395C342.277 47.5858 342.685 47.3969 343.007 47.0994C345.196 45.1713 348.459 44.9928 350.826 43.2924C351.481 42.8193 352.052 42.2435 352.667 41.7258C354.136 40.5541 355.731 39.551 357.423 38.7355C358.416 38.7517 359.403 38.8927 360.361 39.1551C361.734 39.5344 363.076 40.1637 364.502 40.137C365.776 40.0741 366.996 39.6049 367.984 38.798C368.71 38.2357 369.374 37.4591 369.481 36.5665C369.509 36.1083 369.426 35.6503 369.24 35.2309C369.054 34.8115 368.77 34.443 368.412 34.1564C368.314 34.0716 368.211 33.9957 368.108 33.9199C368.078 33.5193 367.968 33.129 367.783 32.7724C367.598 32.4157 367.344 32.1001 367.034 31.8445C366.312 31.2783 365.487 30.857 364.605 30.6038C364.114 30.4108 363.597 30.2934 363.071 30.2557C362.251 30.3003 361.445 30.4892 360.691 30.8135C359.173 31.3027 357.609 31.6318 356.023 31.7954C355.743 31.8222 355.172 31.7642 354.686 31.7597L354.521 31.2866C352.667 32.1435 350.509 31.4384 348.477 31.4428C347.487 31.4428 346.502 31.6169 345.517 31.6794C344.425 31.7226 343.333 31.6987 342.245 31.608L338.95 31.3982C337.543 31.3258 336.142 31.1768 334.751 30.9519C334.381 30.1976 334.011 29.4434 333.597 28.7204C332.898 27.505 332.078 26.364 331.149 25.315C331.523 24.9932 331.916 24.6951 332.326 24.4224L332.406 24.3733C332.509 24.3153 332.634 24.2528 332.772 24.1903C334.058 24.8025 335.477 25.079 336.898 24.9942C338.32 24.9093 339.696 24.4659 340.9 23.705C342.104 22.9442 343.096 21.8907 343.784 20.6427C344.472 19.3947 344.833 17.9928 344.835 16.5673C345.079 16.4733 345.317 16.3645 345.548 16.2415C345.681 16.1701 345.815 16.0942 345.945 16.0094L346.136 15.88C346.258 15.7876 346.374 15.6877 346.484 15.581C346.537 15.5274 346.591 15.4739 346.64 15.4159C346.738 15.3003 346.823 15.1746 346.894 15.041C346.921 14.9874 346.948 14.9383 346.97 14.8848C346.992 14.8312 346.97 14.8446 346.992 14.8223C347.014 14.8 347.023 14.7419 347.037 14.7062C347.05 14.6705 347.037 14.6527 347.059 14.6259L347.086 14.5188C347.088 14.4905 347.088 14.4622 347.086 14.434C347.086 14.3983 347.086 14.3626 347.086 14.3313V14.2376C347.084 14.2049 347.084 14.1721 347.086 14.1394C347.088 14.1067 347.088 14.0739 347.086 14.0412C347.086 14.01 347.086 13.9743 347.086 13.943C347.088 13.9103 347.088 13.8775 347.086 13.8448V13.7243C347.088 13.6902 347.088 13.6559 347.086 13.6217C347.086 13.5905 347.086 13.5592 347.086 13.528V13.4209V13.3316C347.086 13.2914 347.086 13.2513 347.086 13.2156C347.088 13.1888 347.088 13.162 347.086 13.1352C347.088 13.0936 347.088 13.0519 347.086 13.0103C347.086 12.9835 347.086 12.9612 347.086 12.9388C347.086 12.9165 347.086 12.8496 347.054 12.8049V12.7425L347.014 12.5996V12.5461C347.014 12.497 346.983 12.4479 346.97 12.3988V12.3542L346.916 12.1935V12.1667C346.916 12.0909 346.867 12.0105 346.841 11.9346C346.506 10.9706 346.145 10.011 345.762 9.06487C345.482 8.2731 345.063 7.53831 344.522 6.89581C343.733 6.05674 342.601 5.63721 341.656 4.96775C340.542 4.18224 339.708 3.07093 338.763 2.08013C337.818 1.08932 336.672 0.192235 335.313 0.0271004C334.233 -0.0359508 333.153 0.161495 332.166 0.60284C323.977 3.62882 317.272 9.59152 309.93 14.3224C307.073 16.1657 303.872 17.8929 300.489 17.6563L303.475 22.4051C303.618 22.6371 303.765 22.8514 303.921 23.0924C304.077 23.3334 304.233 23.5387 304.398 23.7618C304.819 24.3402 305.351 24.8287 305.963 25.199C306.117 25.2888 306.278 25.3663 306.444 25.431C306.59 25.4859 306.739 25.5321 306.89 25.5694C307.955 25.8238 309.119 25.6096 310.198 25.3953C310.568 25.3239 310.938 25.2481 311.303 25.1633L311.749 25.0383H311.82C311.82 25.0651 311.82 25.0874 311.82 25.1097C311.571 25.556 311.334 25.9622 311.125 26.404C310.437 28.0034 309.904 29.6654 309.534 31.367C308.691 34.7143 307.844 38.133 308.067 41.5696C308.143 42.73 308.339 43.9172 308.005 45.033C307.844 45.5819 307.559 46.1443 307.71 46.6888C307.869 47.0032 308.006 47.3283 308.12 47.6617C308.192 48.1795 307.782 48.6258 307.487 49.0542C307.193 49.4827 307.042 50.1655 307.461 50.4646C307.036 50.6134 306.662 50.8784 306.381 51.2295C306.1 51.5806 305.922 52.0037 305.869 52.4506C305.879 52.7134 305.827 52.9747 305.718 53.2138C305.593 53.3754 305.442 53.5156 305.272 53.6289C304.819 54.0091 304.523 54.543 304.438 55.1285C303.578 55.1285 302.851 55.9676 302.067 56.4674C301.38 56.8154 300.654 57.0791 299.905 57.2529C297.752 57.9402 295.893 59.355 294.212 60.8457C293.276 61.6625 292.331 62.564 291.921 63.7333C291.787 64.1172 291.716 64.5189 291.6 64.9071C291.36 65.659 291.012 66.3717 290.566 67.0227C289.711 68.3397 288.658 69.5169 287.445 70.5128C286.831 71.0077 286.291 71.5878 285.841 72.2355C285.158 73.2219 283.772 73.5165 283.041 74.4671C282.778 74.9354 282.48 75.383 282.15 75.806C281.583 76.3416 280.727 76.3862 280.005 76.6986C278.316 77.3994 277.536 79.3765 276.029 80.4209C275.946 80.4912 275.839 80.5264 275.73 80.5191C275.601 80.5191 275.525 80.3628 275.414 80.287C275.195 80.1397 274.906 80.2513 274.647 80.3182C274.389 80.3852 274.041 80.3584 273.974 80.0995C270.341 77.8948 266.77 75.5025 263.133 73.2978L261.474 72.2936L252.603 66.9111C252.499 66.8454 252.377 66.8105 252.254 66.8105C252.13 66.8105 252.009 66.8454 251.904 66.9111L251.627 67.103C251.181 66.6299 250.687 66.2104 250.392 65.8622C250.272 65.7239 250.152 65.5855 250.027 65.4516C250.108 65.4546 250.189 65.4393 250.263 65.407C250.363 65.3529 250.438 65.2627 250.474 65.1549C250.509 65.0471 250.503 64.9298 250.455 64.8268C250.36 64.6234 250.22 64.4447 250.045 64.3046C249.657 63.9283 249.301 63.5208 248.979 63.0862C248.633 62.5418 248.241 62.0281 247.807 61.5509C247.588 61.3121 247.318 61.1259 247.017 61.0061C246.716 60.8863 246.391 60.8361 246.068 60.8591C245.709 60.9279 245.367 61.0658 245.061 61.2653C243.842 61.9745 242.718 62.8369 241.718 63.8315C241.673 63.8632 241.637 63.9046 241.612 63.9526C241.586 64.0006 241.572 64.0539 241.571 64.1082C241.571 64.1975 241.66 64.2645 241.669 64.3493C241.671 64.4319 241.641 64.5122 241.584 64.5724C240.984 65.318 240.273 65.9668 239.475 66.496C238.343 67.344 237.236 68.2247 236.154 69.1382C235.477 69.6201 234.941 70.2752 234.603 71.035C234.367 71.9163 234.464 72.8538 234.875 73.6682C235.615 75.4133 236.912 76.8593 238.196 78.2563C238.407 78.5438 238.706 78.7539 239.047 78.8543C239.319 78.8918 239.594 78.8248 239.819 78.6669C240.608 78.1492 240.737 77.078 240.795 76.1408C240.817 75.6945 240.844 75.2838 240.871 74.8554C240.869 74.7695 240.885 74.6842 240.92 74.6055C240.988 74.5082 241.082 74.4323 241.192 74.3868L242.417 73.7396C242.382 73.6816 242.342 73.6236 242.302 73.5656C243.226 73.2182 244.233 73.153 245.195 73.3781C245.846 73.57 246.443 73.9583 247.067 74.1993C246.968 75.0322 247.123 75.8757 247.513 76.6183C249.8 76.8549 251.859 77.8724 253.905 78.8989C255.555 79.7174 257.159 80.6247 258.711 81.617C259.971 82.4382 261.204 83.2966 262.411 84.1922C264.122 85.4597 265.776 86.8031 267.412 88.1599C268.476 89.0994 269.62 89.9432 270.831 90.6815C274.05 92.4891 278.365 92.5516 281.32 90.2977C285.047 87.4547 289.79 85.9774 293.802 83.5183C294.994 82.8508 296.083 82.0134 297.034 81.0323C297.025 81.1481 297.007 81.263 296.98 81.376C296.74 82.4873 295.781 83.2906 295.42 84.4153C295.139 85.308 295.242 86.3389 294.698 87.0932C294.284 87.6689 293.508 88.0795 293.486 88.7892C293.486 88.9855 293.544 89.1819 293.544 89.3783C293.521 89.6269 293.448 89.8683 293.33 90.0879C292.884 91.0921 292.385 92.1454 291.471 92.7658C291.114 93.0113 290.659 93.2344 290.579 93.6584C290.574 93.7814 290.542 93.9017 290.486 94.011C290.334 94.2208 290 94.1092 289.759 94.1984C289.425 94.3234 289.371 94.7563 289.237 95.0911C289.115 95.3691 288.908 95.6015 288.647 95.7553C288.385 95.9091 288.082 95.9766 287.78 95.948C284.735 95.5775 281.744 96.9566 278.677 96.8763C277.62 96.8451 276.568 96.738 275.507 96.729C272.253 96.7022 269.066 97.6216 265.932 98.5143C265.583 99.1319 265.367 99.8162 265.299 100.523C264.228 100.798 263.111 100.841 262.023 100.648C261.752 100.594 261.478 100.557 261.203 100.536C261.281 100.335 261.306 100.116 261.274 99.9023C259.993 100.309 258.763 100.858 257.605 101.54C256.843 101.987 256.036 102.611 255.965 103.491C255.954 103.83 256.002 104.168 256.107 104.49L256.522 106.066C256.573 106.357 256.7 106.63 256.892 106.856C257.03 106.99 257.213 107.07 257.338 107.213C257.459 107.382 257.541 107.575 257.578 107.78L257.926 109.145C258.056 109.6 258.148 110.064 258.202 110.533C258.243 110.98 258.202 111.39 258.234 111.819C258.28 112.525 258.383 113.226 258.541 113.916L259.036 116.389C259.147 117.08 259.343 117.755 259.62 118.397C259.829 118.844 260.11 119.227 260.28 119.674C260.413 120.017 260.476 120.383 260.636 120.709C260.925 121.239 261.379 121.659 261.929 121.905C262.121 122.019 262.336 122.086 262.558 122.102C263.191 122.102 263.645 121.513 263.94 120.95C264.526 119.928 264.844 118.773 264.862 117.594C264.862 117.121 264.769 116.652 264.729 116.179C264.622 114.84 265.005 113.537 265.005 112.203C265.019 112.024 264.972 111.845 264.87 111.697C264.769 111.549 264.62 111.441 264.448 111.39C264.488 110.257 264.483 109.056 265.081 108.088C265.377 107.637 265.744 107.237 266.168 106.905C266.333 107.432 266.516 107.954 266.721 108.463C270.114 107.472 273.617 106.517 277.17 106.427ZM349.649 37.8875C349.408 37.9768 349.163 38.0661 348.913 38.1464C346.836 38.8382 344.456 39.5121 342.307 39.039C341.656 38.8509 341.043 38.5486 340.497 38.1464L340.341 38.0482C343.368 37.5171 346.528 37.6465 349.649 37.8875Z" fill="url(#paint0_linear)"/>
<path d="M361.712 33.2951C362.462 32.9731 363.263 32.7872 364.079 32.7461C364.602 32.7859 365.116 32.9047 365.603 33.0987C366.484 33.356 367.307 33.7802 368.028 34.3483C368.385 34.6366 368.668 35.0053 368.855 35.4242C369.041 35.8431 369.126 36.3003 369.103 36.7584C369 37.651 368.34 38.4232 367.618 38.99C366.638 39.796 365.426 40.2654 364.159 40.3289C362.741 40.3512 361.404 39.713 360.036 39.3336C359.04 39.0517 358.012 38.9017 356.978 38.8873C356.457 38.9154 355.935 38.8825 355.422 38.7891C355.165 38.7405 354.922 38.632 354.715 38.4723C354.507 38.3125 354.34 38.1061 354.227 37.8697C354.098 37.4328 354.098 36.9677 354.227 36.5308C354.33 35.9774 354.312 34.6652 354.802 34.335C355.194 34.0672 356.585 34.2814 357.067 34.2412C358.644 34.0916 360.201 33.7744 361.712 33.2951Z" fill="#FBBEBE"/>
<path d="M329.888 24.3105C331.238 25.6327 332.401 27.1345 333.342 28.7736C334.912 31.514 335.91 34.7006 338.273 36.8072C338.901 37.3363 339.567 37.8181 340.265 38.2488C340.811 38.6508 341.424 38.953 342.075 39.1414C344.197 39.619 346.578 38.954 348.646 38.2488C350.694 37.5131 352.68 36.6177 354.588 35.5709C354.601 36.4332 354.841 37.2768 355.284 38.0167C355.778 38.7174 356.79 39.128 357.512 38.6862C355.683 39.5467 353.959 40.6144 352.373 41.8684C351.762 42.3861 351.196 42.9574 350.545 43.426C348.196 45.1175 344.946 45.2871 342.775 47.2062C342.453 47.5 342.048 47.6859 341.616 47.7379C341.183 47.7899 340.746 47.7055 340.363 47.4963C339.61 47.05 339.097 46.2824 338.478 45.662C337.256 44.4391 335.598 43.725 334.399 42.4798C333.842 41.9041 333.396 41.2212 332.825 40.6589C332.01 39.8555 330.949 39.3199 330.2 38.4273C329.643 37.7712 329.308 36.9724 328.787 36.2716C328.341 35.6647 327.815 35.1336 327.418 34.4864C326.446 32.9377 326.455 30.9159 327.012 29.1798C327.57 27.4436 328.849 25.8235 329.888 24.3105Z" fill="#F86D70"/>
<path opacity="0.1" d="M329.888 24.3105C331.238 25.6327 332.401 27.1345 333.342 28.7736C334.912 31.514 335.91 34.7006 338.273 36.8072C338.901 37.3363 339.567 37.8181 340.265 38.2488C340.811 38.6508 341.424 38.953 342.075 39.1414C344.197 39.619 346.578 38.954 348.646 38.2488C350.694 37.5131 352.68 36.6177 354.588 35.5709C354.601 36.4332 354.841 37.2768 355.284 38.0167C355.778 38.7174 356.79 39.128 357.512 38.6862C355.683 39.5467 353.959 40.6144 352.373 41.8684C351.762 42.3861 351.196 42.9574 350.545 43.426C348.196 45.1175 344.946 45.2871 342.775 47.2062C342.453 47.5 342.048 47.6859 341.616 47.7379C341.183 47.7899 340.746 47.7055 340.363 47.4963C339.61 47.05 339.097 46.2824 338.478 45.662C337.256 44.4391 335.598 43.725 334.399 42.4798C333.842 41.9041 333.396 41.2212 332.825 40.6589C332.01 39.8555 330.949 39.3199 330.2 38.4273C329.643 37.7712 329.308 36.9724 328.787 36.2716C328.341 35.6647 327.815 35.1336 327.418 34.4864C326.446 32.9377 326.455 30.9159 327.012 29.1798C327.57 27.4436 328.849 25.8235 329.888 24.3105Z" fill="black"/>
<path d="M250.66 65.526C250.315 65.0722 249.888 64.6864 249.403 64.3879C248.665 64.0603 247.842 63.9759 247.054 64.1469C245.065 64.4504 243.22 65.3609 241.472 66.3784C240.064 67.1863 238.664 68.0833 237.657 69.3553C237.325 69.7388 237.093 70.1989 236.983 70.6943C236.926 71.103 236.961 71.5193 237.086 71.9127C237.176 72.3556 237.366 72.7719 237.642 73.1294C237.918 73.487 238.272 73.7762 238.677 73.9746C239.609 74.3406 240.648 73.9523 241.584 73.5953C242.841 73.1088 244.223 72.658 245.516 73.0418C246.474 73.3275 247.299 74.055 248.311 74.0817C249.501 74.1175 250.464 73.1534 251.222 72.234C251.877 71.4307 253.312 69.9802 253.219 68.851C253.125 67.7218 251.364 66.3338 250.66 65.526Z" fill="#FBBEBE"/>
<path d="M265.683 100.263C264.592 100.554 263.45 100.601 262.339 100.401C261.662 100.276 260.833 100.116 260.4 100.647C260.261 100.844 260.168 101.07 260.128 101.307C259.018 105.855 260.035 110.68 261.911 114.987C261.935 115.06 261.978 115.124 262.036 115.174C262.156 115.264 262.321 115.201 262.46 115.143C262.914 114.96 263.339 114.712 263.721 114.407C264.577 113.63 264.76 112.367 264.8 111.211C264.84 110.055 264.822 108.832 265.42 107.841C266.168 106.614 267.733 106.016 268.348 104.717C268.843 103.66 268.585 102.405 268.148 101.325C268.001 100.95 267.943 99.9864 267.595 99.8034C267.247 99.6204 266.079 100.156 265.683 100.263Z" fill="#FBBEBE"/>
<path d="M250.531 65.0718C250.63 65.0169 250.704 64.9264 250.739 64.8187C250.773 64.7109 250.766 64.594 250.718 64.4916C250.622 64.2876 250.482 64.1076 250.308 63.9649C249.919 63.5892 249.564 63.18 249.247 62.742C248.897 62.2004 248.505 61.6871 248.074 61.2067C247.856 60.9682 247.586 60.7819 247.286 60.6614C246.986 60.5409 246.663 60.4893 246.34 60.5105C245.982 60.5747 245.641 60.7114 245.337 60.9122C244.125 61.6158 243.008 62.4739 242.016 63.4651C241.941 63.5409 241.856 63.6347 241.874 63.7418C241.891 63.8489 241.963 63.8935 241.972 63.9828C241.975 64.0634 241.946 64.1419 241.891 64.2015C241.296 64.9441 240.589 65.59 239.796 66.1161C238.673 66.9612 237.573 67.8389 236.498 68.7494C235.825 69.2287 235.293 69.8809 234.96 70.6373C234.732 71.5186 234.832 72.4529 235.24 73.266C235.985 75.0156 237.282 76.4616 238.562 77.8675C238.776 78.1542 239.075 78.3652 239.417 78.47C239.687 78.5067 239.961 78.4398 240.184 78.2825C240.964 77.7693 241.076 76.6981 241.143 75.7654L241.214 74.4755C241.212 74.3911 241.229 74.3073 241.263 74.2301C241.33 74.1319 241.425 74.0558 241.535 74.0114L242.747 73.3687C242.377 72.7649 241.849 72.2733 241.221 71.9463C240.593 71.6193 239.888 71.4692 239.181 71.512C238.858 71.5889 238.518 71.5428 238.227 71.3826C238.087 71.2363 238.008 71.0411 238.008 70.8381C238.008 70.6351 238.087 70.4399 238.227 70.2936C238.523 70.0124 238.885 69.8111 239.279 69.7089C242.475 68.5351 245.364 66.6517 248.467 65.2458C248.806 65.0736 249.183 64.9864 249.563 64.9914C249.875 65.0138 250.241 65.1967 250.531 65.0718Z" fill="#F86D70"/>
<path d="M263.124 111.81C262.981 112.078 262.932 112.39 262.776 112.653C262.62 112.917 262.281 113.1 262.018 112.966C261.88 112.869 261.777 112.729 261.724 112.569C260.372 109.473 259.991 106.04 260.632 102.723C260.721 102.18 260.881 101.652 261.109 101.152C261.345 100.67 261.688 100.179 261.59 99.6523C260.317 100.054 259.094 100.599 257.944 101.277C257.186 101.723 256.388 102.344 256.317 103.218C256.31 103.557 256.36 103.895 256.464 104.218L256.883 105.794C256.934 106.086 257.063 106.359 257.257 106.584C257.391 106.717 257.574 106.802 257.703 106.945C257.826 107.111 257.908 107.304 257.944 107.507L258.296 108.873C258.427 109.329 258.521 109.795 258.577 110.266C258.617 110.712 258.577 111.122 258.613 111.551C258.663 112.256 258.767 112.955 258.925 113.644L259.428 116.117C259.542 116.808 259.74 117.482 260.017 118.125C260.226 118.571 260.507 118.955 260.681 119.406C260.81 119.75 260.877 120.116 261.038 120.441C261.327 120.97 261.779 121.391 262.326 121.642C262.518 121.755 262.733 121.823 262.954 121.843C263.583 121.865 264.033 121.254 264.327 120.691C264.902 119.669 265.209 118.517 265.219 117.344C265.219 116.871 265.121 116.402 265.081 115.929C264.969 114.59 265.344 113.292 265.339 111.957C265.348 110.707 263.583 110.944 263.124 111.81Z" fill="#F86D70"/>
<path d="M328.528 34.0483C327.139 33.4084 325.918 32.4534 324.962 31.2589C324.47 30.6291 324.023 29.9654 323.625 29.2728C321.932 26.412 320.478 23.416 319.278 20.3153C321.177 20.7036 323.17 21.0562 325.038 20.5207C326.012 20.2234 326.92 19.7416 327.712 19.1014C328.728 18.2653 329.67 17.3441 330.53 16.3477C331.179 17.5939 331.924 18.7876 332.758 19.9181C333.235 20.5608 334.849 21.8685 334.729 22.7433C334.608 23.618 332.825 24.0554 332.103 24.4705L332.027 24.5196C330.962 25.1936 330.033 26.0609 329.286 27.0769C327.886 29.0675 327.4 31.8435 328.528 34.0483Z" fill="#FBBEBE"/>
<path opacity="0.1" d="M332.139 24.4532C331.067 23.9264 330.121 23.1758 329.363 22.252C328.606 21.3281 328.055 20.2525 327.748 19.0975C328.764 18.2614 329.706 17.3402 330.565 16.3438C331.215 17.5899 331.96 18.7837 332.794 19.9142C333.271 20.5569 334.885 21.8646 334.765 22.7394C334.644 23.6141 332.861 24.0381 332.139 24.4532Z" fill="black"/>
<path d="M336.151 25.1094C340.762 25.1094 344.5 21.3668 344.5 16.75C344.5 12.1332 340.762 8.39062 336.151 8.39062C331.54 8.39062 327.801 12.1332 327.801 16.75C327.801 21.3668 331.54 25.1094 336.151 25.1094Z" fill="#FBBEBE"/>
<path d="M317.887 68.8208C317.31 69.1677 316.652 69.3587 315.978 69.3751C315.305 69.3915 314.639 69.2328 314.045 68.9145C313.426 68.5329 312.868 68.0622 312.386 67.5176C309.645 64.7014 307.037 61.7156 305.205 58.2209C304.779 57.4836 304.503 56.669 304.394 55.8243C304.342 55.4021 304.393 54.9738 304.543 54.5758C304.693 54.1779 304.937 53.8222 305.254 53.5392C305.424 53.4263 305.575 53.2861 305.7 53.1241C305.807 52.8861 305.858 52.6263 305.847 52.3654C305.896 51.9202 306.071 51.4982 306.35 51.1482C306.63 50.7983 307.002 50.5348 307.425 50.3882C306.979 50.0847 307.158 49.4108 307.447 48.9779C307.737 48.5449 308.143 48.0853 308.071 47.5854C307.957 47.252 307.82 46.9269 307.661 46.6124C307.501 46.0679 307.791 45.5056 307.947 44.9611C308.272 43.8453 308.076 42.6581 307.996 41.4977C307.759 38.0611 308.593 34.6513 309.418 31.3085C309.782 29.611 310.308 27.9521 310.987 26.3544C311.196 25.9081 311.433 25.4618 311.673 25.0646C312.515 23.6988 313.452 22.3938 314.477 21.1594C314.957 20.4332 315.616 19.8429 316.39 19.4456C316.462 19.4141 316.537 19.3873 316.612 19.3652C317.168 19.2216 317.745 19.1777 318.315 19.2358C319.822 19.3295 321.405 19.6821 322.479 20.7443C323.553 21.8065 323.901 23.2972 324.387 24.7343C324.542 25.2153 324.729 25.6851 324.948 26.1402C325.657 27.5505 326.812 28.6752 327.949 29.7687L329.183 30.9603C329.803 31.5584 330.877 31.4067 331.461 32.036C331.699 32.3317 331.876 32.6714 331.983 33.0357C332.642 34.6455 333.027 36.3549 333.12 38.0924C333.124 38.4788 333.102 38.865 333.053 39.2483C332.902 40.5934 332.307 41.8498 331.363 42.8188C330.293 43.8498 328.804 44.3586 327.739 45.394C326.847 46.2509 326.33 47.3979 325.822 48.5182C324.841 50.6783 323.859 52.8414 322.876 55.0075C322.163 56.4897 321.551 58.018 321.043 59.5822C320.116 62.7019 320.642 67.1025 317.887 68.8208Z" fill="#F86D70"/>
<path d="M292.144 105.597C289.942 105.686 287.735 105.66 285.542 105.869C284.262 105.994 282.988 106.204 281.704 106.258C280.304 106.32 278.9 106.209 277.496 106.235C273.961 106.311 270.475 107.253 267.073 108.226C266.113 105.878 265.612 103.367 265.598 100.83C265.589 100.662 265.589 100.494 265.598 100.326C265.66 99.6078 265.874 98.911 266.226 98.282C269.347 97.3894 272.512 96.4968 275.753 96.5414C276.809 96.5414 277.857 96.6664 278.909 96.6976C281.962 96.7914 284.931 95.4212 287.962 95.805C288.263 95.8348 288.565 95.7683 288.825 95.6151C289.086 95.4619 289.291 95.2299 289.411 94.9526C289.54 94.6223 289.594 94.1894 289.928 94.06C290.169 93.9707 290.499 94.0823 290.65 93.877C290.704 93.7667 290.736 93.6469 290.744 93.5244C290.833 93.0781 291.283 92.8772 291.636 92.6318C292.527 92.0159 293.031 90.9626 293.477 89.9539C293.594 89.7356 293.665 89.4956 293.686 89.2487C293.686 89.0524 293.624 88.856 293.628 88.6551C293.628 87.95 294.417 87.5438 294.827 86.9681C295.367 86.2094 295.273 85.1829 295.536 84.2902C295.893 83.1655 296.842 82.3666 297.079 81.2598C297.105 81.1468 297.123 81.0319 297.132 80.9161C296.187 81.8925 295.104 82.7254 293.918 83.3887C289.959 85.83 285.225 87.2894 281.53 90.1146C278.597 92.3461 274.299 92.2792 271.09 90.4627C269.88 89.7213 268.737 88.8745 267.675 87.9321C266.044 86.5932 264.394 85.223 262.687 83.9466C261.498 83.054 260.266 82.1926 258.991 81.3624C257.448 80.3402 255.849 79.403 254.204 78.5552C252.162 77.5197 250.107 76.4932 247.834 76.2477C247.541 75.6504 247.379 74.9978 247.358 74.3331C247.336 73.6684 247.456 73.0066 247.709 72.3916C248.228 71.1683 248.932 70.0319 249.795 69.022C250.441 68.0733 251.25 67.2468 252.184 66.5807C252.288 66.5148 252.409 66.4799 252.532 66.4799C252.655 66.4799 252.776 66.5148 252.88 66.5807L261.715 72.0123L263.369 73.0254C266.993 75.2569 270.559 77.6447 274.183 79.8628C274.25 80.1172 274.602 80.1485 274.857 80.0815C275.111 80.0146 275.4 79.9075 275.619 80.0548C275.726 80.1262 275.802 80.2601 275.935 80.2868C276.042 80.2904 276.146 80.2556 276.23 80.1887C277.727 79.1577 278.494 77.1761 280.175 76.4843C280.892 76.1897 281.744 76.1451 282.306 75.5917C282.638 75.1697 282.936 74.722 283.197 74.2527C283.924 73.3021 285.301 73.0165 285.974 72.0212C286.42 71.3766 286.956 70.7994 287.566 70.3074C288.78 69.3176 289.833 68.1447 290.686 66.8306C291.127 66.1818 291.471 65.4722 291.707 64.724C291.823 64.3357 291.894 63.934 292.023 63.5502C292.429 62.3809 293.361 61.4838 294.292 60.6715C295.982 59.1898 297.805 57.7839 299.945 57.1011C300.691 56.928 301.414 56.6658 302.098 56.32C302.958 55.7934 303.747 54.8159 304.733 55.0436C305.106 55.1595 305.443 55.3719 305.709 55.6595C306.917 56.8361 308.028 58.1093 309.03 59.4665C310.62 61.4927 312.208 63.5205 313.795 65.5497C314.296 66.2793 314.929 66.9077 315.663 67.4019C316.727 67.9502 317.949 68.1081 319.118 67.8482C318.962 69.504 317.647 70.8697 317.103 72.4407C316.84 73.2039 316.737 74.0162 316.541 74.7972C316.265 75.7773 315.912 76.7339 315.485 77.6581C314.415 80.1529 313.336 82.6612 311.803 84.9017C311.009 86.0666 310.095 87.1332 309.199 88.2267C305.664 92.4979 302.958 97.6483 298.946 101.491C297.975 102.433 297.359 103.723 296.272 104.53C295.09 105.405 293.566 105.539 292.144 105.597Z" fill="#434175"/>
<path opacity="0.1" d="M308.941 48.9688C308.548 48.988 308.165 49.1028 307.826 49.3035C308.642 49.0178 309.636 49.781 310.389 49.4195C310.742 49.2499 310.688 49.2008 310.389 49.0982C309.939 48.9464 309.395 49.0848 308.941 48.9688Z" fill="black"/>
<path d="M449.674 196.456L416.908 208.105L418.996 213.994L451.762 202.344L449.674 196.456Z" fill="#D0D2D5"/>
<path d="M427.869 220.314L457.695 209.711C458.474 209.433 459.332 209.478 460.08 209.834C460.827 210.19 461.402 210.829 461.679 211.609C461.956 212.39 461.912 213.249 461.556 213.997C461.201 214.745 460.563 215.322 459.783 215.599L429.957 226.203L427.869 220.314Z" fill="#D0D2D5"/>
<path d="M399.454 201.999L406.722 199.416C413.183 197.118 420.292 197.485 426.484 200.435C432.676 203.386 437.443 208.678 439.738 215.147L442.319 222.423C443.216 224.953 443.073 227.736 441.92 230.16C440.768 232.584 438.701 234.451 436.174 235.349L414.07 243.208C411.543 244.106 408.763 243.963 406.342 242.809C403.921 241.656 402.057 239.586 401.159 237.056L393.31 214.925C392.413 212.396 392.556 209.613 393.708 207.188C394.861 204.764 396.928 202.898 399.454 201.999Z" fill="#3F3D56"/>
<path opacity="0.1" d="M308.539 53.3242C308.237 53.2181 307.912 53.198 307.599 53.2662C307.132 53.3158 306.698 53.5293 306.373 53.8687C306.459 53.9075 306.553 53.9276 306.647 53.9276C306.742 53.9276 306.835 53.9075 306.921 53.8687C307.213 53.7948 307.513 53.7617 307.813 53.7705C308.071 53.7705 308.843 54.0562 309.043 53.9312C309.337 53.7393 308.74 53.4001 308.539 53.3242Z" fill="black"/>
<path opacity="0.1" d="M333.053 39.2492C332.382 39.022 331.741 38.7132 331.145 38.3298C329.58 37.3345 328.265 35.9822 326.718 34.9646C325.937 34.4732 325.129 34.0262 324.298 33.6257L319.078 30.9478C318.68 30.7211 318.254 30.5471 317.812 30.4301C316.96 30.2426 316.002 30.8139 315.137 30.6934C314.689 30.6109 314.263 30.4342 313.888 30.175C313.513 29.9157 313.197 29.5798 312.962 29.1893C312.49 28.4093 312.158 27.5529 311.981 26.6588C311.848 26.1315 311.748 25.5963 311.682 25.0565C311.605 24.4959 311.594 23.9281 311.651 23.365C311.74 22.2467 312.269 21.2096 313.122 20.4818C313.741 20.0418 314.446 19.7376 315.19 19.5892C315.66 19.4703 316.139 19.3912 316.621 19.3527C316.896 19.3304 317.172 19.3304 317.446 19.3527C319.416 19.5089 321.084 20.8478 322.399 22.3206C323.09 23.0972 323.736 23.9318 324.396 24.7218C324.55 25.2028 324.738 25.6725 324.957 26.1277C325.666 27.538 326.821 28.6627 327.957 29.7561L329.192 30.9478C329.812 31.5458 330.886 31.3941 331.47 32.0234C331.708 32.3191 331.885 32.6588 331.992 33.0231C332.65 34.6377 333.031 36.3517 333.12 38.0932C333.124 38.4796 333.102 38.8658 333.053 39.2492Z" fill="black"/>
<path opacity="0.1" d="M292.456 96.3668L265.593 100.326C265.655 99.6073 265.87 98.9104 266.222 98.2815C269.342 97.3889 272.507 96.4963 275.748 96.5409C276.805 96.5409 277.852 96.6659 278.904 96.6971C281.958 96.7908 284.927 95.4207 287.958 95.8045C288.258 95.8342 288.561 95.7677 288.821 95.6145C289.081 95.4613 289.286 95.2294 289.407 94.952C289.536 94.6218 289.59 94.1888 289.924 94.0594C290.165 93.9701 290.494 94.0817 290.646 93.8764C290.7 93.7662 290.732 93.6464 290.74 93.5238C290.829 93.0775 291.279 92.8767 291.631 92.6312C292.523 92.0153 293.026 90.962 293.472 89.9534C293.589 89.7351 293.661 89.4951 293.682 89.2482C293.682 89.0518 293.619 88.8554 293.624 88.6546C293.624 87.9494 294.413 87.5433 294.823 86.9675C295.362 86.2088 295.269 85.1823 295.532 84.2897C295.888 83.165 296.838 82.3661 297.074 81.2592L297.19 81.1075L301.764 79.3223L292.456 96.3668Z" fill="black"/>
<path opacity="0.1" d="M189.455 313.162C294.088 313.162 378.91 306.567 378.91 298.433C378.91 290.299 294.088 283.705 189.455 283.705C84.8218 283.705 0 290.299 0 298.433C0 306.567 84.8218 313.162 189.455 313.162Z" fill="#1A75FF"/>
<path opacity="0.1" d="M356.942 351.999C424.646 351.999 479.53 344.852 479.53 336.035C479.53 327.218 424.646 320.07 356.942 320.07C289.238 320.07 234.353 327.218 234.353 336.035C234.353 344.852 289.238 351.999 356.942 351.999Z" fill="#1A75FF"/>
<path d="M211.855 286.507L211.98 280.187C217.924 279.848 223.867 279.622 229.811 279.509C233.261 279.447 236.756 279.424 240.095 280.29C242.409 280.893 244.597 281.91 246.88 282.624C251.427 284.044 256.241 284.231 261.015 284.36C265.647 284.49 270.484 284.534 274.643 282.486C281.842 278.915 284.869 270.145 285.221 262.116C285.573 254.087 283.977 245.996 285.087 238.016" stroke="#3F3D56" stroke-width="12" stroke-miterlimit="10"/>
<path d="M228.153 298.876L148.72 297.859L148.952 295.819L152.794 262.172H222.549L227.685 295.819L228.077 298.368L228.153 298.876Z" fill="#D0D2D5"/>
<path opacity="0.1" d="M228.077 298.367H188.434L148.72 297.858L148.952 295.818H227.685L228.077 298.367Z" fill="black"/>
<path d="M240.884 296.328H135.48V298.877H240.884V296.328Z" fill="#D0D2D5"/>
<path d="M341.447 60.0833C341.454 59.2095 341.29 58.3428 340.962 57.533C340.634 56.7231 340.15 55.986 339.537 55.364C338.924 54.742 338.194 54.2473 337.39 53.9083C336.585 53.5694 335.722 53.3928 334.849 53.3887H40.4943C39.6217 53.3933 38.7586 53.5703 37.9545 53.9095C37.1503 54.2487 36.4209 54.7434 35.808 55.3653C35.1952 55.9872 34.7109 56.7241 34.3829 57.5337C34.055 58.3433 33.8898 59.2097 33.8968 60.0833V238.723H341.447V60.0833Z" fill="#3F3D56"/>
<path d="M33.8968 236.936V257.863C33.8968 259.615 34.5919 261.295 35.8292 262.534C37.0664 263.772 38.7445 264.468 40.4943 264.468H334.849C336.599 264.468 338.277 263.772 339.514 262.534C340.752 261.295 341.447 259.615 341.447 257.863V236.936H33.8968Z" fill="#D0D2D5"/>
<path d="M330.244 64.625H46.6282V225.212H330.244V64.625Z" fill="#2F2E41"/>
<path d="M189.201 256.53C190.242 256.53 191.27 256.294 192.206 255.838C193.143 255.383 193.964 254.721 194.608 253.901C194.805 253.651 194.983 253.387 195.143 253.111L191.372 252.491L195.451 252.522C195.842 251.67 196.055 250.746 196.077 249.809C196.099 248.871 195.93 247.938 195.58 247.068L190.11 249.911L195.156 246.198C194.691 245.367 194.058 244.641 193.298 244.068C192.538 243.494 191.667 243.085 190.74 242.866C189.814 242.647 188.852 242.623 187.916 242.795C186.98 242.968 186.09 243.333 185.302 243.868C184.514 244.403 183.846 245.096 183.34 245.903C182.833 246.71 182.5 247.614 182.361 248.557C182.221 249.499 182.279 250.461 182.53 251.38C182.782 252.299 183.221 253.156 183.82 253.897C184.46 254.714 185.277 255.376 186.209 255.832C187.14 256.288 188.163 256.527 189.201 256.53Z" fill="#1A75FF"/>
<path opacity="0.1" d="M196.075 264.465L227.765 296.327L222.901 264.465H196.075Z" fill="black"/>
<path d="M332.183 63.3178L349.203 40.739C350.22 39.4 351.267 38.0031 352.662 37.0391C356.674 34.263 362.554 35.9054 365.911 39.4625C369.268 43.0196 370.676 47.9692 371.706 52.7536C374.104 63.7659 375.176 75.0262 374.898 86.2938C374.755 92.2253 374.225 98.2192 372.339 103.847C369.477 112.407 363.678 119.615 359.296 127.502C352.239 140.208 349.283 157.154 358.217 168.62C361.128 172.356 365.091 175.212 367.779 179.113C370.814 183.518 371.996 188.905 373.128 194.136C374.817 202.035 376.511 209.984 376.823 218.058C377.831 244.162 362.964 270.245 340.007 282.661C324.07 291.284 304.791 293.783 290.931 305.476C286.028 309.596 281.802 315.652 283.005 321.927C283.986 327.02 288.453 330.889 293.356 332.572C298.26 334.255 303.578 334.116 308.749 333.822C321.169 333.111 333.529 331.582 345.748 329.247C356.104 327.265 366.441 325.556 375.468 320.102C376.373 319.623 377.146 318.929 377.719 318.08C378.303 317.103 378.402 315.92 378.482 314.782C378.727 311.43 378.959 307.953 377.777 304.807C376.4 301.129 373.257 298.344 371.751 294.72C370.244 291.096 370.516 286.923 371.492 283.116C372.696 278.412 374.884 274.03 377.086 269.705C379.231 265.492 381.406 261.292 383.929 257.297C391.035 246.068 400.744 236.767 410.35 227.595" stroke="#3F3D56" stroke-width="12" stroke-miterlimit="10"/>
<path d="M360.348 30.9513C361.096 30.6251 361.899 30.4391 362.715 30.4023C363.237 30.443 363.751 30.5603 364.239 30.7505C365.12 31.0094 365.943 31.4351 366.664 32.0046C367.021 32.2924 367.305 32.661 367.491 33.08C367.678 33.499 367.763 33.9565 367.739 34.4147C367.636 35.3073 366.976 36.0749 366.254 36.6462C365.275 37.4536 364.062 37.9232 362.795 37.9851C361.377 37.9851 360.04 37.3692 358.671 36.9854C357.676 36.7035 356.648 36.5534 355.613 36.5391C355.093 36.5657 354.57 36.5313 354.058 36.4364C353.801 36.3887 353.559 36.2809 353.351 36.122C353.144 35.963 352.976 35.7573 352.863 35.5215C352.74 35.0912 352.74 34.6352 352.863 34.2049C352.97 33.6515 352.952 32.3349 353.443 32.0046C353.835 31.7413 355.226 31.9555 355.707 31.9153C357.283 31.7553 358.838 31.4322 360.348 30.9513Z" fill="#FBBEBE"/>
<path d="M354.165 31.3978C352.319 32.2458 350.153 31.5407 348.147 31.5362C347.161 31.5362 346.181 31.7013 345.2 31.7594C344.113 31.7981 343.025 31.7698 341.941 31.6746L338.678 31.4514C336.756 31.3875 334.845 31.1243 332.977 30.6659C331.381 28.7825 328.791 27.9523 326.865 26.417C325.323 25.1852 324.217 23.5071 322.902 22.0298C321.587 20.5525 319.92 19.2181 317.954 19.0618C317.193 19.0238 316.43 19.1051 315.694 19.3028C314.95 19.4483 314.246 19.7527 313.63 20.1955C313.207 20.5552 312.86 20.9951 312.607 21.4899C312.355 21.9847 312.202 22.5247 312.159 23.0786C312.078 24.1871 312.188 25.3013 312.485 26.3724C312.662 27.268 312.994 28.1258 313.465 28.9074C313.704 29.2963 314.021 29.631 314.396 29.89C314.772 30.1491 315.197 30.3267 315.645 30.4115C316.505 30.5275 317.459 29.9652 318.32 30.1437C318.762 30.2607 319.188 30.4348 319.586 30.6614L324.81 33.3393C325.64 33.7408 326.446 34.1878 327.226 34.6782C328.778 35.6958 330.088 37.0481 331.653 38.0434C333.218 39.0387 335.192 39.6635 336.931 39.0119C342.28 37.0169 348.307 37.9452 353.982 38.4406C353.946 38.3335 354.178 38.2353 354.245 38.146C354.947 37.1816 355.265 35.9897 355.136 34.8032C354.998 33.6294 354.552 32.5225 354.165 31.3978Z" fill="#F86D70"/>
<path d="M345.191 16.3612C345.747 16.1055 346.212 15.6888 346.529 15.1651C347.037 14.2234 346.725 13.0674 346.377 12.0409C346.029 11.0144 345.677 10.1173 345.289 9.17116C345.012 8.3772 344.592 7.64063 344.05 6.99764C343.261 6.15411 342.133 5.73011 341.193 5.06511C340.078 4.27515 339.245 3.15491 338.304 2.16856C337.363 1.18222 336.213 0.267285 334.858 0.102151C333.814 0.0496462 332.773 0.243818 331.818 0.668964C323.678 3.6637 317.023 9.59516 309.734 14.2993C306.899 16.1336 303.716 17.843 300.373 17.5975L303.364 22.3551C304.126 23.5736 304.982 24.8634 306.32 25.3856C307.501 25.8319 308.82 25.6087 310.06 25.3856C311.046 25.2426 312.006 24.9538 312.908 24.5287C314.691 23.5602 315.837 21.5473 317.754 20.8466C319.185 20.3244 320.78 20.6458 322.211 21.1456C323.642 21.6455 325.047 22.3239 326.553 22.5292C329.228 22.8907 331.903 21.6812 334.131 20.1191C335.469 19.1908 336.686 18.1241 338.143 17.4413C339.24 16.8716 340.485 16.652 341.71 16.812C343.06 16.9994 343.854 17.0619 345.191 16.3612Z" fill="#2F2E41"/>
<path opacity="0.1" d="M346.529 15.166C347.028 14.2422 346.734 13.1086 346.395 12.1133C346.505 12.6835 346.426 13.274 346.172 13.7959C345.853 14.317 345.388 14.7329 344.835 14.992C343.497 15.6971 342.686 15.6347 341.313 15.407C340.088 15.2499 338.844 15.4694 337.747 16.0363C336.298 16.7371 335.072 17.8216 333.735 18.7142C331.506 20.2763 328.831 21.4813 326.157 21.1198C324.645 20.919 323.25 20.2272 321.815 19.7363C320.379 19.2453 318.779 18.915 317.357 19.4372C315.445 20.1379 314.312 22.1552 312.516 23.1193C311.614 23.5438 310.654 23.8325 309.667 23.9762C308.424 24.2172 307.104 24.4537 305.927 23.9762C304.59 23.4585 303.734 22.1642 302.967 20.9458L300.85 17.5761C300.68 17.5761 300.507 17.5761 300.337 17.5761L303.328 22.3338C304.091 23.5522 304.946 24.842 306.284 25.3642C307.465 25.8105 308.785 25.5874 310.024 25.3642C311.011 25.2212 311.97 24.9324 312.872 24.5073C314.656 23.5388 315.801 21.526 317.718 20.8252C319.149 20.3031 320.745 20.6244 322.176 21.1243C323.607 21.6241 325.011 22.3025 326.518 22.5078C329.192 22.8693 331.867 21.6598 334.096 20.0978C335.433 19.1694 336.65 18.1028 338.108 17.4199C339.204 16.8502 340.449 16.6306 341.674 16.7906C343.047 17.0138 343.858 17.0762 345.191 16.3755C345.748 16.1163 346.214 15.6947 346.529 15.166Z" fill="black"/>
<path d="M369.575 320.455C369.838 320.044 370.166 319.679 370.547 319.375C372.495 317.536 373.4 314.831 373.881 312.18C374.363 309.529 374.501 306.824 375.272 304.231C375.689 302.901 376.214 301.607 376.841 300.362C377.287 299.407 377.844 297.532 378.665 296.867C378.824 296.728 379.018 296.634 379.226 296.595C379.609 295.774 380.159 295.041 380.84 294.444C382.115 293.288 383.671 292.368 384.522 290.873C384.755 290.354 385.043 289.862 385.382 289.405C385.957 288.767 386.867 288.512 387.397 287.838C388.088 286.972 387.932 285.736 387.843 284.629C387.754 283.522 387.843 282.206 388.797 281.63C389.368 281.278 390.103 281.309 390.696 281.001C391.588 280.555 391.94 279.425 391.922 278.421C391.904 277.417 391.592 276.44 391.512 275.44C391.262 272.244 393.366 269.067 392.55 265.969C392.243 264.795 391.543 263.773 391.021 262.684C390.843 262.319 390.694 261.94 390.576 261.551C389.186 262.103 387.726 262.456 386.238 262.599C388.694 257.083 388.07 250.67 389.216 244.747L389.069 244.542C387.909 243.017 387.252 241.169 387.188 239.253C387.188 237.021 388.217 234.982 388.681 232.826C389.073 230.987 389.06 229.073 389.573 227.27C389.932 226.15 390.405 225.07 390.986 224.047C391.543 223.012 392.127 221.999 392.738 220.999C393.308 219.107 393.88 217.214 394.454 215.322C395.256 212.644 396.081 209.966 397.641 207.672C398.212 206.829 398.386 205.128 399.264 204.619C399.976 204.248 400.786 204.106 401.582 204.213C402.821 203.517 403.909 202.513 404.065 201.138C404.08 200.838 404.05 200.537 403.976 200.246H403.824C401.858 200.063 400.869 198.331 399.848 196.818C398.194 194.359 398.827 191.038 399.848 188.249C400.101 187.367 400.559 186.558 401.185 185.888C402.616 184.549 404.881 184.843 406.726 184.196C407.325 183.934 407.936 183.703 408.558 183.504C409.784 183.214 411.068 183.62 412.191 184.183C413.315 184.745 414.362 185.486 415.539 185.932C416.716 186.379 418.169 186.731 418.459 187.941C418.541 188.348 418.505 188.771 418.356 189.159C418.086 189.933 417.612 190.619 416.983 191.145C417.485 192.18 417.756 193.311 417.778 194.461C417.8 195.611 417.573 196.751 417.113 197.805C416.652 198.858 415.969 199.799 415.11 200.562C414.251 201.326 413.237 201.894 412.138 202.227C411.799 202.767 411.483 203.325 411.193 203.892C410.676 204.892 410.239 206.07 410.413 207.141C410.736 207.482 411.034 207.846 411.304 208.23C412.584 210.015 413.31 212.113 413.979 214.202C414.881 216.868 415.602 219.592 416.136 222.356C417.224 224.668 418.553 226.881 419.342 229.314C420.754 229.317 422.161 229.129 423.523 228.756L427.285 227.899C428.591 227.604 429.96 227.283 430.985 226.417C431.529 225.971 431.953 225.377 432.505 224.931C433.058 224.485 434.168 223.971 434.774 224.337C434.885 224.405 434.988 224.484 435.082 224.574C435.63 223.458 439.138 228.024 436.74 228.475L436.896 228.921C437.213 229.845 437.886 230.97 437.716 231.934L420.973 237.686C419.899 238.122 418.76 238.374 417.603 238.432C417.152 238.428 416.702 238.368 416.266 238.253V239.11V239.141C416.221 245.028 417.157 250.879 417.331 256.762C417.362 257.833 417.331 258.993 416.654 259.832C415.896 260.752 414.549 260.93 413.377 260.725C413.097 260.68 412.821 260.619 412.548 260.542C412.152 262.021 411.866 263.528 411.692 265.05L410.582 272.976C410.438 273.792 410.379 274.621 410.408 275.449C410.537 277.314 411.523 278.992 412.236 280.72C412.949 282.447 413.373 284.513 412.432 286.124C412.142 286.624 411.737 287.053 411.474 287.57C411.139 288.37 410.987 289.235 411.028 290.101C410.96 292.511 410.894 294.918 410.832 297.322C411.027 297.294 411.225 297.335 411.393 297.438C412.321 298.157 412.218 301.602 412.285 302.669C412.356 304.454 412.285 306.275 412.383 308.078C412.503 310.516 412.904 312.932 413.578 315.277C413.738 316.039 414.09 316.747 414.599 317.335C415.119 317.787 415.739 318.11 416.408 318.277C418.631 318.973 420.955 319.29 423.282 319.214C424.223 319.183 425.204 319.093 426.077 319.45C426.951 319.807 427.655 320.789 427.339 321.682C427.067 322.432 426.242 322.789 425.498 323.07C423.796 323.668 422.155 324.424 420.594 325.328C419.992 325.739 419.357 326.099 418.695 326.404C418.063 326.632 417.409 326.794 416.743 326.886L408.844 328.225C407.225 328.506 405.277 328.671 404.248 327.332C403.69 326.609 403.61 325.627 403.637 324.712C403.681 322.927 404.038 321.111 403.802 319.325C403.629 318.268 403.353 317.231 402.977 316.228L400.606 309.212C399.812 306.86 399.01 304.49 398.702 302.026C398.591 301.134 398.6 300.121 399.282 299.563C399.454 299.421 399.655 299.318 399.87 299.259C399.897 297.108 400.178 294.952 400.057 292.801C400.026 292.266 399.973 291.726 399.928 291.19C399.511 291.581 399.14 292.018 398.823 292.493C398.065 293.685 397.784 295.265 396.62 296.064C395.631 296.742 394.164 296.706 393.469 297.688C393.245 298.066 393.077 298.473 392.969 298.898C392.563 299.949 391.958 300.911 391.186 301.732C390.918 302.711 390.549 303.659 390.085 304.562C389.429 305.945 388.775 307.329 388.124 308.712C387.424 310.194 386.72 311.676 385.895 313.077C385.27 313.966 384.767 314.936 384.402 315.96C383.773 318.165 384.794 320.584 386.421 322.209C388.048 323.833 390.183 324.766 392.287 325.636C392.512 325.71 392.717 325.832 392.889 325.993C393.071 326.21 393.166 326.487 393.157 326.77C393.157 327.801 392.314 328.685 391.342 329.001C390.349 329.268 389.308 329.307 388.298 329.113C382.601 328.421 376.922 327.029 371.884 324.257C371.131 323.898 370.462 323.382 369.923 322.744C369.669 322.427 369.503 322.048 369.442 321.646C369.381 321.244 369.427 320.833 369.575 320.455Z" fill="url(#paint1_linear)"/>
<path d="M393.656 220.37C392.708 221.828 391.816 223.324 390.981 224.86C390.399 225.872 389.926 226.943 389.568 228.055C389.047 229.841 389.064 231.751 388.677 233.572C388.231 235.714 387.188 237.758 387.188 239.95C387.253 241.854 387.911 243.69 389.069 245.203C390.224 246.699 391.542 248.062 393.001 249.264C396.367 240.533 398.247 231.299 398.564 221.945C398.609 220.651 398.613 219.312 398.145 218.107C397.851 217.348 396.464 215.269 395.568 216.085C395.243 216.384 395.158 217.732 394.958 218.178C394.582 218.942 394.147 219.675 393.656 220.37Z" fill="#F86D70"/>
<path opacity="0.1" d="M393.656 220.37C392.708 221.828 391.816 223.324 390.981 224.86C390.399 225.872 389.926 226.943 389.568 228.055C389.047 229.841 389.064 231.751 388.677 233.572C388.231 235.714 387.188 237.758 387.188 239.95C387.253 241.854 387.911 243.69 389.069 245.203C390.224 246.699 391.542 248.062 393.001 249.264C396.367 240.533 398.247 231.299 398.564 221.945C398.609 220.651 398.613 219.312 398.145 218.107C397.851 217.348 396.464 215.269 395.568 216.085C395.243 216.384 395.158 217.732 394.958 218.178C394.582 218.942 394.147 219.675 393.656 220.37Z" fill="black"/>
<path d="M441.51 225.249C443.253 224.959 445.188 225.102 446.543 226.231C447.361 226.926 447.878 227.911 447.987 228.98C448.103 230.221 447.385 231.685 446.146 231.783C445.848 231.786 445.55 231.767 445.254 231.725C444.472 231.72 443.69 231.784 442.919 231.917C441.4 232.059 439.869 231.835 438.454 231.264C437.04 230.692 435.782 229.79 434.788 228.632C433.727 227.32 435.126 226.717 436.388 226.449C438.109 226.083 439.789 225.543 441.51 225.249Z" fill="#FBBEBE"/>
<path d="M411.696 265.557L410.591 273.421C410.448 274.231 410.391 275.054 410.422 275.876C410.551 277.728 411.532 279.393 412.245 281.107C412.958 282.821 413.386 284.869 412.445 286.463C412.156 286.962 411.745 287.382 411.487 287.895C411.153 288.691 411.001 289.551 411.041 290.412L410.738 301.57C407.297 301.803 403.843 301.784 400.405 301.512C400.27 301.524 400.135 301.489 400.022 301.414C399.932 301.298 399.886 301.154 399.892 301.008C399.741 298.397 400.195 295.782 400.048 293.171C399.995 292.216 399.857 291.265 399.843 290.305C399.785 286.418 401.707 282.611 401.127 278.764C400.945 277.796 400.707 276.839 400.414 275.898C398.582 269.204 398.97 262.166 399.371 255.257C399.367 255.146 399.398 255.036 399.46 254.944C399.529 254.879 399.613 254.833 399.705 254.81C401.656 254.226 403.718 254.12 405.718 254.502C407.718 254.883 409.598 255.741 411.197 257.002C411.683 257.394 412.909 257.774 413.23 258.238C413.676 258.894 413.087 259.541 412.833 260.237C412.265 261.965 411.884 263.748 411.696 265.557Z" fill="#3F3D56"/>
<path opacity="0.1" d="M411.696 265.557L410.591 273.421C410.448 274.231 410.391 275.054 410.422 275.876C410.551 277.728 411.532 279.393 412.245 281.107C412.958 282.821 413.386 284.869 412.445 286.463C412.156 286.962 411.745 287.382 411.487 287.895C411.153 288.691 411.001 289.551 411.041 290.412L410.738 301.57C407.297 301.803 403.843 301.784 400.405 301.512C400.27 301.524 400.135 301.489 400.022 301.414C399.932 301.298 399.886 301.154 399.892 301.008C399.741 298.397 400.195 295.782 400.048 293.171C399.995 292.216 399.857 291.265 399.843 290.305C399.785 286.418 401.707 282.611 401.127 278.764C400.945 277.796 400.707 276.839 400.414 275.898C398.582 269.204 398.97 262.166 399.371 255.257C399.367 255.146 399.398 255.036 399.46 254.944C399.529 254.879 399.613 254.833 399.705 254.81C401.656 254.226 403.718 254.12 405.718 254.502C407.718 254.883 409.598 255.741 411.197 257.002C411.683 257.394 412.909 257.774 413.23 258.238C413.676 258.894 413.087 259.541 412.833 260.237C412.265 261.965 411.884 263.748 411.696 265.557Z" fill="black"/>
<path d="M391.026 263.183C391.547 264.268 392.247 265.281 392.555 266.446C393.371 269.521 391.271 272.694 391.521 275.845C391.601 276.84 391.909 277.809 391.931 278.804C391.953 279.799 391.588 280.906 390.705 281.361C390.112 281.669 389.368 281.638 388.81 281.986C387.87 282.557 387.763 283.87 387.856 284.963C387.95 286.056 388.102 287.288 387.411 288.15C386.88 288.815 385.971 289.069 385.4 289.698C385.059 290.152 384.769 290.641 384.535 291.158C383.684 292.644 382.133 293.559 380.858 294.728C379.583 295.898 378.504 297.611 379.075 299.227C379.494 300.419 380.67 301.151 381.803 301.709C383.869 302.731 386.049 303.502 388.298 304.007C388.539 304.079 388.795 304.091 389.042 304.043C389.292 303.95 389.516 303.797 389.693 303.596C391.008 302.307 392.368 300.954 392.974 299.218C393.083 298.796 393.251 298.392 393.473 298.018C394.169 297.045 395.631 297.076 396.625 296.406C397.784 295.616 398.065 294.045 398.823 292.863C399.54 291.747 400.69 290.979 401.497 289.935C402.835 288.203 403.196 285.896 404.172 283.919C404.586 283.075 405.117 282.294 405.447 281.415C405.78 280.368 405.985 279.284 406.057 278.188C406.686 272.975 408.286 267.727 407.279 262.567C407.056 261.429 406.713 260.336 406.57 259.166C406.32 257.14 406.713 255.074 406.414 253.052C406.407 252.799 406.343 252.551 406.227 252.327C406.11 252.103 405.944 251.908 405.741 251.758C405.5 251.65 405.238 251.595 404.974 251.597C402.331 251.459 399.682 251.52 397.048 251.78C395.711 251.909 394.209 252.182 393.411 253.275C392.729 254.208 392.764 255.466 392.519 256.605C392.252 258.001 391.543 258.769 390.799 259.867C390.054 260.965 390.478 262.054 391.026 263.183Z" fill="#3F3D56"/>
<path d="M401.31 299.451C400.606 299.451 399.826 299.411 399.282 299.857C398.604 300.411 398.591 301.433 398.702 302.308C399.014 304.749 399.812 307.101 400.61 309.449L402.982 316.416C403.358 317.409 403.634 318.438 403.806 319.486C404.043 321.271 403.686 323.057 403.641 324.842C403.641 325.734 403.699 326.725 404.257 327.444C405.264 328.738 407.23 328.586 408.848 328.31L416.743 326.971C417.408 326.88 418.063 326.72 418.695 326.493C419.355 326.189 419.989 325.831 420.59 325.422C422.152 324.528 423.793 323.781 425.493 323.19C426.233 322.914 427.062 322.557 427.33 321.811C427.646 320.919 426.942 319.941 426.068 319.58C425.195 319.218 424.218 319.312 423.273 319.343C420.949 319.418 418.629 319.103 416.408 318.411C415.739 318.25 415.118 317.93 414.599 317.478C414.088 316.897 413.735 316.195 413.573 315.438C412.905 313.111 412.504 310.715 412.379 308.297C412.289 306.512 412.352 304.727 412.28 302.941C412.236 301.884 412.338 298.478 411.389 297.751C410.68 297.206 407.76 298.71 406.806 298.929C405.003 299.333 403.157 299.508 401.31 299.451Z" fill="#2F2E41"/>
<path d="M375.299 304.415C374.532 306.977 374.407 309.677 373.913 312.306C373.418 314.935 372.531 317.622 370.583 319.447C370.202 319.747 369.875 320.109 369.615 320.518C369.451 320.9 369.395 321.32 369.454 321.732C369.513 322.144 369.684 322.532 369.95 322.852C370.488 323.487 371.155 324 371.907 324.356C376.939 327.106 382.605 328.489 388.316 329.177C389.324 329.369 390.363 329.333 391.356 329.069C392.328 328.739 393.188 327.864 393.17 326.838C393.179 326.558 393.084 326.284 392.903 326.07C392.729 325.911 392.524 325.791 392.301 325.718C390.197 324.852 388.057 323.906 386.434 322.312C384.812 320.719 383.786 318.295 384.415 316.126C384.783 315.111 385.284 314.149 385.904 313.266C386.721 311.862 387.465 310.417 388.133 308.936L390.094 304.817C390.665 303.616 391.249 302.376 391.342 301.041C388.88 301.153 386.421 300.759 384.116 299.885C383.04 299.446 382.037 298.843 381.143 298.1C380.385 297.466 379.694 296.288 378.673 297.114C377.853 297.774 377.336 299.631 376.85 300.577C376.234 301.814 375.715 303.097 375.299 304.415Z" fill="#2F2E41"/>
<path d="M404.034 202.128C403.837 203.837 402.179 204.971 400.597 205.645L410.609 208.849C409.962 207.609 410.488 206.091 411.13 204.833C411.653 203.838 412.249 202.883 412.913 201.976C413.012 201.838 413.123 201.659 413.052 201.503C412.988 201.398 412.888 201.32 412.771 201.285C410.711 200.365 408.589 199.415 406.338 199.08C405.687 198.982 404.457 198.723 403.971 199.388C403.485 200.053 404.141 201.338 404.034 202.128Z" fill="#FBBEBE"/>
<path opacity="0.1" d="M404.034 202.128C403.837 203.837 402.179 204.971 400.597 205.645L410.609 208.849C409.962 207.609 410.488 206.091 411.13 204.833C411.653 203.838 412.249 202.883 412.913 201.976C413.012 201.838 413.123 201.659 413.052 201.503C412.988 201.398 412.888 201.32 412.771 201.285C410.711 200.365 408.589 199.415 406.338 199.08C405.687 198.982 404.457 198.723 403.971 199.388C403.485 200.053 404.141 201.338 404.034 202.128Z" fill="black"/>
<path d="M409.869 203.517C414.207 203.517 417.723 199.996 417.723 195.653C417.723 191.31 414.207 187.789 409.869 187.789C405.531 187.789 402.014 191.31 402.014 195.653C402.014 199.996 405.531 203.517 409.869 203.517Z" fill="#FBBEBE"/>
<path d="M416.654 260.355C415.896 261.248 414.554 261.444 413.382 261.248C410.64 260.801 408.393 258.78 405.714 258.052C402.424 257.159 398.938 258.306 395.836 259.708C392.733 261.109 389.64 262.81 386.243 263.077C389.314 256.222 387.558 247.97 390.491 241.057C391.213 239.37 392.216 237.736 392.377 235.911C392.577 233.639 391.445 231.448 391.271 229.185C391.111 227.172 391.717 225.168 392.292 223.253L394.445 216.179C395.247 213.546 396.072 210.864 397.628 208.592C398.198 207.757 398.377 206.07 399.25 205.562C401.158 204.464 404.051 205.852 406.12 205.928C408.188 206.003 410.074 207.476 411.282 209.141C412.561 210.899 413.288 212.993 413.957 215.064C415.025 218.146 415.821 221.317 416.337 224.539C416.404 225.021 416.462 225.503 416.506 225.989C416.952 230.573 416.301 235.183 416.266 239.785C416.266 239.785 416.266 239.785 416.266 239.82C416.226 245.658 417.157 251.465 417.336 257.302C417.362 258.387 417.336 259.552 416.654 260.355Z" fill="#F86D70"/>
<path opacity="0.1" d="M416.266 239.824C414.728 239.436 413.333 238.445 412.142 237.356C411.11 236.435 410.191 235.394 409.405 234.254C408.418 232.697 407.626 231.024 407.047 229.273C405.396 224.624 404.348 219.783 403.927 214.867C403.811 213.528 403.775 212.095 404.573 211.033C405.02 210.457 405.648 210.05 406.355 209.877C407.063 209.704 407.808 209.777 408.469 210.082C409.526 210.6 410.208 211.64 410.836 212.631C412.093 214.608 413.355 216.603 414.162 218.799C414.518 219.772 414.781 220.776 415.129 221.753C415.483 222.717 415.89 223.66 416.35 224.578C416.417 225.06 416.475 225.542 416.52 226.029C416.934 230.59 416.301 235.2 416.266 239.824Z" fill="black"/>
<path d="M404.591 210.167C403.797 211.225 403.833 212.675 403.944 214.001C404.365 218.915 405.414 223.756 407.065 228.403C407.64 230.156 408.432 231.829 409.423 233.384C410.208 234.524 411.127 235.566 412.16 236.486C413.676 237.874 415.521 239.11 417.576 239.128C418.733 239.071 419.872 238.822 420.946 238.392L437.667 232.706C437.837 231.746 437.164 230.635 436.847 229.715L435.956 227.064C435.702 226.337 435.403 225.547 434.743 225.15C434.083 224.752 433.027 225.297 432.474 225.739C431.921 226.181 431.498 226.761 430.959 227.211C429.924 228.068 428.565 228.385 427.259 228.68L423.501 229.528C422.138 229.898 420.731 230.084 419.319 230.081C418.272 226.881 416.279 224.061 415.151 220.883C414.804 219.91 414.536 218.906 414.179 217.933C413.373 215.737 412.111 213.742 410.858 211.765C410.23 210.769 409.548 209.73 408.491 209.216C407.829 208.911 407.084 208.839 406.376 209.012C405.668 209.184 405.039 209.591 404.591 210.167Z" fill="#F86D70"/>
<path d="M407.364 197.424C407.424 196.908 407.584 196.409 407.836 195.956C407.968 195.728 408.168 195.548 408.408 195.441C408.649 195.334 408.916 195.307 409.173 195.362C409.958 195.607 410.221 196.826 411.041 196.866C411.594 196.893 411.991 196.33 412.165 195.799C412.338 195.268 412.432 194.675 412.847 194.3C413.135 194.083 413.466 193.93 413.818 193.853C415.722 193.251 417.688 192.135 418.321 190.238C418.467 189.854 418.503 189.437 418.423 189.033C418.133 187.833 416.64 187.471 415.503 187.034C414.367 186.596 413.275 185.864 412.16 185.302C411.046 184.74 409.753 184.338 408.527 184.624C407.904 184.82 407.293 185.049 406.695 185.311C404.849 185.949 402.585 185.655 401.154 186.985C400.53 187.65 400.072 188.452 399.817 189.328C398.814 192.099 398.185 195.398 399.839 197.835C400.855 199.339 401.849 201.057 403.811 201.235C406.093 201.441 407.002 199.352 407.364 197.424Z" fill="#2F2E41"/>
<g opacity="0.1">
<path opacity="0.1" d="M410.85 194.854C411.023 194.327 411.117 193.729 411.527 193.354C411.817 193.14 412.148 192.988 412.499 192.908C414.407 192.305 416.368 191.194 417.006 189.293C417.151 188.908 417.185 188.491 417.104 188.088C417.06 187.897 416.98 187.717 416.867 187.557C417.594 187.869 418.227 188.293 418.405 189.034C418.485 189.437 418.45 189.855 418.303 190.239C417.67 192.136 415.704 193.252 413.801 193.854C413.448 193.931 413.117 194.083 412.829 194.3C412.414 194.675 412.321 195.273 412.147 195.8C411.973 196.327 411.576 196.893 411.023 196.867C410.471 196.84 410.203 196.336 409.851 195.912C410.337 195.849 410.685 195.34 410.85 194.854Z" fill="black"/>
<path opacity="0.1" d="M402.505 200.281C404.796 200.491 405.701 198.407 406.071 196.479C406.131 195.963 406.292 195.464 406.543 195.011C406.675 194.783 406.876 194.604 407.116 194.498C407.356 194.392 407.624 194.365 407.881 194.421C408.304 194.551 408.576 194.97 408.866 195.314C408.661 195.334 408.464 195.4 408.289 195.509C408.114 195.617 407.967 195.764 407.858 195.939C407.607 196.393 407.446 196.892 407.386 197.407C407.025 199.335 406.115 201.424 403.82 201.21C402.91 201.113 402.071 200.678 401.466 199.991C401.794 200.144 402.145 200.242 402.505 200.281Z" fill="black"/>
</g>
<path d="M76.1296 290.231L84.6618 285.206C83.5055 283.236 82.0308 281.471 80.2976 279.984L64.2007 284.996L76.8339 277.57C73.7111 275.857 70.1966 274.988 66.6363 275.048C63.0761 275.108 59.5929 276.095 56.5295 277.913C53.4661 279.73 50.9282 282.314 49.1655 285.412C47.4028 288.509 46.4761 292.013 46.4766 295.578C46.4766 306.914 55.6551 307.312 66.9823 307.312C78.3095 307.312 87.488 306.914 87.488 295.578C87.4855 292.707 86.8779 289.869 85.7049 287.25L76.1296 290.231Z" fill="#1A75FF"/>
<path opacity="0.1" d="M78.3006 301.255C77.3925 300.343 76.3777 299.544 75.2782 298.876C73.7269 297.845 72.1266 296.792 70.2989 296.444C68.6941 296.136 67.0403 296.395 65.3954 296.305C62.557 296.131 59.8854 294.904 57.9019 292.864C56.7384 291.659 55.8201 290.187 54.4203 289.254C52.9092 288.263 50.9923 288.049 49.2003 288.294C48.6806 288.371 48.1657 288.476 47.6579 288.611C46.8534 290.845 46.4431 293.203 46.4454 295.578C46.4454 306.914 55.6239 307.311 66.9511 307.311C72.4475 307.311 77.4358 307.218 81.1179 305.825L80.5027 304.674C79.916 303.446 79.176 302.297 78.3006 301.255Z" fill="black"/>
<path d="M260.315 318.934L248.997 312.27C250.531 309.655 252.489 307.314 254.792 305.344L276.14 311.989L259.41 302.144C263.551 299.872 268.212 298.719 272.933 298.799C277.654 298.878 282.273 300.187 286.336 302.597C290.398 305.006 293.764 308.433 296.102 312.54C298.439 316.648 299.669 321.294 299.668 326.021C299.668 341.057 287.494 341.58 272.476 341.58C257.458 341.58 245.284 341.057 245.284 326.021C245.279 322.216 246.074 318.453 247.615 314.975L260.315 318.934Z" fill="#1A75FF"/>
<path opacity="0.1" d="M257.431 333.55C258.637 332.34 259.984 331.281 261.443 330.395C263.498 329.029 265.625 327.637 268.045 327.172C270.172 326.766 272.365 327.11 274.527 326.985C278.29 326.753 281.833 325.129 284.468 322.428C286.01 320.826 287.227 318.858 289.086 317.639C291.087 316.3 293.628 316.037 296.004 316.367C296.696 316.465 297.38 316.605 298.055 316.787C299.12 319.748 299.663 322.873 299.66 326.021C299.66 341.057 287.485 341.579 272.467 341.579C265.179 341.579 258.564 341.459 253.678 339.611L254.494 338.085C255.345 336.491 256.21 334.889 257.431 333.55Z" fill="black"/>
<defs>
<linearGradient id="paint0_linear" x1="244.218" y1="93.0371" x2="362.112" y2="23.207" gradientUnits="userSpaceOnUse">
<stop stop-color="#808080" stop-opacity="0.25"/>
<stop offset="0.54" stop-color="#808080" stop-opacity="0.12"/>
<stop offset="1" stop-color="#808080" stop-opacity="0.1"/>
</linearGradient>
<linearGradient id="paint1_linear" x1="-97370.5" y1="116087" x2="-95452.7" y2="68199" gradientUnits="userSpaceOnUse">
<stop stop-color="#808080" stop-opacity="0.25"/>
<stop offset="0.54" stop-color="#808080" stop-opacity="0.12"/>
<stop offset="1" stop-color="#808080" stop-opacity="0.1"/>
</linearGradient>
</defs>
</svg>
