<svg width="24" height="24" viewBox="0 0 24 24" fill="none" xmlns="http://www.w3.org/2000/svg">
<g clip-path="url(#clip0)">
<path d="M23.9872 12.2242C23.9872 11.2409 23.9055 10.5234 23.7288 9.7793H12.2389V14.2173H18.9832C18.8473 15.3202 18.113 16.9811 16.4813 18.0972L16.4584 18.2458L20.0913 20.996L20.343 21.0206C22.6546 18.9344 23.9872 15.8649 23.9872 12.2242Z" fill="#4285F4"/>
<path d="M12.2391 23.9178C15.5433 23.9178 18.3171 22.8548 20.3433 21.0211L16.4815 18.0978C15.4481 18.8021 14.0611 19.2937 12.2391 19.2937C9.00291 19.2937 6.25623 17.2076 5.27711 14.3242L5.13359 14.3361L1.35604 17.193L1.30664 17.3272C3.31906 21.2337 7.45273 23.9178 12.2391 23.9178Z" fill="#34A853"/>
<path d="M5.27739 14.3248C5.01904 13.5807 4.86952 12.7834 4.86952 11.9596C4.86952 11.1357 5.01904 10.3385 5.26379 9.5944L5.25695 9.43592L1.43206 6.5332L1.30692 6.59137C0.477507 8.21247 0.00158691 10.0329 0.00158691 11.9596C0.00158691 13.8863 0.477507 15.7066 1.30692 17.3277L5.27739 14.3248Z" fill="#FBBC05"/>
<path d="M12.2391 4.62403C14.5371 4.62403 16.0872 5.59401 16.971 6.40461L20.4248 3.10928C18.3036 1.1826 15.5433 0 12.2391 0C7.45273 0 3.31906 2.68406 1.30664 6.59056L5.26351 9.59359C6.25623 6.7102 9.00291 4.62403 12.2391 4.62403Z" fill="#EB4335"/>
</g>
<defs>
<clipPath id="clip0">
<rect width="24" height="24" fill="white"/>
</clipPath>
</defs>
</svg>
