<svg width="79" height="80" viewBox="0 0 79 80" fill="none" xmlns="http://www.w3.org/2000/svg">
<g clip-path="url(#clip0)">
<path fill-rule="evenodd" clip-rule="evenodd" d="M45.4261 21.52L45.3472 0H33.5072L33.5861 21.52L39.5061 29.76L45.4261 21.52ZM33.5861 58.4V80H45.4261V58.4L39.5061 50.16L33.5861 58.4Z" fill="white"/>
<path fill-rule="evenodd" clip-rule="evenodd" d="M45.4262 58.4001L57.8977 75.8401L67.4486 68.8001L54.9771 51.3601L45.4262 48.2401V58.4001ZM33.5862 21.5201L21.0358 4.08008L11.4849 11.1201L23.9563 28.5601L33.5862 31.6801V21.5201Z" fill="#00F2E6"/>
<path fill-rule="evenodd" clip-rule="evenodd" d="M23.9563 28.5599L3.74934 21.9199L0.118408 33.2799L20.3253 39.9999L29.8763 36.7999L23.9563 28.5599ZM49.0571 43.1199L54.9771 51.3599L75.184 57.9999L78.8149 46.6399L58.608 39.9999L49.0571 43.1199Z" fill="#00B9F1"/>
<path fill-rule="evenodd" clip-rule="evenodd" d="M58.608 39.9999L78.8149 33.2799L75.184 21.9199L54.9771 28.5599L49.0571 36.7999L58.608 39.9999ZM20.3253 39.9999L0.118408 46.6399L3.74934 57.9999L23.9563 51.3599L29.8763 43.1199L20.3253 39.9999Z" fill="#D63AFF"/>
<path fill-rule="evenodd" clip-rule="evenodd" d="M23.9563 51.3601L11.4849 68.8001L21.0358 75.8401L33.5862 58.4001V48.2401L23.9563 51.3601ZM54.9771 28.5601L67.4486 11.1201L57.8977 4.08008L45.4262 21.5201V31.6801L54.9771 28.5601Z" fill="#FB015B"/>
</g>
<defs>
<clipPath id="clip0">
<rect width="78.9333" height="80" fill="white"/>
</clipPath>
</defs>
</svg>
