<svg xmlns="http://www.w3.org/2000/svg" viewBox="0 0 500 500"><g id="freepik--background-simple--inject-19"><path d="M203.8,205.68c73.45-10.88,200.26,103.1,231.46-3.29,22.14-75.47-116.09-175-183.51-126.65C210.93,105,219,102.59,159.55,98.27,99.26,93.89,73.85,96.73,64,155.84c-5.09,30.59-.51,90.51,43.78,106.78C163.2,283,158.93,212.33,203.8,205.68Z" style="fill:#7E57C2"></path><path d="M203.8,205.68c73.45-10.88,200.26,103.1,231.46-3.29,22.14-75.47-116.09-175-183.51-126.65C210.93,105,219,102.59,159.55,98.27,99.26,93.89,73.85,96.73,64,155.84c-5.09,30.59-.51,90.51,43.78,106.78C163.2,283,158.93,212.33,203.8,205.68Z" style="fill:#fff;opacity:0.9"></path></g><g id="freepik--Shadow--inject-19"><ellipse id="freepik--path--inject-19" cx="250" cy="416.24" rx="193.89" ry="11.32" style="fill:#f5f5f5"></ellipse></g><g id="freepik--Rocket--inject-19"><path d="M254.35,132.83l-.7-.55c3.15-4,6.46-7.76,9.84-11.28l.63.62C260.76,125.11,257.47,128.89,254.35,132.83Z" style="fill:#7E57C2"></path><rect x="246.75" y="137.98" width="5.19" height="0.88" transform="translate(-14.05 247.76) rotate(-51.58)" style="fill:#7E57C2"></rect><path d="M320,179.22c21.73-34.93,24.69-69.35,8.87-80.49s-47.23,3.24-72.8,35.47L183,226.37l74.92,52.76Z" style="fill:#7E57C2"></path><path d="M311.45,173.2l-63.6,98.87-7.78-14.87L303.24,167c17.86-25.51,27.87-48.82,27.91-61.8a1.06,1.06,0,0,1,2.06-.36C337.71,117.79,329.91,144.51,311.45,173.2Z" style="fill:#fff;opacity:0.1"></path><ellipse cx="220.42" cy="252.75" rx="31.81" ry="45.82" transform="translate(-113.15 287.44) rotate(-54.85)" style="fill:#7E57C2"></ellipse><ellipse cx="220.42" cy="252.75" rx="31.81" ry="45.82" transform="translate(-113.15 287.44) rotate(-54.85)" style="fill:#fff;opacity:0.5"></ellipse><path d="M250.1,210.44c-16.44-11.58-35.09-14.89-47-9.48l-18.55,23.38c11-12.28,34.51-11.44,54.17,2.4s28.39,35.73,20.51,50.2l15.57-25C276.14,238.81,266.72,222.14,250.1,210.44Z" style="opacity:0.1"></path><path d="M276.43,135.06c-4.56,7.22-8,20.73,5.55,30.26s25.11,1.76,30.36-5Z" style="opacity:0.2"></path><path d="M315.54,152c-1.55,12.9-16.46,22.31-32.11,11.29s-11.82-28.23-.2-34c7.16-3.58,16.28-2,22.52,2.34S316.5,144,315.54,152Z" style="fill:#fff"></path><path d="M285.56,160.24c-6.09-4.28-9.21-9.88-8.77-15.74a14.7,14.7,0,0,1,8.1-12c5.44-2.72,13.14-1.87,18.73,2.06s9,10.91,8.25,16.95a14.68,14.68,0,0,1-8.53,11.65C298,165.58,291.65,164.53,285.56,160.24Z" style="fill:#7E57C2"></path><path d="M285.56,160.24c-6.09-4.28-9.21-9.88-8.77-15.74a14.7,14.7,0,0,1,8.1-12c5.44-2.72,13.14-1.87,18.73,2.06s9,10.91,8.25,16.95a14.68,14.68,0,0,1-8.53,11.65C298,165.58,291.65,164.53,285.56,160.24Z" style="opacity:0.30000000000000004"></path><path d="M285.56,160.24c-6.09-4.28-9.32-9.72-9.08-15.3A12.89,12.89,0,0,1,284,133.78c5.23-2.42,12.78-1.36,18.37,2.58s9.13,10.69,8.61,16.43a12.87,12.87,0,0,1-8,10.84C297.85,165.74,291.65,164.53,285.56,160.24Z" style="fill:#7E57C2"></path><path d="M285.56,160.24c-6.09-4.28-9.32-9.72-9.08-15.3A12.89,12.89,0,0,1,284,133.78c5.23-2.42,12.78-1.36,18.37,2.58s9.13,10.69,8.61,16.43a12.87,12.87,0,0,1-8,10.84C297.85,165.74,291.65,164.53,285.56,160.24Z" style="fill:#fff;opacity:0.2"></path><path d="M306.61,140.31l-28.15,12.42a14.34,14.34,0,0,1-2-7.79,12.45,12.45,0,0,1,.75-3.77l18.17-8a21.13,21.13,0,0,1,11.21,7.16Z" style="fill:#fff;opacity:0.30000000000000004"></path><path d="M310.65,148.32,284.82,159.7a24.94,24.94,0,0,1-4.22-3.92l28.1-12.4A19,19,0,0,1,310.65,148.32Z" style="fill:#fff;opacity:0.30000000000000004"></path><path d="M338.81,126.05c-.86-6.9-6.16-14.88-14.54-20.78s-17.67-8.2-24.46-6.69c11.55-4.71,21.9-4.89,29.06.15S339.35,113.59,338.81,126.05Z" style="opacity:0.1"></path><ellipse cx="227.31" cy="242.96" rx="9.91" ry="13.95" transform="translate(-102.22 288.93) rotate(-54.85)" style="fill:#7E57C2;opacity:0.5"></ellipse><path d="M209,246.78c-3.15,4.47-10.81,4.51-17.11.07s-8.86-11.66-5.71-16.13,10.82-4.51,17.12-.07S212.11,242.31,209,246.78Z" style="fill:#7E57C2;opacity:0.5"></path><path d="M252.71,277.59c-3.15,4.48-10.81,4.51-17.11.07s-8.85-11.66-5.7-16.13,10.81-4.51,17.11-.07S255.86,273.12,252.71,277.59Z" style="fill:#7E57C2;opacity:0.5"></path><path d="M223,273.38c-3.15,4.47-10.81,4.5-17.11.07s-8.85-11.66-5.7-16.14,10.81-4.5,17.11-.07S226.11,268.9,223,273.38Z" style="fill:#7E57C2;opacity:0.5"></path><path d="M238.72,251a7.1,7.1,0,0,1-1.16,1.28c1.75-4.46-.89-10.65-6.52-14.61s-12.34-4.36-15.95-1.22a7.59,7.59,0,0,1,.81-1.51c3.15-4.47,10.82-4.51,17.12-.07S241.86,246.52,238.72,251Z" style="fill:#7E57C2;opacity:0.5"></path><path d="M209,246.78a7.36,7.36,0,0,1-1.15,1.28c1.75-4.47-.88-10.65-6.52-14.62s-12.34-4.36-15.95-1.21a7.32,7.32,0,0,1,.81-1.51c3.15-4.48,10.81-4.51,17.11-.07S212.11,242.3,209,246.78Z" style="fill:#7E57C2;opacity:0.5"></path><path d="M252.71,277.6a7.3,7.3,0,0,1-1.15,1.27c1.75-4.47-.89-10.65-6.52-14.61s-12.34-4.37-15.95-1.21a7.15,7.15,0,0,1,.81-1.52c3.15-4.48,10.81-4.51,17.11-.07S255.87,273.12,252.71,277.6Z" style="fill:#7E57C2;opacity:0.5"></path><path d="M223,273.38a6.61,6.61,0,0,1-1.15,1.27c1.75-4.46-.89-10.65-6.52-14.61s-12.34-4.36-15.95-1.21a6.94,6.94,0,0,1,.81-1.52c3.15-4.48,10.81-4.5,17.11-.07S226.11,268.9,223,273.38Z" style="fill:#7E57C2;opacity:0.5"></path><path d="M232.58,168.23s-13.5,17.52-25.26,32.6a15.48,15.48,0,0,1-14.21,5.71c-10.27-1.27-27,6-27,6S197.76,160.55,232.58,168.23Z" style="fill:#7E57C2"></path><path d="M232.58,168.23s-13.5,17.52-25.26,32.6a15.48,15.48,0,0,1-14.21,5.71c-10.27-1.27-27,6-27,6S197.76,160.55,232.58,168.23Z" style="opacity:0.30000000000000004"></path><path d="M295.89,212.82S284,231.43,273.71,247.58a15.47,15.47,0,0,0-.58,15.3c4.66,9.25,3.44,27.49,3.44,27.49S314.86,243,295.89,212.82Z" style="fill:#7E57C2"></path><path d="M295.89,212.82S284,231.43,273.71,247.58a15.47,15.47,0,0,0-.58,15.3c4.66,9.25,3.44,27.49,3.44,27.49S314.86,243,295.89,212.82Z" style="opacity:0.30000000000000004"></path><path d="M339.51,346.61C352,316.05,298,307.39,276.63,315.06s-43.16,13.37-44-7.08,15.62-33.13,7.77-37.85c-4.35-2.62-5.59,2-7.74,8.74-6.58,20.65-43.85,25.57-26.7,55.46s8,23.4-20.85,35.39-14,46.52,13.91,46.52H367.1C444.14,416.24,371.2,268.78,339.51,346.61Z" style="fill:#7E57C2"></path><path d="M339.51,346.61C352,316.05,298,307.39,276.63,315.06s-43.16,13.37-44-7.08,15.62-33.13,7.77-37.85c-4.35-2.62-5.59,2-7.74,8.74-6.58,20.65-43.85,25.57-26.7,55.46s8,23.4-20.85,35.39-14,46.52,13.91,46.52H367.1C444.14,416.24,371.2,268.78,339.51,346.61Z" style="fill:#fff;opacity:0.6000000000000001"></path><path d="M197.55,240.09c-2.24-7.78-14.36,2-26.3,13.85s-17.83,38.9-29.38,53S97.25,333.78,110.18,355c19.07,31.27-24.76,61.27,27.15,61.27H243.8c19.47,0,40.58-23.81,10.26-40s-75.74,21.56-88-14.45c-6.08-17.87,16-9.67,5.77-38.93s-9.55-37.23-4.34-50.27C180.17,240.84,201,251.91,197.55,240.09Z" style="fill:#7E57C2"></path><path d="M197.55,240.09c-2.24-7.78-14.36,2-26.3,13.85s-17.83,38.9-29.38,53S97.25,333.78,110.18,355c19.07,31.27-24.76,61.27,27.15,61.27H243.8c19.47,0,40.58-23.81,10.26-40s-75.74,21.56-88-14.45c-6.08-17.87,16-9.67,5.77-38.93s-9.55-37.23-4.34-50.27C180.17,240.84,201,251.91,197.55,240.09Z" style="fill:#fff;opacity:0.6000000000000001"></path><path d="M219.62,243.68c2.64-4.82,11.7-1.93,11.5,4.38s-23.66,14.58-19.3,36.37,46.24,23.35,56.07,45.18S239.64,354.5,251,368.15s46.42-17.7,71.4-9.64,49.94,57.73,4.12,57.73H185.33c-30.7,0-53.12-63.39-23.62-89.47s5.7-17.61,16.71-34.32S209.49,262.16,219.62,243.68Z" style="fill:#7E57C2"></path><path d="M219.62,243.68c2.64-4.82,11.7-1.93,11.5,4.38s-23.66,14.58-19.3,36.37,46.24,23.35,56.07,45.18S239.64,354.5,251,368.15s46.42-17.7,71.4-9.64,49.94,57.73,4.12,57.73H185.33c-30.7,0-53.12-63.39-23.62-89.47s5.7-17.61,16.71-34.32S209.49,262.16,219.62,243.68Z" style="fill:#fff;opacity:0.8"></path></g></svg>