<svg id="Layer_1" data-name="Layer 1" xmlns="http://www.w3.org/2000/svg" viewBox="0 0 400 300"><title>#12 analysis</title><path d="M304,196.33s19.32,30.8,40.29,35.77l3.12-5.29s-21.32-17.76-28.75-43.12Z" fill="#f4a28c"/><path d="M344.27,232.1s3.68,11.55,6.53,10.5-1.47-10.54-1.47-10.54,5.23-4.14-1.94-5.25Z" fill="#3c44b1"/><rect x="57.55" y="45.3" width="245.03" height="174.76" transform="translate(360.13 265.36) rotate(-180)" fill="#e6e6e6"/><path d="M259.8,85.3s-10.6,3-7.83,12.91,18,33.7,18,33.7-3.62,19.27-9,21.58-49.3-9.68-49.3-9.68-4.12-3.45-8-.92-.63,8.74,5.13,11.86c5.25,2.83,11.83,23.53,39.06,26.16a12.8,12.8,0,0,1,11.17,9.18l8.51,30H297l-4.65-21.79,2.95-69-8.19-17.74Z" opacity="0.08"/><path d="M269.51,127s-3.08,27.45-27,24.15-24.6-9.5-29.65-14-10.61-.14-7,1.17c5.29,1.9,2.54,6.21-.63,5s-1.43,7,6.36,6.07c4.24-.5,26.66,33.28,65.07,9.7Z" fill="#f4a28c"/><ellipse cx="295.22" cy="257.73" rx="68.59" ry="11.43" fill="#e6e6e6" opacity="0.45"/><rect x="268.87" y="45.3" width="33.46" height="26.35" opacity="0.08"/><rect x="268.87" y="30.22" width="56.19" height="34.26" fill="#f2f2f2"/><path d="M266.94,100.48s-7.23,15.27,3.8,17.67,11.82-8.84,11.82-8.84Z" fill="#ffd200"/><path d="M282.56,109.31l-15.62-8.83s-7.23,15.27,3.8,17.67" opacity="0.08"/><path d="M262.79,91.82s-.21,6.52,1.12,10.78a3.28,3.28,0,0,0,4.13,2.14c2.14-.7,4.82-2.27,5.36-5.75l1.63-5.8a5.85,5.85,0,0,0-2.92-6.11C268.29,84.64,262.72,87.83,262.79,91.82Z" fill="#f4a28c"/><polygon points="274.14 94.74 284.24 114.1 273.19 118.42 270.42 103.12 274.14 94.74" fill="#f4a28c"/><path d="M270,97s-.09-2.52,1.8-2.43,2.05,3.72-.49,4.2Z" fill="#f4a28c"/><path d="M262.87,95.93l-1.68,2.61a1.06,1.06,0,0,0,.75,1.61l2.52.33Z" fill="#f4a28c"/><path d="M270.5,103.55a8,8,0,0,0,2.8-3.22s2.54,3.94-2,7.6Z" fill="#ce8172" opacity="0.31"/><path d="M291.12,194.73s7.41,35.6,25.35,47.54l4.76-3.88s-13.82-24-12-50.42Z" fill="#f4a28c"/><circle cx="74.22" cy="60.03" r="4.46" fill="#24285b"/><circle cx="87.49" cy="60.03" r="4.46" fill="#3c44b1"/><circle cx="99.99" cy="60.03" r="4.46" fill="#ffd200"/><path d="M257.94,245.64s-10.68-2.87-13-12.78c0,0,16.51-3.41,17,13.64Z" fill="#3c44b1" opacity="0.58"/><path d="M259.24,244.58s-7.5-11.75-1-22.79c0,0,12.6,7.92,7.08,22.79Z" fill="#3c44b1" opacity="0.73"/><path d="M261.16,244.58s3.88-12.46,15.77-14.87c0,0,2.27,8.07-7.64,14.87Z" fill="#3c44b1"/><polygon points="253.42 244.33 255.65 259.11 269.26 259.11 271.21 244.33 253.42 244.33" fill="#24285b"/><path d="M290.91,112.55s12.84,4.15,17.72,15.83,6.73,45.1,6.73,45.1l-28.28,6.18-12.23-11.84a32.68,32.68,0,0,1-7.26-36.39l5.6-13S279.17,114.78,290.91,112.55Z" fill="#3c44b1"/><path d="M276.69,112.64s-8.72,2.43-5.05,9.39,19.27-9.48,19.27-9.48Z" fill="#fff"/><path d="M260.44,88.51s1.92,5.61,11,4.27c0,0,.77,23.69,11.32,22.9s11-7,7.9-13.36-9.57-9.44-9.45-14.95-4-8.9-9-9.68S257.13,78.54,260.44,88.51Z" fill="#ffd200"/><path d="M282.7,131.91s-6.62,13.05,6.43,21,19.86,16.1-2.05,26.71l23.1-5,8.28-15.36V147.18Z" opacity="0.08"/><path d="M315.36,173.48s5.67,4,7.56,14.49,10.36,17.81,10.36,17.81-12.44,13.13-35.47,17.27a108.1,108.1,0,0,1-10.73-43.39Z" fill="#24285b"/><path d="M282.64,129.19c.82-6.66,8-10.62,14.21-8.16a75.1,75.1,0,0,1,22.64,14.1c15.46,14,11.46,33.74-15,54.07l-4.1-5.64s22.88-27.48,7-35.07C295.21,142.65,281.42,139,282.64,129.19Z" fill="#f4a28c"/><rect x="300.33" y="180.21" width="4.8" height="9.94" transform="translate(-51.04 213.17) rotate(-35.98)" fill="#3c44b1"/><rect x="273.56" y="173.09" width="24.41" height="34.41" transform="translate(-43.99 94.73) rotate(-17.5)" fill="#ffd200"/><rect x="300.33" y="180.21" width="4.8" height="9.94" transform="translate(-51.04 213.17) rotate(-35.98)" fill="#3c44b1"/><path d="M291.12,190.52s3.25,12.71-13.35,15l1.53,4.83L302.58,203l-3.29-10.41Z" opacity="0.08"/><path d="M316.47,242.27s-.56,12.12,2.48,12.12,2.28-10.4,2.28-10.4,6.34-2.07,0-5.6Z" fill="#3c44b1"/><path d="M298.81,183.85s-7.58,1.3-7.88,5.08,4.88,8.15,12.09.73Z" fill="#f4a28c"/><path d="M128.8,186.71a48.92,48.92,0,1,1,38.12-18.25l-14-11.29a30.58,30.58,0,0,0,6.83-19.39,30.93,30.93,0,1,0-30.93,30.93Z" fill="#fff"/><path d="M177.73,137.78h-18a31,31,0,0,0-30.93-30.92v-18A49,49,0,0,1,177.73,137.78Z" fill="#3c44b1"/><path d="M128.78,186.71v-18a30.67,30.67,0,0,0,22.12-9.31c.18-.18.35-.36.52-.55a30.77,30.77,0,0,0,8.29-21.07h18a48.75,48.75,0,0,1-13.12,33.34c-.27.3-.55.59-.82.87A48.57,48.57,0,0,1,128.78,186.71Z" fill="#24285b"/><path d="M128.73,186.71v-18a30.67,30.67,0,0,0,22.12-9.31l.52-.54,13.18,12.26-.83.87A48.57,48.57,0,0,1,128.73,186.71Z" fill="#ffd200"/><rect x="192.98" y="90.12" width="9.67" height="8.03" fill="#a5a5a5" opacity="0.79"/><rect x="192.98" y="103.12" width="9.67" height="8.03" fill="#a5a5a5" opacity="0.45"/><rect x="192.98" y="116.12" width="9.67" height="8.03" fill="#a5a5a5" opacity="0.34"/><rect x="211.49" y="90.12" width="28.87" height="8.03" fill="#a5a5a5" opacity="0.79"/><rect x="211.49" y="103.12" width="28.87" height="8.03" fill="#a5a5a5" opacity="0.45"/><rect x="211.49" y="116.12" width="28.87" height="8.03" fill="#a5a5a5" opacity="0.34"/><rect x="114.3" y="198.27" width="28.87" height="8.03" fill="#a5a5a5" opacity="0.34"/><path d="M127.44,149.47h-.09a3,3,0,0,1-2.5-1.49L119,137.84a3,3,0,1,1,5.19-3l3.48,6,9.64-14.39a3,3,0,1,1,5,3.33l-12.3,18.39A3,3,0,0,1,127.44,149.47Z" fill="#a5a5a5"/><rect x="282.33" y="46.5" width="6.59" height="9.67" fill="#a5a5a5" opacity="0.79"/><rect x="294.89" y="40.63" width="6.59" height="15.54" fill="#a5a5a5" opacity="0.31"/><rect x="306.37" y="50.42" width="6.59" height="5.74" fill="#a5a5a5" opacity="0.19"/></svg>