<svg id="Layer_1" data-name="Layer 1" xmlns="http://www.w3.org/2000/svg" viewBox="0 0 400 300"><title>#5 bussinesman</title><rect x="193.83" y="196.48" width="8.18" height="35.02" fill="#f2f2f2"/><path d="M178.08,86.48S138,89.34,133.5,114.92c-3.14,17.83,17.83,50.42,30.83,68.54,10.55,14.71,29.11,21.78,46.62,17.14a47.81,47.81,0,0,0,4.93-1.6c22.12-8.5,18.93-28.65,14.53-32.57S256.66,64.47,178.08,86.48Z" fill="#e6e6e6"/><path d="M218.19,92.34s27,1.45,30.16,44.25l32.94-25.87L287,116.3S271.1,157,237.89,161a11.3,11.3,0,0,1-12-7.7C221.22,139.44,213,110.37,218.19,92.34Z" fill="#3c44b1"/><path d="M218.19,92.34s27,1.45,30.16,44.25l32.94-25.87L287,116.3S271.1,157,237.89,161a11.3,11.3,0,0,1-12-7.7C221.22,139.44,213,110.37,218.19,92.34Z" fill="#fff" opacity="0.2"/><ellipse cx="203.81" cy="253.55" rx="130.29" ry="18.73" fill="#e6e6e6" opacity="0.45"/><path d="M198.36,64.53s3.3,7,3.86,12.22A3.88,3.88,0,0,1,198.75,81c-2.64.24-6.29-.19-8.51-3.72l-4.5-5.52a6.91,6.91,0,0,1,.3-8C189,59.33,196.57,60.18,198.36,64.53Z" fill="#f4a28c"/><polygon points="187.44 73.04 185.91 94.26 199.59 98.26 195.41 80.37 187.44 73.04" fill="#f4a28c"/><path d="M196.68,65.49a30.32,30.32,0,0,1-6.86,2,6.42,6.42,0,0,1,2.45,6.62,5.24,5.24,0,0,1-5.21,4.15l-3.32-9.33a7.89,7.89,0,0,1,1.31-8,28.78,28.78,0,0,1,2.54-2.66c2.28-2.06,6.86-1.73,8.59-4.42a1.86,1.86,0,0,1,3.19.12c1.46,2.67,2.6,7.31-.65,10.27A7,7,0,0,1,196.68,65.49Z" fill="#24285b"/><path d="M193,73.57s-1.09-2.77-3.1-1.78-.47,5,2.51,4.32Z" fill="#f4a28c"/><path d="M200.21,69l3,2a1.24,1.24,0,0,1,0,2.09l-2.58,1.54Z" fill="#f4a28c"/><path d="M195.53,80.88A9.48,9.48,0,0,1,191,78.7s-.91,5.46,5.75,7.3Z" fill="#ce8172" opacity="0.31"/><path d="M147.29,134.22s14.19,46.08,39.28,46.27,29.31-23.14,29.31-23.14L192,114.92S152.25,102.11,147.29,134.22Z" fill="#c9c9c9" opacity="0.51"/><polygon points="192.01 92.11 185.77 88.03 182.15 92.13 187.08 97.18 192.01 92.11" fill="#3c44b1"/><polygon points="200.82 92.13 197.2 88.03 191.49 91.77 185.77 88.03 182.15 92.13 187.08 97.18 191.49 92.65 195.89 97.18 200.82 92.13" fill="#3c44b1"/><path d="M172.35,93.79s-24.85,6.46-28.1,25.71,13,22.11,23.62,12.3S172.35,93.79,172.35,93.79Z" fill="#3c44b1"/><path d="M172.35,93.79s-24.85,6.46-28.1,25.71,13,22.11,23.62,12.3S172.35,93.79,172.35,93.79Z" opacity="0.08"/><path d="M186,92.25c11.65-1.14,24.77-1.78,35.82.82a14.7,14.7,0,0,1,11.4,13.76c.5,14.73-.09,43.28-10.22,64.17l-38.38,5s-16.07-23.78-22.78-49.11A27.73,27.73,0,0,1,186,92.25Z" fill="#3c44b1"/><polygon points="190.96 92.11 197.2 88.03 200.82 92.13 195.89 97.18 190.96 92.11" fill="#3c44b1"/><path d="M185.32,97.18S175.5,142.64,209,158.7L184.62,176S169.33,153,164,134.67Z" opacity="0.08"/><polygon points="200.82 92.13 197.2 88.03 191.49 91.77 185.77 88.03 182.15 92.13 187.08 97.18 191.49 92.65 195.89 97.18 200.82 92.13" fill="#fff"/><path d="M152.72,118.83l27.91-35.59L187.08,88s-6.62,47.32-27.68,46.17C151.84,133.79,148,124.79,152.72,118.83Z" fill="#3c44b1"/><path d="M152.72,118.83l27.91-35.59L187.08,88s-6.62,47.32-27.68,46.17C151.84,133.79,148,124.79,152.72,118.83Z" fill="#fff" opacity="0.2"/><path d="M209.41,208.2l-3.53,6,10.63,8.31a2.47,2.47,0,0,0,4-2.45,2.87,2.87,0,0,0-.57-1.11c-1.87-2.35-4.76-6.37-4.76-6.37Z" fill="#3c44b1"/><rect x="180.89" y="73.87" width="16.14" height="8.72" transform="translate(119.25 -114.04) rotate(47.58)" fill="#ffd200"/><path d="M184.62,176S211,142.24,225.5,154.12s23,40.88,23,40.88l-11.76,4s-7.24-20-22.24-25.25C214.5,173.75,192.25,199.5,184.62,176Z" fill="#24285b"/><path d="M226.09,181.71l-9.53,32-10.9-3.79L211,173.75S221.18,168.92,226.09,181.71Z" fill="#24285b"/><path d="M181.29,83.73a24.7,24.7,0,0,1,3.39-6.62,3.56,3.56,0,0,1,5.44-.2l1.22,1.35a2,2,0,0,1-.24,2.91,11,11,0,0,0-4,6.86Z" fill="#f4a28c"/><path d="M239.74,198l3,6.27L255.57,200a2.46,2.46,0,0,0,.16-4.64,2.9,2.9,0,0,0-1.23-.15c-3,.25-7.95.41-7.95.41Z" fill="#3c44b1"/><path d="M281.29,110.72s1-6,5.71-6.22,12.5.64,6.25,6.22c0,0-6.32,1.62-7.66,4.2Z" fill="#f4a28c"/><path d="M307.93,57.08c-2.2-4.95-5.75-7.64-8.76-9.82a1.86,1.86,0,0,1-.19-2.85h0c22.56-13.45,8.44-22.54,1.69-17.54s-7.75-3.75-16-4-11.29,4.75-3.29,7.75c5.35,2,5,7.5,4.2,10.92A8,8,0,0,1,282.79,46h0c-3.8,2.67-5.65,5.92-9.18,12.83,0,0-27.94,48.64,15.81,48.64C333.5,107.42,317.1,77.74,307.93,57.08Z" fill="#24285b"/><circle cx="294" cy="78.83" r="13.85" fill="#ffd200"/><path d="M119.67,209.5V200a4.71,4.71,0,0,1,4.71-4.71H136a4.71,4.71,0,0,1,4.72,4.71v9.55" fill="none" stroke="#3c44b1" stroke-miterlimit="10" stroke-width="3"/><path d="M119.67,209.5V200a4.71,4.71,0,0,1,4.71-4.71H136a4.71,4.71,0,0,1,4.72,4.71v9.55" fill="none" stroke="#fff" stroke-miterlimit="10" stroke-width="3" opacity="0.43"/><path d="M300.38,48.15s1.87-3.78-4.13-5.12-14.87-4.52-14.93,4.07C281.32,47.1,291.17,44.76,300.38,48.15Z" fill="#ffd200"/><polygon points="193.83 231.5 174.12 249.5 220.54 249.5 202.01 231.5 193.83 231.5" fill="#c9c9c9"/><rect x="100.07" y="204.25" width="59.28" height="45.25" fill="#3c44b1"/><polygon points="100.07 215.61 159.34 241.54 159.34 249.5 100.07 249.5 100.07 215.61" opacity="0.08"/><path d="M296.39,46.49s5.92-7.36,14.72-4C321.53,46.53,307,53.38,296.39,46.49Z" fill="none" stroke="#ffd200" stroke-miterlimit="10"/><path d="M297.62,47.22s13.56-3.09,21,7.66" fill="none" stroke="#ffd200" stroke-miterlimit="10"/><path d="M299,47.31s9.47.91,12,9.48" fill="none" stroke="#ffd200" stroke-miterlimit="10"/><rect x="82.68" y="39.11" width="62.9" height="39.59" fill="#e6e6e6"/><polyline points="91.38 68.93 100.7 58.16 112.35 64.56 122.83 53.99 136.21 49.3" fill="none" stroke="#a5a5a5" stroke-linecap="round" stroke-linejoin="round" stroke-width="2"/><rect x="88.93" y="43.51" width="16.06" height="3.46" fill="#c9c9c9" opacity="0.51"/><rect x="210.25" y="109.09" width="13.25" height="3.33" fill="#fff"/></svg>