<svg id="Layer_1" data-name="Layer 1" xmlns="http://www.w3.org/2000/svg" viewBox="0 0 400 300"><title>#7 moving forward</title><path d="M193.64,139.35s26.08,34.92,46.35,46.24S299,136.44,299,136.44l-7.44-5.51-42.46,32.3s-24.41-54.85-43-54.26S185.63,129.28,193.64,139.35Z" fill="#f4a28c"/><ellipse cx="187.12" cy="249.06" rx="107.72" ry="15.49" fill="#e6e6e6" opacity="0.45"/><path d="M237.77,83.63l.86,3.56a1.23,1.23,0,0,1-1.45,1.5l-2.94-.6Z" fill="#f4a28c"/><path d="M240,79.15s-3,7.09-6.6,11a3.87,3.87,0,0,1-5.48.23c-1.94-1.82-4-4.84-2.86-8.84l1.15-7a6.94,6.94,0,0,1,6.19-5.08C237.73,68.71,242.09,74.92,240,79.15Z" fill="#f4a28c"/><polygon points="226.41 76.6 206.08 92.14 215.58 102.42 226.2 87.43 226.41 76.6" fill="#f4a28c"/><path d="M224.51,75.73l-2.23,4a5.24,5.24,0,0,0,6.56,1.15,6.44,6.44,0,0,0,3.34-6.22s-.42,2.92,2.5,2.6,4.29.5,3.57,2.19,2.14,3.14,5.07.55-2.31-3.79.11-5,5.1-1.41,3.15-4.64-3.57.66-4.41-2.36.07-5.4-3.69-6-3.28,3.61-6.19,1.29-4.24-2.12-6.46,1.14c-1.45,2.12-2.52,3.68-1.76,4.89A6.22,6.22,0,0,1,224.51,75.73Z" fill="#24285b"/><path d="M229.68,81.09S231,78.45,229,77.6s-4.06,3-1.57,4.74Z" fill="#f4a28c"/><path d="M191,196s24.39,10.31,34.3,41.37L222,241s-12.41-20.41-40.82-36.19Z" fill="#f4a28c"/><path d="M189.42,207.31s-26.64,32.25-53.36,13.46l1.4-4.34s28.15,9.41,39.36-24.63Z" fill="#f4a28c"/><path d="M225.9,87.86A9.44,9.44,0,0,1,224.52,83s-4.69,2.94-1.66,9.14Z" fill="#ce8172" opacity="0.31"/><path d="M206.08,92.14l12.68,5.79a28.85,28.85,0,0,1,16,27.83c-.45,6.91-2,10.24-4.16,20.1-2.62,11.86-2.39,24.28-12.43,31.11-7.52,5.11-17.47,13.41-19.71,22.68l-38-18.17S143.71,89.25,206.08,92.14Z" fill="#3c44b1"/><path d="M160.5,181.48s-5.25,15,7.75,21,31.56,15,31.56,15l10.57-12A146.2,146.2,0,0,0,160.5,181.48Z" fill="#24285b"/><rect x="94.21" y="123.19" width="150.05" height="69.08" fill="#ffd200"/><polygon points="216.24 157.73 173.7 136.44 173.7 147.98 129.06 147.98 129.06 167 173.7 167 173.7 179.03 216.24 157.73" fill="#fff"/><path d="M202.17,123.19S145.63,135.44,166.5,192l-27.09.23L132.94,150l3.31-31.5Z" opacity="0.16"/><path d="M186.23,92.87S143,98.05,123,110s13.14,75.7,13.14,75.7L147,180.93l-9.19-51.88s59.72,6.21,68.49-10.2S199,91,186.23,92.87Z" fill="#f4a28c"/><polygon points="131.54 176.01 145.4 171.72 147.71 185.02 136.22 187.02 131.54 176.01" fill="#3c44b1"/><path d="M170,193.59s-6.51,16.12-12.17,17.69l8.6,14.42s14.43-5.66,22.72-14.52C189.17,211.18,178.52,192.59,170,193.59Z" fill="#24285b"/><path d="M225.33,237.38s3.61,2.06,6.5,0,5.83,0,4,2.71-10.73,5-10.73,5L222,241Z" fill="#3c44b1"/><path d="M137.35,221.26s-4,1-4.65,4.53-4.16,4.1-4.76.85,4.22-11,4.22-11l5.06.7Z" fill="#3c44b1"/><path d="M291.6,130.93s-.62-11.39,1.68-12.08,3.38,4.85,3.38,4.85,2.7-9.73,7.74-8.52S299,136.44,299,136.44Z" fill="#f4a28c"/><path d="M137.37,186.82s-.86,12.6,4.83,12.24,9-6.79,9-6.79L147.71,185Z" fill="#f4a28c"/><polygon points="291.6 130.93 284.36 136.44 292.68 145.7 299.04 136.44 291.6 130.93" fill="#3c44b1"/><path d="M255,158.77v25.51s-5.22,3.31-10.74,2.72V153.16l4.88,10.07Z" opacity="0.08"/><path d="M225.09,72A32.74,32.74,0,0,1,240,79.15l-1.79,3.71S234,78,224.51,75.73Z" fill="#3c44b1"/><polygon points="145.74 67.54 112.43 50.86 112.43 59.62 65.62 59.62 65.62 76.7 112.43 76.7 112.43 84.21 145.74 67.54" fill="#e6e6e6"/><polygon points="337.14 209.22 310.5 195.89 310.5 202.9 273.07 202.9 273.07 216.55 310.5 216.55 310.5 222.56 337.14 209.22" fill="#c9c9c9"/><circle cx="187.12" cy="71.72" r="6.88" fill="#c9c9c9"/><circle cx="234.24" cy="40.31" r="3.18" fill="#e6e6e6"/><circle cx="273.07" cy="71.72" r="6.42" fill="#c9c9c9"/><circle cx="261.36" cy="116.67" r="3.18" fill="#e6e6e6"/></svg>