<svg id="Layer_1" data-name="Layer 1" xmlns="http://www.w3.org/2000/svg" viewBox="0 0 400 300"><title>#43 time</title><path d="M136.33,104.58s-28,7.43-20,45.82-16.66,36.88-37.66,33.54l-1.33,9.84s55,17,62.32-31.33S136.33,104.58,136.33,104.58Z" fill="#3c44b1"/><path d="M136.33,104.58s-28,7.43-20,45.82-16.66,36.88-37.66,33.54l-1.33,9.84s55,17,62.32-31.33S136.33,104.58,136.33,104.58Z" fill="#fff" opacity="0.46"/><ellipse cx="209.78" cy="250.92" rx="148.4" ry="20.88" fill="#e6e6e6" opacity="0.45"/><polygon points="50.45 126.67 50.45 150.2 65.66 150.2 68.98 159.56 72.91 150.2 88.12 150.2 88.12 126.67 50.45 126.67" fill="#e6e6e6"/><path d="M138.43,78.13s-1.48,5.34-1.24,9.11a2.78,2.78,0,0,0,3,2.59,6.13,6.13,0,0,0,5.56-3.66l2.52-4.45a5,5,0,0,0-1.19-5.62C144.4,73.32,139.16,74.84,138.43,78.13Z" fill="#f4a28c"/><polygon points="147.19 82.82 151.54 100.43 141.66 102.13 142.44 88.97 147.19 82.82" fill="#f4a28c"/><path d="M137.67,81.54l-1.91,1.81a.89.89,0,0,0,.29,1.47l2,.78Z" fill="#f4a28c"/><path d="M142.42,89.35s3.37-1.56,4.29-2.94c0,0-.19,7.25-4.67,9.36Z" fill="#ce8172" opacity="0.31"/><path d="M143.93,83.15s.43-2.09,2-1.63.94,3.47-1.26,3.36Z" fill="#f4a28c"/><path d="M150.33,80.48l-1.15,2s-1.39,5.12-4.8,7.76-8.2,2.1-8.62-1.5c-.47-4.13,2.3-3.14,6-3.31s3.14-5.13,3.14-5.13a4.23,4.23,0,0,1-3.5-1.84,9.75,9.75,0,0,0-4-3.15c-3.29-1.39.72-5.69.72-5.69-2.2-1.21-.51-3.77,1.61-4.55s2.73,1.71,4.35,2.19,1-2.1,4.08-1.46,1.43,2.94,3.32,4.63c0,0,2.16-1.65,3.83,2.1,1,2.14.46,3.15-.49,3.71A12,12,0,0,0,150.33,80.48Z" fill="#24285b"/><rect x="183.21" y="38.74" width="138.89" height="24.37" fill="#a5a5a5"/><rect x="183.75" y="224.09" width="138.89" height="24.37" fill="#a5a5a5"/><rect x="124.56" y="206.93" width="49.58" height="41.53" fill="#a5a5a5"/><path d="M272,141.58c45.38-12.94,40.4-78.47,40.4-78.47H191.72s-3.13,62,41.73,77.31a2.74,2.74,0,0,1-.13,5.2c-45.38,12.94-40.41,78.47-40.41,78.47H313.59s3.12-62-41.73-77.31A2.73,2.73,0,0,1,272,141.58Z" fill="#e6e6e6"/><rect x="142.16" y="206.93" width="49.58" height="41.53" fill="#c9c9c9"/><path d="M231.8,89.29a15.41,15.41,0,0,0-16.71,22.59c4.42,8,12.37,16.76,26.34,18.92,25.06,3.89,42.9-2.41,53.21-29.58a9.87,9.87,0,0,0-10.4-13.34l-.31,0c-10.24,1.52-11.38,14.8-26.18,10.63C250.09,96.39,240.71,91.18,231.8,89.29Z" fill="#c9c9c9"/><path d="M201.58,219.23a20.64,20.64,0,0,1,11.5-18.55A129.6,129.6,0,0,1,243,190.76c30-6.45,34.53,15.18,46.3,17.08s14.8,11.39,14.8,11.39Z" fill="#c9c9c9"/><polygon points="244.75 131.26 247.88 197.59 255.09 197.59 253.19 131.26 244.75 131.26" fill="#c9c9c9"/><polygon points="258.89 128.53 258.89 197.59 260.88 197.59 262.87 127.11 258.89 128.53" fill="#c9c9c9"/><path d="M141.27,240.1s-1.38,3.82-4.83,4.11-4.36,3.67-1.25,4.55,11.11-3.11,11.11-3.11l-.22-5Z" fill="#3c44b1"/><path d="M141.66,102.13l9.88-1.7s32.85,0,38.6,11.3,4.55,53.13-14.46,87.51l-38.91,1.13s2.16-25.25-5.09-39S101.89,118.4,141.66,102.13Z" fill="#3c44b1"/><path d="M175.68,199.24l-19-2.87a18.22,18.22,0,0,0-20.84,19.88l2.49,24.17h9.34l-.81-22.63a8.57,8.57,0,0,1,9.92-8.78C164.85,210.32,174.89,209.75,175.68,199.24Z" fill="#24285b"/><path d="M121.9,240.1s-1.38,3.82-4.83,4.11-4.36,3.67-1.25,4.55,11.11-3.11,11.11-3.11l-.23-5Z" fill="#3c44b1"/><path d="M170.61,110.68a26,26,0,0,0-10.43,26.1c3.17,17.34,17.09,49.16-11.54,43.58l1.71,13.26,19.43-1.84,15.73-10.5,3.84-29.13Z" opacity="0.08"/><path d="M156.31,199.24l-19-2.87a18.22,18.22,0,0,0-20.84,19.88l2.49,24.17h9.33l-.8-22.63a8.57,8.57,0,0,1,9.92-8.78C145.48,210.32,155.51,209.75,156.31,199.24Z" fill="#24285b"/><path d="M168.55,116.34c.91-10,13.32-14.24,19.95-6.72,3.16,3.58,5.68,8.82,6.18,16.51,1.5,23.21,20.21,91.69-53,70.07l1.86-8.61s22.41,5,34.16-6.25C187.47,172,166.24,141.61,168.55,116.34Z" fill="#3c44b1"/><path d="M168.55,116.34c.91-10,13.32-14.24,19.95-6.72,3.16,3.58,5.68,8.82,6.18,16.51,1.5,23.21,20.21,91.69-53,70.07l1.86-8.61s22.41,5,34.16-6.25C187.47,172,166.24,141.61,168.55,116.34Z" fill="#fff" opacity="0.46"/><polygon points="121.26 197.66 109.23 164.7 144.62 164.7 151.97 195.7 160.75 197.2 160.75 201.45 121.26 197.66" fill="#ffd200"/><circle cx="131.41" cy="179.7" r="3.58" fill="#fff"/><polygon points="114.44 178.98 144.67 199.91 121.26 197.66 114.44 178.98" opacity="0.08"/><path d="M138.06,103.72s-1-3.23,3.6-5.6,13.65-5.65,16.77,2.8C158.43,100.92,148.31,107.46,138.06,103.72Z" fill="#3c44b1"/><path d="M138.06,103.72s-1-3.23,3.6-5.6,13.65-5.65,16.77,2.8C158.43,100.92,148.31,107.46,138.06,103.72Z" fill="#fff" opacity="0.46"/><path d="M78.68,183.94s-6.5-5.32-9-1.82,7.67,9.5,7.67,9.5Z" fill="#f4a28c"/><rect x="62.46" y="170.13" width="17.8" height="10.46" transform="translate(144.9 0.9) rotate(45)" fill="#ffd200"/><path d="M147.12,81s2.69-1.59,3.69.55-2,3.81-4,2.51A4.4,4.4,0,0,0,147.12,81Z" fill="#f4a28c"/><circle cx="60.18" cy="137.9" r="2.84" fill="#a5a5a5"/><circle cx="68.97" cy="137.9" r="2.84" fill="#a5a5a5"/><circle cx="77.54" cy="137.9" r="2.84" fill="#a5a5a5"/></svg>