<svg id="Layer_1" data-name="Layer 1" xmlns="http://www.w3.org/2000/svg" viewBox="0 0 400 300"><title>#33 wireframe</title><ellipse cx="130.88" cy="267.8" rx="110.75" ry="14.81" fill="#e6e6e6" opacity="0.45"/><path d="M206.51,254s-9.18-2.46-11.21-11c0,0,14.19-2.93,14.66,11.72Z" fill="#3c44b1" opacity="0.58"/><path d="M207.63,253s-6.45-10.1-.85-19.59c0,0,10.83,6.82,6.08,19.59Z" fill="#3c44b1" opacity="0.73"/><path d="M209.28,253s3.34-10.71,13.56-12.77c0,0,1.95,6.93-6.57,12.77Z" fill="#3c44b1"/><polygon points="202.63 252.83 204.54 265.53 216.25 265.53 217.92 252.83 202.63 252.83" fill="#24285b"/><path d="M133,259.24s1.53,3.75,5,3.9,4.51,3.47,1.45,4.48S128.21,265,128.21,265l0-5Z" fill="#3c44b1"/><path d="M58.71,258.37s-2.34,3.32-5.74,2.69-5.17,2.38-2.41,4.05,11.53-.06,11.53-.06l1.1-4.86Z" fill="#3c44b1"/><rect x="93.28" y="56.89" width="240.28" height="164.78" fill="#e6e6e6"/><circle cx="110.64" cy="71.03" r="5.33" fill="#24285b"/><circle cx="126.49" cy="71.03" r="5.33" fill="#3c44b1"/><circle cx="141.42" cy="71.03" r="5.33" fill="#ffd200"/><rect x="206.7" y="90" width="69.76" height="112.33" fill="#f2f2f2"/><rect x="227.41" y="103.35" width="28.33" height="7.49" fill="#c9c9c9"/><rect x="227.41" y="117.06" width="28.33" height="7.49" fill="#c9c9c9"/><rect x="218.13" y="134.73" width="47" height="58.02" fill="#e6e6e6"/><rect x="124.44" y="90" width="69.76" height="112.33" fill="#f2f2f2"/><rect x="145.15" y="103.35" width="28.33" height="7.49" fill="#c9c9c9"/><rect x="145.15" y="117.06" width="28.33" height="7.49" fill="#c9c9c9"/><rect x="135.87" y="134.73" width="47" height="58.02" fill="#e6e6e6"/><path d="M223.16,163.74s5.16,4.48,0,7.37,5.66,8.39,0,13.14-5.49,25.75-47.49,37.42h-58S87.33,202.3,94.33,166.94,120,134.51,120,134.51l6-17.79-1.54-11.56s8.92-10.79,14.91-1.81,12.44,18.39,2.71,21.52L135.66,150l13.4-2.33,6.64,36.58L160,200l26-.33s16-14.84,17-15.42S223.16,163.74,223.16,163.74Z" opacity="0.08"/><path d="M142.73,140.42s19,7.3,22.27,30.69,17.75,22.89,35,8.64,21.77-22.25,23-18.5-2.51,6.5-2.51,6.5,6.4,3.22,2.51,6.38-4.78,1.5-7.26,4.5c-12.23,14.77-43.31,51-73,11.08Z" fill="#f4a28c"/><path d="M142.06,140.05s22.77,5.62,27.27,41.12l-20.66,17-6.61-7.84Z" fill="#3c44b1"/><path d="M142.06,140.05s22.77,5.62,27.27,41.12l-20.66,17-6.61-7.84Z" fill="#fff" opacity="0.2"/><path d="M130.19,107.64s3.68,4.89,5,8.88a3.08,3.08,0,0,1-2,3.87,6.79,6.79,0,0,1-7.21-1.53l-4.39-3.56a5.49,5.49,0,0,1-1.05-6.27C122.1,105.1,128.1,104.54,130.19,107.64Z" fill="#f4a28c"/><polygon points="124.84 112.83 117.98 131.69 128.65 134.72 129.34 120.16 124.84 112.83" fill="#f4a28c"/><path d="M132.35,110.84l2.7,1.1a1,1,0,0,1,.29,1.63l-1.75,1.61Z" fill="#f4a28c"/><path d="M129.32,120.57a3.15,3.15,0,0,1-2.35-1.74s-1.63,4.33,2.15,5.92Z" fill="#ce8172" opacity="0.31"/><path d="M118,131.69l10.66,3s38.3,9.12,27.31,36.75-36,44.87-36,44.87L90.87,211S62.49,121.31,118,131.69Z" fill="#3c44b1"/><path d="M112,138s10.6,16.14,4,31.16,21.42-6.92,21.42-6.92L150.5,166l-14.84,30.5L120,193.75a30.43,30.43,0,0,1-17.69,19.37L90.87,211l-1.64-5.79-9.73-22.5L86.75,165Z" opacity="0.08"/><path d="M120,216.35l10.44,7.8a22.24,22.24,0,0,1,7.38,26L134,259.74h-8.15L128,249.16a15.24,15.24,0,0,0-7.62-16.42l-19.12-10.45L90.87,211Z" fill="#24285b"/><polygon points="117.18 150.78 102.28 180.75 131.05 187.57 146.6 158.6 117.18 150.78" fill="#ffd200"/><path d="M123.51,172.47s3.91-.05,3.66,6,7.07,3.12,7.07,3.12l-3.19,5.95-17-4.15Z" opacity="0.08"/><path d="M111.56,146.16a10.79,10.79,0,0,0-15.7-11.77,37.63,37.63,0,0,0-17.24,19.78c-8.47,21.62-15.73,42.79,5,49.92s34.9-19.84,34.9-19.84l-5.64-3.33s-15.52,16.85-24,7.27C85.18,184,107.74,163,111.56,146.16Z" fill="#f4a28c"/><path d="M122.66,118.83s-5.64-2.32-5.31-6-2.78-3.79-.55-8.36,11.65-6.06,12.52-1.45-1.59,6.91-4.88,8.36C124.44,111.38,127.52,118.14,122.66,118.83Z" fill="#24285b"/><path d="M126,114.65s-1.29-2-2.69-.88.43,4,2.64,3Z" fill="#f4a28c"/><path d="M104,132.59s-20.83-2.26-28.85,26.71l24.1,11.81S127.47,139.09,104,132.59Z" fill="#3c44b1"/><path d="M104,132.59s-20.83-2.26-28.85,26.71l24.1,11.81S127.47,139.09,104,132.59Z" fill="#fff" opacity="0.2"/><path d="M90.87,211,56,255.87l7.91,6.18s28.76-33,49.49-42.72Z" fill="#24285b"/><path d="M112.87,180.92s-2.45-5.15-.62-7.32,1.56.62,3.74-2.49,14.62-1.61,2.52,13.14Z" fill="#f4a28c"/><rect x="294.13" y="92.13" width="39.43" height="39.43" opacity="0.08"/><rect x="209.07" y="169.96" width="5" height="11.91" transform="translate(-63.57 173.32) rotate(-39.2)" fill="#24285b"/><rect x="294.13" y="75.14" width="61.33" height="45.88" fill="#ffd200"/><path d="M316.54,107.33a1.49,1.49,0,0,1-.93-.33l-9.71-7.67a1.51,1.51,0,0,1-.57-1.18,1.47,1.47,0,0,1,.56-1.17l9.71-7.82a1.5,1.5,0,0,1,1.88,2.34l-8.25,6.64,8.24,6.51a1.51,1.51,0,0,1,.25,2.11A1.53,1.53,0,0,1,316.54,107.33Z" fill="#24285b"/><path d="M334.13,107.33a1.5,1.5,0,0,1-.93-2.68l8.24-6.51-8.25-6.64a1.5,1.5,0,0,1,1.88-2.34L344.78,97a1.5,1.5,0,0,1,0,2.35L335.06,107A1.51,1.51,0,0,1,334.13,107.33Z" fill="#24285b"/><path d="M321.26,107.33a1.52,1.52,0,0,1-1.37-2.13L327,89.71A1.5,1.5,0,0,1,329.7,91l-7.08,15.5A1.5,1.5,0,0,1,321.26,107.33Z" fill="#24285b"/><circle cx="304.43" cy="146.17" r="10.3" fill="#c9c9c9"/></svg>
