<svg viewBox="0 0 28 28" fill="none" xmlns="http://www.w3.org/2000/svg">
<path d="M19.4632 17.6196L19.4573 17.6342L19.4521 17.6489C18.7737 19.5618 18.1361 21.3908 17.5027 23.211C16.4378 23.2134 15.373 23.2158 14.3081 23.2182C10.7244 23.2262 7.14075 23.2343 3.55706 23.2418C3.31655 23.2424 3.07953 23.2442 2.84498 23.2459C2.18548 23.251 1.54559 23.2558 0.902948 23.2313C2.43798 21.3108 4.48194 19.9293 6.68874 18.5687C7.86017 17.8464 9.02308 17.1071 10.2156 16.3489C10.6731 16.058 11.135 15.7643 11.6034 15.4678C14.1397 13.8674 16.5897 12.3243 19.038 10.7824C19.3039 10.7788 19.5679 10.7745 19.8306 10.7702C20.5928 10.7577 21.3443 10.7454 22.1011 10.7517C22.1373 10.752 22.1703 10.753 22.2003 10.7545C22.1901 10.7843 22.1782 10.817 22.1642 10.8526C21.3395 12.9575 20.4951 15.0555 19.6143 17.2439C19.5641 17.3689 19.5137 17.4941 19.4632 17.6196Z" stroke="#fd9a00" stroke-width="1.5"/>
<path d="M25.8855 23.239C23.2786 23.2563 20.6687 23.2508 18.0078 23.2388C18.4385 21.8372 18.9043 20.4359 19.394 19.0133C21.7625 20.0983 23.9083 21.5304 25.8855 23.239Z" stroke="#fd9a00" stroke-width="1.5"/>
<path d="M8.07423 10.7594C11.2384 10.7451 14.4041 10.7488 17.6059 10.7595C15.9866 11.8672 14.337 12.974 12.6624 14.0915C11.1037 12.9963 9.5771 11.8925 8.07423 10.7594ZM7.82983 10.0106L7.82983 10.0105L7.82983 10.0106Z" stroke="#fd9a00" stroke-width="1.5"/>
<path d="M12.8038 3.68271C12.9437 3.28506 13.139 3.07061 13.3691 2.94372C13.6389 2.79499 14.0621 2.70868 14.7339 2.76983C15.4148 2.83181 15.7509 2.98226 15.922 3.13543C16.0665 3.26471 16.1935 3.4865 16.2093 3.983C16.2149 4.15848 16.2231 4.31855 16.2308 4.46729C16.2534 4.90503 16.2709 5.24455 16.2002 5.58977C16.1144 6.00853 15.9338 6.41216 15.6894 6.66853L16.2323 7.18603L15.6894 6.66853C15.2198 7.1612 14.6945 7.37946 14.0946 7.1682C13.185 6.84784 12.789 6.40266 12.7613 5.82425L12.0123 5.86011L12.7613 5.82425C12.735 5.27377 12.7588 4.72823 12.7855 4.11388C12.7916 3.97401 12.7979 3.83058 12.8038 3.68271Z" stroke="#fd9a00" stroke-width="1.5"/>
</svg>
