<?xml version="1.0" encoding="UTF-8"?><svg id="Layer_1" xmlns="http://www.w3.org/2000/svg" viewBox="0 0 519.74 523.71"><defs><style>.cls-1{fill:#f0eeea;}</style></defs><path class="cls-1" d="M0,3.82h104.14c91.12,0,138.62,40.11,138.62,122.44v2.46c0,83.03-49.26,126.66-138.27,126.66H0V3.82ZM101.33,183.96c31.66,0,43.63-14.07,43.63-53.13v-2.81c0-42.57-14.07-52.77-44.33-52.77h-6.68v108.72h7.39Z"/><path class="cls-1" d="M0,272.15h110.48c74.94,0,109.77,30.26,109.77,84.79v1.41c0,33.07-14.42,52.77-36.94,65.09l51.72,100.27h-97.46l-39.05-79.87h-5.28v79.87H0v-251.56ZM103.79,385.09c18.3,0,26.39-7.39,26.39-22.17v-1.41c0-13.72-8.09-19.7-25.68-19.7h-11.26v43.28h10.55Z"/><path class="cls-1" d="M322.01,272.15h120.68l77.05,251.56h-99.92l-8.44-33.42h-71.07l-8.44,33.42h-87.25l77.4-251.56ZM355.78,427.66h40.11l-19.7-80.22-20.4,80.22Z"/><path class="cls-1" d="M252.76,130.18C252.76,58.28,311.04,0,382.93,0s130.18,58.28,130.18,130.18-58.28,130.18-130.18,130.18-130.18-58.28-130.18-130.18ZM382.93,80.58c-27.39,0-49.6,22.21-49.6,49.6s22.21,49.6,49.6,49.6,49.6-22.21,49.6-49.6-22.21-49.6-49.6-49.6Z"/></svg>
