<svg xmlns="http://www.w3.org/2000/svg" viewBox="0 0 500 500"><g id="freepik--background-simple--inject-3"><path d="M431.68,91l-2.36-3.84c-19.87-32.34-55.8-51.83-93.68-49.47a101.6,101.6,0,0,0-14.51,2c-34.44,7.28-64.41,33-76.83,65.94-7.31,19.37-9.35,41.68-23.21,57.05-18,20-48.68,20.64-75.61,19.81s-57.59-.12-75.54,20C58.69,215,55.12,232.87,56,249.72c2.4,44.61,33.88,84.5,73.91,104.33s87.18,21.6,131,12.88c61.38-12.22,119.76-45.77,154.85-97.6S459.75,146.89,431.68,91Z" style="fill:#ebebeb"></path></g><g id="freepik--Floor--inject-3"><path d="M467.55,463.92c0,.15-97.41.27-217.54.27s-217.56-.12-217.56-.27,97.39-.26,217.56-.26S467.55,463.78,467.55,463.92Z" style="fill:#263238"></path></g><g id="freepik--Character--inject-3"><path d="M133.17,117.23l-2.91,35.67a10.66,10.66,0,0,0,10.28,11.51h0a10.66,10.66,0,0,0,11-9.79c.22-2.69.4-4.93.44-5.2,0,0,9.15-.12,10.54-9,.67-4.32,1.33-13.32,1.83-21.48a16.83,16.83,0,0,0-14.43-17.69l-.87-.13C139.61,100.29,133.7,107.82,133.17,117.23Z" style="fill:#ffbe9d"></path><path d="M152,149.29a21,21,0,0,1-11.19-5s1.84,6.83,10.88,7.3Z" style="fill:#eb996e"></path><path d="M161,123.46a1.28,1.28,0,0,1-1.41,1.11,1.24,1.24,0,0,1-1.16-1.34,1.29,1.29,0,0,1,1.42-1.11A1.22,1.22,0,0,1,161,123.46Z" style="fill:#263238"></path><path d="M162,122.49c-.19.15-1-.71-2.43-.9s-2.48.35-2.6.16.14-.36.62-.62a3.5,3.5,0,0,1,2.12-.33,3.36,3.36,0,0,1,1.9.92C162,122.11,162.1,122.43,162,122.49Z" style="fill:#263238"></path><path d="M147.66,122.22a1.3,1.3,0,0,1-1.42,1.12,1.24,1.24,0,0,1-1.15-1.34,1.29,1.29,0,0,1,1.41-1.12A1.24,1.24,0,0,1,147.66,122.22Z" style="fill:#263238"></path><path d="M148.28,121c-.19.14-1.05-.71-2.43-.9s-2.48.35-2.61.16.14-.36.63-.62a3.57,3.57,0,0,1,2.12-.34,3.46,3.46,0,0,1,1.9.93C148.26,120.63,148.36,121,148.28,121Z" style="fill:#263238"></path><path d="M151.73,132.25a8.93,8.93,0,0,1,2.29-.09c.36,0,.7,0,.79-.23a1.82,1.82,0,0,0-.08-1.08l-.66-2.82c-.9-4-1.5-7.3-1.33-7.33a46.81,46.81,0,0,1,1.92,7.2c.21,1,.41,1.93.61,2.84a2,2,0,0,1,0,1.4.87.87,0,0,1-.65.43,2.48,2.48,0,0,1-.61,0A8.7,8.7,0,0,1,151.73,132.25Z" style="fill:#263238"></path><path d="M149.08,118.19c-.19.36-1.54,0-3.18,0s-3,.21-3.18-.15c-.07-.18.21-.5.78-.78a5.58,5.58,0,0,1,4.85.15C148.9,117.69,149.16,118,149.08,118.19Z" style="fill:#263238"></path><path d="M161.44,117c-.28.28-1.18-.18-2.32-.36s-2.14-.09-2.31-.45c-.08-.17.12-.46.58-.7a3.28,3.28,0,0,1,2-.24,3.32,3.32,0,0,1,1.77.89C161.49,116.48,161.57,116.82,161.44,117Z" style="fill:#263238"></path><path d="M133,124c-.14-.09-5.89-2.7-6.57,3.45s5.63,5.56,5.66,5.39S133,124,133,124Z" style="fill:#ffbe9d"></path><path d="M130.43,130.26s-.11.06-.3.13a1.09,1.09,0,0,1-.81-.08,2.67,2.67,0,0,1-1-2.51,3.58,3.58,0,0,1,.47-1.5,1.23,1.23,0,0,1,.9-.73.55.55,0,0,1,.6.36c.06.18,0,.3,0,.32s.14-.09.12-.35a.66.66,0,0,0-.2-.41.78.78,0,0,0-.57-.23,1.52,1.52,0,0,0-1.23.83,3.64,3.64,0,0,0-.56,1.68,2.78,2.78,0,0,0,1.27,2.82,1.18,1.18,0,0,0,1-.05C130.4,130.41,130.45,130.27,130.43,130.26Z" style="fill:#eb996e"></path><path d="M129.58,123.27a3.24,3.24,0,0,1,2.73,1.93c.28.93.22,1.93.49,2.86s1.06,1.85,2,1.76a1.89,1.89,0,0,0,1.47-1.21,5.24,5.24,0,0,0,.3-2c.05-2.91-.15-5.83.15-8.72a14.83,14.83,0,0,1,3-8.07,8.15,8.15,0,0,1,7.74-3c1.88.43,3.48,1.67,5.33,2.2a7.56,7.56,0,0,0,6.51-1.18,1.91,1.91,0,0,1,.32-.19,1.68,1.68,0,0,0,.86-1.83,1.64,1.64,0,0,0-.28-.64c-3.25-4-9.87-5.93-15-5.39a18.06,18.06,0,0,0-13.06,7.71c-2.79,4.33-3.08,10.88-2.58,15.74" style="fill:#263238"></path><path d="M154.67,136.25a4.9,4.9,0,0,1-1.95-.4,5.05,5.05,0,0,1-1.84-.79,4.93,4.93,0,0,1,2,.4A4.85,4.85,0,0,1,154.67,136.25Z" style="fill:#263238"></path><path d="M161.63,142.77a3.74,3.74,0,0,1-.68,1.68,9,9,0,0,1-3.17,3,15.68,15.68,0,0,1-4.06,1.61,6.94,6.94,0,0,1-1.78.32,9,9,0,0,1,1.69-.6,19.79,19.79,0,0,0,3.94-1.68,10.17,10.17,0,0,0,3.14-2.83C161.34,143.4,161.56,142.74,161.63,142.77Z" style="fill:#eb996e"></path><path d="M133.81,105.4a24.06,24.06,0,0,0,3.84,1.94,24.41,24.41,0,0,0,4.24.71,8.34,8.34,0,0,1-8.08-2.65Z" style="fill:#455a64"></path><path d="M153.55,109c-.07.07-.85-.78-2.43-1.65a11.66,11.66,0,0,0-6.77-1.4c-1.36.13-2.67.42-3.88.58a12,12,0,0,1-3.26.06,6.14,6.14,0,0,1-2.11-.64c-.46-.25-.67-.45-.66-.48a9.16,9.16,0,0,0,2.81.76,12.6,12.6,0,0,0,3.15-.18c1.19-.18,2.49-.48,3.91-.62a11.26,11.26,0,0,1,7,1.6A8.59,8.59,0,0,1,153,108.4C153.4,108.76,153.57,109,153.55,109Z" style="fill:#455a64"></path><path d="M134.32,105.8a15.75,15.75,0,0,0,0-3.82,5.9,5.9,0,0,0-1.66-3.37,4.92,4.92,0,0,0-4.5-1,6.19,6.19,0,0,0-3.69,2.89,5.93,5.93,0,0,0-.11,6,4.39,4.39,0,0,0,5.51,1.69c.67-.35,1.22-.9,1.89-1.26a2,2,0,0,1,2.14,0" style="fill:#263238"></path><path d="M134.74,104.08c.12.09-.38.94-1.15,1.89s-1.53,1.61-1.65,1.47a7.38,7.38,0,0,1,1.25-1.8C134,104.7,134.63,104,134.74,104.08Z" style="fill:#7E57C2"></path><path d="M127.23,98a6.11,6.11,0,0,0-1.16,1.39,3.05,3.05,0,0,0-.36,1.82,3.79,3.79,0,0,0,1.13,2,8.05,8.05,0,0,0,3.89,1.88,7.83,7.83,0,0,1,1.81.48,6,6,0,0,1-1.88-.12,7.55,7.55,0,0,1-4.19-1.86,4.11,4.11,0,0,1-1.23-2.3,3.31,3.31,0,0,1,.51-2.07C126.43,98.2,127.23,98,127.23,98Z" style="fill:#455a64"></path><path d="M130.55,97.55a4.11,4.11,0,0,0-1,1,3,3,0,0,0-.45,1.45,4.1,4.1,0,0,0,.49,1.81,7.12,7.12,0,0,0,2.4,2.56c.77.51,1.32.71,1.29.79a2.84,2.84,0,0,1-1.48-.47,6.39,6.39,0,0,1-2.68-2.64,4.35,4.35,0,0,1-.5-2.07,3.1,3.1,0,0,1,.63-1.64C129.85,97.54,130.56,97.48,130.55,97.55Z" style="fill:#455a64"></path><polygon points="153.54 409.89 145.19 447.92 159.45 448.05 169.79 414.74 153.54 409.89" style="fill:#ffbe9d"></polygon><path d="M166.07,433l-5.21,17.3s15.83,11.1,15.18,14.39l-33.9-8.89,7-27.29Z" style="fill:#7E57C2"></path><path d="M150.76,446a1.44,1.44,0,0,0-1.37,1.33,1.38,1.38,0,0,0,1.3,1.37,1.52,1.52,0,0,0,1.45-1.42,1.42,1.42,0,0,0-1.52-1.27" style="fill:#e0e0e0"></path><g style="opacity:0.4"><path d="M142.14,455.75,143,453l32.2,9.54s1.34,1.05.89,2.07Z"></path></g><path d="M161.45,450.22c0,.16-.89,0-1.85.34s-1.57.9-1.7.8.36-1,1.52-1.37S161.53,450.08,161.45,450.22Z" style="fill:#263238"></path><path d="M164.62,452.62c0,.17-.79.27-1.54.82s-1.1,1.25-1.26,1.2,0-1,.91-1.68S164.66,452.47,164.62,452.62Z" style="fill:#263238"></path><path d="M165.53,457.41c-.16,0-.18-.89.49-1.69s1.53-1,1.56-.79-.57.51-1.11,1.17S165.69,457.44,165.53,457.41Z" style="fill:#263238"></path><path d="M162.2,446.15c-.11.13-.81-.3-1.76-.48s-1.76-.08-1.81-.24.81-.57,1.93-.34S162.32,446,162.2,446.15Z" style="fill:#263238"></path><path d="M163.19,442.64a3.26,3.26,0,0,1-1.7-.46,7.56,7.56,0,0,1-1.63-1,8.49,8.49,0,0,1-.84-.77,2.05,2.05,0,0,1-.41-.54.74.74,0,0,1,.16-.9,1,1,0,0,1,.82-.19,2.48,2.48,0,0,1,.61.26,6.27,6.27,0,0,1,1,.64,6,6,0,0,1,1.29,1.44,2.94,2.94,0,0,1,.64,1.64c-.09,0-.34-.59-1-1.4a7.36,7.36,0,0,0-1.29-1.25,5.68,5.68,0,0,0-.9-.55c-.33-.19-.64-.27-.77-.14s-.06.08,0,.2a1.57,1.57,0,0,0,.3.39,8.92,8.92,0,0,0,.76.75,9.22,9.22,0,0,0,1.48,1.06A11.4,11.4,0,0,1,163.19,442.64Z" style="fill:#263238"></path><path d="M162.91,442.82a2.76,2.76,0,0,1,0-1.76,5.78,5.78,0,0,1,.72-1.8,6.4,6.4,0,0,1,.7-.92,1.48,1.48,0,0,1,1.31-.57.84.84,0,0,1,.59.66,2.53,2.53,0,0,1,0,.67,3.75,3.75,0,0,1-.3,1.14,4,4,0,0,1-1.19,1.57c-.89.7-1.63.72-1.63.66s.63-.27,1.36-1a4.15,4.15,0,0,0,.95-1.45,3.58,3.58,0,0,0,.23-1c0-.38,0-.7-.16-.7s-.53.15-.74.4a5.53,5.53,0,0,0-.67.81,6.31,6.31,0,0,0-.77,1.61C163,442.15,163,442.82,162.91,442.82Z" style="fill:#263238"></path><polygon points="116.16 416.4 117.03 455.32 130.91 452.08 133.09 417.27 116.16 416.4" style="fill:#ffbe9d"></polygon><path d="M133.77,435.85l-1,18s18,7.05,18.15,10.4l-35-.64.36-28.17Z" style="fill:#7E57C2"></path><path d="M122,452.17a1.44,1.44,0,0,0-1,1.62,1.38,1.38,0,0,0,1.59,1,1.51,1.51,0,0,0,1.07-1.72,1.43,1.43,0,0,0-1.77-.88" style="fill:#e0e0e0"></path><g style="opacity:0.4"><path d="M115.91,463.65l.14-2.84,33.55,1.67s1.55.71,1.35,1.81Z"></path></g><path d="M133.37,453.72c0,.17-.87.23-1.72.77s-1.31,1.24-1.47,1.17.12-1.05,1.16-1.68S133.41,453.56,133.37,453.72Z" style="fill:#263238"></path><path d="M137,455.3c0,.17-.71.45-1.31,1.16s-.77,1.48-.94,1.47-.26-1,.49-1.86S137,455.14,137,455.3Z" style="fill:#263238"></path><path d="M139,459.74c-.16,0-.38-.82.07-1.75s1.27-1.29,1.34-1.15-.44.64-.8,1.41S139.2,459.73,139,459.74Z" style="fill:#263238"></path><path d="M133.14,449.58c-.08.16-.86-.09-1.83-.05s-1.73.34-1.81.2.65-.75,1.79-.79S133.22,449.45,133.14,449.58Z" style="fill:#263238"></path><path d="M133.27,445.94a3.38,3.38,0,0,1-1.76,0,8,8,0,0,1-1.82-.6,8.27,8.27,0,0,1-1-.55,2.38,2.38,0,0,1-.53-.43.76.76,0,0,1-.06-.91,1,1,0,0,1,.76-.37,2.13,2.13,0,0,1,.66.1,6.88,6.88,0,0,1,1.08.39,6.38,6.38,0,0,1,1.6,1.09c.8.77,1.07,1.42,1,1.45s-.47-.49-1.28-1.13a7.64,7.64,0,0,0-1.55-.91,7.47,7.47,0,0,0-1-.33c-.37-.1-.68-.11-.78.06s0,.08,0,.19a1.62,1.62,0,0,0,.38.31,8.93,8.93,0,0,0,.92.55,9.86,9.86,0,0,0,1.68.68A13.43,13.43,0,0,1,133.27,445.94Z" style="fill:#263238"></path><path d="M133,446.18a2.79,2.79,0,0,1-.43-1.7,5.79,5.79,0,0,1,.27-1.92,6.14,6.14,0,0,1,.47-1.06,1.44,1.44,0,0,1,1.13-.86.81.81,0,0,1,.73.5,2.55,2.55,0,0,1,.17.64,4.28,4.28,0,0,1,0,1.19,4,4,0,0,1-.79,1.8c-.7.89-1.42,1.08-1.43,1s.55-.41,1.09-1.27a4.18,4.18,0,0,0,.58-1.64,3.88,3.88,0,0,0,0-1c-.05-.37-.18-.67-.32-.64s-.48.27-.63.56a6.8,6.8,0,0,0-.45.95,6.19,6.19,0,0,0-.37,1.74C133,445.51,133.13,446.16,133,446.18Z" style="fill:#263238"></path><path d="M161.48,266.35s27.74,71.59,25.45,91.68S170,443,170,443l-23.5-8.3,9.41-80-18.14-55.06,5.66-31.23Z" style="fill:#263238"></path><path d="M108.21,260.43s0,14.12,1.57,19.86l1.43,8.35c-1,46-.73,154.39-.73,154.39l31.4.38L151.71,264Z" style="fill:#263238"></path><path d="M152.52,280.77a1.9,1.9,0,0,1,0,.42c0,.3,0,.71-.08,1.23-.08,1.11-.2,2.7-.36,4.74-.32,4.13-.78,10.08-1.34,17.41-1.13,14.7-2.56,35-4,57.48s-2.53,42.79-3.41,57.53c-.43,7.35-.79,13.3-1,17.44-.13,2-.24,3.63-.31,4.74q-.06.78-.09,1.23a2,2,0,0,1-.05.42,2.26,2.26,0,0,1,0-.42c0-.31,0-.72,0-1.24.05-1.11.12-2.7.21-4.74.2-4.15.5-10.1.87-17.45.76-14.72,1.85-35.07,3.25-57.54s2.89-42.78,4.11-57.48c.61-7.35,1.12-13.3,1.51-17.4.2-2,.35-3.62.46-4.73,0-.52.1-.93.13-1.23A2.06,2.06,0,0,1,152.52,280.77Z" style="fill:#455a64"></path><path d="M127.48,285.08c0-.09,1.2-.39,3.1-1.05a18.84,18.84,0,0,0,3.19-1.45,9.05,9.05,0,0,0,3.07-2.86,9.57,9.57,0,0,0,1.39-4,20.57,20.57,0,0,0,.12-3.51c-.1-2-.24-3.26-.16-3.27a2.74,2.74,0,0,1,.21.86c.1.56.23,1.37.32,2.39a18,18,0,0,1,0,3.59,9.55,9.55,0,0,1-1.42,4.19,9.24,9.24,0,0,1-3.27,3,16.74,16.74,0,0,1-3.31,1.39c-1,.29-1.78.47-2.34.58A3.14,3.14,0,0,1,127.48,285.08Z" style="fill:#455a64"></path><path d="M160.4,367.13a6.72,6.72,0,0,1-.62-1.27c-.37-.83-.87-2.05-1.47-3.56-1.2-3-2.75-7.25-4.26-12s-2.7-9.08-3.47-12.24c-.39-1.58-.68-2.86-.86-3.75a7.78,7.78,0,0,1-.24-1.4,6.8,6.8,0,0,1,.44,1.35c.26,1,.61,2.22,1,3.71.86,3.13,2.1,7.45,3.6,12.17s3,8.95,4.11,12c.53,1.45,1,2.67,1.32,3.61A7.79,7.79,0,0,1,160.4,367.13Z" style="fill:#455a64"></path><path d="M147.59,161.92s43.14,41,42.87,50.62-9.35,12.1-12.37,11.87-26.81-24.28-26.81-24.28Z" style="fill:#7E57C2"></path><g style="opacity:0.4"><path d="M147.59,161.92s43.14,41,42.87,50.62-9.35,12.1-12.37,11.87-26.81-24.28-26.81-24.28Z"></path></g><polygon points="127.8 152.7 130.48 143.02 151.66 151.61 151.19 161.74 141.01 165.17 130.57 159.45 127.8 152.7" style="fill:#7E57C2"></polygon><path d="M161.48,266.35l-3.55-82c-.48-9.81-3.65-21.36-10.05-28.81l-.06-1.32-17.61-3.44s-20.9,4.82-22.09,22.91c-1,14.36-2.17,71.59-2.17,92.66Z" style="fill:#7E57C2"></path><path d="M134.1,150.82a19.72,19.72,0,0,1,1.42-5.49,10,10,0,0,1-.51,2.8A9.87,9.87,0,0,1,134.1,150.82Z" style="fill:#263238"></path><path d="M142.05,147.73a9.09,9.09,0,0,1-.28,2.77,9,9,0,0,1-.7,2.69,19,19,0,0,1,1-5.46Z" style="fill:#263238"></path><path d="M148.22,150.44a12.07,12.07,0,0,1-.1,2.51,11.1,11.1,0,0,1-.24,2.51,9.46,9.46,0,0,1,.34-5Z" style="fill:#263238"></path><g style="opacity:0.2"><path d="M117,186a215.5,215.5,0,0,0,25,37.32c2.48,3,5.12,6.08,8.57,7.93s5.65,1.18,8.9-1a20.87,20.87,0,0,1-8.1-3.5,37.58,37.58,0,0,1-8.41-8.15c-8.47-10.52-16.74-21.38-25.2-31.91"></path></g><path d="M125.47,214.19a14.6,14.6,0,0,1-3.37,2.67,14.27,14.27,0,0,1-3.8,2,24,24,0,0,1,3.52-2.45A23.35,23.35,0,0,1,125.47,214.19Z" style="fill:#263238"></path><path d="M115.91,204.69a11.81,11.81,0,0,1-.19-3.4,11.43,11.43,0,0,1,.33-3.39,11,11,0,0,1,.19,3.4A10.81,10.81,0,0,1,115.91,204.69Z" style="fill:#263238"></path><path d="M116.18,240.65a10.73,10.73,0,0,1-2.77-3.32,10.9,10.9,0,0,1-1.7-4c.15-.06.91,1.7,2.15,3.7S116.3,240.55,116.18,240.65Z" style="fill:#263238"></path><path d="M137.21,235a41.06,41.06,0,0,1-4.21,2.61,42,42,0,0,1-4.24,2.54,16.61,16.61,0,0,1,4-3A17.14,17.14,0,0,1,137.21,235Z" style="fill:#263238"></path><path d="M133.42,226.9a13.19,13.19,0,0,1-3.26-1.64,12.4,12.4,0,0,1-3-2.09,13.19,13.19,0,0,1,3.26,1.64A12.93,12.93,0,0,1,133.42,226.9Z" style="fill:#263238"></path><path d="M134.07,217.94a8.21,8.21,0,0,1,1.46-2.55,8.57,8.57,0,0,1,1.88-2.24,8.22,8.22,0,0,1-1.46,2.54A8.51,8.51,0,0,1,134.07,217.94Z" style="fill:#263238"></path><path d="M117.79,264.9a12.73,12.73,0,0,1-2.92-2.19,13.12,13.12,0,0,1-2.57-2.59,12.61,12.61,0,0,1,2.92,2.2A13.56,13.56,0,0,1,117.79,264.9Z" style="fill:#263238"></path><path d="M131.48,258.91a12.45,12.45,0,0,1-4.7,4.92,18.38,18.38,0,0,1,2.31-2.49A17.77,17.77,0,0,1,131.48,258.91Z" style="fill:#263238"></path><path d="M110.34,209.82a30.59,30.59,0,0,1-.22,8,15.22,15.22,0,0,1-.15-4A15.68,15.68,0,0,1,110.34,209.82Z" style="fill:#263238"></path><path d="M113,187.62c0,.15-.9.23-2,.18s-2-.2-2-.34a7.75,7.75,0,0,1,4,.16Z" style="fill:#263238"></path><path d="M116.36,163.6a11.61,11.61,0,0,1-2,2.74,11.36,11.36,0,0,1-2.43,2.4,22.55,22.55,0,0,1,4.47-5.14Z" style="fill:#263238"></path><path d="M129.28,161.11a12.93,12.93,0,0,1-.85-3,12.76,12.76,0,0,1-.64-3,7.32,7.32,0,0,1,1.15,2.88A7.41,7.41,0,0,1,129.28,161.11Z" style="fill:#263238"></path><path d="M162.82,155.88c-3,.15-3.31,0-6.66.36a5.21,5.21,0,0,0-1.47.31,1.64,1.64,0,0,0-1,1.08c-.19.93.78,1.72,1.71,1.89s1.91-.05,2.84.12a6.24,6.24,0,0,1,3.82,2c2.06,2.65,4,1.24,5.39,2.15l3.36-2.35-1.47-5.05-6.56-.51" style="fill:#ffbe9d"></path><path d="M167.8,163.78a3.88,3.88,0,0,0-1-.25,8.47,8.47,0,0,1-2.77-.35A4.39,4.39,0,0,1,162.5,162a5,5,0,0,0-1.59-1.38,7.3,7.3,0,0,0-2.22-.77,17.59,17.59,0,0,0-2.57-.1,2.48,2.48,0,0,1-2.24-1.47,1.44,1.44,0,0,1,.26-1.35,2.26,2.26,0,0,1,1.08-.69,13.3,13.3,0,0,1,2.21-.29c.68-.05,1.33-.09,1.91-.11,1.17,0,2.11,0,2.76,0a5.39,5.39,0,0,1,1,0,4.25,4.25,0,0,1-1,.13c-.65,0-1.6.08-2.76.15l-1.89.16a14.46,14.46,0,0,0-2.12.31c-.68.19-1.33.85-1.08,1.55a2.11,2.11,0,0,0,1.9,1.19,16.43,16.43,0,0,1,2.61.11,7.9,7.9,0,0,1,2.32.83,5.41,5.41,0,0,1,1.67,1.49,4.15,4.15,0,0,0,1.43,1.13,9.67,9.67,0,0,0,2.67.46,2,2,0,0,1,.72.24C167.73,163.71,167.8,163.76,167.8,163.78Z" style="fill:#eb996e"></path><path d="M159.7,153l17-9.13a1.07,1.07,0,0,1,1.4.34h0a1.08,1.08,0,0,1-.39,1.57l-15.53,8.14Z" style="fill:#263238"></path><path d="M106.34,251.42a3.54,3.54,0,0,1-.55.16,12.55,12.55,0,0,1-1.63.29,21.12,21.12,0,0,1-6-.11,28.11,28.11,0,0,1-8.53-2.83,29.1,29.1,0,0,1-4.51-2.84A14,14,0,0,1,83,244.17a3.31,3.31,0,0,1-.7-1.37,2.19,2.19,0,0,1,.27-1.58,3.31,3.31,0,0,1,2.63-1.46,14.82,14.82,0,0,1,2.85.13,28.27,28.27,0,0,1,13.23,5.18,15.54,15.54,0,0,1,4.28,4.28,6.51,6.51,0,0,1,.69,1.5,1.82,1.82,0,0,1,.13.57,12.25,12.25,0,0,0-1-2,16,16,0,0,0-4.33-4.09,28.25,28.25,0,0,0-13.07-5,14,14,0,0,0-2.74-.12,2.8,2.8,0,0,0-2.24,1.2,2,2,0,0,0,.39,2.37,14.77,14.77,0,0,0,2,1.84,30.62,30.62,0,0,0,4.42,2.82,28.56,28.56,0,0,0,8.37,2.88,22.61,22.61,0,0,0,6,.28C105.56,251.55,106.33,251.35,106.34,251.42Z" style="fill:#7E57C2"></path><path d="M104.11,247.63a2,2,0,0,1-.31-.37l-.81-1.1a46.42,46.42,0,0,1-2.7-4.27,20.08,20.08,0,0,1-2.43-7.1,13,13,0,0,1,.19-4.47,8.1,8.1,0,0,1,.32-1.14,3.62,3.62,0,0,1,.53-1.13,1.45,1.45,0,0,1,1.2-.69,1.51,1.51,0,0,1,1.16.77,36.17,36.17,0,0,1,5.1,15.79,33.05,33.05,0,0,1,0,5.05c0,.59-.11,1.05-.14,1.36a1.43,1.43,0,0,1-.09.47,12.93,12.93,0,0,1,0-1.84,38.55,38.55,0,0,0-.2-5,37.39,37.39,0,0,0-5.16-15.53,1,1,0,0,0-.75-.54.94.94,0,0,0-.76.48,6.44,6.44,0,0,0-.78,2.07,13.08,13.08,0,0,0-.2,4.3,20.31,20.31,0,0,0,2.28,7c1,1.87,1.91,3.32,2.54,4.32l.73,1.16C104.05,247.47,104.13,247.62,104.11,247.63Z" style="fill:#7E57C2"></path><path d="M79.94,271a14.06,14.06,0,0,0,10.85-.12,18.48,18.48,0,0,0,5.83-4,35.87,35.87,0,0,0,7.07-10.77c.66-1.45,1.2-2.66,1.62-3.6a7.65,7.65,0,0,1,.64-1.3,7.43,7.43,0,0,1-.45,1.38c-.33.87-.81,2.14-1.47,3.67a34.14,34.14,0,0,1-7,11,18.43,18.43,0,0,1-6,4,14.74,14.74,0,0,1-5.81,1.08,11.87,11.87,0,0,1-3.91-.75,7.07,7.07,0,0,1-1-.45A1.09,1.09,0,0,1,79.94,271Z" style="fill:#7E57C2"></path><path d="M102,286.53a7.08,7.08,0,0,1-.33-1.39q-.07-.34-.15-.75c0-.29-.05-.59-.09-.91,0-.65-.16-1.39-.15-2.21a73.34,73.34,0,0,1,1-12.78c.74-5,1.72-9.38,2.49-12.57.38-1.59.72-2.87,1-3.76a8.1,8.1,0,0,1,.43-1.36,6.7,6.7,0,0,1-.24,1.41l-.8,3.79c-.68,3.2-1.59,7.63-2.33,12.57a86.64,86.64,0,0,0-1.13,12.69C101.68,284.52,102.13,286.51,102,286.53Z" style="fill:#7E57C2"></path><path d="M124.2,153s.1-.09.33-.23a5.58,5.58,0,0,1,1-.49,9,9,0,0,1,4.24-.29,14.81,14.81,0,0,1,5.87,2.3,37.4,37.4,0,0,1,5.91,4.94,32.78,32.78,0,0,1,7.47,11.74c.33.84.53,1.62.74,2.3s.32,1.29.41,1.78a10.27,10.27,0,0,1,.22,1.54c-.12,0-.4-2.19-1.71-5.49a34.5,34.5,0,0,0-7.51-11.51,39.93,39.93,0,0,0-5.8-4.91,14.93,14.93,0,0,0-5.66-2.32,9.36,9.36,0,0,0-4.12.11C124.7,152.7,124.23,153,124.2,153Z" style="fill:#fff"></path><path d="M149,222.56s.15,23.48-3.75,24.79c-4.92,1.65-39.26,0-39.26,0v8.43s34.19-2.2,37,2.2c2.65,4.16,27.14,80.54,32.07,103.48h15.45s-8.2-39.4-11.1-49.45c-1.55-5.35-6.69-22.36-11.34-35.63a109.54,109.54,0,0,1-6.14-38.48l.37-17.46-2.68-45h-9.88Z" style="fill:#7E57C2"></path><g style="opacity:0.7000000000000001"><path d="M149,222.56s.15,23.48-3.75,24.79c-4.92,1.65-39.26,0-39.26,0v8.43s34.19-2.2,37,2.2c2.65,4.16,27.14,80.54,32.07,103.48h15.45s-8.2-39.4-11.1-49.45c-1.55-5.35-6.69-22.36-11.34-35.63a109.54,109.54,0,0,1-6.14-38.48l.37-17.46-2.68-45h-9.88Z" style="fill:#fff"></path></g><path d="M180.2,277.43a3.44,3.44,0,0,0,1.89-2,3.4,3.4,0,0,0-.27-2.77c-.58-1-1.72-1.78-1.95-2.94a1.88,1.88,0,0,0-.67,1.26c-.67-.66.07-2-.66-2.63a1.26,1.26,0,0,0-1.42.11,3.92,3.92,0,0,0-1.64,3,5.42,5.42,0,0,0,2.12,4.75,25.64,25.64,0,0,1,2.27,1.52" style="fill:#7E57C2"></path><path d="M178.68,277.86l-1.12,14.41a1,1,0,0,0,1.8.78l0,0a1.08,1.08,0,0,0,.26-.61l1.1-14.4Z" style="fill:#263238"></path><polygon points="178.68 277.86 178.34 276.73 181.22 276.84 180.74 278.01 178.68 277.86" style="fill:#e0e0e0"></polygon><path d="M173.43,288.1c-.11-.44-2-14.37-2.58-19.13a1.4,1.4,0,0,1,1.39-1.58h0a1.4,1.4,0,0,1,1.38,1.17l3.26,20.07Z" style="fill:#263238"></path><path d="M166.24,283.87h16.22s5,21.1-3.1,28.14l-5-.89Z" style="fill:#7E57C2"></path><g style="opacity:0.7000000000000001"><path d="M166.24,283.87h16.22s5,21.1-3.1,28.14l-5-.89Z" style="fill:#fff"></path></g><path d="M180,311a2.43,2.43,0,0,1-1.09.1,6,6,0,0,1-2.83-1,10.24,10.24,0,0,1-3.09-3.18,49,49,0,0,1-2.61-4.72,67.48,67.48,0,0,1-3.67-9.06c-.38-1.19-.64-2.17-.82-2.85a4.81,4.81,0,0,1-.2-1.07,4.35,4.35,0,0,1,.4,1l1,2.79a87.55,87.55,0,0,0,3.79,9c.85,1.69,1.67,3.31,2.54,4.69a10.38,10.38,0,0,0,2.88,3.13,6.52,6.52,0,0,0,2.66,1.07C179.65,311,180,310.92,180,311Z" style="fill:#263238"></path><path d="M183.86,202.46a7.82,7.82,0,0,1,.61-2.67,2.62,2.62,0,0,1,2.12-1.56,1.62,1.62,0,0,1,1.69,1.71,4.06,4.06,0,0,1-.82,1.4c-.94,1.42-.76,3.28-.66,5s0,3.66-1.36,4.75" style="fill:#ffbe9d"></path><path d="M119,165.68a14.42,14.42,0,0,0-2.23,20.67l30.81,36.75a21.74,21.74,0,0,0,27,5h0a21.73,21.73,0,0,0,11.13-21.25l-7.51-33-15.1,2.38L165,201.34l-25.76-33.11a14.42,14.42,0,0,0-20.2-2.55Z" style="fill:#7E57C2"></path><path d="M184.16,218.32c-3.88-.71-4.56-1.34-8.43-2-1.16-.21-2.66-.88-2.21-2.11a1.64,1.64,0,0,1,1.58-1c1.51.05,4,.82,5.4.89.36,0,.33-.34.16-.58a45.37,45.37,0,0,0-7.24-1.19,1.76,1.76,0,0,1-1-3.06,2.49,2.49,0,0,1,1-.35c1.55.15,1.55.15,3.2.36,4.63.57,4-.31,4-.31,0-.35-5.27-.6-8-.8a2.28,2.28,0,0,1-1.6-.53,1.53,1.53,0,0,1,.09-1.92,2.67,2.67,0,0,1,1.8-1c3-.2,12.85.42,12.85.42s1.37,1.69,1.15,5.27A20.3,20.3,0,0,1,184.16,218.32Z" style="fill:#ffbe9d"></path><path d="M170.8,229.7l-.42.08-1.21.18c-1.07.15-2.65.38-4.7.5a23.05,23.05,0,0,1-7.44-.66,20.92,20.92,0,0,1-8.42-5.13,109.34,109.34,0,0,1-8.1-8.86c-2.77-3.31-5.67-6.88-8.7-10.67s-6.16-7.79-9.39-12l-4.89-6.39c-.42-.54-.83-1.09-1.24-1.63l-.59-.86a7,7,0,0,1-.55-.9,14,14,0,0,1-1.49-3.94,13.81,13.81,0,0,1-.29-4.2,16.13,16.13,0,0,1,.3-2.07,14.68,14.68,0,0,1,.62-2,15.89,15.89,0,0,1,.85-1.88,15.27,15.27,0,0,1,1.14-1.7,14,14,0,0,1,2.86-2.84,15.14,15.14,0,0,1,3.47-1.93,14.69,14.69,0,0,1,11.14.34,14.82,14.82,0,0,1,5.55,4.44l4.06,5.3,7.29,9.52,10.54,13.8c1.23,1.62,2.18,2.89,2.84,3.77l.74,1a3.46,3.46,0,0,1,.23.35l-.27-.32-.76-1-2.91-3.72-10.64-13.73-7.33-9.49L139,167.86a14.43,14.43,0,0,0-5.42-4.31,14.12,14.12,0,0,0-7.16-1.17,14,14,0,0,0-3.68.86,15.05,15.05,0,0,0-3.37,1.87,13.72,13.72,0,0,0-2.78,2.76,17,17,0,0,0-1.1,1.66,14.94,14.94,0,0,0-.83,1.82,16,16,0,0,0-.6,1.93,17.07,17.07,0,0,0-.29,2,13.75,13.75,0,0,0,.28,4.09,13.58,13.58,0,0,0,1.45,3.82,28.23,28.23,0,0,0,2.34,3.34l4.89,6.39c3.22,4.17,6.35,8.18,9.37,12s5.91,7.38,8.67,10.69a109.49,109.49,0,0,0,8,8.86,20.63,20.63,0,0,0,8.29,5.12,22.76,22.76,0,0,0,7.36.73c2-.09,3.63-.3,4.7-.42l1.22-.14A3.2,3.2,0,0,1,170.8,229.7Z" style="fill:#263238"></path><path d="M167.24,213.25a20.37,20.37,0,0,0-.08-6.48,20.58,20.58,0,0,0-2.52-6,5.94,5.94,0,0,1,1.2,1.53,13.88,13.88,0,0,1,1.88,9A5.83,5.83,0,0,1,167.24,213.25Z" style="fill:#263238"></path><path d="M128.1,180.53a18.46,18.46,0,0,1-3.93-1.85,18,18,0,0,1-3.69-2.31,18.65,18.65,0,0,1,3.94,1.85A18.13,18.13,0,0,1,128.1,180.53Z" style="fill:#263238"></path><path d="M138.56,186.79a15,15,0,0,1,0-4.69,15.22,15.22,0,0,1,1-4.59,34.73,34.73,0,0,1-.45,4.65A36.28,36.28,0,0,1,138.56,186.79Z" style="fill:#263238"></path><path d="M139.72,199.37a15.54,15.54,0,0,1-7.14-2.44,21.23,21.23,0,0,1,3.59,1.16A23.73,23.73,0,0,1,139.72,199.37Z" style="fill:#263238"></path><path d="M151.81,206.18a18.48,18.48,0,0,1,.16-4.33,18.41,18.41,0,0,1,.68-4.29,18.58,18.58,0,0,1-.16,4.34A17.66,17.66,0,0,1,151.81,206.18Z" style="fill:#263238"></path><path d="M154.1,218.64a18.73,18.73,0,0,1-3-3.14,18.44,18.44,0,0,1-2.63-3.47,18.44,18.44,0,0,1,3,3.13A18.31,18.31,0,0,1,154.1,218.64Z" style="fill:#263238"></path><path d="M170.55,219.93a33.93,33.93,0,0,1-3.83.69,30,30,0,0,1-3.82.74,9.87,9.87,0,0,1,3.72-1.25A9.59,9.59,0,0,1,170.55,219.93Z" style="fill:#263238"></path><path d="M172.53,197.07a13.08,13.08,0,0,1,1.51-3.36,13.37,13.37,0,0,1,2-3.11,25.9,25.9,0,0,1-3.48,6.47Z" style="fill:#263238"></path><path d="M172.67,184.18a7.84,7.84,0,0,1-2.61-1.18,8.2,8.2,0,0,1-2.36-1.65,8.26,8.26,0,0,1,2.62,1.19A8.14,8.14,0,0,1,172.67,184.18Z" style="fill:#263238"></path><path d="M156.49,148.2c-2.09,1.18-3.53,4.17-4.81,6.13a4.92,4.92,0,0,0-.87,1.94,4.47,4.47,0,0,0,.49,2.19c.45,1,.94,2,1.43,3.07.14.29.32.61.64.67s.72-.34.86-.72a11.16,11.16,0,0,0,.36-3,3.09,3.09,0,0,1,1.35-2.58" style="fill:#eb996e"></path><path d="M160.27,156l-2.17-1.46a.63.63,0,0,0-.87.12l-1,1.33v0l.74,3.21c.88,4.13-2.24,3.63-2.24,3.63l-.28-.79-1.6-5c-.39-2.41-.21-2.71.88-4.52l2.41-3.82a2.09,2.09,0,0,1,2.41-.91c3.78,1.19,11.9,3.29,13,6.39,1.92,5.64,3.91,19.83,3.95,20.09h0L164.3,176h0l-.52-9.57a5.11,5.11,0,0,1-2.25-2.57,72.69,72.69,0,0,1-1.26-7.89" style="fill:#ffbe9d"></path><path d="M168.18,157.49s-.11.2-.4.47a3.67,3.67,0,0,1-1.5.86,3,3,0,0,1-1.23.05,2.2,2.2,0,0,1-1.25-.7c-.7-.76-.85-1.88-1.48-2.67a4.9,4.9,0,0,0-1.2-.9,13.12,13.12,0,0,0-1.3-.65,2.48,2.48,0,0,0-1.18-.27,2.43,2.43,0,0,0-.89.59c-1,1-1.51,1.74-1.57,1.68s.09-.21.32-.54a9.54,9.54,0,0,1,1-1.34,2.62,2.62,0,0,1,1-.72,1.2,1.2,0,0,1,.38,0l.35.07a6,6,0,0,1,.68.22,11.17,11.17,0,0,1,1.36.65,5.18,5.18,0,0,1,1.32,1c.72.93.85,2,1.45,2.68a2.17,2.17,0,0,0,2.12.61,3.89,3.89,0,0,0,1.46-.69C168,157.61,168.16,157.46,168.18,157.49Z" style="fill:#eb996e"></path><path d="M167.1,161a9.53,9.53,0,0,1-3.22-.39,9.41,9.41,0,0,1-3-1.09,19.52,19.52,0,0,1,3.14.69A21.54,21.54,0,0,1,167.1,161Z" style="fill:#eb996e"></path><path d="M162.38,153.58c0-.05.21-.11.52,0a1.35,1.35,0,0,1,.43,2.21c-.25.24-.46.26-.48.22s.11-.17.25-.4a1.41,1.41,0,0,0,.2-1,1.36,1.36,0,0,0-.54-.81C162.55,153.7,162.37,153.64,162.38,153.58Z" style="fill:#eb996e"></path><path d="M145.18,161a3.39,3.39,0,0,0-5,1.07c-.58,1-.64,2.39-1.53,3.18a1.91,1.91,0,0,0,1.43-.06c-.22.91-1.78,1-1.91,1.91a1.24,1.24,0,0,0,.82,1.16,4,4,0,0,0,3.39-.11,5.45,5.45,0,0,0,3-4.26,24.71,24.71,0,0,1,.14-2.73" style="fill:#455a64"></path><path d="M146.32,162.11l13-6.42a1,1,0,0,0-.26-1.94h0a1,1,0,0,0-.66.09l-12.93,6.42Z" style="fill:#263238"></path><polygon points="146.32 162.11 145.53 162.98 144.15 160.46 145.4 160.26 146.32 162.11" style="fill:#e0e0e0"></polygon></g><g id="freepik--Plant--inject-3"><path d="M428.06,394.47c.95-3.3,3-6.48,6.13-7.84s7.06-.6,10.41.61,6.64,2.85,10.2,3.07,7.57-1.47,8.64-4.87c1-3.2-.93-6.61-3.34-8.93a21.08,21.08,0,0,0-34.54,8.29" style="fill:#7E57C2"></path><g style="opacity:0.30000000000000004"><path d="M428.06,394.47c.95-3.3,3-6.48,6.13-7.84s7.06-.6,10.41.61,6.64,2.85,10.2,3.07,7.57-1.47,8.64-4.87c1-3.2-.93-6.61-3.34-8.93a21.08,21.08,0,0,0-34.54,8.29"></path></g><path d="M399.87,408.76c-5.22-5-5-13.59-2.36-20.31s8.29-11.86,14.64-15.26a46.37,46.37,0,0,1,40.39-1.31A19.18,19.18,0,0,0,437,381c-2.86,4.75-3.5,10.52-5.86,15.54a24.46,24.46,0,0,1-31.31,12.24" style="fill:#7E57C2"></path><path d="M397.36,379c-5.78-6.83-6.55-17.78-5.7-26.68s2.92-17.85,1.51-26.68c-.83-5.23-2.86-10.23-3.54-15.48s.28-11.19,4.35-14.58c4.68-3.9,12-3,16.91.68s7.68,9.41,9.75,15.13c4.52,12.59,6.18,26.55,2.46,39.39S410.66,375.09,397.86,379" style="fill:#7E57C2"></path><path d="M394.59,434.94a4.07,4.07,0,0,1,0-.79c0-.52,0-1.28,0-2.25.07-2,.26-4.79.69-8.27a111.24,111.24,0,0,1,2.22-12.1,55.57,55.57,0,0,1,5.52-14,57.94,57.94,0,0,1,9-12.07,57.28,57.28,0,0,1,9.46-7.86c1.45-1,2.84-1.76,4.05-2.46s2.31-1.17,3.19-1.6l2.08-.87a4.36,4.36,0,0,1,.74-.27,5.51,5.51,0,0,1-.7.37l-2,.95c-.86.46-1.92,1-3.13,1.68s-2.56,1.49-4,2.5a59.65,59.65,0,0,0-18.25,19.88c-5.31,9.29-6.76,19.06-7.82,25.91-.48,3.46-.73,6.28-.86,8.23-.06.93-.1,1.68-.14,2.24A6.13,6.13,0,0,1,394.59,434.94Z" style="fill:#263238"></path><path d="M344.74,352.05c-10.69,6.46-10.66,12.33-8.87,17.87s8.34,9.39,13.79,7.32c3.07-1.17,5.3-3.85,7.2-6.53s3.69-5.57,6.36-7.49,6.53-2.67,9.21-.76" style="fill:#7E57C2"></path><g style="opacity:0.30000000000000004"><path d="M344.74,352.05c-10.69,6.46-10.66,12.33-8.87,17.87s8.34,9.39,13.79,7.32c3.07-1.17,5.3-3.85,7.2-6.53s3.69-5.57,6.36-7.49,6.53-2.67,9.21-.76"></path></g><path d="M336.74,359.13c2.79-3.86,9.7-5,14.06-3.06s7.56,5.75,10.41,9.57,5.65,7.85,9.61,10.5,9.49,3.62,13.44.94a11.54,11.54,0,0,0,4.56-7.9,26.24,26.24,0,0,0-.62-9.33c-.95-4.48-2.49-9.16-6.08-12-4-3.18-9.54-3.33-14.65-3.16-5.85.19-11.8.63-17.3,2.66s-11.1,6.41-13.43,11.79" style="fill:#7E57C2"></path><path d="M385.7,429.6a.75.75,0,0,1,0-.24c0-.19,0-.42,0-.71l-.1-2.75c-.06-2.43-.16-5.87-.28-10.11s-.29-9.34-.57-15S384,389,383.27,382.53a80.62,80.62,0,0,0-1.58-9.33c-.22-.73-.4-1.46-.63-2.17s-.51-1.41-.78-2.09-.56-1.35-.84-2l-.91-1.93a43.37,43.37,0,0,0-8.76-12,32.69,32.69,0,0,0-8.22-5.73c-.54-.25-1-.48-1.44-.67L359,346.2l-.66-.27-.22-.11a.78.78,0,0,1,.24.06l.68.22,1.1.37c.43.17.91.4,1.46.63a31.54,31.54,0,0,1,8.39,5.65,43,43,0,0,1,8.94,12q.45,1,.93,2c.28.67.57,1.34.86,2s.52,1.4.78,2.11.43,1.47.65,2.21a77.08,77.08,0,0,1,1.6,9.4c.77,6.48,1.1,12.69,1.38,18.32s.38,10.73.46,15,.11,7.72.12,10.11c0,1.16,0,2.07,0,2.75,0,.28,0,.52,0,.71A.64.64,0,0,1,385.7,429.6Z" style="fill:#263238"></path><path d="M389.55,431.2a29.11,29.11,0,0,1-1.18-4.59,48.22,48.22,0,0,1-.5-12.9A86.12,86.12,0,0,1,391.94,395c2.2-6.88,5.17-14.24,7.72-22.14a103,103,0,0,0,3.07-11.72A105.68,105.68,0,0,0,404.25,350a164.12,164.12,0,0,0,.34-19.11c-.18-5.45-.47-9.85-.65-12.9-.08-1.49-.15-2.66-.2-3.5,0-.38,0-.68,0-.91a1.34,1.34,0,0,1,0-.32,1.16,1.16,0,0,1,.05.31c0,.24.06.54.09.91.08.84.18,2,.3,3.5.25,3,.59,7.44.82,12.89a156.89,156.89,0,0,1-.24,19.17,101.45,101.45,0,0,1-1.49,11.23A99.48,99.48,0,0,1,400.15,373c-2.55,7.93-5.54,15.28-7.75,22.13a87.21,87.21,0,0,0-4.16,18.6,49.6,49.6,0,0,0,.33,12.84c.26,1.5.5,2.66.71,3.43.09.37.16.66.21.89A1.18,1.18,0,0,1,389.55,431.2Z" style="fill:#263238"></path><polygon points="416.06 436.04 365.85 436.04 364.7 426.37 416.06 426.37 416.06 436.04" style="fill:#263238"></polygon><polygon points="371.24 434.94 377.51 463.93 404.8 463.93 410.67 434.94 371.24 434.94" style="fill:#263238"></polygon><path d="M416.05,436c0,.14-11,.23-24.65.19s-24.65-.19-24.65-.33,11-.23,24.65-.19S416.05,435.89,416.05,436Z" style="fill:#455a64"></path><path d="M407.44,450.34a22.36,22.36,0,0,0-4.43-2.52,15.93,15.93,0,0,0-5.37-1.07A18.92,18.92,0,0,0,391,448c-2.29.78-4.43,1.68-6.51,2.17a15.51,15.51,0,0,1-5.63.17,11.74,11.74,0,0,1-3.62-1.15,7.51,7.51,0,0,1-.87-.56c-.19-.14-.28-.23-.27-.24s.43.24,1.23.61a12.46,12.46,0,0,0,3.58,1,15.74,15.74,0,0,0,5.47-.26c2-.51,4.14-1.42,6.45-2.2a18.76,18.76,0,0,1,6.78-1.2,15.57,15.57,0,0,1,5.5,1.21,13.9,13.9,0,0,1,3.27,1.92,10.18,10.18,0,0,1,.78.67Q407.46,450.33,407.44,450.34Z" style="fill:#455a64"></path><path d="M407.06,452.28a22.74,22.74,0,0,0-4.26-2.49,14.57,14.57,0,0,0-5.17-1.06,18.76,18.76,0,0,0-6.39,1.15c-2.21.74-4.29,1.6-6.27,2.13a16,16,0,0,1-5.41.6,9.21,9.21,0,0,1-3.55-.95,6.59,6.59,0,0,1-.84-.54c-.18-.14-.27-.22-.26-.23s.42.23,1.19.59a9.89,9.89,0,0,0,3.48.77,16.81,16.81,0,0,0,5.26-.7c1.94-.55,4-1.41,6.23-2.16a18.65,18.65,0,0,1,6.57-1.14,14.39,14.39,0,0,1,5.31,1.2,13.82,13.82,0,0,1,3.13,1.91,8.94,8.94,0,0,1,.75.66C407,452.18,407.07,452.27,407.06,452.28Z" style="fill:#fff"></path><path d="M407.94,448.42a25.51,25.51,0,0,0-4.55-2.66,16.82,16.82,0,0,0-5.51-1.32,17.9,17.9,0,0,0-6.81,1.2,58.51,58.51,0,0,1-6.74,2.2,17.11,17.11,0,0,1-5.81,0,13.16,13.16,0,0,1-3.73-1.19,6.54,6.54,0,0,1-.91-.57c-.19-.14-.29-.23-.28-.24s.45.25,1.27.63a14.72,14.72,0,0,0,3.7,1,17.63,17.63,0,0,0,5.67-.12,66.53,66.53,0,0,0,6.66-2.22,17.88,17.88,0,0,1,7-1.19,16.65,16.65,0,0,1,5.63,1.46,16.23,16.23,0,0,1,3.35,2,7.4,7.4,0,0,1,.8.7C407.86,448.31,408,448.41,407.94,448.42Z" style="fill:#fff"></path></g><g id="freepik--blank-canvas--inject-3"><polygon points="254.48 321.08 221.79 464.29 229.55 464.29 261.46 321.08 254.48 321.08" style="fill:#263238"></polygon><polygon points="250.6 321.08 217.92 464.29 225.67 464.29 257.58 321.08 250.6 321.08" style="fill:#455a64"></polygon><path d="M338.87,312.47c0,1.28,28.44,151.45,28.44,151.45h8.33l-29-151.45Z" style="fill:#263238"></path><path d="M335.38,312.47c0,1.28,28.44,151.45,28.44,151.45h8.87L343.16,312.47Z" style="fill:#455a64"></path><polygon points="316.6 321.08 314.7 464.29 325.18 464.29 326.71 321.08 316.6 321.08" style="fill:#263238"></polygon><polygon points="240.52 312.47 239.85 321.96 327.94 324.97 328.88 313.66 240.52 312.47" style="fill:#455a64"></polygon><polygon points="327.94 324.97 332.85 324.97 333.75 313.72 328.88 313.66 327.94 324.97" style="fill:#263238"></polygon><polygon points="246.47 358 313.65 361.14 313.65 372.57 244.53 369.15 246.47 358" style="fill:#455a64"></polygon><polygon points="313.65 321.08 311.75 464.29 322.23 464.29 323.75 321.08 313.65 321.08" style="fill:#455a64"></polygon><path d="M269.08,321.08a68.11,68.11,0,0,0,0,7.69l36.24,2.08v-8.32Z" style="fill:#455a64"></path><path d="M300.63,48.22c.43,1,6.07,38.88,6.07,38.88l6.75-.46L308,48.22Z" style="fill:#455a64"></path><polygon points="311.26 51.11 308 48.22 313.45 86.64 316.25 86.44 311.26 51.11" style="fill:#263238"></polygon><path d="M320.18,66c0,.73-.52,20.31-.52,20.31l7.24-.49V66Z" style="fill:#263238"></path><path d="M318.34,66c0,.73-.52,20.31-.52,20.31l7.24-.49V66Z" style="fill:#455a64"></path><polygon points="296.29 66.6 290.93 88.18 297.33 87.74 302.2 66.6 296.29 66.6" style="fill:#263238"></polygon><polygon points="293.53 66.6 288.17 88.18 294.57 87.74 299.44 66.6 293.53 66.6" style="fill:#455a64"></polygon><polygon points="375.24 80.73 379.57 84.56 374.06 314.17 367.7 314.17 375.24 80.73" style="fill:#e0e0e0"></polygon><polygon points="230.92 92.95 212.06 311.6 367.7 314.17 375.24 80.73 230.92 92.95" style="fill:#fafafa"></polygon><path d="M230.92,93l2.56-.24,7.53-.66,28.89-2.5,105.32-9,.23,0v.23c-2,63-4.62,143.89-7.44,231.78,0,.56,0,1.11-.05,1.66v.25h-.26l-155.64-2.6h-.25l0-.25c5.63-64.67,10.38-119.35,13.73-157.87,1.69-19.24,3-34.43,3.94-44.83.46-5.18.81-9.17,1-11.87.12-1.33.22-2.35.28-3s.1-1,.1-1,0,.36-.07,1-.14,1.72-.25,3.07c-.23,2.7-.57,6.71-1,11.91-.89,10.41-2.18,25.63-3.81,44.89-3.29,38.49-8,93.13-13.5,157.75l-.23-.26,155.64,2.55-.26.25c0-.54,0-1.1.05-1.65,2.86-87.9,5.5-168.76,7.55-231.79l.22.21L270,89.74,241.1,92.13l-7.58.62Z" style="fill:#455a64"></path></g><g id="freepik--speech-bubble--inject-3"><path d="M75.36,68.61a1.35,1.35,0,0,1,.76,1.21v6.66a1.34,1.34,0,0,1-.53,1.07,1.36,1.36,0,0,1-1.17.22,4.13,4.13,0,0,0-3.26.5,3.76,3.76,0,0,0-1.78,2.37,3.89,3.89,0,0,0,.68,2.91,4.24,4.24,0,0,0,2.75,1.82A5,5,0,0,0,78.05,82a1.34,1.34,0,0,1,2.55.82A7.7,7.7,0,0,1,72.39,88a6.89,6.89,0,0,1-4.53-2.94,6.52,6.52,0,0,1-1.1-5,6.45,6.45,0,0,1,3-4.12,7,7,0,0,1,3.68-1V69.82a1.34,1.34,0,0,1,1.33-1.34A1.37,1.37,0,0,1,75.36,68.61Z" style="fill:#7E57C2"></path><path d="M73.52,65.81a1.1,1.1,0,1,1,1.12,1.07A1.1,1.1,0,0,1,73.52,65.81Z" style="fill:#7E57C2"></path><path d="M106.15,101.47s-.33,0-.88.28a4.09,4.09,0,0,0-1.86,1.59,3.91,3.91,0,0,0-.57,1.59,3.34,3.34,0,0,0,.34,1.88,3.67,3.67,0,0,0,6.88-.41,3.49,3.49,0,0,0,.11-1.91,3.84,3.84,0,0,0-.76-1.51,4.13,4.13,0,0,0-2-1.36c-.57-.15-.91-.13-.9-.17a1.1,1.1,0,0,1,.24,0,1.57,1.57,0,0,1,.29,0,2.25,2.25,0,0,1,.4.07,4,4,0,0,1,2.16,1.34,3.9,3.9,0,0,1,.83,1.58,3.58,3.58,0,0,1-.09,2,4.17,4.17,0,0,1-1.29,1.87,3.72,3.72,0,0,1-4.59.27,4.18,4.18,0,0,1-1.49-1.7,3.56,3.56,0,0,1-.34-2,4.14,4.14,0,0,1,2.63-3.26,4,4,0,0,1,.39-.11,2,2,0,0,1,.29,0A1.09,1.09,0,0,1,106.15,101.47Z" style="fill:#263238"></path><path d="M115.88,111.15s-.21,0-.55.19a2.55,2.55,0,0,0-1.14,1,2.15,2.15,0,0,0-.14,2.14,2.26,2.26,0,0,0,4.24-.25,2.16,2.16,0,0,0-.39-2.11,2.54,2.54,0,0,0-1.25-.86c-.36-.1-.57-.1-.57-.13a1.38,1.38,0,0,1,.6,0,2.59,2.59,0,0,1,1.38.84,2.71,2.71,0,0,1,.54,1,2.31,2.31,0,0,1-.06,1.32,2.52,2.52,0,0,1-4.73.28,2.33,2.33,0,0,1-.21-1.3,2.51,2.51,0,0,1,.42-1.07,2.56,2.56,0,0,1,1.27-1A1,1,0,0,1,115.88,111.15Z" style="fill:#263238"></path><path d="M104.53,81.65v-.5q0-.51,0-1.47c0-.33,0-.69,0-1.08s-.06-.84-.09-1.31-.08-1-.12-1.52a6.1,6.1,0,0,0-.11-.83l-.16-.88a29.44,29.44,0,0,0-2.77-8.45,30.86,30.86,0,0,0-7.12-9.33L93,55.19c-.44-.34-.91-.66-1.37-1l-.7-.5a6.13,6.13,0,0,0-.73-.48l-1.53-.89-.78-.45L87,51.49l-1.68-.76c-.57-.24-1.17-.41-1.77-.63l-.9-.3c-.15,0-.3-.11-.46-.15l-.46-.11a30.13,30.13,0,0,0-3.85-.76c-.66-.07-1.32-.19-2-.23l-2,0c-.34,0-.69,0-1,0l-1,.08c-.69.06-1.39.09-2.09.17a34.16,34.16,0,0,0-4.18.88l-1,.3-.53.15-.51.2-2,.8c-.68.3-1.33.66-2,1-.33.18-.68.32-1,.53l-1,.6a34.28,34.28,0,0,0-3.71,2.69L52,57.46l-.42.4-.39.44-.78.89-.78.89L49,61l-.7,1-.35.48-.3.52c-.4.69-.81,1.38-1.21,2.08s-.67,1.47-1,2.2a30.45,30.45,0,0,0-1.51,19.36c.21.78.43,1.56.65,2.34l.87,2.24.22.56.27.53.54,1.07L47,94.45l.63,1,.63,1,.32.49.36.47,1.42,1.84a35.37,35.37,0,0,0,3.25,3.23l.85.74c.28.25.6.45.9.68.61.43,1.2.88,1.82,1.29l1.91,1.11.48.27a5.4,5.4,0,0,0,.49.23l1,.46a31.79,31.79,0,0,0,4,1.51c.67.2,1.36.33,2,.5l1,.24c.33.07.68.09,1,.14l2,.27c.67.06,1.34,0,2,.08a29.74,29.74,0,0,0,3.91-.15l.48,0,.48-.08.93-.16c.62-.12,1.25-.19,1.85-.34l1.78-.5.87-.24.84-.32,1.66-.64a6.28,6.28,0,0,0,.79-.37l.77-.38c.51-.27,1-.51,1.51-.78l1.41-.88A30.77,30.77,0,0,0,98.88,97c.26-.36.51-.7.75-1l.62-1.06.61-1c.09-.17.2-.33.28-.5l.24-.51.89-1.95c.27-.62.45-1.25.66-1.82.1-.29.2-.57.29-.85a4.86,4.86,0,0,0,.24-.8c.13-.53.24-1,.35-1.48s.22-.88.3-1.28.1-.75.14-1.07c.09-.63.16-1.12.2-1.45s.08-.5.08-.5,0,.17,0,.5-.1.82-.17,1.46c0,.32-.09.68-.13,1.08s-.18.81-.28,1.27-.22,1-.35,1.49a4.92,4.92,0,0,1-.23.81l-.29.85c-.2.58-.38,1.21-.64,1.84l-.89,2c-.08.17-.16.34-.23.51s-.19.34-.29.51c-.19.34-.39.68-.6,1L99.76,96l-.74,1a31,31,0,0,1-8.51,8.19l-1.41.89c-.5.28-1,.52-1.52.79l-.78.39a5.75,5.75,0,0,1-.8.36l-1.66.65c-.28.11-.56.23-.85.33l-.88.25-1.79.5c-.6.15-1.23.23-1.86.35L78,110l-.48.08-.48,0a28.67,28.67,0,0,1-4,.16c-.67,0-1.34,0-2-.08l-2-.26c-.34,0-.69-.07-1-.14l-1-.24c-.68-.17-1.37-.3-2.06-.5a32.86,32.86,0,0,1-4-1.52l-1-.46-.5-.23-.47-.28L57,105.4c-.63-.4-1.22-.86-1.84-1.3a9.78,9.78,0,0,1-.91-.68l-.86-.75a34.67,34.67,0,0,1-3.28-3.25l-1.44-1.86-.36-.46L48,96.6l-.64-1-.64-1-.54-1.07-.54-1.07-.28-.54-.22-.57c-.29-.75-.58-1.5-.88-2.26l-.66-2.36a33.33,33.33,0,0,1-.84-9.89,33.36,33.36,0,0,1,2.36-9.65q.52-1.11,1-2.22t1.23-2.1l.3-.52.36-.49.7-1,.7-1,.79-.9.78-.89c.13-.15.26-.3.4-.44l.43-.41,1.71-1.6A34.44,34.44,0,0,1,57.28,53l1-.61c.32-.2.67-.35,1-.53.68-.33,1.34-.69,2-1l2.07-.8.52-.2.53-.16,1.06-.29a33,33,0,0,1,4.22-.88c.7-.09,1.41-.12,2.11-.17l1-.08c.35,0,.69,0,1,0l2,.06c.68.05,1.35.16,2,.24a29,29,0,0,1,3.88.77l.47.11c.16,0,.31.1.46.15l.91.31c.59.22,1.2.39,1.78.64l1.69.77.83.38.78.46,1.55.9a5.74,5.74,0,0,1,.73.48l.7.51c.47.34.94.66,1.38,1l1.26,1.1a31,31,0,0,1,7.14,9.41,29.67,29.67,0,0,1,2.73,8.5l.15.89a4.85,4.85,0,0,1,.11.83c0,.55.07,1,.1,1.53s.08.9.08,1.3,0,.76,0,1.09c0,.64,0,1.13,0,1.47S104.53,81.65,104.53,81.65Z" style="fill:#263238"></path></g></svg>
