<svg xmlns="http://www.w3.org/2000/svg" viewBox="0 0 750 500"><g id="freepik--background-simple--inject-69"><path d="M573.23,39.47l-1.39,1.09a40.06,40.06,0,0,0-15.07,38.6,39.34,39.34,0,0,0,1.45,5.52,42,42,0,0,0,29.41,26.66c7.93,1.92,16.77,1.67,23.44,6.32,8.68,6,10.35,17.88,11.27,28.34s2.61,22.31,11.32,28.32c5.46,3.76,12.64,4.31,19.2,3.17,17.39-3,31.57-17.08,37.5-33.51s4.44-34.77-1-51.33c-7.63-23.19-23.49-44.22-45.44-55.38S593.87,26,573.23,39.47Z" style="fill:#f5f5f5"></path><circle cx="662.58" cy="383.07" r="38.81" transform="translate(-76.81 580.72) rotate(-45)" style="fill:#f5f5f5"></circle><circle cx="87.6" cy="394.77" r="38.81" style="fill:#f5f5f5"></circle></g><g id="freepik--Floor--inject-69"><path d="M705.22,464.54c0,.15-147.85.26-330.2.26s-330.24-.11-330.24-.26,147.82-.26,330.24-.26S705.22,464.4,705.22,464.54Z" style="fill:#263238"></path></g><g id="freepik--Map--inject-69"><rect x="56.87" y="42.19" width="164.89" height="96.31" rx="6.28" style="fill:#fff"></rect><path d="M215.47,138.5a11.25,11.25,0,0,0,1.31-.17,6.25,6.25,0,0,0,4.65-4.34,11.58,11.58,0,0,0,.25-3.41c0-2.49,0-5.37,0-8.6,0-13,0-31.68-.08-54.82q0-8.69,0-18.17a6.28,6.28,0,0,0-1.36-4.33,6,6,0,0,0-4-2.22c-3.24-.09-6.62,0-10,0l-43.45,0-99.56,0a6,6,0,0,0-5.23,3,6.11,6.11,0,0,0-.8,3V90.15q0,12.5,0,24.52,0,6,0,11.89c0,1.95,0,3.9,0,5.83a6,6,0,0,0,2.51,4.73,5.9,5.9,0,0,0,2.52,1,19.86,19.86,0,0,0,2.8.09H102.7l37.86,0,54.81.08,14.91,0,3.87,0c.88,0,1.32,0,1.32,0s-.44,0-1.32,0l-3.87,0-14.91,0-54.81.08-37.86,0H65a20,20,0,0,1-2.88-.1,6.34,6.34,0,0,1-2.72-1.13,6.49,6.49,0,0,1-2.71-5.1c0-1.94,0-3.89,0-5.85q0-5.88,0-11.89,0-12,0-24.52V48.48a6.54,6.54,0,0,1,6.55-6.55l99.56,0,43.45,0c3.41,0,6.73,0,10.05.05a6.5,6.5,0,0,1,4.3,2.38A6.67,6.67,0,0,1,222,49q0,9.48,0,18.17c0,23.14-.06,41.87-.08,54.82,0,3.23,0,6.11,0,8.6a11.85,11.85,0,0,1-.27,3.44,6.43,6.43,0,0,1-1.43,2.48,6.27,6.27,0,0,1-3.34,1.89,6.84,6.84,0,0,1-1,.11Z" style="fill:#263238"></path><rect x="67.98" y="51.18" width="42.71" height="7.22" rx="3.26" style="fill:#e0e0e0"></rect><path d="M212,122.29c-1.6-2.83,0-.46-2,.73,0,.2.16.22.16.41s-.41.25-.43.57c.67,0,1.87-.93,2.73-1.73C212.39,122.14,212.18,122.28,212,122.29Z" style="fill:#e0e0e0"></path><path d="M208.74,123.7c-1,.9-2.72,1.48-4.4,2.32-.39,1.69,3.69-.85,5-2.1C209.2,123.88,208.92,123.59,208.74,123.7Z" style="fill:#e0e0e0"></path><path d="M204.1,106.48a.6.6,0,0,0,.75-.59s0-.08-.13-.06C204.43,105.94,202.58,106.08,204.1,106.48Z" style="fill:#e0e0e0"></path><path d="M203.39,107.67a5.27,5.27,0,0,0-6.66-3c-.2-.45-.61-1.91-1.45-.93-.22,2,2.62,1.11,3.22,3-1.16,1,.7.78,2.11,1.19,1.13-1.39,1.22-.48,2.53.53C204.15,108.77,204.62,108.36,203.39,107.67Z" style="fill:#e0e0e0"></path><path d="M196.82,123.86c-1.87-.09-.38,2.75.87,0C197.44,123.67,197.14,123.91,196.82,123.86Z" style="fill:#e0e0e0"></path><path d="M195.85,85.51c-.46-.77,0-2.47-1.57-2.9,1.68,3.32-3.68,2.06-2.54,4.54.27.49.76.61.84-.37C193.64,86.52,194.44,86,195.85,85.51Z" style="fill:#e0e0e0"></path><path d="M193.55,81.94c0,.24.38.49.6.54.15-.94.68.14,1.54-.87-.06-.47-1.53-.54-2.11-.94,0,0,0,0,0,.08C193.58,81.09,194.09,81.24,193.55,81.94Z" style="fill:#e0e0e0"></path><path d="M194.28,109.1c0,.15.44.17.41,0S194.29,108.93,194.28,109.1Z" style="fill:#e0e0e0"></path><path d="M193.26,80.1c.45-.3-.2-.62-.46-.76C192.69,79.65,193,80,193.26,80.1Z" style="fill:#e0e0e0"></path><path d="M191.15,108.45a6.71,6.71,0,0,0,1.59-.94,1.79,1.79,0,0,0-1.7.84A.27.27,0,0,1,191.15,108.45Z" style="fill:#e0e0e0"></path><path d="M191.66,102.81c-.41.09-1.73-.55-2.13.35C190.05,102.92,191.37,103.41,191.66,102.81Z" style="fill:#e0e0e0"></path><path d="M191,106c.12-.09.07-.36.08-.57-.26-.31-.34-.79-.57-1.13.14-.29.65-.33.62-.7-1.76.3-2.39-.57-1.78,2.43.39.1.3-.86.59-1.24C190.12,105.15,190.41,106.13,191,106Z" style="fill:#e0e0e0"></path><path d="M190.09,107.64c0-.23-.6-.29-.7-.08C189.44,107.75,190,107.85,190.09,107.64Z" style="fill:#e0e0e0"></path><path d="M189,108.08c.06.21.28.26.48.32l.11-.11C189.57,108,189.14,107.85,189,108.08Z" style="fill:#e0e0e0"></path><path d="M188,107.48c-.2,0-.45-.12-.54.08.06.24.34.24.63.25.17-.21.64,0,.78-.19C188.76,107.22,188.31,107.45,188,107.48Z" style="fill:#e0e0e0"></path><path d="M203.53,115.48a6.6,6.6,0,0,1-1-2c-1.44-.39-.47-2.32-1.81-3.13a2.18,2.18,0,0,0-.38-1.57c-1.33.75-.1,5.59-3.65,1.89,0-.12.05-.23.46-.38.61-1.3-.63-.75-1.84-1.38-.12.11,0,.21,0,.38-1.61.09-.86,1.75-3.24,1.06-1.46.63-1.83,2.44-3.84,2.94-3.35.81-3.43,1.65-3.27,6.25-.07.46-1.14.86-.11,1.32,1.27,0,1.9-.85,3.49-.57,1-.8,5.27-2.34,5.49.41.46,0,.18-.3,1.11-.57a.5.5,0,0,0-.11.38.46.46,0,0,1,.13.54C195.27,125.61,205.09,119.74,203.53,115.48Z" style="fill:#e0e0e0"></path><path d="M186.12,107.54c.3,0,.65.22.89,0-.16-.32-.68-.29-1-.46,0-.14.06-.21,0-.3C183.11,106.09,179.8,106.68,186.12,107.54Z" style="fill:#e0e0e0"></path><path d="M188.42,100.21c-.76-1.61-1.52,1.82-4.26,2.29-.41,2,1.41,2.82,3.42,2.63.32-.23,0-1.06.76-1.51.69-.93-.37-1.7.59-3C188.82,100.42,188.55,100.38,188.42,100.21Z" style="fill:#e0e0e0"></path><path d="M183.56,104.23a.54.54,0,0,0,0,1.07A.54.54,0,0,0,183.56,104.23Z" style="fill:#e0e0e0"></path><path d="M182.55,105.08c.44-.19.4-1.29-.4-.79-1-1.34-2.68-3.34-4.84-3.76,1.44,1.61,2.47,3.84,4.54,5.63a1.12,1.12,0,0,0,.54-.06C182.61,105.9,182.42,105.46,182.55,105.08Z" style="fill:#e0e0e0"></path><path d="M169.79,98.43s-.06,0-.08.08C169.07,101.58,171.79,99.91,169.79,98.43Z" style="fill:#e0e0e0"></path><path d="M154.41,109.54c-.28,1.11-1.94,1.32-2.59,2.56-1.22,5.28,1.52,5.49,2.86-.78C155.18,111.07,155,109.8,154.41,109.54Z" style="fill:#e0e0e0"></path><path d="M178.17,95.8c.82,1.79.56,5.5,3.46,6.87.44-2-2.34-2.63-2.45-4.93.09-2.1,2.12-.17,2.78,1.12a20,20,0,0,0,2-1.49c.45-2.23-2.33-2.36-2.07-4.12.6-.66,1.26-1.33,1.75-.15,0,.15-.9.89.08,1,.22-2.71,3.71-1.29,4.4-4.7.39-.18.19-.62.25-1.09-.07-.19-.37-.15-.44-.35s.08-.17.06-.32c-.16-.92-3-2-1-3.06-.17-.32-2.6,0-2.26-1,.64-.32,1.3-1.55,1.51,0,1.79-1.35,2.34,1.8,3.74,2.27.58-.29,1-.43.34-1.27s-1.72-.4-1-2.4c.54-1.29,2.54.95,2.09-3.68-1.4-2.16.1-.8,1.23.6.56-1-1.14-1.84-2.08-2.73-.7.28-2.28-.11-3.48-.65.46-2.06,2.15-2.48,4.62-1.76,0,0,1.22.06.75-.41-.92-2.12,2.19.55,2.06-1.24.67.2.67,1.45,0,2.25.4,1.45,1.81,2,3.11,3.1.22-.1.32-.78,0-1.43.57-.56-.21-.3-.09-1.13-.15-.44-1.44-.43-1.51-1.49.45-.6,1.72,0,2.49-.52.43-.49.48-.84,1.65-.83-3.06-1.74.11-1.16,1.75-.87-1.73-2.1-6.07-1.69-9.38-2.32-.16.11.14.26,0,.38-4-.33-7.76-1.34-12.47-1.46-.3.62-1.16.35-2.19.38-.91.9-1.09-.86-2.8-.79s-3.46.53-5.55-.46c-1.91-1.63-5.89-.76-8.84,0-.11.14.14.23,0,.36-.39.13-1.08,0-1.38.19-.08.15.14.29,0,.4-.68-.21-1.69.46-2.29.34-.59-1.53-3,.33-.79,1.23a14.81,14.81,0,0,0-3-.49c.29.87-1.39.25-3.14.57-.28-.09-1.24,1.09-1.78.46,0-.16.14-.14.1-.32s-.58-.22-.67,0,.17.43.13.73a.22.22,0,0,0-.1.11,1.24,1.24,0,0,0-1.22.27c0,.15,0,.36-.16.4-.38.06-.71-.28-1-.08,0,.28.35.12.3.41a1.14,1.14,0,0,1-1.27-1c6.5.34-3.41-3.39-7.43-1-.14,1.37-1.91,2-3.68,3.08-.11,2.08.93,1.42,2.44,1.35.06.54,1.28,1.28-.22,1.35,0-.24,0-.64-.16-.78-1.05.18-.62.84-.79,1.75-2.2.41-3.32,2.42-5.62,2.68,3.47,2.45.07,2.16-2.22,2.63.42.69-.91,2.29.23,2.91.59-.23,1.31.42.64,1.27-.47.54-1.75.73-1.68,2.19-2.12,2-3.75,2.46-3.57,7.11-1.24.71,2.3,6,4.75,5.65,1-.64,1.68.33,3.15-.4.54-.3,2.61-.93,3.08.59,2.25-.35,1.8.74,1.54,3,.7,1,1.38,1.4,1.91,3,1.19,2.09-1.65,3.67-.21,5.85,1,1.75,1.53,5.92,3.3,7.76,2.63-.16,6-1.37,6.55-4.71,2.17-.73.46-1.37,1.17-2.93,1.63-1.52,3.2-1.26,2.66-4.47a2.6,2.6,0,0,1-.54-1c-1.06-4.14,5.87-5.48,5.62-10.19-1-.13-2.76,1.43-3.81,0-1.48-2.11-3.63-4.7-5-8,.11-.15.35-.16.57-.19,1.49,1.43,2.19,3.55,3.84,5.46,0,.14-.23.09-.22.27a3.58,3.58,0,0,1,.89,1.92c2.4-.45,6.14-1.72,7.63-4.76-.47-1.08-1.2-.24-1.95-1.84-.5.43-.82,1-1.94.86-.25-.1-.14-.56-.25-.81s-.35,0-.46,0c-1.55-1.55-2-3.45,1-.71,1.66.27,3.19,1.3,5.7,1,1.13-.23,1.32.54,2.55,1.33a.87.87,0,0,0,1.51.62c.44,1.78,3.91,11.78,4.08,3.08.79-.61,1.77-1.66,2.95-2.65,0-.64,1.62-.78,2.3-.73a26.5,26.5,0,0,1,2,3.11C177.4,95.1,177.92,94.42,178.17,95.8ZM136.06,75.94c1.08-.3,2.51-1.2,2.57-2.52-1.58-.33,1.31-2.77,2.21-2.27-2.48,2-.87,2.53,1.81,2.35-.32.54-1.87,0-2.54.79.24-.18,1.59.53.43.45-.63-.34-.76.12-.75,1C140,76.35,133.93,76.28,136.06,75.94Zm9.22,31c-.38,0-.66-.78-.46-1.22h.08C145.13,105.84,145,106.38,145.28,106.89Zm2,2c.29.14.13.69,0,.89-.3-.12-.17-.67-.05-.89Zm-.11-5.38c0,.36-.12.38-.51,1-.33,0-.6,0-.7-.22C145.86,103.85,146.44,102.72,147.19,103.48ZM147,86.61c-.31,1.75-3.23,1-5.35.46-4.25-1.2,1.77,3-6.09-.67-.78-.76,1.68-1.87-1.94-1.76-1.48-.09-2.81.75-4.73,1-.55.12-1.19-.78.19-.7,1.88.07,1.28-2.09,3.19-2.68a2.81,2.81,0,0,0,0-.43c.75-.12,1.61-.35,2.87-.6.34,1.36,3,1.22,2.76,3,.17-.05.8-.18.43-.94.12-.27.49,0,.65-.11-.5-.71-2.31-1-2.62-2.46.06-.09.22-.23.32-.19,1.27,1,2.64,1.59,3.78,3.76,0,.47.17.76.71.7,0-.24.89-.61.58-1-.2-.16-1.07-.79-.23-.76.23-.27.71-.6,1-.19a2.91,2.91,0,0,0,1,2,26.26,26.26,0,0,0,3.67,0C147.19,85.43,147.54,85.81,147,86.61Zm2-3.92c-1.77-.11-3.93-.61-5.81.22,0-.25.3-.14.32-.35-.57-.55.31-3,1.71-2.3.22.33.52,1.07,1.45.41-.64-.43-.14-.91.82-.81C146.28,81.44,150.38,81.22,149.06,82.69Zm6.35,2c-1.24.6-2.38,0-2.28-1.89-1.35-1-2.49-2.86.88-2.87.17.1.29.54.1.68-.9,0-1.07.89.22,1.4,0,.17,0,.36.16.44.41-.16.82.08.81.4s-.36,0-.54.08,0,.09-.08.08C154.82,83.63,155.55,83.7,155.41,84.64Zm2-3.49c-.3.06-.75-.59-.32-.7S157.85,81.07,157.41,81.15ZM158,70.61c.33-.66-.12-1-.62-1.78,0,0,0,0,0-.08C157.8,68.91,159.55,70.38,158,70.61Zm5.46,9.68c-.12-.19.17-.45.27-.25S163.62,80.3,163.44,80.29Zm5.11-12.54c-.09-.12.34-.34.84-.46C169.33,67.6,168.81,67.71,168.55,67.75Zm7.92,8.92c-.2.26-.22.35-1,.75,0-.21.19-.25.29-.38.07-.29.28-.74.41-1.29A1,1,0,0,1,176.47,76.67Z" style="fill:#e0e0e0"></path><path d="M149.47,69.61c.09-.27-.46-.32-.38,0C149.14,69.69,149.38,69.69,149.47,69.61Z" style="fill:#e0e0e0"></path><path d="M145.76,85.75c.11.26.59.11.62-.11S145.77,85.53,145.76,85.75Z" style="fill:#e0e0e0"></path><path d="M136.49,84.29a1.47,1.47,0,0,0,1,.51c.16-.12.18-.39.25-.59C137.4,84.22,136.77,84.06,136.49,84.29Z" style="fill:#e0e0e0"></path><path d="M134.52,82.86a3.06,3.06,0,0,1,0,.75c.17.34.56,0,.65-.19C135.28,82.67,134.89,82.47,134.52,82.86Z" style="fill:#e0e0e0"></path><path d="M134.87,82.4a.38.38,0,0,0,.19-.41C134.78,81.69,134.51,82.33,134.87,82.4Z" style="fill:#e0e0e0"></path><path d="M128.73,75.48c.06.29,1.84.86.6,1.35,0,.31-.22.36-.3.57s.25.11.27.27-.34.19-.27.37a8.32,8.32,0,0,0,2.46-.29c.94-1.06-1.84-1.61-1.05-3-.05-.23-.48-.07-.52-.32s.16-.18.16-.35a.17.17,0,0,0-.13,0C129.57,74.34,128.44,74.27,128.73,75.48Z" style="fill:#e0e0e0"></path><path d="M128,77.29c.24.17,1.44-1.51.21-1.54-.4.13-1.46.33-1.13,1.11-.08.19-.31.24-.35.48C127,77.79,127.66,77.39,128,77.29Z" style="fill:#e0e0e0"></path><path d="M109.32,70c-.19-.32-.84,0-.78.24S109.38,70.23,109.32,70Z" style="fill:#e0e0e0"></path><path d="M104.32,72.26h0C103.81,72.67,105.22,72.62,104.32,72.26Z" style="fill:#e0e0e0"></path><path d="M117.76,105.83c-2.3-1.15-4.52-1.31-7.08-2.86.07-3.2-4.48-2-5.38-4.89-.22-.12-.23.2-.46.16-.59-.65-1.24.05-2.71-.27-.54-.4-1-.84-1.89-.27.46-1.36-1.92.3-2.73,1.29-.87-1-2.19.56-3.12-1-.66-1.48,1.86-3-2.12-2.74-.17-.64,1.25-1.55.73-2.81-1.46-.29-1.16,1.44-2.76,1.52-2.26.4-2.15-2.14-1.24-4.27.83-1.75,3-.64,4.48-1.63.77.17,3.14-.34,2.57,1.46a3.3,3.3,0,0,0,1.08.46c-.31-2.57.53-3.09,3.41-4.59a3.54,3.54,0,0,0,0-1.17c.14-.09.27,0,.43,0a4.91,4.91,0,0,1,3-1.84c0-1.06,1.39-1.42,2.81-1.7-1.43,1.26,2.4.16,2.54-.84-.3,0-.44.35-.7.46-.64,0-1.64-.47-.49-1.46-.12-.41-.68-.08-1-.24.48-.82,1-.4,2.09.08.06-.31-.41-.23-.35-.43a18.94,18.94,0,0,0,2.89-.6c-.2.53-.92.8-1.49,1.63.32-.18,3,1.21,2.46-.09.6-.7-1.34-.77-.41-1.46.63-1.06.09-1.55-1-2.4.47-4.07-3,.86-2.25-2.14-.49-.56-2.47-1.49-3.21-.1-.39,1.13-.37,3.11-2.54,2.94.07.67-1.72,2.74-1.41.43,1.42-1.25-2.66-.64-2.84-2.16-1.07-1.31,2.8-2.07,5.11-3.11-.08.31-.43.36-.51.68.5.39,1.45-.18,2.19-.11-.1-.39-.69-.44-1.06-1.08a2.33,2.33,0,0,0,2.73-1.46c2.63-.43,3.74,1.45-.32,2.22,1.61-.17,1.56.89,3.65,1.16.15-.26-.31-.34-.14-.54a2.2,2.2,0,0,1,.71.24c1.07-.14-.5-1.79.68-1.47.16.76,2.06.21,1.44-.57-.3-.39-1.12-.12-1.18-1,.54-.79-1.47-.63-1.84-1.65-.4,0-.76-.14-1.05,0-.64-.41-5.79.33-3.22,1.51-.12.41-.69.8-1.56,1,.52-1.05-.72-.21-.38-1.76.3-.55,1.47-.24,1.78-.78-.58-.66-1.64.12-2.46.7-.08-.29.34-.45.3-.7a1.66,1.66,0,0,0-1.6.35c-.17,0-.42-.12-.54,0,.33.2,0,.62,1.19.56-.44.41.16,1.42-1,1.38,1.1-2-1.82,1.41-3.35-.4.54,0,1,.39,2.19-.35-.42-.49-.57-.86.44-1.46a1.72,1.72,0,0,0-1.63.46c-.19,0-.21-.24-.4-.27-1.06.09-4.92-1.69-5.38.72.62,0,1.13-.28,1.67-.29-.22,1.94-1.48.73-3.51,1-4.54.34-10.1-1.59-15.38.57.06.22.25.45.16.73-.66,0-4.57.61-1.24,1-6.89,1.55-.5,2.77,3.61,1.74.55.53,2.84,0,2.23,1.59.22.15-.41,1.2.36.92,1-.2-.4,1.71,0,2.73,1,1-1.23,2.34-2.38,4.48-.36,1.53.34,2.65,1.31,4,.27,1.78.31,3.3,2,4.57-.38-1.34-2.68-7.27.48-1.64a1.15,1.15,0,0,1,0,.37c1.15.77,1.09,2,1.63,3.41,2.37,1.88,6.11,1.36,8.51,3.92a2.31,2.31,0,0,0,0,.54c.37-.08,2.27,2.24,2.65,1,.82-1.42,2.16,2.34.62,3-2.51,2.64,0,5.36,1.82,8.55,1,1,2.57.73,3,2.38.61,3.89-.12,7.7,1.35,11.86.34-.1-.07-.48.13-.65.39.12.27.75.38,1.14-1.24.93,1.19,4.88,4.41,5.46h.84c.21-.07.43-.13.48-.35-1.81-1.09-2.6-1-1.85-3.69-1.82-.88-.23-.38-.36-1.77.06-.27.35-.3.4-.57-.23-.38-.58.28-.76-.68.29-.12.83.29,1-.11-.61-1.85,3.72-.17,1.19-3.16,2.51.64,2-1,3.73-3.13-.84-2.7,2.61-1.7,3.49-3.87.77-.85,0-3,1-4.11C117.21,108.57,119,107.25,117.76,105.83ZM101,81.29c.25,0,.62-.06.73,0-.09.36-.85.27-1.13.14C100.58,81.34,100.79,81.31,101,81.29Zm9.71-10.73c0,.13-.06.18-.19.16S110.56,70.47,110.68,70.56ZM97.86,80.75c-1.84,3.19-2.09,0,.49-.41C98.31,80.63,98.09,80.61,97.86,80.75ZM99,82.42c-1,.08-.52-.48,1-.46A2.48,2.48,0,0,1,99,82.42Zm.43-2.21c.07.2,1.27-.14.9.67-.53-.28-1.68,1.54-1.3-.13,0-.17-.12-.19-.11-.35A.65.65,0,0,1,99.4,80.21Zm-1-1.3c1.57,1.72-1.13.78-2.19.78A5.18,5.18,0,0,1,98.38,78.91ZM96,69.8a5.19,5.19,0,0,1,1.24.08c.06.14-.07.21-.16.27-.52-.38-1.28.22-1.79-.19C95.36,69.39,95.78,69.45,96,69.8ZM95,76.53c.51-.12.3.77,0,.78S94.63,76.61,95,76.53Zm-2.7-3.59a2.1,2.1,0,0,1-1.06.19c.25-.06.57-.9,1.46-.38C92.63,72.91,92.42,72.88,92.27,72.94Zm-1.11-2.25c.48,0,1.3-.4,1.43.19a10.43,10.43,0,0,1-1.7.35A1.37,1.37,0,0,1,91.16,70.69Zm9.08,27.93c-.2,0-.3-.32-.11-.41S100.46,98.58,100.24,98.62Z" style="fill:#e0e0e0"></path><path d="M81.24,76.45c-.14-.26-.5-.07-.51.19a.4.4,0,0,0,.13.13C81,76.7,81.18,76.63,81.24,76.45Z" style="fill:#e0e0e0"></path><path d="M95.09,76.81A2.09,2.09,0,1,1,93,74.72,2.09,2.09,0,0,1,95.09,76.81Z" style="fill:#455a64"></path><path d="M149.06,115.11A2.09,2.09,0,1,1,147,113,2.09,2.09,0,0,1,149.06,115.11Z" style="fill:#7E57C2"></path><path d="M181,74.92a2.09,2.09,0,1,1-2.09-2.08A2.08,2.08,0,0,1,181,74.92Z" style="fill:#455a64"></path><path d="M96.48,96.65a2.09,2.09,0,1,1-2.09-2.09A2.08,2.08,0,0,1,96.48,96.65Z" style="fill:#7E57C2"></path><path d="M146.5,72.84a2.09,2.09,0,1,1-2.09-2.09A2.09,2.09,0,0,1,146.5,72.84Z" style="fill:#7E57C2"></path><path d="M147.66,97.7a2.09,2.09,0,1,1-2.09-2.09A2.09,2.09,0,0,1,147.66,97.7Z" style="fill:#455a64"></path><path d="M192.56,104.32a2.09,2.09,0,1,1-2.09-2.09A2.09,2.09,0,0,1,192.56,104.32Z" style="fill:#fff"></path><path d="M194,115.45a2.09,2.09,0,1,1-2.09-2.09A2.09,2.09,0,0,1,194,115.45Z" style="fill:#455a64"></path><path d="M181,95.37a2.09,2.09,0,1,1-2.09-2.09A2.08,2.08,0,0,1,181,95.37Z" style="fill:#7E57C2"></path><path d="M110.76,114.06a2.09,2.09,0,1,1-2.09-2.09A2.1,2.1,0,0,1,110.76,114.06Z" style="fill:#455a64"></path></g><g id="freepik--Device--inject-69"><path d="M547,114.73H165a11.93,11.93,0,0,0-11.92,11.93V396.45A11.92,11.92,0,0,0,165,408.37h146.6l-7.16,56.17H410.85l-6-56.17H547a11.93,11.93,0,0,0,11.93-11.92V126.66A11.93,11.93,0,0,0,547,114.73Z" style="fill:#455a64"></path><path d="M361.12,380c5.19,7.42-2.94,15.56-10.36,10.36a2.43,2.43,0,0,1-.64-.64c-5.19-7.42,2.94-15.54,10.36-10.36A2.59,2.59,0,0,1,361.12,380Z" style="fill:#263238"></path><path d="M173.49,125h365.1a9.7,9.7,0,0,1,9.7,9.7V359a0,0,0,0,1,0,0H163.79a0,0,0,0,1,0,0V134.73A9.7,9.7,0,0,1,173.49,125Z" style="fill:#e0e0e0"></path><path d="M153.11,352.36v4.57H530.26s3.39-13.93,6.07-29.21c4.62-26.39,6.19-62.56,6.48-72.5s0-5.64,0-5.64Z" style="opacity:0.30000000000000004"></path><path d="M164,133.34s.74,194.23-34.09,219H524.6s9.08-21.63,20.84-135.06c2.85-27.45,2.85-48.58,2.85-48.58V133.18A8.21,8.21,0,0,0,540,125H172.26A8.24,8.24,0,0,0,164,133.34Z" style="fill:#fafafa"></path><path d="M164,133.34s0-.27,0-.8a8.08,8.08,0,0,1,2.77-5.48,8.35,8.35,0,0,1,4.92-2c8.19-.07,20.26-.05,35.8-.08l131.7-.08,195.39-.06H538a21.64,21.64,0,0,1,3.49.14,8.42,8.42,0,0,1,7,7.25c.12,1.21,0,2.35.06,3.53,0,2.34,0,4.69,0,7q0,14.13,0,28.58c-.16,9.63-.63,19.35-1.34,29.16s-1.77,19.67-2.85,29.62c-2.16,19.9-4.55,40.14-7.48,60.61q-2.15,15.36-4.9,30.86c-.94,5.16-1.91,10.33-3,15.49a133.71,133.71,0,0,1-4.06,15.39l-.05.16h-2.64l-392.28-.06h-.61l.49-.36a25.62,25.62,0,0,0,4.56-4.45,42.59,42.59,0,0,0,3.51-5.26A78.75,78.75,0,0,0,143,331.16a180,180,0,0,0,6.63-23.07c3.38-15.22,5.48-29.81,7.13-43.49,3.24-27.38,4.65-51.16,5.6-70.61s1.26-34.64,1.44-44.93.18-15.32.18-15.72c0,0,0,1.35,0,4s0,6.57-.09,11.72c-.14,10.3-.44,25.47-1.32,44.94s-2.3,43.25-5.51,70.64c-1.64,13.69-3.72,28.29-7.1,43.53a177.87,177.87,0,0,1-6.62,23.12,78.46,78.46,0,0,1-5.18,11.39,44.27,44.27,0,0,1-3.54,5.32,26.43,26.43,0,0,1-4.63,4.52l-.12-.36,392.28-.06h2.45l-.24.16a134,134,0,0,0,4-15.3c1.13-5.15,2.1-10.32,3-15.47q2.73-15.48,4.9-30.84c2.93-20.47,5.32-40.7,7.49-60.59,1.07-10,2.18-19.81,2.85-29.61s1.18-19.51,1.35-29.13q0-14.44,0-28.57v-7c0-1.16.05-2.36-.06-3.48a7.94,7.94,0,0,0-6.56-6.83,22.58,22.58,0,0,0-3.41-.13h-3.46l-195.39,0-131.7-.09H171.68a8.17,8.17,0,0,0-4.88,2,8,8,0,0,0-2.24,3.13A8.73,8.73,0,0,0,164,133.34Z" style="fill:#263238"></path><path d="M444.29,408.38c0,.13-32,.23-71.51.23s-71.51-.1-71.51-.23,32-.24,71.51-.24S444.29,408.25,444.29,408.38Z" style="fill:#263238"></path><path d="M252.55,154.37h-63a4.42,4.42,0,0,1-4.42-4.41h0a4.42,4.42,0,0,1,4.42-4.42h63A4.42,4.42,0,0,1,257,150h0A4.42,4.42,0,0,1,252.55,154.37Z" style="fill:#e0e0e0"></path><path d="M271.85,186.06H192.58a10,10,0,0,1-10-10.05h0a10,10,0,0,1,10-10h79.27a10,10,0,0,1,10,10h0A10,10,0,0,1,271.85,186.06Z" style="fill:#7E57C2"></path><path d="M306.88,202.66H188.26a3.17,3.17,0,0,1-3.17-3.17h0a3.17,3.17,0,0,1,3.17-3.16H306.88a3.17,3.17,0,0,1,3.16,3.16h0A3.17,3.17,0,0,1,306.88,202.66Z" style="fill:#e0e0e0"></path><path d="M306.88,212.57H188.26a3.17,3.17,0,0,1-3.17-3.17h0a3.16,3.16,0,0,1,3.17-3.16H306.88A3.16,3.16,0,0,1,310,209.4h0A3.17,3.17,0,0,1,306.88,212.57Z" style="fill:#e0e0e0"></path><path d="M239.87,222.47H188.26a3.16,3.16,0,0,1-3.17-3.16h0a3.17,3.17,0,0,1,3.17-3.17h51.61a3.16,3.16,0,0,1,3.16,3.17h0A3.15,3.15,0,0,1,239.87,222.47Z" style="fill:#e0e0e0"></path><path d="M517.14,311H372.87a3.17,3.17,0,0,1-3.17-3.17h0a3.17,3.17,0,0,1,3.17-3.16H517.14a3.17,3.17,0,0,1,3.17,3.16h0A3.17,3.17,0,0,1,517.14,311Z" style="fill:#e0e0e0"></path><path d="M513,173.41H376.59a3.17,3.17,0,0,1-3.17-3.16h0a3.17,3.17,0,0,1,3.17-3.17H513a3.17,3.17,0,0,1,3.17,3.17h0A3.17,3.17,0,0,1,513,173.41Z" style="fill:#e0e0e0"></path><path d="M426.72,185.33H376.59a3.17,3.17,0,0,1-3.17-3.17h0a3.17,3.17,0,0,1,3.17-3.16h50.13a3.17,3.17,0,0,1,3.16,3.16h0A3.17,3.17,0,0,1,426.72,185.33Z" style="fill:#e0e0e0"></path><path d="M516.92,322.53H372.65a3.16,3.16,0,0,1-3.17-3.16h0a3.17,3.17,0,0,1,3.17-3.17H516.92a3.17,3.17,0,0,1,3.17,3.17h0A3.16,3.16,0,0,1,516.92,322.53Z" style="fill:#e0e0e0"></path><path d="M444.89,334.05H369.24a3.17,3.17,0,0,1-3.16-3.16h0a3.17,3.17,0,0,1,3.16-3.17h75.65a3.17,3.17,0,0,1,3.17,3.17h0A3.17,3.17,0,0,1,444.89,334.05Z" style="fill:#e0e0e0"></path><path d="M437.61,156.44H378a4.58,4.58,0,0,1-4.57-4.57h0A4.58,4.58,0,0,1,378,147.3h59.62a4.57,4.57,0,0,1,4.57,4.57h0A4.57,4.57,0,0,1,437.61,156.44Z" style="fill:#e0e0e0"></path><path d="M370.85,203.42a1.41,1.41,0,0,1,0,.36c0,.25,0,.59,0,1,0,.93,0,2.27,0,4,0,3.52,0,8.63.07,15.06,0,12.91.06,31.11.1,52.38l-.25-.25h37.51l78,.07,23.65.09,6.43,0,1.67,0,.57,0s-.2,0-.57,0l-1.67,0-6.43.05-23.65.08-78,.08-37.51,0h-.24v-.24c0-21.27.07-39.47.09-52.38,0-6.43.05-11.54.07-15.06,0-1.74,0-3.08,0-4,0-.44,0-.78,0-1A2.45,2.45,0,0,1,370.85,203.42Z" style="fill:#263238"></path><rect x="456.73" y="257.03" width="7.73" height="12.54" transform="translate(921.19 526.6) rotate(180)" style="fill:#7E57C2"></rect><rect x="487.9" y="257.03" width="7.73" height="12.54" transform="translate(983.54 526.6) rotate(180)" style="fill:#7E57C2"></rect><rect x="503.49" y="261.84" width="7.73" height="7.73" transform="translate(1014.71 531.41) rotate(180)" style="fill:#7E57C2"></rect><rect x="472.32" y="251.07" width="7.73" height="18.5" transform="translate(952.36 520.64) rotate(180)" style="fill:#7E57C2"></rect><rect x="441.14" y="246.52" width="7.73" height="23.05" transform="translate(890.01 516.09) rotate(180)" style="fill:#7E57C2"></rect><rect x="425.55" y="239.92" width="7.73" height="29.65" transform="translate(858.84 509.49) rotate(180)" style="fill:#7E57C2"></rect><rect x="409.97" y="232.57" width="7.73" height="37.01" transform="translate(827.66 502.14) rotate(180)" style="fill:#7E57C2"></rect><rect x="394.38" y="222.59" width="7.73" height="46.98" transform="translate(796.49 492.17) rotate(180)" style="fill:#7E57C2"></rect><rect x="378.79" y="208.55" width="7.73" height="61.02" transform="translate(765.31 478.12) rotate(180)" style="fill:#7E57C2"></rect><rect x="503.49" y="253.34" width="7.73" height="3.76" rx="1.74" transform="translate(1014.71 510.44) rotate(180)" style="fill:#e0e0e0"></rect><rect x="488.31" y="249.58" width="7.73" height="3.76" rx="1.74" transform="translate(984.34 502.91) rotate(180)" style="fill:#e0e0e0"></rect><rect x="472.68" y="243.42" width="7.73" height="3.76" rx="1.74" transform="translate(953.1 490.6) rotate(180)" style="fill:#e0e0e0"></rect><rect x="456.87" y="249.06" width="7.73" height="3.76" rx="1.74" transform="translate(921.47 501.89) rotate(180)" style="fill:#e0e0e0"></rect><rect x="441.14" y="238.45" width="7.73" height="3.76" rx="1.74" transform="translate(890.01 480.66) rotate(180)" style="fill:#e0e0e0"></rect><rect x="425.55" y="232.27" width="7.73" height="3.76" rx="1.74" transform="translate(858.84 468.3) rotate(180)" style="fill:#e0e0e0"></rect><rect x="409.97" y="225.19" width="7.73" height="3.76" rx="1.74" transform="translate(827.66 454.14) rotate(180)" style="fill:#e0e0e0"></rect><rect x="394.33" y="214.77" width="7.73" height="3.76" rx="1.74" transform="translate(796.39 433.29) rotate(180)" style="fill:#e0e0e0"></rect><rect x="378.86" y="200.98" width="7.73" height="3.76" rx="1.74" transform="translate(765.45 405.72) rotate(180)" style="fill:#e0e0e0"></rect><path d="M420.59,299.17H373.22a2.94,2.94,0,0,1-2.94-2.94h0a2.94,2.94,0,0,1,2.94-2.94h47.37a2.94,2.94,0,0,1,2.94,2.94h0A2.94,2.94,0,0,1,420.59,299.17Z" style="fill:#e0e0e0"></path><path d="M234.21,304.69H186.85a2.94,2.94,0,0,1-2.94-2.94h0a2.94,2.94,0,0,1,2.94-2.95h47.36a3,3,0,0,1,2.95,2.95h0A3,3,0,0,1,234.21,304.69Z" style="fill:#e0e0e0"></path><path d="M317,272c0,.1-29.14.19-65.06.19s-65.07-.09-65.07-.19,29.12-.19,65.07-.19S317,271.91,317,272Z" style="fill:#e0e0e0"></path><path d="M317,260.78c0,.11-29.14.2-65.06.2s-65.07-.09-65.07-.2,29.12-.19,65.07-.19S317,260.68,317,260.78Z" style="fill:#e0e0e0"></path><path d="M317,249.55c0,.11-29.14.19-65.06.19s-65.07-.08-65.07-.19,29.12-.19,65.07-.19S317,249.44,317,249.55Z" style="fill:#e0e0e0"></path><path d="M317,238.32c0,.1-29.14.19-65.06.19s-65.07-.09-65.07-.19,29.12-.2,65.07-.2S317,238.21,317,238.32Z" style="fill:#e0e0e0"></path><path d="M307.83,271.6c-2.53-6.12-4.27-12.81-6.22-19.15-1.69-5.51-1.85-8.09-3.3-12.76-2.29-7.34-8.35-8.15-12.75-6.16-3.92,1.77-5.62,6.39-6.92,10.54Q276.3,251.51,274,259a26.41,26.41,0,0,1-2.85,6.79,8.72,8.72,0,0,1-5.84,4.07c-4,.52-7.54-2.81-9.24-6.49s-2.17-7.84-3.69-11.61-4.65-7.37-8.67-7.45c-4.94-.09-8.29,4.95-10.35,9.51a109.58,109.58,0,0,0-6.23,17.81,24,24,0,0,1-2.07,6.07,7,7,0,0,1-4.91,3.71c-2.71.34-5.23-1.6-6.81-3.86s-2.55-4.92-4.16-7.15-4.22-4.09-6.91-3.62c-2.42.42-4.15,2.54-5.58,4.56a107.19,107.19,0,0,0-10,17.4h134.6C315.06,286.56,310.37,277.72,307.83,271.6Z" style="fill:#7E57C2"></path><path d="M315.43,288.7l-.49,0-1.42,0-5.47,0-20.09.06-66.32.06H186.49v-.18c0-17.25,0-31.95.07-42.35,0-5.18,0-9.3.05-12.13,0-1.4,0-2.48,0-3.22v-.83c0-.19,0-.28,0-.28s0,.09,0,.28V231c0,.74,0,1.82,0,3.22,0,2.83,0,6.95.05,12.13,0,10.4,0,25.1.07,42.35l-.18-.18h35l66.32.05,20.09.06,5.47,0,1.42,0A4.68,4.68,0,0,1,315.43,288.7Z" style="fill:#263238"></path><g style="opacity:0.30000000000000004"><polygon points="299.62 244.63 251.85 288.7 275.73 288.7 304.49 262.07 299.62 244.63" style="fill:#fff"></polygon></g><g style="opacity:0.30000000000000004"><polyline points="257.53 265.82 231.25 288.7 224.48 288.7 255.52 262.08 258.22 266.66" style="fill:#fff"></polyline></g><path d="M186.66,288.7a86,86,0,0,1,4.43-8.79,97.74,97.74,0,0,1,6.25-9.71,12.36,12.36,0,0,1,2.45-2.51,5.62,5.62,0,0,1,3.54-1.14A6.72,6.72,0,0,1,207,268a11.24,11.24,0,0,1,2.79,3.1c1.55,2.38,2.55,5.26,4.6,7.55a8.14,8.14,0,0,0,3.86,2.46,5.09,5.09,0,0,0,2.33,0,5.77,5.77,0,0,0,2.16-1,9.22,9.22,0,0,0,2.86-4,41.37,41.37,0,0,0,1.46-5,106.24,106.24,0,0,1,3.27-10.46c.65-1.76,1.36-3.52,2.11-5.28a38,38,0,0,1,2.62-5.22,15.43,15.43,0,0,1,4-4.47,8.26,8.26,0,0,1,2.77-1.33,7.31,7.31,0,0,1,3.09-.09,9.26,9.26,0,0,1,5.2,3.32,16.36,16.36,0,0,1,3,5.55c.68,2,1.14,4.08,1.73,6.13a20.65,20.65,0,0,0,2.46,5.85,10.77,10.77,0,0,0,4.7,4.1,6.48,6.48,0,0,0,5.93-.49,10.84,10.84,0,0,0,4-4.58,39.36,39.36,0,0,0,2.12-5.76q1.83-5.82,3.59-11.44c.6-1.87,1.14-3.73,1.8-5.54a20,20,0,0,1,2.62-5.08,9,9,0,0,1,4.48-3.29,11,11,0,0,1,2.7-.54,9.44,9.44,0,0,1,2.71.23,8.3,8.3,0,0,1,4.43,2.83,13,13,0,0,1,2.29,4.56c1,3.2,1.52,6.38,2.31,9.36.39,1.49.84,2.93,1.26,4.36l1.23,4.17a129.58,129.58,0,0,0,4.9,14.45,49.76,49.76,0,0,0,5.57,10,20.56,20.56,0,0,0,5.14,5.09,11.75,11.75,0,0,0,1.67.88c.4.17.59.27.59.27l-.6-.23a11.94,11.94,0,0,1-1.7-.85,20.45,20.45,0,0,1-5.22-5.07,49.77,49.77,0,0,1-5.64-10.06,125.26,125.26,0,0,1-5-14.46c-.41-1.35-.82-2.74-1.25-4.16s-.88-2.87-1.27-4.37c-.81-3-1.35-6.17-2.33-9.34a12.84,12.84,0,0,0-2.24-4.44,8.06,8.06,0,0,0-4.26-2.72,9.47,9.47,0,0,0-2.61-.21,10.26,10.26,0,0,0-2.61.53,8.69,8.69,0,0,0-4.31,3.17,19.61,19.61,0,0,0-2.56,5c-.66,1.79-1.19,3.66-1.79,5.53l-3.59,11.45a39.27,39.27,0,0,1-2.13,5.8,11.26,11.26,0,0,1-4.12,4.75,6.91,6.91,0,0,1-3.06,1,7,7,0,0,1-3.21-.51,11.09,11.09,0,0,1-4.88-4.24,21.06,21.06,0,0,1-2.51-6c-.59-2.06-1-4.13-1.72-6.11a16.26,16.26,0,0,0-2.9-5.43,8.89,8.89,0,0,0-5-3.19,6.89,6.89,0,0,0-2.93.08,7.87,7.87,0,0,0-2.64,1.27,15,15,0,0,0-3.86,4.36,37.32,37.32,0,0,0-2.6,5.17c-.75,1.76-1.46,3.51-2.11,5.27a107.37,107.37,0,0,0-3.28,10.41,42.53,42.53,0,0,1-1.48,5.05,9.47,9.47,0,0,1-3,4.14,5.94,5.94,0,0,1-2.28,1.09,5.46,5.46,0,0,1-2.48,0,8.49,8.49,0,0,1-4-2.56c-2.1-2.36-3.08-5.25-4.61-7.61a11,11,0,0,0-2.71-3,6.58,6.58,0,0,0-3.54-1.39,5.27,5.27,0,0,0-3.39,1.08,11.69,11.69,0,0,0-2.42,2.45,103.89,103.89,0,0,0-6.3,9.65c-1.58,2.75-2.69,4.94-3.43,6.43l-.83,1.71C186.77,288.5,186.66,288.7,186.66,288.7Z" style="fill:#263238"></path><path d="M188.06,327.94a13.61,13.61,0,1,1,13.83,13.45A13.66,13.66,0,0,1,188.06,327.94Zm20.12-.32a6.51,6.51,0,1,0-6.41,6.64A6.53,6.53,0,0,0,208.18,327.62Z" style="fill:#f5f5f5"></path><path d="M188.06,327.94a13.66,13.66,0,0,1,13.39-13.89l.12,7.14a6.54,6.54,0,0,0,.2,13.07l.12,7.13A13.66,13.66,0,0,1,188.06,327.94Z" style="fill:#455a64"></path><path d="M188.06,327.94a13.61,13.61,0,1,1,13.83,13.45A13.66,13.66,0,0,1,188.06,327.94Zm20.12-.32a6.51,6.51,0,1,0-6.41,6.64A6.53,6.53,0,0,0,208.18,327.62Z" style="fill:none"></path><path d="M208.18,327.62V328a2.46,2.46,0,0,1,0,.51,3.82,3.82,0,0,1-.11.68,6.21,6.21,0,0,1-.68,1.77,6.53,6.53,0,0,1-7.83,3,5.44,5.44,0,0,1-.86-.37,5.34,5.34,0,0,1-.82-.51,7.36,7.36,0,0,1-.76-.62,6.92,6.92,0,0,1-.66-.76,6.51,6.51,0,0,1-1-1.8,7.27,7.27,0,0,1-.37-2.08,6.91,6.91,0,0,1,.3-2.09,6.35,6.35,0,0,1,.92-1.84,6.72,6.72,0,0,1,.63-.78,7.65,7.65,0,0,1,.74-.65,6.92,6.92,0,0,1,.8-.53,7.2,7.2,0,0,1,.85-.39,6.52,6.52,0,0,1,3.46-.34,6.36,6.36,0,0,1,2.78,1.21A6.41,6.41,0,0,1,208,326a4.12,4.12,0,0,1,.14.68c0,.19,0,.36,0,.5a2.73,2.73,0,0,0,0,.31v.11s0,0,0-.11l0-.31a2.81,2.81,0,0,0-.07-.5,4,4,0,0,0-.15-.66,6.11,6.11,0,0,0-.75-1.71,6.38,6.38,0,0,0-1.67-1.81,6.51,6.51,0,0,0-2.73-1.17,6.42,6.42,0,0,0-3.38.35,5.61,5.61,0,0,0-.83.38,6.7,6.7,0,0,0-.78.53,7.06,7.06,0,0,0-.72.63,8.82,8.82,0,0,0-.61.76,6.38,6.38,0,0,0-.89,1.79,7,7,0,0,0-.3,2,6.56,6.56,0,0,0,1.31,3.78,7.55,7.55,0,0,0,.64.74,7.27,7.27,0,0,0,.74.61,7.45,7.45,0,0,0,.79.5,7,7,0,0,0,.85.36,6.38,6.38,0,0,0,6.07-1,6.56,6.56,0,0,0,1.62-1.86,6,6,0,0,0,.69-1.74,3.92,3.92,0,0,0,.13-.67,2.47,2.47,0,0,0,0-.5l0-.31C208.17,327.65,208.17,327.62,208.18,327.62Z" style="fill:#263238"></path><path d="M188.06,327.94a1.18,1.18,0,0,1,0,.22c0,.15,0,.37,0,.65s0,.3,0,.47.06.37.09.57.08.43.12.66a5.76,5.76,0,0,0,.19.74,12.77,12.77,0,0,0,1.56,3.6,13.72,13.72,0,0,0,3.5,3.81l.59.42c.21.14.43.26.65.39s.43.27.66.37l.71.33.36.17.38.13.77.27c.26.08.53.13.8.2a5.68,5.68,0,0,0,.82.17,13.72,13.72,0,0,0,1.72.18c.29,0,.59,0,.88,0l.9-.06.45,0,.45-.08c.3-.06.61-.09.91-.16a15,15,0,0,0,1.8-.57,13.78,13.78,0,0,0,1.75-.81c.28-.16.56-.35.84-.52a7.38,7.38,0,0,0,.8-.58,13.65,13.65,0,0,0,1.51-1.34c.23-.25.45-.51.68-.77l.17-.19.15-.21.3-.42.3-.43.27-.45.26-.45.14-.23.11-.24c.14-.32.29-.64.44-1l.35-1a14.65,14.65,0,0,0,.63-4.29,14.14,14.14,0,0,0-.77-4.26c-.12-.33-.25-.67-.38-1s-.32-.63-.47-.95l-.12-.23-.14-.23-.28-.44-.28-.44-.32-.42-.31-.41-.16-.2-.17-.19-.7-.75a14.62,14.62,0,0,0-1.56-1.29,6.18,6.18,0,0,0-.82-.55l-.85-.5a15.28,15.28,0,0,0-1.78-.75,14.8,14.8,0,0,0-1.81-.51c-.31-.06-.62-.08-.92-.13l-.45-.06-.45,0-.9,0c-.3,0-.59,0-.89.05a12.12,12.12,0,0,0-1.71.23,5.64,5.64,0,0,0-.81.2c-.27.08-.54.14-.8.23l-.76.29-.37.14-.36.18-.69.35c-.24.12-.44.27-.66.4s-.43.26-.63.4-.39.3-.58.45a13.56,13.56,0,0,0-3.37,3.92,12.83,12.83,0,0,0-1.45,3.64c-.06.27-.14.51-.17.75s-.06.46-.09.66-.06.4-.08.57l0,.48c0,.28,0,.5,0,.65s0,.22,0,.22v-.22c0-.15,0-.37,0-.65s0-.3,0-.48,0-.37.07-.57.05-.43.08-.67.11-.49.16-.75a13.21,13.21,0,0,1,1.43-3.68,13.77,13.77,0,0,1,3.39-4l.58-.45.63-.41c.22-.13.43-.29.66-.4l.71-.36.35-.18.38-.15.77-.29c.25-.1.53-.16.8-.24a5.77,5.77,0,0,1,.82-.2,11.08,11.08,0,0,1,1.73-.24c.3,0,.6,0,.9,0l.9,0c.16,0,.31,0,.46,0l.46.06c.31.05.62.08.93.14a13.89,13.89,0,0,1,1.83.51,12.76,12.76,0,0,1,1.8.76c.29.15.58.33.87.5a6.36,6.36,0,0,1,.83.56,13.7,13.7,0,0,1,1.57,1.3c.24.25.48.5.71.76l.18.19.16.2.32.42.32.42.29.44.28.46.14.22.12.24.48,1,.39,1a13.74,13.74,0,0,1,.14,8.66l-.36,1-.45,1-.11.24-.13.23-.27.46-.27.46-.31.43-.31.42-.15.21-.17.2-.68.78a16.17,16.17,0,0,1-1.54,1.35,6.7,6.7,0,0,1-.81.59c-.29.17-.56.36-.85.52a12.81,12.81,0,0,1-1.77.82,13.66,13.66,0,0,1-1.82.57c-.31.07-.62.11-.92.16l-.46.08a3.42,3.42,0,0,1-.46,0l-.9.06c-.3,0-.6,0-.9,0a14.08,14.08,0,0,1-1.73-.18,7.17,7.17,0,0,1-.83-.18c-.28-.07-.55-.12-.81-.21l-.78-.27-.38-.14-.36-.16-.72-.34c-.23-.11-.45-.26-.67-.38s-.44-.25-.65-.39l-.59-.43a13.66,13.66,0,0,1-3.52-3.86,13.08,13.08,0,0,1-1.54-3.63c-.06-.26-.15-.5-.18-.74s-.08-.46-.11-.67-.07-.4-.09-.57l0-.48,0-.65C188.06,328,188.06,327.94,188.06,327.94Z" style="fill:#263238"></path><path d="M251.63,315.32a13.61,13.61,0,1,1-13.45,13.82A13.65,13.65,0,0,1,251.63,315.32Zm.32,20.11a6.51,6.51,0,1,0-6.64-6.4A6.53,6.53,0,0,0,252,335.43Z" style="fill:#f5f5f5"></path><path d="M251.63,315.32a13.65,13.65,0,0,1,13.88,13.38l-7.13.12a6.54,6.54,0,0,0-13.07.21l-7.13.11A13.65,13.65,0,0,1,251.63,315.32Z" style="fill:#7E57C2"></path><path d="M238.17,329a13.66,13.66,0,0,1,13.61-13.67v7.13a6.54,6.54,0,0,0,0,13.07v7.14A13.66,13.66,0,0,1,238.17,329Z" style="fill:#7E57C2"></path><path d="M251.63,315.32a13.61,13.61,0,1,1-13.45,13.82A13.65,13.65,0,0,1,251.63,315.32Zm.32,20.11a6.51,6.51,0,1,0-6.64-6.4A6.53,6.53,0,0,0,252,335.43Z" style="fill:none"></path><path d="M252,335.43h-.42a3.21,3.21,0,0,1-.5,0,5.16,5.16,0,0,1-.68-.12,6.47,6.47,0,0,1-1.77-.67,6.57,6.57,0,0,1-1.91-1.63,6.41,6.41,0,0,1-1.3-2.74,6.5,6.5,0,0,1,.23-3.47,7.86,7.86,0,0,1,.36-.86,7,7,0,0,1,.51-.82,7.47,7.47,0,0,1,.63-.76,9.56,9.56,0,0,1,.75-.66,6.43,6.43,0,0,1,1.81-1,7.21,7.21,0,0,1,2.08-.37,7,7,0,0,1,2.09.31,6.27,6.27,0,0,1,1.83.91,6.92,6.92,0,0,1,.78.63,7.48,7.48,0,0,1,.65.74,7,7,0,0,1,.54.8,7.34,7.34,0,0,1,.39.86,6.6,6.6,0,0,1,.34,3.46,6.71,6.71,0,0,1-1.21,2.78,6.55,6.55,0,0,1-1.86,1.68,6.08,6.08,0,0,1-1.74.73,4.12,4.12,0,0,1-.68.14,3.64,3.64,0,0,1-.5.05H252l.11,0,.3,0a3.53,3.53,0,0,0,.5-.06,5.57,5.57,0,0,0,.67-.15,6.42,6.42,0,0,0,1.71-.75,6.72,6.72,0,0,0,1.81-1.68,6.32,6.32,0,0,0,1.16-2.73,6.42,6.42,0,0,0-.34-3.38,7.75,7.75,0,0,0-.39-.83A7.55,7.55,0,0,0,257,325a7.07,7.07,0,0,0-.64-.71,6.5,6.5,0,0,0-2.54-1.51,6.62,6.62,0,0,0-2-.29,6.48,6.48,0,0,0-3.78,1.3,7.55,7.55,0,0,0-.74.64,7,7,0,0,0-.61.74,7.45,7.45,0,0,0-.5.79,7.72,7.72,0,0,0-.36.85,6.41,6.41,0,0,0,1,6.08,6.51,6.51,0,0,0,1.86,1.61,6.33,6.33,0,0,0,1.73.7,5.33,5.33,0,0,0,.68.13c.19,0,.36,0,.5,0l.3,0Z" style="fill:#263238"></path><path d="M251.63,315.32l-.22,0-.65.05-.48,0-.57.09-.66.12a5.76,5.76,0,0,0-.74.19,13,13,0,0,0-3.59,1.56,13.59,13.59,0,0,0-3.81,3.5l-.43.6c-.13.2-.25.42-.38.64s-.27.43-.38.67-.21.47-.33.7l-.16.36-.13.38-.27.77c-.08.26-.13.53-.2.8a7.48,7.48,0,0,0-.18.82,12.22,12.22,0,0,0-.17,1.72c0,.29,0,.59,0,.89l.06.89a3.73,3.73,0,0,0,0,.46l.08.45c.05.3.09.6.16.9a14.4,14.4,0,0,0,.56,1.8,14.56,14.56,0,0,0,.81,1.75c.17.29.35.56.53.84a6.24,6.24,0,0,0,.58.8,13.56,13.56,0,0,0,1.33,1.51l.77.68.2.17.21.15.42.3.42.31.45.26.46.27.22.13.24.11,1,.44,1,.35a13.5,13.5,0,0,0,8.55-.13l1-.39.95-.47.24-.12.22-.14.45-.28.44-.28.41-.31.41-.32.21-.16.19-.17.75-.7a14.52,14.52,0,0,0,1.28-1.56,6.59,6.59,0,0,0,.56-.82c.16-.28.34-.56.49-.85a15.35,15.35,0,0,0,.76-1.78,14.75,14.75,0,0,0,.5-1.81c.06-.31.09-.61.14-.92l.06-.45c0-.15,0-.3,0-.45l0-.9c0-.3,0-.59,0-.88a13.29,13.29,0,0,0-.23-1.71c0-.29-.14-.55-.2-.82s-.14-.54-.23-.8l-.3-.75-.14-.38-.18-.35c-.12-.24-.23-.47-.35-.7s-.26-.44-.39-.66-.27-.42-.41-.62l-.45-.58a13.57,13.57,0,0,0-3.91-3.38,13.19,13.19,0,0,0-3.65-1.45c-.26-.05-.5-.14-.74-.16l-.67-.1c-.2,0-.39-.06-.57-.07l-.48,0-.64,0H253c.18,0,.37.05.58.07l.67.09a6,6,0,0,1,.75.16,12.8,12.8,0,0,1,3.67,1.42,13.51,13.51,0,0,1,4,3.39c.15.19.3.39.46.58s.27.42.41.64.28.42.4.65l.36.71.18.36c0,.12.09.25.14.37l.3.77c.09.26.15.53.23.8a5.6,5.6,0,0,1,.21.83,13.6,13.6,0,0,1,.24,1.73c0,.29,0,.59,0,.89l0,.91c0,.15,0,.3,0,.45l-.06.46c0,.31-.07.62-.13.93a15.25,15.25,0,0,1-.51,1.84,16.41,16.41,0,0,1-.76,1.8c-.16.29-.33.57-.5.86a7.54,7.54,0,0,1-.56.83,14.93,14.93,0,0,1-1.3,1.58l-.76.71-.19.17-.21.16-.41.32-.42.33-.45.28-.45.28-.23.14-.23.12-1,.48-1,.39a14.86,14.86,0,0,1-4.32.78,15,15,0,0,1-4.34-.64l-1-.36-1-.45-.24-.11-.23-.13-.46-.27-.45-.27-.43-.31-.43-.3-.21-.16-.2-.17-.77-.68a15,15,0,0,1-1.36-1.53,6.43,6.43,0,0,1-.58-.82c-.18-.28-.36-.56-.53-.84a16.67,16.67,0,0,1-.82-1.78,13.6,13.6,0,0,1-.56-1.82c-.07-.31-.11-.62-.17-.92l-.08-.46c0-.15,0-.3,0-.45l-.06-.91c0-.3,0-.6,0-.89a11,11,0,0,1,.18-1.74,5.56,5.56,0,0,1,.18-.83c.07-.27.12-.55.2-.81s.19-.52.28-.78l.13-.38.17-.36.33-.72c.11-.23.26-.44.39-.67s.25-.44.39-.64l.43-.6a13.63,13.63,0,0,1,3.86-3.51,12.92,12.92,0,0,1,3.62-1.55c.27-.06.51-.15.75-.18l.67-.11.57-.09.48,0,.64,0Z" style="fill:#263238"></path><path d="M290.89,327a13.61,13.61,0,1,1,13.83,13.45A13.66,13.66,0,0,1,290.89,327Zm20.11-.33a6.51,6.51,0,1,0-6.4,6.64A6.52,6.52,0,0,0,311,326.65Z" style="fill:#f5f5f5"></path><path d="M290.89,327a13.66,13.66,0,0,1,13.39-13.89l.11,7.13a6.54,6.54,0,0,0,.21,13.07l.12,7.14A13.66,13.66,0,0,1,290.89,327Z" style="fill:#455a64"></path><path d="M304.46,313.22a13.65,13.65,0,0,1,13.67,13.6H311a6.54,6.54,0,0,0-13.07,0h-7.13A13.65,13.65,0,0,1,304.46,313.22Z" style="fill:#f5f5f5"></path><path d="M290.89,327a13.61,13.61,0,1,1,13.83,13.45A13.66,13.66,0,0,1,290.89,327Zm20.11-.33a6.51,6.51,0,1,0-6.4,6.64A6.52,6.52,0,0,0,311,326.65Z" style="fill:none"></path><path d="M311,326.65s0,0,0,.11v.31a3.22,3.22,0,0,1,0,.5,4.06,4.06,0,0,1-.11.69,6.17,6.17,0,0,1-.68,1.76,6.43,6.43,0,0,1-1.62,1.91,6.5,6.5,0,0,1-6.21,1.08,7.32,7.32,0,0,1-.87-.37,6.87,6.87,0,0,1-.81-.51,8.94,8.94,0,0,1-.76-.62,8,8,0,0,1-.66-.76,6.43,6.43,0,0,1-1-1.81,6.88,6.88,0,0,1-.37-2.07,7,7,0,0,1,.3-2.1,6.29,6.29,0,0,1,.92-1.83,6.72,6.72,0,0,1,.63-.78,6.5,6.5,0,0,1,.74-.65,5.83,5.83,0,0,1,.8-.53,6,6,0,0,1,.85-.4,6.51,6.51,0,0,1,3.46-.33,6.36,6.36,0,0,1,2.78,1.21,6.52,6.52,0,0,1,1.68,1.85,6.36,6.36,0,0,1,.74,1.75,5.55,5.55,0,0,1,.13.67,2.56,2.56,0,0,1,.05.51c0,.12,0,.23,0,.31s0,.1,0,.1a.82.82,0,0,0,0-.1l0-.31a3.94,3.94,0,0,0-.07-.5,4.38,4.38,0,0,0-.15-.67,6.24,6.24,0,0,0-.75-1.71,6.54,6.54,0,0,0-4.4-3,6.52,6.52,0,0,0-3.38.34,6.28,6.28,0,0,0-.83.39,8.13,8.13,0,0,0-.78.52,8.67,8.67,0,0,0-.72.64,6.54,6.54,0,0,0-.61.76,6,6,0,0,0-.89,1.79,6.88,6.88,0,0,0-.3,2,6.52,6.52,0,0,0,1.31,3.79,6.43,6.43,0,0,0,.64.73,6.23,6.23,0,0,0,.74.62,5.79,5.79,0,0,0,.79.49,6.85,6.85,0,0,0,.84.36,6.4,6.4,0,0,0,3.39.24,6.33,6.33,0,0,0,2.69-1.26A6.43,6.43,0,0,0,310.1,330a6.27,6.27,0,0,0,.69-1.73,5.55,5.55,0,0,0,.13-.67,2.54,2.54,0,0,0,.05-.5l0-.31A.87.87,0,0,0,311,326.65Z" style="fill:#263238"></path><path d="M290.89,327l0,.22c0,.15,0,.36.05.64l0,.48c0,.17.07.36.1.57s.07.42.12.66.12.48.18.74a13.12,13.12,0,0,0,1.57,3.6,13.56,13.56,0,0,0,3.5,3.8l.59.43c.21.14.43.26.64.39s.44.26.67.37l.71.33.36.16.38.14.77.26c.26.09.53.14.8.21a7.45,7.45,0,0,0,.82.17,12.08,12.08,0,0,0,1.72.17c.29,0,.59,0,.88,0l.9-.06a3.42,3.42,0,0,0,.45,0l.45-.07c.3-.06.61-.1.91-.17a13.34,13.34,0,0,0,1.8-.56,15.32,15.32,0,0,0,1.75-.81l.83-.52a7.91,7.91,0,0,0,.81-.58,14.62,14.62,0,0,0,1.51-1.34c.22-.26.45-.51.68-.77l.17-.2.15-.2.3-.43.3-.42.27-.45.26-.45.13-.23.11-.24.45-1c.11-.34.23-.67.35-1a13.4,13.4,0,0,0-.14-8.55c-.13-.34-.25-.67-.38-1l-.47-.95-.12-.24-.14-.22-.28-.44-.28-.45-.32-.41-.31-.41-.16-.21-.18-.18-.7-.75a14.52,14.52,0,0,0-1.55-1.29,6.18,6.18,0,0,0-.82-.55l-.85-.5a14.34,14.34,0,0,0-1.78-.75,15,15,0,0,0-1.82-.51c-.3-.06-.61-.09-.91-.13l-.45-.07-.46,0-.89,0c-.3,0-.6,0-.89.05a11.93,11.93,0,0,0-1.71.23,5.77,5.77,0,0,0-.82.2c-.26.08-.53.13-.79.23l-.76.29-.37.14-.36.18-.7.35c-.23.11-.43.27-.65.4s-.43.26-.63.4l-.58.45a13.62,13.62,0,0,0-3.38,3.92,13,13,0,0,0-1.44,3.64c-.06.26-.14.51-.17.75s-.06.45-.09.66-.06.4-.08.57,0,.34,0,.48,0,.49,0,.65,0,.22,0,.22v-.22c0-.16,0-.37,0-.65s0-.31,0-.48,0-.37.07-.58.05-.43.08-.66.11-.49.16-.76a13,13,0,0,1,1.43-3.67,13.49,13.49,0,0,1,3.39-4l.58-.45c.2-.15.42-.27.63-.41s.43-.29.66-.41l.7-.35.36-.18.38-.15.76-.3c.26-.09.54-.15.81-.23a7.58,7.58,0,0,1,.82-.21,12.41,12.41,0,0,1,1.73-.23c.3,0,.59-.05.89-.05l.91,0a3.54,3.54,0,0,1,.46,0l.46.06c.31.05.62.08.92.14a15.2,15.2,0,0,1,1.84.5,15.63,15.63,0,0,1,1.8.76l.86.5a6.81,6.81,0,0,1,.84.56A14.93,14.93,0,0,1,314,316.9l.71.75.18.19.16.21.32.42.32.41.28.45.29.45.14.23.12.24.48,1,.39,1a14.53,14.53,0,0,1,.77,4.32,14.34,14.34,0,0,1-.64,4.34c-.11.34-.23.68-.35,1l-.45,1-.11.24-.14.23-.26.46-.27.46-.31.42-.31.43-.15.21-.17.2-.69.78a14.93,14.93,0,0,1-1.53,1.35,6.7,6.7,0,0,1-.81.59c-.29.17-.56.36-.85.52a14.1,14.1,0,0,1-1.77.82,15.89,15.89,0,0,1-1.82.57c-.31.07-.62.11-.92.16l-.46.08-.46,0-.9.06c-.3,0-.6,0-.9,0a12.22,12.22,0,0,1-1.73-.17c-.29,0-.56-.13-.84-.18l-.81-.21-.77-.27-.38-.14-.36-.17-.72-.33c-.24-.11-.45-.26-.67-.38l-.65-.39-.59-.44a13.63,13.63,0,0,1-3.52-3.85,13.21,13.21,0,0,1-1.54-3.63,6.21,6.21,0,0,1-.18-.75c0-.23-.08-.46-.11-.66s-.07-.4-.09-.57l0-.48,0-.65C290.89,327.05,290.89,327,290.89,327Z" style="fill:#263238"></path><circle cx="553.4" cy="243.04" r="18.45" transform="translate(-50.81 227.49) rotate(-22.24)" style="fill:#e0e0e0"></circle><path d="M571.85,243a29.64,29.64,0,0,0-.68-4.48,17.6,17.6,0,0,0-2-4.87,18.25,18.25,0,0,0-21.92-7.75,17.13,17.13,0,0,0-4.6,2.48,16.28,16.28,0,0,0-3.85,3.86,18.15,18.15,0,0,0,0,21.51,16.28,16.28,0,0,0,3.85,3.86,17.13,17.13,0,0,0,4.6,2.48,18.31,18.31,0,0,0,21.92-7.75,17.6,17.6,0,0,0,2-4.87,29.83,29.83,0,0,0,.68-4.47,1.29,1.29,0,0,1,0,.29c0,.23,0,.52,0,.88a8,8,0,0,1-.12,1.43,12.54,12.54,0,0,1-.35,1.92,17.84,17.84,0,0,1-2,5,18.64,18.64,0,0,1-12.52,8.84,18.7,18.7,0,0,1-9.81-.78,17.69,17.69,0,0,1-4.74-2.54,17.44,17.44,0,0,1-4-4,18.61,18.61,0,0,1,0-22.11,21.37,21.37,0,0,1,1.84-2.16,20,20,0,0,1,2.12-1.8,17.69,17.69,0,0,1,4.74-2.54,18.7,18.7,0,0,1,9.81-.78,18.7,18.7,0,0,1,12.52,8.84,17.72,17.72,0,0,1,2,5,12.54,12.54,0,0,1,.35,1.92,8,8,0,0,1,.12,1.43c0,.36,0,.65,0,.88A1.43,1.43,0,0,1,571.85,243Z" style="fill:#263238"></path><path d="M551.15,240l5.13,4.51v-1.76l-4.73,4.89c-1.11,1.16.65,2.93,1.77,1.77l4.73-4.9a1.26,1.26,0,0,0,0-1.76l-5.13-4.52a1.3,1.3,0,0,0-1.77,0,1.26,1.26,0,0,0,0,1.77Z" style="fill:#263238"></path></g><g id="freepik--Line--inject-69"><circle cx="324.31" cy="145.54" r="4.42" style="fill:#263238"></circle><circle cx="221.57" cy="90.58" r="4.42" style="fill:#263238"></circle><path d="M221.57,90.58a2.18,2.18,0,0,1,.41,0l1.19,0,4.59,0,16.89-.08,55.72-.07h24.18v.25c0,15.93-.07,29.64-.09,39.39,0,4.85,0,8.71-.07,11.39,0,1.3,0,2.32,0,3,0,.33,0,.59,0,.79s0,.26,0,.26a.9.9,0,0,1,0-.26c0-.2,0-.46,0-.79,0-.71,0-1.73,0-3,0-2.68,0-6.54-.07-11.39,0-9.75,0-23.46-.09-39.39l.25.24-23.94,0-55.72-.08-16.89-.08-4.59-.05-1.19,0A3.24,3.24,0,0,1,221.57,90.58Z" style="fill:#263238"></path></g><g id="freepik--character-4--inject-69"><path d="M713.42,310.68H586.75c-4.38,0-7.94-4.06-7.94-9.08V198.76c0-5,3.56-9.08,7.94-9.08H713.42c4.39,0,8,4.07,8,9.08V301.6C721.37,306.62,717.81,310.68,713.42,310.68Z" style="fill:#fff"></path><path d="M586.7,189.65H713a8.54,8.54,0,0,1,8.54,8.54v12.64a0,0,0,0,1,0,0H579.39a0,0,0,0,1,0,0V197A7.31,7.31,0,0,1,586.7,189.65Z" style="fill:#e0e0e0"></path><path d="M590.28,199.59a2.4,2.4,0,1,1-2.39-2.4A2.4,2.4,0,0,1,590.28,199.59Z" style="fill:#fff"></path><path d="M597.51,199.59a2.4,2.4,0,1,1-2.4-2.4A2.41,2.41,0,0,1,597.51,199.59Z" style="fill:#fff"></path><path d="M604.73,199.59a2.4,2.4,0,1,1-2.4-2.4A2.4,2.4,0,0,1,604.73,199.59Z" style="fill:#fff"></path><path d="M713.61,310.65l.33,0a5.88,5.88,0,0,0,1-.12,7.29,7.29,0,0,0,3.43-1.7,9.13,9.13,0,0,0,3-5.4,23.49,23.49,0,0,0,.16-4c0-1.44,0-3,0-4.59,0-13,0-31.77,0-55,0-11.61,0-24.32,0-38V199.3a11.54,11.54,0,0,0-.2-2.56,9.19,9.19,0,0,0-2.3-4.55,7.35,7.35,0,0,0-4.54-2.36c-.87-.07-1.79,0-2.68,0H686.56l-99.83,0a9.74,9.74,0,0,0-1.63.07,4.28,4.28,0,0,0-.79.17l-.39.12-.37.15a6.65,6.65,0,0,0-2.54,2,8.23,8.23,0,0,0-1.49,2.84,10.13,10.13,0,0,0-.37,3.2v38.5c0,16.7,0,32.81,0,48.16v11.36c0,1.86,0,3.73,0,5.56a9.63,9.63,0,0,0,.44,2.67,8.89,8.89,0,0,0,1.15,2.43,8.41,8.41,0,0,0,1.8,2,7.51,7.51,0,0,0,2.32,1.23,7.17,7.17,0,0,0,1.28.29c.44,0,.88.06,1.32,0h13.07l38,0,55,0,14.95,0h3.88l1.33,0-1.33,0H708.4l-14.95,0-55,.05-38,0H587.46c-.44,0-.89,0-1.35-.05a8.54,8.54,0,0,1-1.33-.3,7.75,7.75,0,0,1-2.41-1.27,8.77,8.77,0,0,1-1.86-2,8.89,8.89,0,0,1-1.18-2.49,9.84,9.84,0,0,1-.46-2.75c0-1.85,0-3.7,0-5.57V285c0-15.35,0-31.46,0-48.16v-38.5a10.51,10.51,0,0,1,.38-3.29,8.53,8.53,0,0,1,1.55-3,7,7,0,0,1,2.66-2l.39-.16c.13-.05.27-.08.4-.12a5.84,5.84,0,0,1,.83-.18,10.62,10.62,0,0,1,1.68-.08h125c.9,0,1.79,0,2.71.05a7.7,7.7,0,0,1,4.71,2.44,9.57,9.57,0,0,1,2.36,4.69,12.77,12.77,0,0,1,.21,2.61v2.57c0,13.64,0,26.35,0,38,0,23.2,0,42,0,55,0,1.62,0,3.15,0,4.59a23.82,23.82,0,0,1-.17,4,9.25,9.25,0,0,1-3.05,5.43,7.28,7.28,0,0,1-3.46,1.68,5.73,5.73,0,0,1-1,.11Z" style="fill:#263238"></path><path d="M670.94,206.52v38.29c.09,6.62,1.06,17-9.42,16.66h0c-9.06-1-11.46-9.57-11.54-15.75,0-2.93-.06-5.37-.09-5.67,0,0-9.92-.81-10.76-10.62-.4-4.73-.44-14.55-.37-23.44a18.32,18.32,0,0,1,17-18.13l1-.07C667,187.65,671.08,196.27,670.94,206.52Z" style="fill:#ffbf9d"></path><path d="M649.89,240.05a23.78,23.78,0,0,0,12.5-4.71s-2.59,7.39-12.44,7.22Z" style="fill:#ff9a6c"></path><path d="M655.51,210c.2.2,1.33-.71,3-.75s2.87.76,3,.55-.11-.46-.65-.83a4.11,4.11,0,0,0-2.44-.7,4,4,0,0,0-2.36.86C655.58,209.54,655.42,209.92,655.51,210Z" style="fill:#263238"></path><path d="M656.86,222.51c-.27-.07-.77,1.29-2.15,2.18s-2.85.82-2.89,1.09.33.33,1,.38a4.16,4.16,0,0,0,2.45-.66,4,4,0,0,0,1.57-1.95C657,222.94,657,222.54,656.86,222.51Z" style="fill:#263238"></path><path d="M654.4,215.24a1.32,1.32,0,0,0,1.37,1.24,1.27,1.27,0,0,0,1.28-1.29,1.34,1.34,0,0,0-1.37-1.25A1.27,1.27,0,0,0,654.4,215.24Z" style="fill:#263238"></path><path d="M651.4,221.43a10,10,0,0,0-2.48-.27c-.39,0-.76-.06-.84-.32a2,2,0,0,1,.17-1.16c.3-1,.6-2,.93-3,1.27-4.29,2.17-7.8,2-7.85s-1.35,3.38-2.62,7.67l-.88,3a2.32,2.32,0,0,0-.09,1.53,1,1,0,0,0,.68.51,2.2,2.2,0,0,0,.66,0A9.93,9.93,0,0,0,651.4,221.43Z" style="fill:#263238"></path><path d="M656.21,203c.16.36,1.48.09,3,.17s2.87.43,3,.08c.08-.17-.16-.51-.7-.83a5.13,5.13,0,0,0-4.64-.19C656.41,202.53,656.14,202.84,656.21,203Z" style="fill:#263238"></path><path d="M640.62,205.48c.17.29,1.45,0,3-.08s2.84.15,3-.16c.07-.15-.19-.42-.73-.65a5.26,5.26,0,0,0-2.29-.38,5.65,5.65,0,0,0-2.29.56C640.79,205.05,640.54,205.33,640.62,205.48Z" style="fill:#263238"></path><path d="M625.74,197.19a1.64,1.64,0,0,1,.75-.93,4.85,4.85,0,0,1,2.5-.4,14.25,14.25,0,0,0,7.37-2.24,33.4,33.4,0,0,1,3.43-4.16c3-3.06,5.42-5.15,8-6.17a22.77,22.77,0,0,1,12.15-.95c3.41.89,6.47,3.66,7,7.15,1.91-1.61,4.78-1.6,7.11-.66l.06,0c2.59.92,4.06,3.67,4.83,6.31s1.09,5.48,2.49,7.85c.3.49.64,1.09.39,1.6a1.09,1.09,0,0,1-1.15.5,3.16,3.16,0,0,1-1.21-.55l.87,2.08a6,6,0,0,1-2.82-.19,61.42,61.42,0,0,1-1.84,7,4,4,0,0,0-2.75.68c-.91.81-1.31,2.35-2.82,1.77-.77-.3-1.47-1.91-1.73-2.7a38.29,38.29,0,0,1-1.66-16.19,12.38,12.38,0,0,0-3.79-2.74l.11.11c-2.74-.95-5.84-1.89-8.43-.6-2,1-3.21,3.08-4.71,4.75a15.36,15.36,0,0,1-11,5.07c-.15,2.76.09,6.66-.06,9.42l-2.32-4.42v0a10,10,0,0,1-.5-1l-.05-.09v0c-.25-.52-.47-1.05-.78-1.57l0,0a1.73,1.73,0,0,1-2.52-2.31,4.18,4.18,0,0,1,.84-.84,2.75,2.75,0,0,1-2.6.68,2.14,2.14,0,0,1-1.51-2.12,1.79,1.79,0,0,1,1.08-1.46,6.2,6.2,0,0,1-3.5-.77C626.18,198.71,625.51,198.06,625.74,197.19Z" style="fill:#263238"></path><path d="M663.75,190.62a7.89,7.89,0,0,1,1,.9,6.93,6.93,0,0,1,1.51,3.25,12.72,12.72,0,0,1,.25,2.49c0,.91-.07,1.87-.14,2.89a26.18,26.18,0,0,0-.07,3.22,10.86,10.86,0,0,0,.22,1.69,3.52,3.52,0,0,0,.69,1.65,1.48,1.48,0,0,0,1.38.46,2.15,2.15,0,0,0,1.25-.7,5,5,0,0,0,.94-2.49l-.2,0a8.21,8.21,0,0,0,1.19,2.06,3,3,0,0,0,1.91,1,1.92,1.92,0,0,0,1-.18,1.66,1.66,0,0,0,.89-1.55,1.21,1.21,0,0,0-.31-.76l-.1.09a6.2,6.2,0,0,0,2.1,1.58,6.13,6.13,0,0,0,.65.26l.24.06-.22-.1c-.15-.06-.37-.15-.64-.28a6.69,6.69,0,0,1-2-1.61l-.1.1a1.24,1.24,0,0,1,.06,1.45,1.44,1.44,0,0,1-.62.6,1.74,1.74,0,0,1-.91.15,2.76,2.76,0,0,1-1.78-1,8,8,0,0,1-1.14-2l-.14-.31-.07.34a4.89,4.89,0,0,1-.9,2.38,2,2,0,0,1-1.11.63,1.27,1.27,0,0,1-1.18-.39,3.35,3.35,0,0,1-.64-1.54,12.2,12.2,0,0,1-.22-1.66,25.75,25.75,0,0,1,.06-3.19c.07-1,.13-2,.12-2.91a13,13,0,0,0-.28-2.52,7,7,0,0,0-1.6-3.28A4,4,0,0,0,663.75,190.62Z" style="fill:#455a64"></path><path d="M633.42,200.16l.08.06.24.18a3.44,3.44,0,0,0,.42.27,5.29,5.29,0,0,0,.59.31,8.63,8.63,0,0,0,4.2.76,11.05,11.05,0,0,0,5.92-2.19,19,19,0,0,0,5.08-5.86c.72-1.18,1.3-2.4,1.94-3.52a12.76,12.76,0,0,1,2.19-3,6.75,6.75,0,0,1,2.82-1.71,4.53,4.53,0,0,1,1.49-.17,5,5,0,0,1,1.37.26,5.67,5.67,0,0,1,2,1.23,5.55,5.55,0,0,1,1.11,1.43,6.53,6.53,0,0,1,.5,1.47s0,0,0-.1,0-.18,0-.3a5.22,5.22,0,0,0-.37-1.11,5.58,5.58,0,0,0-1.1-1.48,5.4,5.4,0,0,0-3.49-1.58,4.87,4.87,0,0,0-1.55.16,7,7,0,0,0-2.92,1.75,13.09,13.09,0,0,0-2.24,3c-.65,1.13-1.23,2.34-1.93,3.52a19.11,19.11,0,0,1-5,5.8,11.1,11.1,0,0,1-5.8,2.2,8.82,8.82,0,0,1-4.15-.68A15.29,15.29,0,0,1,633.42,200.16Z" style="fill:#455a64"></path><path d="M632.53,195.85a1.34,1.34,0,0,0,.35.24,7,7,0,0,0,1,.53,9.4,9.4,0,0,0,1.65.54,10.45,10.45,0,0,0,2.11.28,11.92,11.92,0,0,0,2.12-.14,10,10,0,0,0,1.68-.43,7.33,7.33,0,0,0,1.07-.47c.24-.13.38-.2.37-.22s-.56.24-1.49.53a11.42,11.42,0,0,1-1.66.38,13.79,13.79,0,0,1-2.09.13,12.58,12.58,0,0,1-2.06-.26,10.83,10.83,0,0,1-1.64-.49C633.07,196.12,632.55,195.81,632.53,195.85Z" style="fill:#455a64"></path><path d="M640.54,210c.2.2,1.33-.71,3-.75s2.87.76,3,.55-.11-.46-.65-.83a4.11,4.11,0,0,0-2.44-.7,4,4,0,0,0-2.36.86C640.61,209.54,640.45,209.92,640.54,210Z" style="fill:#263238"></path><path d="M641.72,215.24a1.33,1.33,0,0,0,1.38,1.24,1.27,1.27,0,0,0,1.28-1.29,1.35,1.35,0,0,0-1.38-1.25A1.29,1.29,0,0,0,641.72,215.24Z" style="fill:#263238"></path><path d="M670.69,213.84c.16-.08,6.58-2.48,6.86,4.24s-6.52,5.6-6.54,5.41S670.69,213.84,670.69,213.84Z" style="fill:#ffbf9d"></path><path d="M673,220.86s.12.08.33.16a1.14,1.14,0,0,0,.87,0,2.89,2.89,0,0,0,1.23-2.65,3.83,3.83,0,0,0-.39-1.66,1.37,1.37,0,0,0-.92-.86.6.6,0,0,0-.68.35c-.08.19,0,.32-.07.33s-.14-.1-.1-.38a.67.67,0,0,1,.25-.43.85.85,0,0,1,.64-.2,1.64,1.64,0,0,1,1.26,1,4,4,0,0,1,.48,1.86,3.06,3.06,0,0,1-1.59,3,1.25,1.25,0,0,1-1.07-.14C673,221,672.93,220.88,673,220.86Z" style="fill:#ff9a6c"></path><path d="M612.32,290.34l3,2.28-.06-5.75,10.47-1.48s2.46,14.19,2.71,17.72a25.15,25.15,0,0,1,.14,5.94c-.74,4.55-8.29,5.19-12,2.47a18.24,18.24,0,0,1-2.83-2.2C608.18,304,600,292.65,600,292.65l7.37-6Z" style="fill:#ffbf9d"></path><path d="M611.55,289.67a12.37,12.37,0,0,0,1.63,1.63c1,1,2.48,2.31,4.11,3.74s3.15,2.68,4.32,3.51a7.78,7.78,0,0,0,2,1.19,18.42,18.42,0,0,0-1.77-1.47c-1.1-.89-2.58-2.18-4.2-3.6C614.38,291.78,611.66,289.54,611.55,289.67Z" style="fill:#ff9a6c"></path><polygon points="638.12 247.55 649.27 243.17 669.82 242.01 679.48 245.68 666.24 253.03 654.83 252.61 638.12 247.55" style="fill:#ffbf9d"></polygon><path d="M643,310.79c1,.17,47.27,0,47.27,0l.63-15.78-.2-11.89-3.82-36s-10.06-3.46-15.2-5.11c0,0-5.4,5.63-15.67,5.48-10-.15-12.15-2.41-12.15-2.41l-14,5.38s-10,3.58-11.7,8-4.74,28.86-4.74,28.86H628l-.15,23.82Z" style="fill:#455a64"></path><g style="opacity:0.2"><polyline points="667.29 271.72 669.38 286.98 679.48 291.49 686.94 285.13 686.94 270.96 667.29 271.72"></polyline></g><path d="M686.68,276.05c0,.13-4.2.23-9.38.23s-9.37-.1-9.37-.23,4.2-.23,9.37-.23S686.68,275.92,686.68,276.05Z" style="fill:#263238"></path><path d="M691.8,257.68a8,8,0,0,1,0,1.29c0,.91-.08,2.09-.13,3.52-.13,3-.29,7.1-.46,11.59s-.39,8.55-.53,11.6c-.08,1.42-.15,2.6-.2,3.51a7.65,7.65,0,0,1-.13,1.28,7.67,7.67,0,0,1,0-1.29c0-.91,0-2.09.06-3.52.08-3,.21-7.07.4-11.6s.39-8.62.59-11.59c.09-1.48.19-2.68.27-3.51A6.5,6.5,0,0,1,691.8,257.68Z" style="fill:#263238"></path><g style="opacity:0.30000000000000004"><path d="M620.46,267a25.35,25.35,0,0,0,6.61,18C625.7,278.75,622.28,272.94,620.46,267Z"></path></g><path d="M640.23,274.18,654.66,298a1.65,1.65,0,0,1-1.39,2.51l-43.16.43a1.66,1.66,0,0,1-1.32-.63l-19.5-25a1.65,1.65,0,0,1,1.27-2.66l45.33-.86A4.94,4.94,0,0,1,640.23,274.18Z" style="fill:#e0e0e0"></path><path d="M610.17,286s1.18-2.81-1.81-3.17a104.22,104.22,0,0,0-10.84,0s-4.29.45-3.38,3.53c0,0-2.54,2.27-1.18,4.71s1.9,1.72,1.9,1.72-.36,3,1.9,3.45c0,0,2.46,2.9,4.72,2.71s11.86-4.8,12.5-5.7,1.54-1.42,1-2.43c0,0,1.18-2.66-1.36-3.06C613.61,287.73,613.43,285.52,610.17,286Z" style="fill:#ffbf9d"></path><path d="M596.55,287a8.17,8.17,0,0,0,2,.15c1.25,0,3,0,4.87,0a28.69,28.69,0,0,0,4.89-.29,2.47,2.47,0,0,0,1.74-1.07,5.3,5.3,0,0,1-1.81.72,47.94,47.94,0,0,1-4.83.14c-1.9,0-3.62.08-4.86.15A8.83,8.83,0,0,0,596.55,287Z" style="fill:#ff9a6c"></path><path d="M598.69,291.51s.22.14.65.23a7.16,7.16,0,0,0,1.87.11,12.78,12.78,0,0,0,2.72-.49c1-.28,2.07-.66,3.2-1a13.8,13.8,0,0,1,3.21-.66,5,5,0,0,0,2.74-.56,1.54,1.54,0,0,0,.66-.93,1.34,1.34,0,0,0-.12-.85c-.23-.43-.55-.45-.55-.43s.24.13.38.51a1.18,1.18,0,0,1-.56,1.41,4.91,4.91,0,0,1-2.57.39,13,13,0,0,0-3.34.65l-3.17,1a15.28,15.28,0,0,1-2.63.58A15.8,15.8,0,0,1,598.69,291.51Z" style="fill:#ff9a6c"></path><path d="M601.9,295.34a7.79,7.79,0,0,0,2-.39c1.23-.31,2.91-.79,4.74-1.39s3.48-1.21,4.65-1.68a8.07,8.07,0,0,0,1.86-.88c0-.13-3,.89-6.66,2.09S601.86,295.21,601.9,295.34Z" style="fill:#ff9a6c"></path><path d="M601.13,298.9a4.61,4.61,0,0,0,1.68-.19,20.71,20.71,0,0,0,3.82-1.35c1.44-.66,2.7-1.33,3.61-1.81a6.2,6.2,0,0,0,1.43-.86,30.81,30.81,0,0,0-5.24,2.22C603.6,298.26,601.11,298.77,601.13,298.9Z" style="fill:#ff9a6c"></path><path d="M696.57,271.89s-6.1,24.45-13.73,33.47c-7.38,8.74-19,4.72-23-6.59s-11.15-37.13-11.15-37.13l8.77-6.71,15.15,29.37,6.83-20Z" style="fill:#ffbf9d"></path><path d="M649.13,262.32,642.7,253a17.32,17.32,0,0,1-2.74-.85c-.73-.43-1.44-4.13-1.43-4.86s-1.24-2.41-.73-2.88,2.23-.51,2.14-1.21c0-.15-1.28-1.69-.28-2.83a5.45,5.45,0,0,1,1.81-.76l-.1-3.56s1.92-4.2,3.88-2.68c0,0,7.4,5.68,8.15,6.59s3.59,12.75,4.1,15" style="fill:#ffbf9d"></path><path d="M657.5,254.93a4,4,0,0,0-.1-.62c-.1-.45-.23-1.05-.38-1.79-.35-1.54-.87-3.77-1.57-6.52-.35-1.37-.74-2.88-1.24-4.48a12.73,12.73,0,0,0-.43-1.22,2.81,2.81,0,0,0-.87-1.08c-.67-.59-1.38-1.17-2.11-1.76q-2.2-1.78-4.64-3.67a5.54,5.54,0,0,0-1.36-.9,1.88,1.88,0,0,0-1.67.4,7.61,7.61,0,0,0-2,2.66l0,.05v.06c0,.34,0,.71,0,1.08,0,.84.05,1.66.07,2.47l.18-.23a8.77,8.77,0,0,0-1.31.44,2,2,0,0,0-.63.42,1.81,1.81,0,0,0-.36.65,2.28,2.28,0,0,0,.11,1.42,4.32,4.32,0,0,0,.3.61l.16.28,0,.06s0,0,0,0,0,0,0,.06-.2.19-.37.26a5.49,5.49,0,0,1-.57.2c-.2.06-.41.12-.61.2a1.19,1.19,0,0,0-.62.43,1.05,1.05,0,0,0,0,.76,5.31,5.31,0,0,0,.22.6c.16.37.34.73.47,1.08a1.37,1.37,0,0,1,.11.5c0,.22,0,.41.06.61.06.39.13.76.21,1.14a15.15,15.15,0,0,0,.6,2.15,2.71,2.71,0,0,0,.57,1,3.33,3.33,0,0,0,1,.44c.65.2,1.29.36,1.9.5l-.1-.07c2,2.82,3.61,5.13,4.76,6.77l1.32,1.83a5.93,5.93,0,0,0,.49.63,3.47,3.47,0,0,0-.4-.68l-1.25-1.89c-1.12-1.66-2.7-4-4.64-6.85l0-.06h-.07c-.6-.15-1.24-.32-1.87-.52a3.31,3.31,0,0,1-.87-.38,2.66,2.66,0,0,1-.45-.84A16.09,16.09,0,0,1,639,249c-.07-.36-.14-.73-.19-1.11a5.35,5.35,0,0,1,0-.55,1.87,1.87,0,0,0-.13-.64c-.14-.39-.32-.75-.48-1.11-.07-.18-.14-.36-.19-.54a.68.68,0,0,1,0-.44,1.11,1.11,0,0,1,.4-.24c.18-.07.37-.12.57-.18a5.67,5.67,0,0,0,.62-.21,1.06,1.06,0,0,0,.61-.5.69.69,0,0,0,0-.25.41.41,0,0,0,0-.16l0-.08-.16-.28a3.94,3.94,0,0,1-.26-.55,1.78,1.78,0,0,1-.1-1.13,1.57,1.57,0,0,1,.27-.49,1.46,1.46,0,0,1,.48-.29,8.07,8.07,0,0,1,1.23-.41l.17-.05v-.18c0-.81-.05-1.64-.07-2.47,0-.37,0-.74,0-1.09l0,.1a7.46,7.46,0,0,1,1.83-2.49,1.43,1.43,0,0,1,1.27-.33,5.07,5.07,0,0,1,1.21.82c1.63,1.25,3.19,2.47,4.66,3.64.73.59,1.44,1.16,2.11,1.74a2.33,2.33,0,0,1,.78.93c.16.38.29.79.43,1.18.5,1.58.91,3.08,1.28,4.45.71,2.71,1.29,4.91,1.71,6.49l.46,1.76A2.63,2.63,0,0,0,657.5,254.93Z" style="fill:#ff9a6c"></path><path d="M641.47,239.61c0,.07.75,0,1.92.13a13,13,0,0,1,2,.46,9.17,9.17,0,0,0,2.62,0,5,5,0,0,1,4.12,1.34,5.51,5.51,0,0,1,1,1.58,2.41,2.41,0,0,0-.76-1.8,4.73,4.73,0,0,0-1.77-1.24,5.28,5.28,0,0,0-2.62-.33,10.5,10.5,0,0,1-2.5,0,11.92,11.92,0,0,0-2.09-.38A4.92,4.92,0,0,0,641.47,239.61Z" style="fill:#ff9a6c"></path><path d="M644.09,239.41c.11.06.41-.38.37-1s-.38-1-.49-.94,0,.47,0,1S644,239.36,644.09,239.41Z" style="fill:#ff9a6c"></path><path d="M639.71,243.34a16.45,16.45,0,0,0,5.57-.44,5.37,5.37,0,0,1,2.05-.26,2.21,2.21,0,0,1,1.33.88,12.54,12.54,0,0,1,.73,1.41,2.45,2.45,0,0,0-.47-1.6,2.42,2.42,0,0,0-1.5-1.1,5.3,5.3,0,0,0-2.23.22C642.2,243.11,639.7,243.2,639.71,243.34Z" style="fill:#ff9a6c"></path><path d="M638.73,246.7a3,3,0,0,0,1.37,0c.84-.1,2-.39,3.2-.63a7.23,7.23,0,0,1,1.73-.17,2.07,2.07,0,0,1,1.24.45,1.86,1.86,0,0,1,.6,1.08s.09-.12.08-.37a1.59,1.59,0,0,0-.46-.95,2.29,2.29,0,0,0-1.43-.63,6.85,6.85,0,0,0-1.84.14c-1.27.25-2.37.59-3.18.76A5.86,5.86,0,0,0,638.73,246.7Z" style="fill:#ff9a6c"></path><path d="M640.93,249.37c-.08.06.55.71,1.7.71l-.22-.2c0,.21,0,.4.06.6a6.6,6.6,0,0,0,.53,2.35,6.43,6.43,0,0,0-.07-2.4c0-.2-.06-.39-.08-.59l0-.21h-.2A7.93,7.93,0,0,1,640.93,249.37Z" style="fill:#ff9a6c"></path><path d="M686.91,247.12s12.5,3,12.47,19.61-3.77,24.76-3.77,24.76l-23-12.54L677.71,266Z" style="fill:#455a64"></path><path d="M695.61,291.49a2.66,2.66,0,0,1-.48-.21l-1.34-.68L688.88,288l-16.43-8.85-.19-.1.08-.19c.39-1,.81-2.13,1.24-3.24l4.15-10.78,1.82-4.71a29,29,0,0,1,1.83-4,12.41,12.41,0,0,1,4.16-4.81,5,5,0,0,1,1.62-.65,2.32,2.32,0,0,1,.45-.06h.15a6.44,6.44,0,0,0-2.12.87,12.7,12.7,0,0,0-4,4.81,30,30,0,0,0-1.75,4c-.56,1.48-1.15,3.06-1.78,4.72L674,275.8c-.42,1.11-.84,2.2-1.24,3.23l-.11-.29,16.36,9,4.84,2.72,1.29.75A2.43,2.43,0,0,1,695.61,291.49Z" style="fill:#263238"></path></g><g id="freepik--character-3--inject-69"><path d="M583.43,450.48H448.67c-4.67,0-8.45-4.32-8.45-9.66V331.42c0-5.34,3.78-9.66,8.45-9.66H583.43c4.67,0,8.45,4.32,8.45,9.66v109.4C591.88,446.16,588.1,450.48,583.43,450.48Z" style="fill:#fff"></path><path d="M448.46,321.72H583.23a8.85,8.85,0,0,1,8.85,8.85v13.69a0,0,0,0,1,0,0H440.84a0,0,0,0,1,0,0V329.33A7.61,7.61,0,0,1,448.46,321.72Z" style="fill:#e0e0e0"></path><circle cx="449.88" cy="332.3" r="2.55" style="fill:#fff"></circle><circle cx="457.56" cy="332.3" r="2.55" style="fill:#fff"></circle><path d="M467.8,332.3a2.55,2.55,0,1,1-2.55-2.55A2.55,2.55,0,0,1,467.8,332.3Z" style="fill:#fff"></path><path d="M583.63,450.45l.35,0a5.66,5.66,0,0,0,1-.13,7.74,7.74,0,0,0,3.65-1.81,9.81,9.81,0,0,0,3.19-5.74,25.53,25.53,0,0,0,.16-4.27v-4.89c0-13.81,0-33.79-.06-58.48,0-12.34,0-25.86,0-40.38V332a13,13,0,0,0-.21-2.72,10,10,0,0,0-2.45-4.85,7.82,7.82,0,0,0-4.84-2.5c-.92-.08-1.89,0-2.85-.05H448.65a11.15,11.15,0,0,0-1.74.08,5,5,0,0,0-.84.18l-.41.12-.39.17a7,7,0,0,0-2.7,2.07,8.52,8.52,0,0,0-1.59,3,10.81,10.81,0,0,0-.39,3.41V344.8q0,13.76,0,27.1c0,17.76,0,34.9,0,51.22v12.09c0,2,0,4,0,5.92a10.43,10.43,0,0,0,.48,2.84,9.17,9.17,0,0,0,1.22,2.59,9,9,0,0,0,1.91,2.08,7.94,7.94,0,0,0,2.47,1.31,8.21,8.21,0,0,0,1.37.31c.46,0,.92.06,1.4.05h13.89l40.39,0,58.48.05,15.89,0h4.14l1.41,0-1.41,0h-4.14l-15.89,0-58.48.06-40.39,0H449.43c-.47,0-.95,0-1.44,0a8.67,8.67,0,0,1-1.41-.31,8.14,8.14,0,0,1-2.57-1.36,9.42,9.42,0,0,1-2-2.15,9.85,9.85,0,0,1-1.26-2.66,10.26,10.26,0,0,1-.48-2.92c0-2,0-3.94,0-5.93V423.12c0-16.32,0-33.46,0-51.22q0-13.33,0-27.1V330.94a10.94,10.94,0,0,1,.41-3.5,8.77,8.77,0,0,1,1.65-3.14,7.41,7.41,0,0,1,2.82-2.17l.42-.17.43-.13a7,7,0,0,1,.88-.2,12,12,0,0,1,1.79-.07H581.59c1,0,1.91,0,2.89.05a8.16,8.16,0,0,1,5,2.6,10.13,10.13,0,0,1,2.51,5,12.9,12.9,0,0,1,.22,2.77v2.73c0,14.52,0,28,0,40.38,0,24.69,0,44.67-.05,58.48,0,1.73,0,3.36,0,4.89a25.78,25.78,0,0,1-.19,4.29,9.81,9.81,0,0,1-3.23,5.77,7.8,7.8,0,0,1-3.69,1.79,5.64,5.64,0,0,1-1,.12Z" style="fill:#263238"></path><path d="M535.14,370.09q-.82-8.44-1.64-16.88L508.2,322c-1.68,7.74-3.56,22.63-1,30.14.94,2.81,2.19,5.68,1.87,8.63-.29,2.74-1.93,5.3-1.71,8,.17,2.05,1.35,3.86,2.49,5.58a4.55,4.55,0,0,0,2.17,2.06,4.6,4.6,0,0,0,2.3-.06l19-3.82a1.83,1.83,0,0,0,1.83-2.44Z" style="fill:#263238"></path><path d="M474.64,425.75l16.24-6.55,12.4-32.39,16.53,8.52s-1.6,3.2-5,11.11c-1.32,3.06-5.69,11.57-7.47,15.72a21.81,21.81,0,0,1-19.47,13.23l-15.24.4Z" style="fill:#ffbf9d"></path><path d="M466.58,419.48l-2.45-2.58a2.87,2.87,0,0,0-1.59-.44l-7.77.24a4.82,4.82,0,0,0-3.59,2.18l-2.83,4.8s-1.9,3.29-1.66,4.09a1.43,1.43,0,0,0,1.64,1s.27,1.52.78,1.82a2.39,2.39,0,0,0,1.89.13,1.59,1.59,0,0,0,1.53.92,2,2,0,0,0,.4-.07c.92-.28,1.34-2.07,1.34-2.07l3.94-.73s5.66,3.79,7.65,6.26,7.22.59,7.22.59l1.95-9.35Z" style="fill:#ffbf9d"></path><path d="M460.85,420.6a6.55,6.55,0,0,1-1.7.28c-1.07.12-2.58.16-4.29.38l.19-.13a17.15,17.15,0,0,1-1,1.86,20.94,20.94,0,0,1-3.74,4.42,7.15,7.15,0,0,1-1.95,1.39c0-.06.68-.61,1.71-1.65a25.61,25.61,0,0,0,3.56-4.42,19.4,19.4,0,0,0,1-1.8l.05-.12.13,0c1.75-.19,3.26-.17,4.34-.21A8.25,8.25,0,0,1,460.85,420.6Z" style="fill:#ff9a6c"></path><path d="M461,424.3a3.6,3.6,0,0,1-1.46.39,11.13,11.13,0,0,1-3.8-.13l.27-.16a12.51,12.51,0,0,1-.56,1.41,11.89,11.89,0,0,1-2.92,3.84,4.84,4.84,0,0,1-1.67,1.09c0-.06.57-.5,1.43-1.35A13.68,13.68,0,0,0,455,425.6c.21-.45.39-.91.55-1.35l.07-.2.21,0A18.73,18.73,0,0,0,461,424.3Z" style="fill:#ff9a6c"></path><path d="M470.9,426.22,464,423a5.43,5.43,0,0,0-6.23.17L454,425.1a.89.89,0,0,0-.49.44.82.82,0,0,0,.32.79,5.49,5.49,0,0,0,7.22.3,15,15,0,0,0,2.33,4.61,5.09,5.09,0,0,0,4.57,1.95" style="fill:#ffbf9d"></path><path d="M468,433.19s-.06,0-.19.06a3.05,3.05,0,0,1-.56.06,4.41,4.41,0,0,1-2.09-.51,6.5,6.5,0,0,1-2.45-2.23,18.3,18.3,0,0,1-1.82-3.87l.35.09a5.51,5.51,0,0,1-4,1.26,5.67,5.67,0,0,1-2.24-.63,4.57,4.57,0,0,1-1-.69,2.46,2.46,0,0,1-.45-.46.91.91,0,0,1-.2-.75.89.89,0,0,1,.41-.52,5.17,5.17,0,0,1,.46-.24l.86-.45,1.69-.87A15.61,15.61,0,0,1,460,422a5.16,5.16,0,0,1,3.29.5c.94.43,1.78.85,2.56,1.22l3.69,1.8a8.77,8.77,0,0,1,1.33.72,9,9,0,0,1-1.41-.55L465.74,424l-2.58-1.15a4.69,4.69,0,0,0-3-.44,15.13,15.13,0,0,0-3.22,1.45l-1.69.87-.86.45c-.29.15-.6.3-.61.45s.2.49.49.72a4.69,4.69,0,0,0,.9.63,5.46,5.46,0,0,0,2.06.59,5.09,5.09,0,0,0,3.72-1.12l.24-.21.1.3a18.38,18.38,0,0,0,1.71,3.82,6.39,6.39,0,0,0,2.27,2.21A5.07,5.07,0,0,0,468,433.19Z" style="fill:#ff9a6c"></path><path d="M563.32,354.09c-3.42-5.64-6.23-21.58-6.43-26.78s-3.17-11.33-6.8-15.05-9.92-5.16-14.16-2.15l-.87,4.43c1.67,20,1.44,40.43,3.11,60.48.22,2.64,2.36,5,3.56,7.38s3.6,4.3,6.24,4.14c3.45-.22,8.68-1.79,9.76-5.08C561.62,369.54,578,378.33,563.32,354.09Z" style="fill:#263238"></path><path d="M551.47,314.51a26.27,26.27,0,0,0-20.33-10.12c-4.62-.08-6.53.88-9.85,1.78a14.55,14.55,0,0,0-8.31,5.5c-2.36,3.34-4.34,7.09-4.78,11.15a67.86,67.86,0,0,0-.6,12.57,22.88,22.88,0,0,0,3.92,11.81l10.66,1.86c5.89.2,11.86.39,17.59-.95s11.31-4.43,14.38-9.46C558.42,331.67,556.65,320.84,551.47,314.51Z" style="fill:#263238"></path><path d="M542,314.44l-14.21-5.65-3.72.43c-8.35,0-14.11,9.24-14.17,16-.06,7.52.17,16.7,1.36,22.24,2.4,11.14,11.91,12.07,11.91,12.07s-.19,5.93-.27,9.67l21.76-1.57,1.1-49.39A4,4,0,0,0,542,314.44Z" style="fill:#ffbf9d"></path><path d="M528,344.86a2.33,2.33,0,0,0-.82-1.46,2.41,2.41,0,0,0-2.94-.17,3.24,3.24,0,0,0-1.23,3h0a3,3,0,0,0,2.11,1.22,2.94,2.94,0,0,0,2.18-.69A2.37,2.37,0,0,0,528,344.86Z" style="fill:#ff9a6c"></path><path d="M513.06,334.74a1.46,1.46,0,0,0,1.47,1.38,1.39,1.39,0,0,0,1.42-1.38,1.46,1.46,0,0,0-1.47-1.38A1.39,1.39,0,0,0,513.06,334.74Z" style="fill:#263238"></path><path d="M512.43,329c.19.18,1.24-.69,2.79-.77s2.73.63,2.89.43-.13-.42-.64-.75a4,4,0,0,0-2.33-.58,3.79,3.79,0,0,0-2.2.85C512.48,328.56,512.34,328.91,512.43,329Z" style="fill:#263238"></path><path d="M522.4,341.15a10.22,10.22,0,0,0-2.55-.31c-.39,0-.77-.08-.85-.35a2,2,0,0,1,.2-1.19l1-3.08c1.39-4.38,2.38-8,2.2-8s-1.45,3.45-2.84,7.84q-.49,1.62-1,3.09a2.37,2.37,0,0,0-.12,1.57,1,1,0,0,0,.69.54,2.37,2.37,0,0,0,.67.06A9.86,9.86,0,0,0,522.4,341.15Z" style="fill:#263238"></path><path d="M523.13,359.52A28.55,28.55,0,0,0,538,354.68s-3.58,8-14.89,7.58Z" style="fill:#ff9a6c"></path><path d="M527,342c-.25,0-.16,1.69-1.54,3s-3.17,1.19-3.18,1.43.42.3,1.18.28a4.21,4.21,0,0,0,2.66-1.09,3.65,3.65,0,0,0,1.18-2.48C527.35,342.37,527.14,342,527,342Z" style="fill:#263238"></path><path d="M513,323.56c.28.36,1.45,0,2.85.08s2.56.34,2.85,0c.13-.17,0-.53-.55-.89a4.41,4.41,0,0,0-4.59-.05C513,323,512.84,323.38,513,323.56Z" style="fill:#263238"></path><path d="M529.24,334.35a1.44,1.44,0,0,1-1.36,1.48,1.38,1.38,0,0,1-1.51-1.27,1.45,1.45,0,0,1,1.36-1.49A1.39,1.39,0,0,1,529.24,334.35Z" style="fill:#263238"></path><path d="M533.42,328.39c-.17.19-1.28-.6-2.83-.57s-2.68.83-2.85.64.09-.43.58-.8a4,4,0,0,1,2.28-.74,3.82,3.82,0,0,1,2.26.69C533.34,328,533.51,328.3,533.42,328.39Z" style="fill:#263238"></path><path d="M532.49,323.42c-.3.35-1.51,0-3,0s-2.65.28-2.94-.08c-.13-.18.06-.54.59-.88a4.44,4.44,0,0,1,2.38-.62,4.38,4.38,0,0,1,2.36.67C532.45,322.88,532.62,323.24,532.49,323.42Z" style="fill:#263238"></path><path d="M543.81,337.14c0-.84.81-2.86,1.63-3,2.19-.46,6.18-.5,6.52,5.1.47,7.66-7.31,6.55-7.34,6.33S544,340,543.81,337.14Z" style="fill:#ffbf9d"></path><path d="M546.56,342.61s.14.08.37.17a1.35,1.35,0,0,0,1,0c.79-.35,1.39-1.67,1.35-3.06a4.36,4.36,0,0,0-.5-1.88,1.53,1.53,0,0,0-1.06-1,.69.69,0,0,0-.77.42c-.09.22,0,.37-.07.38s-.17-.11-.13-.43a.81.81,0,0,1,.27-.5,1,1,0,0,1,.73-.24,1.87,1.87,0,0,1,1.47,1.1,4.6,4.6,0,0,1,.59,2.11c.05,1.54-.65,3-1.74,3.42a1.46,1.46,0,0,1-1.24-.12C546.59,342.79,546.53,342.62,546.56,342.61Z" style="fill:#ff9a6c"></path><path d="M545.75,334.12l-1.94,2c-8.41-8-24.83-28.18-23.92-27a24.5,24.5,0,0,1,12-1.31c6.25,1.07,18.11,4.19,17.92,11.57S545.75,334.12,545.75,334.12Z" style="fill:#263238"></path><path d="M556.89,332.43a2.57,2.57,0,0,0-.12-.44,8.16,8.16,0,0,0-.52-1.21,11.28,11.28,0,0,0-3.21-3.6,21,21,0,0,0-6.44-3.1c-2.56-.84-5.45-1.48-8.29-2.7a37.39,37.39,0,0,1-7.57-4.24,38.77,38.77,0,0,1-5.34-4.67,43.1,43.1,0,0,1-3.09-3.67l-.77-1.05a2,2,0,0,0-.28-.36s.06.15.22.4.38.64.71,1.1a34.46,34.46,0,0,0,3,3.77,37.61,37.61,0,0,0,5.33,4.77,36.59,36.59,0,0,0,7.63,4.31,84.51,84.51,0,0,0,8.33,2.68,21.46,21.46,0,0,1,6.39,3,11.45,11.45,0,0,1,3.23,3.46C556.67,331.84,556.85,332.45,556.89,332.43Z" style="fill:#455a64"></path><path d="M554.66,333.64a4.14,4.14,0,0,0-.3-1.67,7.85,7.85,0,0,0-2.88-3.61,17.36,17.36,0,0,0-6.39-2.51,37.14,37.14,0,0,1-8-2.52,33.73,33.73,0,0,1-7.08-4.37,34.4,34.4,0,0,1-4.85-4.77,36.11,36.11,0,0,1-2.71-3.72l-.65-1.08a2.27,2.27,0,0,0-.25-.36,1.72,1.72,0,0,0,.18.4l.59,1.12a31.32,31.32,0,0,0,2.62,3.81,33.49,33.49,0,0,0,4.84,4.88,32.93,32.93,0,0,0,7.15,4.45,36.56,36.56,0,0,0,8,2.51,17.66,17.66,0,0,1,6.31,2.38,8,8,0,0,1,2.9,3.44A11.49,11.49,0,0,1,554.66,333.64Z" style="fill:#455a64"></path><path d="M539.17,337a10.11,10.11,0,1,0,10.3-9.93A10.11,10.11,0,0,0,539.17,337Z" style="fill:#7E57C2"></path><path d="M549.47,327s-.5-20.85-18.86-23.56c0,0-7.31-.91-10.75,3.14,0,0,4.95-2,9.7-.79,3.14.82,14.58,5.91,15.11,22.89l4.73,2Z" style="fill:#7E57C2"></path><path d="M542.11,337.1s0-.05,0-.12l0-.36a3.25,3.25,0,0,1,.06-.56,5.31,5.31,0,0,1,.16-.77,6.76,6.76,0,0,1,.83-2,7.22,7.22,0,0,1,1.87-2.09,7.37,7.37,0,0,1,6.95-1,7.08,7.08,0,0,1,1.85,1,8,8,0,0,1,.83.71,10.07,10.07,0,0,1,.72.85,7.4,7.4,0,0,1,1.42,4.32,7.71,7.71,0,0,1-.38,2.31,7.16,7.16,0,0,1-1,2,10.07,10.07,0,0,1-.72.85,8,8,0,0,1-.83.71,7.08,7.08,0,0,1-1.85,1,7.37,7.37,0,0,1-3.86.32,7.31,7.31,0,0,1-5-3.45,6.76,6.76,0,0,1-.83-2,5.31,5.31,0,0,1-.16-.77,3.25,3.25,0,0,1-.06-.56l0-.35c0-.08,0-.12,0-.12v.47a3.21,3.21,0,0,0,0,.57,5.06,5.06,0,0,0,.14.77,6.93,6.93,0,0,0,.8,2A7.28,7.28,0,0,0,545,343a7.36,7.36,0,0,0,3.15,1.42,7.47,7.47,0,0,0,3.94-.32,6.84,6.84,0,0,0,1.9-1,8.22,8.22,0,0,0,.85-.73,7.88,7.88,0,0,0,.74-.87,7.09,7.09,0,0,0,1.07-2.06,7.43,7.43,0,0,0,0-4.75,7.09,7.09,0,0,0-1.07-2.06,7.88,7.88,0,0,0-.74-.87,8.22,8.22,0,0,0-.85-.73,6.84,6.84,0,0,0-1.9-1,7.47,7.47,0,0,0-3.94-.32,7.53,7.53,0,0,0-5,3.55,7,7,0,0,0-.8,2,5.41,5.41,0,0,0-.14.78,3.21,3.21,0,0,0,0,.57v.48Z" style="fill:#263238"></path><path d="M547.14,334.05s1.29,1.42,3,3.09,3,3,3.09,3-1.28-1.42-3-3.1S547.18,334,547.14,334.05Z" style="fill:#263238"></path><path d="M548.31,336.69a7.09,7.09,0,0,0,1.11,1.22,8.06,8.06,0,0,0,1.24,1.09,6.93,6.93,0,0,0-1.11-1.23A7.64,7.64,0,0,0,548.31,336.69Z" style="fill:#263238"></path><polygon points="522.95 366.47 544.97 364.09 549 367.76 533.28 377 526.35 380.59 519.5 378.51 517.33 374.43 522.95 366.47" style="fill:#ffbf9d"></polygon><path d="M493.28,393.28s6.9-13.25,8.61-16.14a23.27,23.27,0,0,1,8.34-7.73L523,366.47s-1.32,6.37,6.6,6.81c10.06.56,16.32-9.09,16.32-9.09s11.48,1.18,14.65,2.51,12.15,5.09,13.46,17l3.08,19.47L552.79,405l.34,25.93,12.12,19.59-57.61-.29c-.9.31,3-12.27.89-23l-4-9.7a37.74,37.74,0,0,1-2.83-12.2c-.15-2.76-.08-4.84-.08-4.84S495.4,398.34,493.28,393.28Z" style="fill:#455a64"></path><path d="M512.4,440.08l40.68-12.21L552.79,405l20.72-1.58s-1.65,11.83-1.9,17.9c-.35,8.72-4.54,20.92-7.35,23.51s-52.94,5.4-52.94,5.4Z" style="fill:#ffbf9d"></path><path d="M489.33,447.26a1.58,1.58,0,0,0,1.61.78,1.53,1.53,0,0,0,.39-.11c.89-.36.66-2.22.66-2.22l4.33-1.06s4.16,1.56,6.38,3.84,9.07,1.58,9.07,1.58l1.07-9.48-8.64-6.68s.53.4-.13-.92-3.16-.61-3.16-.61c-.45-.65-2.12-.76-2.12-.76l-7,1.37a4.83,4.83,0,0,0-3.37,2.5l-2.63,5s-1.32,3.53-1,4.31a1.41,1.41,0,0,0,1.72.8s.52,2.22,1.12,2.25a4.94,4.94,0,0,0,1.72-.56Z" style="fill:#ffbf9d"></path><path d="M503.87,439.38c0,.08-.95.06-2.45.25a21.22,21.22,0,0,0-5.7,1.53,20.93,20.93,0,0,0-2.88,1.5c-.82.55-1.68,1-1.9,1.66a.86.86,0,0,0,.14.84,1.25,1.25,0,0,0,.57.41,1.91,1.91,0,0,0,.63,0s-.21.21-.68.13a1.4,1.4,0,0,1-.72-.42,1.15,1.15,0,0,1-.25-1.1,2.25,2.25,0,0,1,.81-1.06c.36-.28.75-.57,1.18-.85a18.29,18.29,0,0,1,2.93-1.57,18.57,18.57,0,0,1,5.84-1.43A8.34,8.34,0,0,1,503.87,439.38Z" style="fill:#ff9a6c"></path><path d="M504.72,443.86c0,.13-2.89.24-6.41.72s-6.34,1.13-6.38,1a8,8,0,0,1,1.81-.59,41.19,41.19,0,0,1,4.51-.86,40.13,40.13,0,0,1,4.57-.36A7.07,7.07,0,0,1,504.72,443.86Z" style="fill:#ff9a6c"></path><path d="M489.35,447.08a3.66,3.66,0,0,1-.14-.75,15.24,15.24,0,0,1-.17-2.07,9.39,9.39,0,0,1,.09-1.45,4.34,4.34,0,0,1,.57-1.6,9.92,9.92,0,0,1,2.45-2.92,13.14,13.14,0,0,1,3.25-2,11.87,11.87,0,0,1,3-.7c.87-.1,1.58-.14,2.07-.16a2.37,2.37,0,0,1,.76,0,23.9,23.9,0,0,1-2.78.45,13.66,13.66,0,0,0-2.92.77,14.36,14.36,0,0,0-3.12,1.94,10,10,0,0,0-2.37,2.78,5.44,5.44,0,0,0-.7,2.84C489.32,446,489.45,447.08,489.35,447.08Z" style="fill:#ff9a6c"></path><path d="M498.58,433.45c0,.06-1.05.17-2.72.5s-4.21.7-5.52,3.06a24.18,24.18,0,0,0-3.15,5.83,14,14,0,0,0-.46,2.7,2,2,0,0,1-.1-.75,6.86,6.86,0,0,1,.26-2,21.2,21.2,0,0,1,3.07-6,8.4,8.4,0,0,1,1.27-1.5,5.31,5.31,0,0,1,1.61-.91,15.65,15.65,0,0,1,3-.71A10.79,10.79,0,0,1,498.58,433.45Z" style="fill:#ff9a6c"></path><path d="M502.86,448.78a2.65,2.65,0,0,1-.44-.29l-1.26-.86a47.94,47.94,0,0,0-4.9-2.84h.1L492,445.88l.13-.19a4.26,4.26,0,0,1,0,1.07,2,2,0,0,1-.41,1.1,1.16,1.16,0,0,1-.56.31,1.63,1.63,0,0,1-.62.08,1.75,1.75,0,0,1-1.14-.52l-.21-.24,0-.07,0,0v0h0l.27.07h0l-.13.07a5.38,5.38,0,0,1-.55.24,3.72,3.72,0,0,1-.59.2,3,3,0,0,1-.32.06.7.7,0,0,1-.41,0,1.32,1.32,0,0,1-.48-.54,5.05,5.05,0,0,1-.26-.59,10.15,10.15,0,0,1-.38-1.22l.27.16a1.69,1.69,0,0,1-1.68-.43,1.44,1.44,0,0,1-.37-.86,4,4,0,0,1,.09-.86,24.14,24.14,0,0,1,1-3.25h0v0c.45-.84.92-1.74,1.4-2.65l.89-1.68a8.23,8.23,0,0,1,1-1.64,4.77,4.77,0,0,1,1.51-1.17,6.16,6.16,0,0,1,1.77-.52l6.62-1.27h.05a5.7,5.7,0,0,1,1.19.22,2,2,0,0,1,1.08.63l-.25-.06a2.48,2.48,0,0,1,2.28,0,2.88,2.88,0,0,1,1.26,1.71l-.06-.09,5.95,4.57,1.61,1.27a4.77,4.77,0,0,1,.54.46,3.14,3.14,0,0,1-.6-.39l-1.66-1.19-6-4.45,0,0,0-.06a2.54,2.54,0,0,0-1.11-1.48,2.13,2.13,0,0,0-1.93.07l-.15.07-.1-.13a1.6,1.6,0,0,0-.86-.47,6,6,0,0,0-1.12-.2h.06l-6.61,1.3a5.75,5.75,0,0,0-1.67.48,4.54,4.54,0,0,0-1.36,1.07,8.47,8.47,0,0,0-.93,1.56l-.89,1.68c-.48.91-1,1.81-1.4,2.66v0a23.26,23.26,0,0,0-1,3.17,4.24,4.24,0,0,0-.09.76.92.92,0,0,0,.26.59,1.24,1.24,0,0,0,1.23.3l.22-.05.05.21a10.6,10.6,0,0,0,.35,1.17,2.28,2.28,0,0,0,.53.91.72.72,0,0,0,.18,0l.27-.05.54-.18a4.83,4.83,0,0,0,.52-.23l.13-.06h0l.27.07h0v0l0,0,0,.06.17.19a1.37,1.37,0,0,0,.88.41,1.14,1.14,0,0,0,.48-.06.81.81,0,0,0,.39-.2,2.76,2.76,0,0,0,.33-1.87v-.16l.15,0,4.34-1h0l.05,0a41.55,41.55,0,0,1,4.86,3c.54.39.95.7,1.22.93A2.25,2.25,0,0,1,502.86,448.78Z" style="fill:#ff9a6c"></path><path d="M430.4,412.88l15.69,34.71a4.06,4.06,0,0,0,3.65,2.39l81.56.58a1.56,1.56,0,0,0,1.54-1.83h0a1.55,1.55,0,0,0-1.5-1.28l-39.11-.64-14.06-33.75a2.91,2.91,0,0,0-2.66-1.79l-43.84-.33A1.38,1.38,0,0,0,430.4,412.88Z" style="fill:#e0e0e0"></path><path d="M490.89,450.51s-.09-.12-.21-.38-.32-.67-.53-1.12l-1.83-4.16c-1.53-3.52-3.61-8.39-5.85-13.81s-4.21-10.33-5.58-13.92c-.68-1.8-1.22-3.25-1.57-4.27l-.4-1.17a1.58,1.58,0,0,1-.11-.42,2.37,2.37,0,0,1,.2.39c.12.31.28.69.47,1.14l1.71,4.21c1.48,3.61,3.48,8.48,5.7,13.87l5.72,13.86c.7,1.73,1.28,3.15,1.7,4.21.18.46.33.84.45,1.16A1.79,1.79,0,0,1,490.89,450.51Z" style="fill:#263238"></path><path d="M462.5,429.71a2.25,2.25,0,1,1-2.25-2.25A2.24,2.24,0,0,1,462.5,429.71Z" style="fill:#fff"></path><path d="M507.9,378.65c.07,0-.59,1.27-1.51,3.33a58.06,58.06,0,0,0-3,8.26,59.69,59.69,0,0,0-1.71,8.62c-.27,2.24-.35,3.64-.43,3.63a4,4,0,0,1-.05-1c0-.64,0-1.55.13-2.68a48.62,48.62,0,0,1,1.59-8.72,47.12,47.12,0,0,1,3.16-8.28c.5-1,.94-1.82,1.27-2.36A3.65,3.65,0,0,1,507.9,378.65Z" style="fill:#263238"></path><path d="M577.06,403.19a1.59,1.59,0,0,1-.51.08l-1.45.15-5.44.45-18.6,1.4-.24,0v-.24c-.16-2.47-.32-5.08-.49-7.76-.27-4.67-.49-9.12-.56-13.17a18.61,18.61,0,0,1,2.38-10.45,12.84,12.84,0,0,1,5.21-5,11.12,11.12,0,0,1,1.85-.72,3.5,3.5,0,0,1,.67-.16c0,.07-.92.26-2.43,1.05a13,13,0,0,0-5,5,18.57,18.57,0,0,0-2.23,10.26c.09,4,.33,8.49.6,13.15.16,2.68.32,5.29.47,7.76l-.25-.22,18.61-1.23,5.45-.32,1.46-.06Z" style="fill:#263238"></path><path d="M531.44,419.05a2.72,2.72,0,0,1-.82-.3,6.3,6.3,0,0,1-.91-.45,11.28,11.28,0,0,1-1.14-.71,16.19,16.19,0,0,1-2.68-2.27,17.78,17.78,0,0,1-4.23-7.43,16.41,16.41,0,0,1-.58-3.46,12.53,12.53,0,0,1,0-1.35,7.2,7.2,0,0,1,.07-1,3.11,3.11,0,0,1,.16-.85c.1,0-.06,1.24.13,3.19a18.51,18.51,0,0,0,.68,3.36,19.73,19.73,0,0,0,1.65,3.86,20.16,20.16,0,0,0,2.47,3.39,17.16,17.16,0,0,0,2.55,2.3C530.35,418.48,531.48,419,531.44,419.05Z" style="fill:#263238"></path><path d="M559.07,352.82l-14-3.25c0,9.91-2.74,13.88-5.07,19.1s-4.31,11.09-2.64,16.55c.61,2,1.87,3.95,3.86,4.52a5.7,5.7,0,0,0,4.14-.65c2.83-1.52,4.66-4.42,5.89-7.39s2-6.12,3.45-9c1.22-2.44,2.92-4.64,3.83-7.21S560.82,356,559.07,352.82Z" style="fill:#263238"></path></g><g id="freepik--character-2--inject-69"><path d="M439,180.63H563.77c4.32,0,7.83-4,7.83-8.95V70.35c0-4.94-3.51-8.95-7.83-8.95H439c-4.33,0-7.83,4-7.83,8.95V171.68C431.13,176.62,434.63,180.63,439,180.63Z" style="fill:#fff"></path><path d="M430.94,61.37H571a0,0,0,0,1,0,0V73.93a8.32,8.32,0,0,1-8.32,8.32H438a7.08,7.08,0,0,1-7.08-7.08V61.37A0,0,0,0,1,430.94,61.37Z" transform="translate(1001.96 143.61) rotate(180)" style="fill:#e0e0e0"></path><path d="M560.29,71.16a2.36,2.36,0,1,0,2.36-2.36A2.36,2.36,0,0,0,560.29,71.16Z" style="fill:#fff"></path><circle cx="555.53" cy="71.16" r="2.36" style="fill:#fff"></circle><path d="M546.06,71.16a2.36,2.36,0,1,0,2.36-2.36A2.35,2.35,0,0,0,546.06,71.16Z" style="fill:#fff"></path><path d="M438.77,180.6l-.33,0a5.58,5.58,0,0,1-1-.12,7.11,7.11,0,0,1-3.38-1.67,9.06,9.06,0,0,1-3-5.32,22.94,22.94,0,0,1-.16-4c0-1.42,0-2.93,0-4.52,0-12.8,0-31.3.05-54.17,0-11.43,0-24,0-37.4V70.87a12.39,12.39,0,0,1,.2-2.51,9.19,9.19,0,0,1,2.26-4.49A7.3,7.3,0,0,1,438,61.55c.86-.08,1.76,0,2.64,0H563.79a12.16,12.16,0,0,1,1.61.07,7.25,7.25,0,0,1,.78.17l.38.12.36.15a6.47,6.47,0,0,1,2.5,1.92,8,8,0,0,1,1.48,2.8,10.14,10.14,0,0,1,.36,3.16v37.93c0,16.46,0,32.33,0,47.45v11.2c0,1.83,0,3.67,0,5.48a9.41,9.41,0,0,1-.44,2.63,8.88,8.88,0,0,1-2.9,4.33,7.52,7.52,0,0,1-2.29,1.21,7.89,7.89,0,0,1-1.26.28c-.43,0-.86.05-1.3,0H550.2l-37.41,0-54.16,0-14.73,0h-3.83l-1.3,0h1.3l3.83,0,14.73,0,54.16.05,37.41,0h12.87c.43,0,.88,0,1.33,0a8.56,8.56,0,0,0,1.31-.3,7.76,7.76,0,0,0,2.38-1.25,8.93,8.93,0,0,0,1.83-2,9.13,9.13,0,0,0,1.17-2.46,10.24,10.24,0,0,0,.45-2.7c0-1.83,0-3.65,0-5.49q0-5.53,0-11.2V107.84q0-12.34,0-25.1V69.91a10.26,10.26,0,0,0-.38-3.25,8.39,8.39,0,0,0-1.53-2.91,6.75,6.75,0,0,0-2.61-2l-.39-.16c-.13-.05-.27-.08-.4-.12a3.75,3.75,0,0,0-.82-.18,10.19,10.19,0,0,0-1.65-.08l-98.37,0H440.65c-.89,0-1.76,0-2.67.05a7.56,7.56,0,0,0-4.64,2.41A9.42,9.42,0,0,0,431,68.31a13.06,13.06,0,0,0-.2,2.56v2.54c0,13.44,0,26,0,37.4,0,22.87,0,41.37.05,54.17,0,1.59,0,3.1,0,4.52a23.11,23.11,0,0,0,.17,4,9,9,0,0,0,3,5.35,7.14,7.14,0,0,0,3.41,1.66,5.54,5.54,0,0,0,1,.11Z" style="fill:#263238"></path><path d="M466.36,180.73c.23-.76.28-14.55.28-14.55L464,114.75l22.72-7.51,3.59-2.59,21.5.24,2.76,3.14,22.79,9.78-6,42.14-1,20.53" style="fill:#7E57C2"></path><path d="M464,114.75s-5.32.7-8.43,9.48-10.4,40.67-10.87,42.86,1.56,9.2,9.66,12.33a29.77,29.77,0,0,0,13.95,2.06V165.33l-3.42-3.51,1.34-5.69Z" style="fill:#7E57C2"></path><path d="M449.56,162.69s.29-.11.81-.32,1.27-.53,2.22-.86a22.53,22.53,0,0,1,3.4-.91,16.29,16.29,0,0,1,2.07-.25,9.21,9.21,0,0,1,2.21.13,11.73,11.73,0,0,1,6.63,3.65,7.26,7.26,0,0,1,1.16,2,5,5,0,0,0,.26.79s0-.08,0-.21-.07-.35-.14-.61a6.83,6.83,0,0,0-1.11-2,11.67,11.67,0,0,0-6.72-3.78,9.29,9.29,0,0,0-2.28-.12,16.81,16.81,0,0,0-2.09.26,20.72,20.72,0,0,0-3.42,1,23.55,23.55,0,0,0-2.2.93c-.25.11-.45.21-.58.28A.7.7,0,0,0,449.56,162.69Z" style="fill:#263238"></path><path d="M454.37,159.68s.65-.24,1.72-.44a10.26,10.26,0,0,1,4.22.08,10,10,0,0,1,3.77,1.8c.84.66,1.26,1.18,1.29,1.15a1.45,1.45,0,0,0-.27-.37,7,7,0,0,0-.91-.9,9.39,9.39,0,0,0-3.82-1.91,9.62,9.62,0,0,0-4.32,0,7.55,7.55,0,0,0-1.25.39A1.45,1.45,0,0,0,454.37,159.68Z" style="fill:#263238"></path><path d="M465.75,127.9c-.06,0,0,7.86.11,17.54s.28,17.55.35,17.55,0-7.86-.11-17.55S465.82,127.9,465.75,127.9Z" style="fill:#263238"></path><path d="M465.34,163.64l12.77-.15a2.45,2.45,0,0,1,2.12,1.14L489,182.45l-.32,1.2H473.79l-8.68-18.37Z" style="fill:#263238"></path><path d="M465.45,166l.47,1,2.59,4.93s6.69-.57,7.75-.7,1.61.93,1.68,1.55a2.16,2.16,0,0,1-.56,1.33,32.16,32.16,0,0,0,5.54-2.15c1.41-.93,2.11-.35,2.11-.35a2,2,0,0,1,3,.35,22.17,22.17,0,0,1-2,4.64c-.56.81-3.65,3.62-3.86,3.95s-2.59.93-5.33,2.34a4.24,4.24,0,0,1-4.74-.46,2.69,2.69,0,0,1-.38,0c-.64-.06-2.32-1.58-2.74-1.54s-.77,0-1.61-.92a25.72,25.72,0,0,1-3.71-6.59c-.49-1.58-.2-2-.06-2.09a8.41,8.41,0,0,1-2.48.7c-1.75.26-2.67-.93-2.81-3.18S463.49,166.6,465.45,166Z" style="fill:#ae7461"></path><path d="M466.36,176.28a2.06,2.06,0,0,0,.44.1,9,9,0,0,0,1.24.14,15.18,15.18,0,0,0,7.93-1.61,9.75,9.75,0,0,0,1.06-.62,2,2,0,0,0,.36-.26s-.56.31-1.49.75a17.33,17.33,0,0,1-3.82,1.27,17.66,17.66,0,0,1-4,.33C467,176.34,466.37,176.24,466.36,176.28Z" style="fill:#6f4439"></path><path d="M466.24,171.77a4.71,4.71,0,0,0,3.14.14c0-.06-.71,0-1.57,0S466.25,171.71,466.24,171.77Z" style="fill:#6f4439"></path><path d="M463.06,171.56c0,.05,1-.32,2.19-.64s2.24-.46,2.23-.52a7.46,7.46,0,0,0-2.29.33A7.19,7.19,0,0,0,463.06,171.56Z" style="fill:#6f4439"></path><path d="M463.68,167.32c-.06,0,.18.7.19,1.58a3.34,3.34,0,0,1-.12,1.09c-.1.26-.29.33-.27.36s0,0,.14,0a.63.63,0,0,0,.27-.27,2.64,2.64,0,0,0,.19-1.16A2.83,2.83,0,0,0,463.68,167.32Z" style="fill:#6f4439"></path><path d="M470.12,180.11h.21l.59,0c.52,0,1.26-.06,2.18-.16a17.86,17.86,0,0,0,3.19-.63,11.35,11.35,0,0,0,1.77-.72c.58-.3,1.16-.66,1.76-1,2.66-1.61,5-3.05,6.57-4l0,0v0a2.14,2.14,0,0,0-.85-1.44,2,2,0,0,0-.39-.23c-.1,0-.15-.06-.16,0a4.3,4.3,0,0,1,.51.34,2.13,2.13,0,0,1,.76,1.39l0-.06c-1.56.91-3.95,2.33-6.62,3.94-.59.35-1.17.7-1.75,1a10.58,10.58,0,0,1-1.73.72,17.35,17.35,0,0,1-3.14.66c-.91.12-1.65.18-2.17.23l-.59.06Z" style="fill:#6f4439"></path><path d="M472.38,182.26a4.07,4.07,0,0,0,.63-.07c.4-.05,1-.15,1.69-.29a33.64,33.64,0,0,0,5.42-1.58,11.6,11.6,0,0,0,2.7-1.52,17.44,17.44,0,0,0,1.83-1.68c.48-.52.85-1,1.1-1.25a3.27,3.27,0,0,0,.37-.48,2.47,2.47,0,0,0-.44.43c-.27.28-.65.7-1.15,1.2a15.74,15.74,0,0,1-1.84,1.64,11.71,11.71,0,0,1-2.65,1.47,40.55,40.55,0,0,1-5.38,1.63l-1.67.36A3.54,3.54,0,0,0,472.38,182.26Z" style="fill:#6f4439"></path><path d="M464.2,117.2a5.57,5.57,0,0,0,.12,1.09c.11.75.23,1.63.37,2.6s.23,1.85.32,2.6a5.55,5.55,0,0,0,.17,1.08,4.48,4.48,0,0,0,0-1.09c0-.67-.11-1.6-.25-2.62s-.3-1.94-.44-2.6A4.14,4.14,0,0,0,464.2,117.2Z" style="fill:#263238"></path><path d="M534.69,180.73l-3.84-23.88,6.52-39s4.91,1.17,9.78,18.41c4.39,15.56,9.64,41.23,9.44,44.25" style="fill:#7E57C2"></path><path d="M532.93,136.45c-.13,0-1,9.85-1.85,22s-1.51,22-1.38,22,1-9.85,1.85-22S533.06,136.46,532.93,136.45Z" style="fill:#263238"></path><path d="M500.8,49.89a4.45,4.45,0,0,0-4.68-2.19,6.11,6.11,0,0,0-7.52.27,5.43,5.43,0,0,0-8.12,4.59,4.54,4.54,0,0,0-3.84,7.72,4.37,4.37,0,0,0,2,8.46L500.08,55A4.48,4.48,0,0,0,500.8,49.89Z" style="fill:#263238"></path><path d="M478,69.36A18.52,18.52,0,0,1,496.17,52l1,0c10.35.42,15.78,9.45,15.07,19.78l-1,36.33c-2.33,5.53-6.14,10-13.18,11.21a9.42,9.42,0,0,1-7.92-2.17,7.81,7.81,0,0,1-2.66-5.6l-.1-7.2S477.38,103,477.08,93C476.94,88.23,477.45,78.32,478,69.36Z" style="fill:#ae7461"></path><path d="M487.27,104.33a24.06,24.06,0,0,0,13-4s-2.93,7.21-12.87,6.49Z" style="fill:#6f4439"></path><path d="M481,79.25a1.43,1.43,0,0,0,1.4,1.41,1.36,1.36,0,0,0,1.44-1.31,1.42,1.42,0,0,0-1.39-1.41A1.37,1.37,0,0,0,481,79.25Z" style="fill:#263238"></path><path d="M480.23,74.19c.18.18,1.24-.63,2.77-.66s2.66.72,2.82.53-.1-.41-.6-.76a3.92,3.92,0,0,0-2.26-.65,3.7,3.7,0,0,0-2.2.75C480.3,73.77,480.14,74.11,480.23,74.19Z" style="fill:#263238"></path><path d="M493.81,79.7a1.42,1.42,0,0,0,1.39,1.41,1.36,1.36,0,0,0,1.45-1.3,1.43,1.43,0,0,0-1.4-1.41A1.35,1.35,0,0,0,493.81,79.7Z" style="fill:#263238"></path><path d="M495.25,74.21c.18.18,1.24-.63,2.77-.66s2.66.72,2.82.53-.1-.41-.6-.76a3.92,3.92,0,0,0-2.26-.65,3.7,3.7,0,0,0-2.2.75C495.32,73.79,495.16,74.13,495.25,74.21Z" style="fill:#263238"></path><path d="M489.91,85.63a10.84,10.84,0,0,0-2.49-.4c-.39,0-.76-.1-.83-.37a2,2,0,0,1,.24-1.16c.35-1,.71-2,1.1-3,1.53-4.26,2.62-7.75,2.45-7.81s-1.55,3.34-3.07,7.59l-1.06,3a2.27,2.27,0,0,0-.17,1.54,1,1,0,0,0,.65.56,2.81,2.81,0,0,0,.66.08A9.87,9.87,0,0,0,489.91,85.63Z" style="fill:#263238"></path><path d="M495.54,69.1c.09.43,1.48.38,3,.76s2.82,1,3.07.66c.12-.17-.07-.58-.54-1a5,5,0,0,0-2.21-1.15,4.86,4.86,0,0,0-2.46.06C495.84,68.61,495.51,68.9,495.54,69.1Z" style="fill:#263238"></path><path d="M480.28,69.94c.32.32,1.44-.13,2.82-.26s2.57,0,2.81-.35c.1-.19-.11-.52-.65-.81a4.43,4.43,0,0,0-4.54.5C480.26,69.41,480.13,69.78,480.28,69.94Z" style="fill:#263238"></path><path d="M478.88,64.79s2.52-6.27,5.49-7.78c3.6-1.82,5.24,2.14,8.69,1.11s6.88-2.78,10.47-.16c3.92,2.86,2.14,4.95,2.46,9.35,1.29,17.87,4.64,22.86,5.42,14.43.09-.93,2.64-1.71,2.95-5.61.4-5.07.48-11.21-.71-14.78-1-3-2.76-5.06-5.9-7.31-4.94-3.55-11.64-3.51-16.19-3S478.33,57,478.88,64.79Z" style="fill:#263238"></path><path d="M510.77,81.48a2.71,2.71,0,0,1,2.87-2.66c1.86.15,3.94,1.16,3.88,5-.09,6.8-6.9,5.3-6.91,5.1S510.71,84.32,510.77,81.48Z" style="fill:#ae7461"></path><path d="M512.13,86.38s.12.09.31.18a1.15,1.15,0,0,0,.89,0A2.92,2.92,0,0,0,514.72,84a3.91,3.91,0,0,0-.3-1.7,1.37,1.37,0,0,0-.88-.92.61.61,0,0,0-.71.32c-.09.19-.05.32-.08.33s-.15-.11-.09-.39a.76.76,0,0,1,.27-.43.91.91,0,0,1,.66-.16,1.65,1.65,0,0,1,1.22,1.07,3.93,3.93,0,0,1,.39,1.9c-.07,1.37-.79,2.65-1.77,2.92a1.3,1.3,0,0,1-1.08-.2C512.14,86.55,512.1,86.4,512.13,86.38Z" style="fill:#6f4439"></path><path d="M514.52,59.86a4.39,4.39,0,0,0-5.06-6.29,6.06,6.06,0,0,0-9.72-2,6,6,0,0,0-10.94,1.35,4.39,4.39,0,0,0-5.16,1.76,1.64,1.64,0,0,0-.29,1.24c.23.8,1.29,1,2.11.83a3.55,3.55,0,0,1,2.43,0c.77.47.89,1.5,1,2.38s.61,1.92,1.5,2a7,7,0,0,0,1.47-.36,2.83,2.83,0,0,1,2.36,1.13,9.67,9.67,0,0,0,1.88,1.95,1.83,1.83,0,0,0,2.44-.28,4.32,4.32,0,0,0,4.56,3c.57-.07,1.25-.22,1.63.21s.21.91.3,1.39a2.2,2.2,0,0,0,2.48,1.51,6.1,6.1,0,0,0,2.73-1.29,2.55,2.55,0,0,0,3,.44,2.52,2.52,0,0,0,.9-3.21c1.37.34,2.71-1.08,2.66-2.49A4.18,4.18,0,0,0,514.52,59.86Z" style="fill:#263238"></path><path d="M488.33,54.89a1.09,1.09,0,0,0,0,.12,2.38,2.38,0,0,0,.05.37,4.19,4.19,0,0,0,.51,1.3,5,5,0,0,0,1.54,1.58,4.55,4.55,0,0,0,2.8.74l-.12-.15a2.48,2.48,0,0,0,.17,1.88,6.9,6.9,0,0,0,1.19,1.65,5.55,5.55,0,0,0,.77.76,2.34,2.34,0,0,0,1.09.38,2.44,2.44,0,0,0,2.17-.82l-.25-.07a5.08,5.08,0,0,0,2.22,3.49,3.65,3.65,0,0,0,2.25.69,6.63,6.63,0,0,0,2.19-.52l-.19-.07a5.41,5.41,0,0,0,1.65,2.06,2.86,2.86,0,0,0,2.38.61,3.74,3.74,0,0,0,2.83-3l-.15.07a3.46,3.46,0,0,0,2.34.3,3.83,3.83,0,0,0,1.61-.75,3.29,3.29,0,0,0,.75-.85,1.4,1.4,0,0,0,.16-.35,3.92,3.92,0,0,1-1,1.11,3.79,3.79,0,0,1-1.58.68,3.31,3.31,0,0,1-2.2-.32l-.13-.07,0,.14a3.54,3.54,0,0,1-2.68,2.77,2.62,2.62,0,0,1-2.16-.58,5.09,5.09,0,0,1-1.54-2l-.06-.12-.13,0a6.52,6.52,0,0,1-2.09.5,3.4,3.4,0,0,1-2.07-.64,4.83,4.83,0,0,1-2.11-3.29l-.05-.32-.2.25a2.22,2.22,0,0,1-1.92.73,2.2,2.2,0,0,1-1-.33,5,5,0,0,1-.73-.72,6.79,6.79,0,0,1-1.17-1.58,2.27,2.27,0,0,1-.18-1.7l.06-.16h-.17a4.3,4.3,0,0,1-2.68-.67A4.75,4.75,0,0,1,489,56.61,5.33,5.33,0,0,1,488.33,54.89Z" style="fill:#455a64"></path><path d="M494.42,87.6a23.12,23.12,0,0,0-5.36,1.78l0,.05c.23,1.26.63,2.65,1.73,3.31a2.72,2.72,0,0,0,2.73,0,3,3,0,0,0,1.48-2.2A6.3,6.3,0,0,0,494.42,87.6Z" style="fill:#6f4439"></path><path d="M491.89,92.94a2.93,2.93,0,0,0,1.72-.51,2.72,2.72,0,0,0,1.05-1.57,4.42,4.42,0,0,0-.15-2.37,6,6,0,0,0-.22-.56s0,0,0,0L494,88l-1.17.37-2,.59a8,8,0,0,1-1.87.43,7.38,7.38,0,0,1,1.77-.76l1.95-.69,1.16-.39.33-.1a.48.48,0,0,1,.53.21,3.38,3.38,0,0,1,.28.68,4.66,4.66,0,0,1,.12,2.63,3,3,0,0,1-1.28,1.75,2.34,2.34,0,0,1-1.41.38C492.06,93.07,491.89,93,491.89,92.94Z" style="fill:#263238"></path></g><g id="freepik--character-1--inject-69"><path d="M89.59,153.6c-2.13-1.36-2.65-4.5-1.49-6.75a8.23,8.23,0,0,1,6.11-4,11.59,11.59,0,0,1,10,3.32c1.38,1.42,2.5,3.27,4.36,3.92,1.65.57,3.46,0,5.19.28a7.81,7.81,0,0,1,5.47,3.94,16.78,16.78,0,0,1,2,6.66c.25,2.13.42,4.46,1.89,6s3.71,1.83,5.49,2.91a7.52,7.52,0,0,1,2.24,10.27c-.71,1-1.73,2-1.81,3.22s.66,2.16,1,3.25a5.08,5.08,0,0,1-4.34,6.3c-1.49.08-3.07-.49-4.4.17s-1.81,2.25-2.66,3.46a6.36,6.36,0,0,1-7.74,2c-1.09-.54-2.11-1.42-3.33-1.34s-2.16,1.11-3.35,1.35c-1.55.3-3-.85-4-2.14s-1.57-2.8-2.76-3.86c-1.55-1.38-3.73-1.72-5.69-2.4a16.06,16.06,0,0,1-9.07-22.5" style="fill:#263238"></path><path d="M112.18,182.65a4.47,4.47,0,0,1,1.73-1.14h-.13a2.2,2.2,0,0,1,.37-.07,1.75,1.75,0,0,1,1.35.17h0a3.21,3.21,0,0,1,1.75,1.53,3.8,3.8,0,0,1-.44,3.9,2.9,2.9,0,0,1-5.32-1A3.6,3.6,0,0,1,112.18,182.65Z" style="fill:#455a64"></path><path d="M83.88,201.74l-2.14-39.17a3.54,3.54,0,0,1,3.06-3.67l18.62-5.27c6-.81,10.19,6.47,10.74,12.49.61,6.68,1.09,14.86.44,19.88-1.31,10.09-9.57,11.62-9.57,11.62s-.06,2.54,0,6.19l-3.8,12.41Z" style="fill:#ffbf9d"></path><path d="M111.56,175.16a1.28,1.28,0,0,1-1.2,1.34,1.22,1.22,0,0,1-1.36-1.12,1.29,1.29,0,0,1,1.2-1.34A1.22,1.22,0,0,1,111.56,175.16Z" style="fill:#263238"></path><path d="M112.5,170.43c-.15.17-1.15-.52-2.54-.48s-2.38.76-2.53.6.08-.38.51-.72a3.63,3.63,0,0,1,2-.69,3.36,3.36,0,0,1,2,.6C112.43,170.05,112.58,170.35,112.5,170.43Z" style="fill:#263238"></path><path d="M98.91,175.36a1.28,1.28,0,0,1-1.2,1.34,1.24,1.24,0,0,1-1.36-1.13,1.28,1.28,0,0,1,1.2-1.33A1.22,1.22,0,0,1,98.91,175.36Z" style="fill:#263238"></path><path d="M98.88,171.07c-.15.18-1.15-.52-2.53-.48s-2.39.77-2.54.6.07-.38.51-.71a3.49,3.49,0,0,1,2-.69,3.42,3.42,0,0,1,2,.59C98.81,170.7,99,171,98.88,171.07Z" style="fill:#263238"></path><path d="M104.21,181.21a9.21,9.21,0,0,1,2.24-.47c.35-.05.68-.13.74-.37a1.88,1.88,0,0,0-.27-1l-1.12-2.67a46.33,46.33,0,0,1-2.56-7c.16-.06,1.55,3,3.11,6.76l1.08,2.68a2,2,0,0,1,.22,1.39.86.86,0,0,1-.56.53,2.08,2.08,0,0,1-.6.1A8.74,8.74,0,0,1,104.21,181.21Z" style="fill:#263238"></path><path d="M105,197.62a24.08,24.08,0,0,1-13-3.24s2.9,7.47,12.93,6.25Z" style="fill:#ff9a6c"></path><path d="M99.33,165.35c-.12.38-1.51.24-3.13.48s-2.93.73-3.15.39c-.1-.16.12-.52.64-.9a5.51,5.51,0,0,1,4.78-.66C99.08,164.88,99.39,165.17,99.33,165.35Z" style="fill:#263238"></path><path d="M111.88,165.67c-.24.32-1.2,0-2.35,0s-2.11.27-2.35-.05c-.1-.16,0-.48.46-.79a3.39,3.39,0,0,1,3.78,0C111.84,165.19,112,165.51,111.88,165.67Z" style="fill:#263238"></path><path d="M120.93,164a7,7,0,0,0-2.65-3.81,25.06,25.06,0,0,1-2.24-1.3c-1.45-1.17-1.78-3.21-2.68-4.84a7.62,7.62,0,0,0-5.78-3.84c-2-.2-4,.4-6-.09-1.44-.36-2.69-1.3-4.14-1.57C94.63,148,92,150.05,90,152.07c0,2,1.6,3.38,3.16,4.68a7,7,0,0,0,5.68,1.5c1.55-.28,3.24-1.06,4.58-.24s1.47,3,2.72,4.07c1.78,1.55,4.62.1,6.88.77,1.75.52,2.84,2.19,4,3.6s2.91,2.74,4.65,2.22A20.26,20.26,0,0,0,120.93,164Z" style="fill:#263238"></path><path d="M99.68,155.45c-1.26-.37-3.86-1.19-4.54-2.29a7.77,7.77,0,0,0-6.75-3.88,6.41,6.41,0,0,0-5.76,5.06,9.23,9.23,0,0,0-7.91,5.09,10.18,10.18,0,0,0-.5,1.18,7,7,0,0,0-.47,5.88c.44,1.15,1.19,2.42.6,3.5s-2.12,1.13-3.3,1.53a4.65,4.65,0,0,0-2.92,5.2A5.87,5.87,0,0,1,68.5,179a5,5,0,0,1-1.37,2,5.79,5.79,0,0,0,3.39,9.42,7.38,7.38,0,0,1,2.66.6c.9.55,1.29,1.63,1.92,2.47a5,5,0,0,0,5.41,1.7,4.85,4.85,0,0,0,1.09-.55,3.56,3.56,0,0,0,3.17,1.4l-.37-21.18a1.75,1.75,0,0,0,1.28,1c3.4.77,3.9-6.24,3.14-8.13a20,20,0,0,0,3.41-3.59,14.24,14.24,0,0,0,1.57-6.87C95,157.33,100.24,155.6,99.68,155.45Z" style="fill:#263238"></path><path d="M85.33,176.57c-.1-2.16-2.74-2.62-4.6-1.54-1,.59-1.81,1.79-1.72,4.07.25,6.1,6.32,4.59,6.32,4.41S85.46,179.09,85.33,176.57Z" style="fill:#ffbf9d"></path><path d="M83.38,181.28s-.11.08-.28.17a1.12,1.12,0,0,1-.79.05A2.63,2.63,0,0,1,81,179.19a3.45,3.45,0,0,1,.24-1.53,1.22,1.22,0,0,1,.76-.85.55.55,0,0,1,.64.26c.09.17.06.29.09.3s.13-.1.07-.35a.72.72,0,0,0-.26-.38.83.83,0,0,0-.59-.13,1.51,1.51,0,0,0-1.07,1,3.6,3.6,0,0,0-.3,1.72,2.76,2.76,0,0,0,1.66,2.57,1.15,1.15,0,0,0,1-.2C83.37,181.43,83.4,181.29,83.38,181.28Z" style="fill:#ff9a6c"></path><path d="M91.29,153.8a3.54,3.54,0,0,0-1.21,1,5.59,5.59,0,0,0-.45,4.21l0,.16-.15,0a5.92,5.92,0,0,0-3.93,3.46,4.46,4.46,0,0,0-.31,1.49,9.16,9.16,0,0,0,.19,1.61,11.83,11.83,0,0,1,.23,1.73,2.9,2.9,0,0,1-.48,1.8,7.34,7.34,0,0,1-3,2.27,10.61,10.61,0,0,0-2.83,1.86,7.6,7.6,0,0,0-2.27,5.11,7.91,7.91,0,0,0,.8,3.76c.41.83.75,1.23.71,1.26s-.1-.09-.26-.28a6.87,6.87,0,0,1-.6-.9,7.72,7.72,0,0,1,1.34-9.23A10.58,10.58,0,0,1,82,171.21a7.06,7.06,0,0,0,2.86-2.13c.67-.93.37-2.13.19-3.23a10.41,10.41,0,0,1-.19-1.69,5,5,0,0,1,.36-1.62,6.19,6.19,0,0,1,4.22-3.63l-.11.2a5.69,5.69,0,0,1,.61-4.4,2.5,2.5,0,0,1,1-.77C91.15,153.83,91.29,153.78,91.29,153.8Z" style="fill:#fff"></path><path d="M81.1,183.56a4.36,4.36,0,0,1,1.73-1.14H82.7a2.38,2.38,0,0,1,.37-.06,1.74,1.74,0,0,1,1.36.17h0A3.21,3.21,0,0,1,86.17,184a3.8,3.8,0,0,1-.45,3.91,2.9,2.9,0,0,1-5.32-1A3.6,3.6,0,0,1,81.1,183.56Z" style="fill:#455a64"></path><path d="M98.42,182.68a19.59,19.59,0,0,1,4.69,1.69c.13.71-1,2.3-1.72,2.58a2.51,2.51,0,0,1-2.26-.25,3.08,3.08,0,0,1-1.08-1.91A4.58,4.58,0,0,1,98.42,182.68Z" style="fill:#ff9a6c"></path><path d="M101.19,187.05a4.67,4.67,0,0,1-1.57-.31,2.69,2.69,0,0,1-1.24-1.1,2.71,2.71,0,0,1,.15-2.86l-.23.07a28.46,28.46,0,0,0,4.45,1.31,28.74,28.74,0,0,0-4.31-1.7l-.15-.05-.09.12a3,3,0,0,0-.15,3.3A2.85,2.85,0,0,0,99.51,187,2,2,0,0,0,101.19,187.05Z" style="fill:#263238"></path><path d="M96.58,454.33v1s16.69,6.88,16.84,10.06l-33.26-.49.62-11.06A19,19,0,0,0,96.58,454.33Z" style="fill:#263238"></path><path d="M80.15,464.89l.15-2.66,31.82,1.45s1.47.66,1.29,1.7Z" style="fill:#455a64"></path><path d="M96.69,455.41c0,.16-.82.22-1.63.74s-1.24,1.18-1.39,1.11.11-1,1.1-1.6S96.73,455.26,96.69,455.41Z" style="fill:#fff"></path><path d="M100.16,456.9c0,.16-.68.43-1.24,1.11s-.73,1.4-.89,1.39-.25-.93.46-1.76S100.15,456.75,100.16,456.9Z" style="fill:#fff"></path><path d="M102.08,461.11c-.15,0-.37-.78.06-1.67s1.2-1.22,1.26-1.09-.41.61-.75,1.34S102.24,461.09,102.08,461.11Z" style="fill:#fff"></path><path d="M72.8,444.3l14.16,4-3.54,8,3.67,20.32a2.31,2.31,0,0,1-1.59,2.64,2.35,2.35,0,0,1-2.39-.69c-3.12-3.5-14.56-16.45-14.28-18l.45-4.23a31.3,31.3,0,0,1,.94-3.14Z" style="fill:#263238"></path><path d="M85.08,479.32,69,459.06l-.08.92a2.53,2.53,0,0,0,.65,2.12c1.27,2,4.87,6.67,13.51,16.46a2.33,2.33,0,0,0,2,.76Z" style="fill:#455a64"></path><path d="M80.83,469.33A6.82,6.82,0,0,1,83,467.81a7.15,7.15,0,0,1,2.62-.24c0-.06-.25-.25-.76-.37a3.71,3.71,0,0,0-2,.16,3.58,3.58,0,0,0-1.63,1.2C80.84,469,80.77,469.3,80.83,469.33Z" style="fill:#fff"></path><path d="M82.15,472.39a20.58,20.58,0,0,1,2.07-.75,17.77,17.77,0,0,1,2.22-.08,2.67,2.67,0,0,0-2.31-.4C82.77,471.42,82,472.32,82.15,472.39Z" style="fill:#fff"></path><path d="M78.2,465.31a23.89,23.89,0,0,1,3.11-1.38,25,25,0,0,1,3.39-.45,5.3,5.3,0,0,0-3.53,0A5.12,5.12,0,0,0,78.2,465.31Z" style="fill:#fff"></path><path d="M84.13,460.6c.34,1.94.67,3.68.93,4.94a10,10,0,0,0,.51,2,11.29,11.29,0,0,0-.21-2.08c-.19-1.27-.47-3-.81-5-.29-1.63-.57-3.13-.8-4.3v0a16.8,16.8,0,0,0-.16-2.73,14.8,14.8,0,0,0-.17,2.73h0v0" style="fill:#455a64"></path><path d="M67.66,322.89A43.45,43.45,0,0,1,67,307.83c1.83-12.17,3-16.68,9.24-29.87l1.55.37,46.63-.37,1.82,2.8c4,10.8,6.74,17.24,7.87,25.14,1.3,9.09-1,22.26-6,35.56-10.91,28.72-17,51.68-17.42,57.86s-1.08,12.58-6.81,32.16c-4.19,14.3-7.28,22.85-7.28,22.85-4.35,2.45-9,3.11-13.16.73l-12.8-4.94s3.92-33.73,8.5-42.67c3.3-6.44,8.7-9.5,6.18-17.89S71.09,339.41,67.66,322.89Z" style="fill:#263238"></path><path d="M115.09,295.5l-.17.22-.49.68-1.87,2.65-7,10.07,0,0v0c.34,3.77.47,8.14.71,13s.48,10.23.76,16,.62,11.92,1,18.37.71,13.19,1.36,20.13c.67,5.77,1.26,11.44.77,16.89a40.3,40.3,0,0,1-.55,4,26.73,26.73,0,0,1-1,3.85c-.92,2.45-2,4.82-3,7.12C101.54,417.8,97.73,426,94.55,433S88.78,445.47,87,449.35c-.88,1.93-1.57,3.43-2,4.47-.22.49-.4.88-.52,1.16s-.17.4-.17.4a3.93,3.93,0,0,0,.21-.38c.13-.28.32-.66.56-1.15l2.12-4.42c1.82-3.88,4.45-9.45,7.69-16.34s7-15.14,11.15-24.35c1-2.31,2.07-4.66,3-7.15a25.58,25.58,0,0,0,1-3.9c.26-1.33.43-2.68.56-4.06.5-5.5-.1-11.2-.77-17-.64-6.91-1-13.66-1.37-20.11s-.68-12.6-1-18.36-.57-11.12-.82-16-.41-9.25-.77-13l0,.08,6.9-10.13,1.82-2.69c.19-.3.34-.53.46-.7A1.3,1.3,0,0,0,115.09,295.5Z" style="fill:#455a64"></path><path d="M177.3,237.87s7-3.05,9-4.35a12.07,12.07,0,0,1,5.39-2c2.28-.41,8.32-1.06,9.79,0s8.07,3.76,8.07,3.76L200.83,240s-1.43,5.92-3.16,6.45-1.43.36-3.29,0-7.94-3.28-8.12-3.16-6.43,3.5-6.43,3.5Z" style="fill:#ffbf9d"></path><path d="M203.85,237.05H224.6l1-.68a.28.28,0,0,0,0-.46l-1-.62H203.85Z" style="fill:#263238"></path><path d="M214.26,235.83s-1-1.19-2.92,0a37.2,37.2,0,0,0-3.24,2.14,13.55,13.55,0,0,1-1.31-.39L204,238.85l-.3,1.64s3.51,1.18,4.62.59a38.82,38.82,0,0,0,5.64-4.32C214.46,236.13,214.26,235.83,214.26,235.83Z" style="fill:#ffbf9d"></path><path d="M196.68,242.63l1.28-.82L197.5,240s-2.69-.36-3-1.83,0-1.44,0-1.44l3.47.59-1.6-1.35s-2.92-.36-2.69-2.06l.56-.81a25.77,25.77,0,0,1,3.77,1,49.7,49.7,0,0,1,4.26,2.66h0l-2.62-2.49a5.76,5.76,0,0,1-1.92-1.15,1,1,0,0,1,.19-1.56h0a1,1,0,0,1,.64-.16,9.18,9.18,0,0,1,2.79.6c1.12.53,4.46,3,4.95,4.27s.43,1.73-.36,2.53a16,16,0,0,1-2.72,1.89,5,5,0,0,1-1.64,1.81s-.56,2.47-3.93,3.9" style="fill:#ffbf9d"></path><path d="M197.67,246.44s.13,0,.36-.13a6.1,6.1,0,0,0,1-.52,6.52,6.52,0,0,0,1.42-1.13,5.38,5.38,0,0,0,1.27-2.1l-.06.09a4.73,4.73,0,0,0,1.71-1.85l-.06.06c.57-.32,1.14-.67,1.73-1.07a4.94,4.94,0,0,0,1.61-1.58,1.69,1.69,0,0,0,.07-1.25,3.68,3.68,0,0,0-.47-1.16,10.56,10.56,0,0,0-1.77-1.83,23.28,23.28,0,0,0-2.14-1.59,6.1,6.1,0,0,0-1.24-.66,7.45,7.45,0,0,0-1.39-.35l-.71-.1a2.86,2.86,0,0,0-.78,0,1.23,1.23,0,0,0-.6,2.07,4,4,0,0,0,.6.48,6.14,6.14,0,0,0,1.38.69l-.08,0,1.07,1,1.55,1.48.27-.33c-1.31-.88-2.58-1.74-3.91-2.47a9.65,9.65,0,0,0-2.11-.74c-.71-.17-1.41-.33-2.09-.46l-.13,0-.07.1-.56.8,0,0v0a1.49,1.49,0,0,0,.26,1.05,2.35,2.35,0,0,0,.79.66,5.43,5.43,0,0,0,1.81.56l-.1,0,1.62,1.33.13-.29-2.6-.43-.6-.1-.15,0h-.22c-.23.16-.17.28-.2.39a4.82,4.82,0,0,0,.13,1.17,1.68,1.68,0,0,0,.57,1,3.63,3.63,0,0,0,.87.53,6.89,6.89,0,0,0,1.67.46l-.08-.07c.19.7.36,1.28.49,1.76l0-.07-1,.64a1.48,1.48,0,0,0-.3.23,1.48,1.48,0,0,0,.33-.17l1-.59,0,0v0c-.11-.49-.26-1.08-.43-1.78V240h-.07a7,7,0,0,1-1.6-.48,2,2,0,0,1-1.27-1.34,4.39,4.39,0,0,1-.1-1.08.37.37,0,0,1,0-.12s0,0,0-.1v0h0c0-.1,0,.14,0,.11h.11l.14,0,.61.11,2.59.45.61.11-.48-.4-1.6-1.36,0,0h-.05a5.08,5.08,0,0,1-1.67-.53,1.33,1.33,0,0,1-.85-1.33l0,.09c.18-.27.37-.53.56-.8l-.2.08c.68.13,1.37.28,2.07.46a9.31,9.31,0,0,1,2,.71c1.29.72,2.57,1.59,3.86,2.46l.26-.32-1.55-1.48-1.07-1,0,0h-.05a7,7,0,0,1-1.28-.64,4.7,4.7,0,0,1-.54-.44.78.78,0,0,1-.23-.51.83.83,0,0,1,.64-.86,2.85,2.85,0,0,1,.64,0l.69.1a7.82,7.82,0,0,1,1.31.31,6.55,6.55,0,0,1,1.17.62,24.26,24.26,0,0,1,2.1,1.55A9.79,9.79,0,0,1,206,236a3.31,3.31,0,0,1,.43,1,1.4,1.4,0,0,1,0,1,4.75,4.75,0,0,1-1.49,1.47c-.57.4-1.14.76-1.69,1.08l0,0,0,0a4.46,4.46,0,0,1-1.57,1.76l0,0,0,.06a5.23,5.23,0,0,1-1.17,2,6.9,6.9,0,0,1-1.35,1.15C198.15,246.22,197.65,246.41,197.67,246.44Z" style="fill:#ff9a6c"></path><path d="M195.53,242.73a4.23,4.23,0,0,0-.67-1.36,12.77,12.77,0,0,0-5.51-4.74,4,4,0,0,0-1.45-.46,18.47,18.47,0,0,1,7.63,6.56Z" style="fill:#ff9a6c"></path><path d="M197.74,237.22c0,.07.39.13,1,.39a3.74,3.74,0,0,1,1.71,1.66,11.78,11.78,0,0,1,.85,2.35c.18.63.3,1,.36,1s0-.42-.07-1.07a7.7,7.7,0,0,0-.77-2.49,3.61,3.61,0,0,0-2-1.74A1.83,1.83,0,0,0,197.74,237.22Z" style="fill:#ff9a6c"></path><path d="M202.17,236.7a7.67,7.67,0,0,1,.91,1.83c.31,1.09.23,2,.35,2.05a2.9,2.9,0,0,0,.06-2.17,3.12,3.12,0,0,0-.76-1.37C202.44,236.75,202.2,236.66,202.17,236.7Z" style="fill:#ff9a6c"></path><path d="M105.26,199.49l3.87,5.11,12.31,2.65s9.07,19.28,8.65,28.15a89.39,89.39,0,0,1-1.38,13.27l.08,10.15s3.82,8.44,2.12,12.1-6.48,7-6.48,7l-44.71.56s-3.18,1.83-4.85-2.95c-.72-2,2.06-8.19,1-16.15-1.48-10.69-6.78-23.54-6.78-23.54l-1.91-23.3,14.1-6.84,2.58-6.81,16.87,4.31Z" style="fill:#7E57C2"></path><path d="M180.41,235.35c-.48.05-7.47,2.51-7.47,2.51a10.42,10.42,0,0,0-5.45-.21c-2.59.76-15.78,3.72-15.78,3.72l-17-21.94s-6.81-11.47-13.31-12.18l5.17,32.32s13.79,18.22,20.43,20.5,30-6.35,30.62-9.59l7.8-4.88Z" style="fill:#7E57C2"></path><path d="M123.24,214a1.21,1.21,0,0,0,.13.35l.46,1c.21.42.46.93.72,1.55s.58,1.29.87,2.07a53.8,53.8,0,0,1,1.89,5.55,58.06,58.06,0,0,1,1.47,7,59.88,59.88,0,0,1,.52,7.15,55.45,55.45,0,0,1-.28,5.86c-.07.83-.19,1.58-.27,2.23s-.18,1.23-.26,1.69l-.18,1.06a1.81,1.81,0,0,0,0,.38s.06-.12.12-.36l.25-1c.11-.46.23-1,.33-1.68s.25-1.4.33-2.24a49.23,49.23,0,0,0,.38-5.89,56.59,56.59,0,0,0-.49-7.21,54.69,54.69,0,0,0-1.52-7.07,48.87,48.87,0,0,0-2-5.55c-.31-.78-.66-1.46-.94-2.06s-.55-1.12-.78-1.52l-.53-1A1.47,1.47,0,0,0,123.24,214Z" style="fill:#263238"></path><path d="M81.24,205.74a1.59,1.59,0,0,0,.33.18l1,.43c.85.36,2.09.86,3.65,1.43a108.42,108.42,0,0,0,12.55,3.64l.2.05,0-.21c.09-.39.2-.8.31-1.22.61-2.19,1.33-4.26,1.78-6.25l-.34.08c1.76,2.15,3.35,4.06,4.78,5.54l.11.11.1-.11a16.16,16.16,0,0,0,1.47-2l1-1.55c.56-.84.94-1.25.92-1.27a1.33,1.33,0,0,0-.31.27,9.52,9.52,0,0,0-.74.91c-.31.4-.67.91-1.08,1.5a17.3,17.3,0,0,1-1.49,1.91h.21c-1.37-1.49-2.94-3.43-4.68-5.58l-.26-.32-.09.4c-.46,2-1.19,4-1.8,6.23-.12.42-.23.84-.32,1.24l.25-.16a125.36,125.36,0,0,1-12.54-3.51c-1.57-.53-2.82-1-3.69-1.3A9.12,9.12,0,0,0,81.24,205.74Z" style="fill:#263238"></path><path d="M106,280.29s.07,0,.18-.09.3-.16.52-.31a6.19,6.19,0,0,0,1.57-1.66,9.94,9.94,0,0,0,1.31-3.38,24.45,24.45,0,0,0,.43-4.78c0-7.08.11-16.87-.65-27.67-.39-5.39-1-10.52-1.8-15.14a104.65,104.65,0,0,0-2.81-12.13,74.34,74.34,0,0,0-4-10.74s0,.07,0,.2.13.33.21.56l.83,2.12c.38.91.75,2.07,1.21,3.39s.92,2.86,1.43,4.55a111.34,111.34,0,0,1,2.72,12.12c.77,4.61,1.37,9.72,1.76,15.1.76,10.77.71,20.57.78,27.64a24.89,24.89,0,0,1-.38,4.73,9.74,9.74,0,0,1-1.21,3.34A6.92,6.92,0,0,1,106,280.29Z" style="fill:#263238"></path><path d="M93.37,265.06a5.81,5.81,0,0,0,1.16-.11c.75-.1,1.82-.27,3.13-.53a74.36,74.36,0,0,0,19.71-6.91c1.19-.62,2.13-1.15,2.77-1.54a6.43,6.43,0,0,0,1-.63,5.57,5.57,0,0,0-1.06.49c-.66.34-1.62.83-2.82,1.41a90.12,90.12,0,0,1-9.62,4,92.18,92.18,0,0,1-10,2.87c-1.3.29-2.36.51-3.09.66A6.57,6.57,0,0,0,93.37,265.06Z" style="fill:#263238"></path><g style="opacity:0.30000000000000004"><path d="M127.2,223.41a16.36,16.36,0,0,1,2.11,20l0-.13A43.09,43.09,0,0,0,127.2,223.41Z"></path></g><path d="M90.86,258.77s-6.79,0-7.33.57S79,263.66,79,263.66a25.47,25.47,0,0,1-1.56,3s-1.2,2-2.3,2.34a5.16,5.16,0,0,1-1.83.3L71.62,278s2.65,2,4,1.59,8.11-5.71,8.11-5.71l1.73-.9s7.19-.9,7.18-3.14l-.1-.61-7.16.54-2.54.86,4.26-2.44s6.56-1.47,7.14-1.74,1.12-1.35.78-1.83l-1.43.06s1.34-1.29,1.13-2.24l-6.43,0S91.77,260,90.86,258.77Z" style="fill:#ffbf9d"></path><path d="M94.32,264.46a2.51,2.51,0,0,1-.59,0H92.14c-1.35,0-3.21.08-5.26.18-.26,0-.52,0-.74.06a2.16,2.16,0,0,0-.66.23c-.39.24-.79.51-1.16.75-.73.5-1.38,1-1.9,1.4a15.58,15.58,0,0,0-1.19,1c-.27.26-.4.42-.42.4a1.77,1.77,0,0,1,.34-.48,10.1,10.1,0,0,1,1.14-1.13,23.62,23.62,0,0,1,1.88-1.46c.37-.26.74-.52,1.18-.78a2.29,2.29,0,0,1,.73-.27,7.19,7.19,0,0,1,.78-.06c2.06-.1,3.93-.14,5.28-.1.67,0,1.22.05,1.6.09A2.1,2.1,0,0,1,94.32,264.46Z" style="fill:#ff9a6c"></path><path d="M88.54,262.72s-.54-.09-1.41-.12a7.46,7.46,0,0,0-5.94,2.62c-.56.65-.82,1.13-.86,1.11a3.51,3.51,0,0,1,.7-1.24,7,7,0,0,1,6.11-2.69A3.6,3.6,0,0,1,88.54,262.72Z" style="fill:#ff9a6c"></path><path d="M44.4,264.74a12.92,12.92,0,0,1-1.83-10.59c1.19-5.13,15-29.36,21.27-38.47,2.25-3.27,6.64-4.72,6.64-4.72s8.8,6.86,9.62,16.64l-7.41,9.85L61.46,257Z" style="fill:#7E57C2"></path><path d="M71.14,267.75l-10.72-13.5s-15.72,10.17-16,10.49c0,0,13.05,11.11,27.22,14.41l1.93-9.94Z" style="fill:#7E57C2"></path><path d="M74.5,232.9a19,19,0,0,1,.08-3,25.79,25.79,0,0,0-.44-7,11.77,11.77,0,0,0-3.37-6,14.76,14.76,0,0,0-2.4-1.64,2.09,2.09,0,0,1,.78.22A7.45,7.45,0,0,1,71,216.66a11.44,11.44,0,0,1,3.63,6.16A22.74,22.74,0,0,1,75,230,14.31,14.31,0,0,1,74.5,232.9Z" style="fill:#263238"></path><path d="M46.82,256.48A5.75,5.75,0,0,1,48.73,255a11.64,11.64,0,0,1,5.66-1.44,20,20,0,0,1,3.23.09,7.51,7.51,0,0,1,2.55.78,5.09,5.09,0,0,1,1.41,1.11c.27.34.39.53.36.55A11.47,11.47,0,0,0,60,254.75a8,8,0,0,0-2.45-.63,23.15,23.15,0,0,0-3.15-.05,12.56,12.56,0,0,0-5.51,1.25C47.59,256,46.87,256.55,46.82,256.48Z" style="fill:#263238"></path></g></svg>
