<svg xmlns="http://www.w3.org/2000/svg" xmlns:xlink="http://www.w3.org/1999/xlink" viewBox="0 0 500 500"><defs><clipPath id="freepik--clip-path--inject-378"><rect x="71.59" y="320.17" width="175.5" height="76.5" style="fill:#263238;stroke:#263238;stroke-linecap:round;stroke-linejoin:round"></rect></clipPath><clipPath id="freepik--clip-path-2--inject-378"><rect x="273.57" y="320.17" width="162.25" height="91.5" style="fill:#263238;stroke:#263238;stroke-linecap:round;stroke-linejoin:round"></rect></clipPath></defs><g id="freepik--background-simple--inject-378"><path d="M423.56,145S399.23,99.3,345.51,92.53s-91.24,26.24-130.77,43.17c-20.71,8.87-44.35,5.43-66.33,9.72C78.13,159.14,51.65,245.1,80.93,294c25.34,42.32,69.94,64.33,137.86,69.41s115.56,11,176.39-30.47S451.94,205.11,423.56,145Z" style="fill:#7E57C2"></path><path d="M423.56,145S399.23,99.3,345.51,92.53s-91.24,26.24-130.77,43.17c-20.71,8.87-44.35,5.43-66.33,9.72C78.13,159.14,51.65,245.1,80.93,294c25.34,42.32,69.94,64.33,137.86,69.41s115.56,11,176.39-30.47S451.94,205.11,423.56,145Z" style="fill:#fff;opacity:0.8"></path></g><g id="freepik--Background--inject-378"><ellipse cx="244.2" cy="404.18" rx="199.3" ry="19.77" style="fill:#7E57C2"></ellipse><ellipse cx="244.2" cy="404.18" rx="199.3" ry="19.77" style="fill:#fff;opacity:0.5"></ellipse><rect x="69.67" y="301.37" width="372" height="3.39" style="fill:#263238"></rect><path d="M331.21,260a7.72,7.72,0,0,0,2.24.24s-.34-1-.37-1.1c-.35-.72-1.45-1.92-2.34-1.8a1.06,1.06,0,0,0-.86,1.34A2.23,2.23,0,0,0,331.21,260Z" style="fill:#263238"></path><path d="M352,254.57c-.9-.1-2,1.13-2.29,1.86,0,.07-.36,1.11-.34,1.11h0l-.54.64c-.36.43-.75.92-1.14,1.48a19.8,19.8,0,0,0-1.18,1.88,14.15,14.15,0,0,0-1,2.26v0c0-.27,0-1,0-1.06-.11-.8-.78-2.29-1.66-2.45a1.06,1.06,0,0,0-1.23,1,2.18,2.18,0,0,0,.85,1.67,7.38,7.38,0,0,0,2,.93,17.53,17.53,0,0,0-.6,2.45c-.08.48-.16,1-.22,1.46,0-.23,0-.43,0-.46-.11-.8-.78-2.28-1.66-2.44a1.08,1.08,0,0,0-1.24,1,2.24,2.24,0,0,0,.86,1.67,7.43,7.43,0,0,0,2,.91c0,.18-.05.37-.07.56-.11.91-.21,1.81-.34,2.69,0,.32-.1.62-.16.93a3.17,3.17,0,0,0,0-.4c-.1-.8-.77-2.29-1.66-2.45a1.06,1.06,0,0,0-1.23,1,2.23,2.23,0,0,0,.86,1.67,6.72,6.72,0,0,0,1.9.89c-.06.31-.13.62-.21.92a5.87,5.87,0,0,1-.16.6c-.07.2-.13.4-.2.6-.13.37-.27.76-.41,1.12l-.29.72c.05-.31.13-.91.13-1a4,4,0,0,0-.55-2,1,1,0,0,0,0-.24,1.06,1.06,0,0,0-1.3-.9c-.87.23-1.43,1.76-1.47,2.56,0,.05,0,.57.06.89-.05-.18-.09-.37-.14-.56-.09-.39-.19-.77-.3-1.18l-.18-.6c-.06-.2-.14-.4-.21-.61-.17-.47-.37-.94-.58-1.41a6.88,6.88,0,0,0,2-.75,2.25,2.25,0,0,0,1-1.6,1.07,1.07,0,0,0-1.15-1.1c-.9.1-1.68,1.53-1.84,2.32,0,.05-.06.63-.09.94-.13-.28-.25-.56-.39-.84-.4-.8-.83-1.61-1.26-2.41l-.39-.74a7.62,7.62,0,0,0,2.09-.77,2.25,2.25,0,0,0,1-1.61,1.07,1.07,0,0,0-1.15-1.09c-.9.1-1.68,1.53-1.84,2.32,0,.06-.09.89-.1,1.1-.28-.54-.56-1.09-.81-1.63a19.42,19.42,0,0,1-.88-2.28,7.44,7.44,0,0,0,2.1-.77,2.25,2.25,0,0,0,1-1.61,1.07,1.07,0,0,0-1.16-1.09c-.89.1-1.67,1.53-1.83,2.32,0,.06-.1,1-.1,1.12a.78.78,0,0,0-.05-.14,13.28,13.28,0,0,1-.45-2.4c-.05-.45-.08-.88-.09-1.3a6.94,6.94,0,0,0,2.12-.53,2.26,2.26,0,0,0,1.15-1.48,1.08,1.08,0,0,0-1-1.22c-.9,0-1.83,1.34-2.08,2.1,0,0-.1.48-.16.8,0-.19,0-.38,0-.56,0-.69,0-1.31.08-1.86,0-.32.06-.6.09-.87a7.06,7.06,0,0,0,1.63-1.44,2.22,2.22,0,0,0,.33-1.85,1.06,1.06,0,0,0-1.47-.6c-.8.41-1,2-.88,2.82,0,.07.32,1.12.33,1.12l0,0c0,.26-.07.53-.1.83-.06.55-.12,1.18-.13,1.86a18.73,18.73,0,0,0,.05,2.22,13.67,13.67,0,0,0,.41,2.44v0c-.14-.23-.56-.84-.6-.88-.53-.61-1.9-1.48-2.73-1.12a1.06,1.06,0,0,0-.48,1.51,2.23,2.23,0,0,0,1.64.92,7.51,7.51,0,0,0,2.2-.34,17.36,17.36,0,0,0,.86,2.37c.19.45.4.9.62,1.34-.13-.19-.25-.35-.27-.37-.53-.61-1.9-1.48-2.73-1.13a1.07,1.07,0,0,0-.48,1.52,2.26,2.26,0,0,0,1.64.92,7.07,7.07,0,0,0,2.14-.33c.08.17.16.34.25.51.41.82.82,1.63,1.2,2.44.13.28.26.57.38.85l-.23-.33c-.53-.6-1.91-1.47-2.74-1.12a1.07,1.07,0,0,0-.47,1.52,2.24,2.24,0,0,0,1.64.92,7.17,7.17,0,0,0,2.08-.31c.11.29.23.59.33.88s.14.39.19.59l.17.61c.09.38.19.78.27,1.16s.11.51.16.76l-.42-.88c-.43-.68-1.66-1.75-2.54-1.52a1.05,1.05,0,0,0-.69,1.42,2.19,2.19,0,0,0,1.47,1.16,7.33,7.33,0,0,0,2.22,0c.08.42.16.82.22,1.21.24,1.34.39,2.46.48,3.25,0,.14,0,.27,0,.38H337l1,19.35h4.62l1-19.35h-2.53l.06-.11c.35-.72.83-1.76,1.35-3l.5-1.27a7.78,7.78,0,0,0,2.21.17,2.27,2.27,0,0,0,1.56-1,1.06,1.06,0,0,0-.59-1.47c-.86-.29-2.16.68-2.64,1.33,0,0-.29.49-.45.77l.21-.55c.13-.37.26-.74.39-1.15l.18-.59a6.45,6.45,0,0,0,.16-.63c.12-.49.21-1,.3-1.49a7,7,0,0,0,2.09.48,2.21,2.21,0,0,0,1.7-.8,1.07,1.07,0,0,0-.36-1.55c-.8-.41-2.24.35-2.81.92,0,0-.4.49-.59.74.05-.3.09-.61.13-.92.11-.89.2-1.8.29-2.7,0-.28.05-.56.08-.84a7.16,7.16,0,0,0,2.17.51,2.23,2.23,0,0,0,1.7-.79,1.07,1.07,0,0,0-.36-1.55c-.8-.42-2.24.35-2.81.91,0,0-.57.7-.69.87.06-.61.13-1.21.23-1.81a16.47,16.47,0,0,1,.52-2.38,7.44,7.44,0,0,0,2.17.51,2.22,2.22,0,0,0,1.7-.79,1.07,1.07,0,0,0-.36-1.55c-.8-.42-2.23.35-2.81.91,0,.05-.6.75-.7.89a1,1,0,0,0,0-.14,14.45,14.45,0,0,1,.94-2.26c.21-.4.43-.77.65-1.13a7.27,7.27,0,0,0,2.06.73,2.24,2.24,0,0,0,1.78-.61,1.08,1.08,0,0,0-.19-1.58c-.75-.49-2.26.11-2.89.61,0,0-.36.34-.58.57l.3-.47c.38-.57.76-1.07,1.1-1.51l.55-.67a7,7,0,0,0,2.15-.3,2.24,2.24,0,0,0,1.3-1.36A1.06,1.06,0,0,0,352,254.57ZM342,278.67c-.55,1.24-1,2.26-1.4,3l-.2.38h-.06q0-.19-.06-.45c-.11-.8-.28-1.93-.55-3.28-.08-.42-.18-.88-.29-1.34a12,12,0,0,0,1.24-.58,7.83,7.83,0,0,0,1.8,1.16C342.34,277.92,342.18,278.31,342,278.67Z" style="fill:#263238"></path><path d="M347.23,260.31s.29-1.06.3-1.13c.11-.79-.14-2.4-1-2.79a1.06,1.06,0,0,0-1.45.64,2.22,2.22,0,0,0,.39,1.84A8,8,0,0,0,347.23,260.31Z" style="fill:#263238"></path><path d="M116.59,262a7.26,7.26,0,0,0,2.12.24s-.33-1-.35-1.05c-.33-.69-1.38-1.83-2.23-1.71a1,1,0,0,0-.81,1.27A2.1,2.1,0,0,0,116.59,262Z" style="fill:#263238"></path><path d="M136.31,256.87c-.85-.09-1.87,1.07-2.18,1.77,0,.07-.34,1.06-.32,1.06h0c-.17.18-.34.38-.52.6-.33.41-.71.88-1.08,1.41s-.76,1.13-1.12,1.78a14.22,14.22,0,0,0-1,2.16v0c0-.25,0-.95,0-1-.1-.76-.74-2.17-1.58-2.32a1,1,0,0,0-1.17,1,2.13,2.13,0,0,0,.81,1.59,6.94,6.94,0,0,0,1.93.88,17.61,17.61,0,0,0-.57,2.33c-.08.46-.15.93-.21,1.39,0-.22,0-.41,0-.44-.1-.76-.74-2.17-1.58-2.32a1,1,0,0,0-1.17.95,2.13,2.13,0,0,0,.81,1.59,6.58,6.58,0,0,0,1.87.86c0,.18-.05.36-.07.54-.1.86-.2,1.72-.32,2.56l-.15.88c0-.2,0-.36,0-.38-.1-.76-.74-2.17-1.58-2.33a1,1,0,0,0-1.17,1,2.12,2.12,0,0,0,.81,1.58,6.79,6.79,0,0,0,1.81.85c-.06.29-.12.59-.2.87a5.32,5.32,0,0,1-.16.57l-.18.57c-.13.35-.26.72-.39,1.06s-.19.47-.28.69c.05-.29.13-.87.13-.92a3.93,3.93,0,0,0-.53-1.91,1.77,1.77,0,0,0,0-.23,1,1,0,0,0-1.24-.86c-.83.22-1.36,1.68-1.4,2.44,0,.05,0,.54,0,.85l-.12-.54c-.09-.37-.19-.73-.29-1.12-.06-.19-.11-.38-.17-.57s-.14-.39-.2-.58c-.17-.45-.35-.9-.55-1.34A6.82,6.82,0,0,0,125,273a2.15,2.15,0,0,0,.93-1.52,1,1,0,0,0-1.1-1c-.85.09-1.59,1.45-1.74,2.2,0,.05-.07.6-.09.9-.12-.26-.24-.53-.37-.8-.38-.77-.79-1.53-1.2-2.3l-.36-.7a7.25,7.25,0,0,0,2-.73,2.15,2.15,0,0,0,.93-1.53,1,1,0,0,0-1.1-1c-.85.1-1.59,1.46-1.75,2.21,0,.05-.08.85-.09,1.05-.27-.52-.53-1-.77-1.56a17.4,17.4,0,0,1-.83-2.16,7.18,7.18,0,0,0,2-.74,2.08,2.08,0,0,0,.93-1.52,1,1,0,0,0-1.1-1c-.85.09-1.59,1.45-1.74,2.2,0,.06-.09.91-.09,1.07a.69.69,0,0,1,0-.13,12.84,12.84,0,0,1-.43-2.28c0-.43-.07-.84-.09-1.24a6.63,6.63,0,0,0,2-.5,2.12,2.12,0,0,0,1.09-1.42,1,1,0,0,0-1-1.15c-.86,0-1.75,1.27-2,2,0,0-.1.45-.16.76,0-.18,0-.37,0-.54,0-.65,0-1.24.08-1.77,0-.3.06-.57.09-.82a6.62,6.62,0,0,0,1.54-1.37,2.09,2.09,0,0,0,.32-1.76,1,1,0,0,0-1.39-.57c-.77.39-1,1.93-.84,2.68,0,.07.3,1.07.31,1.06h0c0,.24-.07.5-.1.79,0,.52-.11,1.12-.12,1.77a16.74,16.74,0,0,0,0,2.1,12.23,12.23,0,0,0,.39,2.32v0l-.57-.83c-.5-.58-1.81-1.41-2.6-1.07a1,1,0,0,0-.45,1.44,2.11,2.11,0,0,0,1.55.87,6.89,6.89,0,0,0,2.09-.32,20.36,20.36,0,0,0,.82,2.25c.18.43.38.86.59,1.28l-.25-.36c-.5-.58-1.81-1.4-2.6-1.07a1,1,0,0,0-.45,1.44,2.12,2.12,0,0,0,1.55.88,7,7,0,0,0,2-.31c.09.16.16.32.24.48.39.78.79,1.55,1.15,2.32l.36.81-.22-.31c-.5-.58-1.81-1.41-2.6-1.07a1,1,0,0,0-.45,1.44,2.12,2.12,0,0,0,1.55.88,6.49,6.49,0,0,0,2-.3c.11.28.22.56.32.84s.13.37.18.57.11.38.16.57c.09.36.18.74.26,1.1l.15.73c-.12-.27-.38-.79-.4-.84-.41-.64-1.58-1.66-2.41-1.45a1,1,0,0,0-.67,1.36,2.13,2.13,0,0,0,1.41,1.1,6.87,6.87,0,0,0,2.1,0c.08.39.16.78.22,1.15.23,1.27.36,2.34.45,3.09,0,.14,0,.25,0,.37h-2.58l.94,18.39h4.4L128.4,283H126l0-.11c.33-.69.79-1.68,1.28-2.89.16-.38.32-.79.48-1.22a6.71,6.71,0,0,0,2.1.17,2.11,2.11,0,0,0,1.48-1,1,1,0,0,0-.56-1.4c-.81-.27-2.05.65-2.51,1.27l-.42.73c.06-.17.13-.34.19-.52.13-.35.25-.71.38-1.09.06-.19.11-.38.17-.57s.1-.39.15-.59c.11-.47.2-.94.28-1.42a6.81,6.81,0,0,0,2,.45,2.15,2.15,0,0,0,1.62-.75,1,1,0,0,0-.34-1.48c-.76-.39-2.13.34-2.67.88,0,0-.38.46-.57.7.05-.29.09-.58.13-.87.11-.85.19-1.72.27-2.58,0-.26.05-.52.08-.79a7,7,0,0,0,2.06.48,2.15,2.15,0,0,0,1.62-.75,1,1,0,0,0-.34-1.47c-.77-.4-2.13.33-2.68.87,0,0-.53.66-.65.82.06-.58.12-1.15.21-1.72a17.73,17.73,0,0,1,.5-2.26,7,7,0,0,0,2.07.48,2.13,2.13,0,0,0,1.61-.75,1,1,0,0,0-.34-1.48c-.76-.39-2.13.34-2.67.88,0,0-.58.71-.66.84l0-.14a13.34,13.34,0,0,1,.9-2.14c.19-.38.4-.74.61-1.08a6.41,6.41,0,0,0,2,.69,2.08,2.08,0,0,0,1.69-.57,1,1,0,0,0-.18-1.5c-.71-.48-2.15.09-2.75.57l-.55.55c.1-.15.19-.31.29-.45.36-.54.72-1,1-1.43.19-.24.36-.45.53-.64a6.87,6.87,0,0,0,2-.29,2.16,2.16,0,0,0,1.24-1.29A1,1,0,0,0,136.31,256.87Zm-9.44,22.91c-.52,1.19-1,2.16-1.33,2.83-.07.14-.14.26-.19.37h-.06c0-.14,0-.28-.06-.44-.1-.76-.26-1.83-.52-3.11-.08-.41-.17-.84-.27-1.28a11,11,0,0,0,1.17-.55,7.71,7.71,0,0,0,1.71,1.1Q127.1,279.27,126.87,279.78Z" style="fill:#263238"></path><path d="M131.82,262.32s.27-1,.28-1.06c.1-.76-.14-2.29-.91-2.66a1,1,0,0,0-1.38.61,2.12,2.12,0,0,0,.36,1.75A7.17,7.17,0,0,0,131.82,262.32Z" style="fill:#263238"></path><line x1="355" y1="303.37" x2="355" y2="115.53" style="fill:none;stroke:#263238;stroke-linecap:round;stroke-linejoin:round"></line><line x1="187" y1="303.37" x2="187" y2="116.7" style="fill:none;stroke:#263238;stroke-linecap:round;stroke-linejoin:round"></line><line x1="79.75" y1="211.16" x2="428.24" y2="211.16" style="fill:none;stroke:#263238;stroke-linecap:round;stroke-linejoin:round"></line><path d="M132.36,127.59h6.85a3.32,3.32,0,0,1,3.32,3.32v7.59a0,0,0,0,1,0,0H129a0,0,0,0,1,0,0v-7.59A3.32,3.32,0,0,1,132.36,127.59Z" style="fill:#263238"></path><path d="M141.89,148.56a6.28,6.28,0,1,1-6.28-6.28A6.28,6.28,0,0,1,141.89,148.56Z" style="fill:#fff"></path><polygon points="162.49 148.85 109.08 148.85 129.11 137.94 142.41 137.94 162.49 148.85" style="fill:#263238"></polygon><rect x="134.65" y="107.26" width="2.26" height="21.83" style="fill:#263238"></rect><path d="M388.82,127.59h6.84a3.32,3.32,0,0,1,3.32,3.32v7.59a0,0,0,0,1,0,0H385.5a0,0,0,0,1,0,0v-7.59A3.32,3.32,0,0,1,388.82,127.59Z" style="fill:#263238"></path><circle cx="392.07" cy="148.56" r="6.28" style="fill:#fff"></circle><polygon points="418.95 148.85 365.54 148.85 385.57 137.94 398.87 137.94 418.95 148.85" style="fill:#263238"></polygon><rect x="391.11" y="107.26" width="2.26" height="21.83" style="fill:#263238"></rect><line x1="236.04" y1="176.66" x2="231.7" y2="179.33" style="fill:none;stroke:#263238;stroke-linecap:round;stroke-linejoin:round;stroke-width:0.5px"></line><line x1="309.3" y1="131.51" x2="241.88" y2="173.06" style="fill:none;stroke:#263238;stroke-linecap:round;stroke-linejoin:round;stroke-width:0.5px"></line><line x1="318.2" y1="134.32" x2="264.18" y2="167.6" style="fill:none;stroke:#263238;stroke-linecap:round;stroke-linejoin:round;stroke-width:0.5px"></line><line x1="341.79" y1="119.78" x2="325.47" y2="129.83" style="fill:none;stroke:#263238;stroke-linecap:round;stroke-linejoin:round;stroke-width:0.5px"></line></g><g id="freepik--desk-1--inject-378"><path d="M144.56,266.78s3.1,7.81,3.24,10.61-.58,2.35.59,6,4.57,12.37,6.49,19.44a66.87,66.87,0,0,1,2.21,17.68H135.28s1.62-4.42-2.8-16.79S126.3,284,126.3,280.48s-1.92-7.07-2.66-11.05,1.62-3.54,1.62-3.54l17.83.15S144.27,265.89,144.56,266.78Z" style="fill:#263238;stroke:#263238;stroke-linecap:round;stroke-linejoin:round"></path><path d="M123.52,267.66c.17-2.06,1.74-1.77,1.74-1.77l17.83.15s1.18-.15,1.47.74c0,0,3.1,7.81,3.24,10.61a12.67,12.67,0,0,1-.06,2.21l-.38.58s-.59,5.16-7.66,5.46-11-2.95-12.52-6.05-2.06-8.1-3.24-11C123.82,268.25,123.67,268,123.52,267.66Z" style="fill:#fff;stroke:#263238;stroke-linecap:round;stroke-linejoin:round"></path><path d="M126.3,280.48c0-3.54-1.92-7.07-2.66-11.05-.51-2.75.46-3.39,1.11-3.52.25.09,1.16.62,2.28,4.11,1.33,4.12.59,9.57,1.33,14s4.42,14.15,7.07,21.37c2.18,5.94,2.67,11.68,1.78,15.17h-1.93s1.62-4.42-2.8-16.79S126.3,284,126.3,280.48Z" style="fill:#fff;stroke:#263238;stroke-linecap:round;stroke-linejoin:round"></path><path d="M235.43,320.29H217.69a1.29,1.29,0,0,1,0-2.57h17.74a3,3,0,0,0,2.93-3.85l-6.3-22.55a1.28,1.28,0,0,1,2.47-.69l6.3,22.55a5.61,5.61,0,0,1-5.4,7.11Z" style="fill:#fff;stroke:#263238;stroke-linecap:round;stroke-linejoin:round"></path><rect x="226.09" y="261.23" width="4.05" height="52.31" transform="translate(35.82 -25.11) rotate(6.84)" style="fill:#fff;stroke:#263238;stroke-linecap:round;stroke-linejoin:round"></rect><path d="M233.23,261.65A78.36,78.36,0,0,1,227,313.59Z" style="fill:#fff;stroke:#263238;stroke-linecap:round;stroke-linejoin:round"></path><rect x="71.59" y="320.17" width="175.5" height="76.5" style="fill:#263238"></rect><g style="clip-path:url(#freepik--clip-path--inject-378)"><rect x="71.59" y="320.17" width="175.5" height="76.5" style="fill:#fff;opacity:0.72"></rect></g><rect x="71.59" y="320.17" width="175.5" height="76.5" style="fill:none;stroke:#263238;stroke-linecap:round;stroke-linejoin:round"></rect><rect x="71.61" y="322.34" width="175.52" height="2.54" style="fill:#263238"></rect><rect x="67.09" y="318.67" width="181.5" height="4" style="fill:#fff;stroke:#263238;stroke-linecap:round;stroke-linejoin:round"></rect></g><g id="freepik--Desk2--inject-378"><rect x="296.75" y="285.55" width="27.46" height="31.72" transform="translate(620.96 602.82) rotate(180)" style="fill:#fff;stroke:#263238;stroke-linecap:round;stroke-linejoin:round"></rect><polygon points="326.34 318.69 295.33 318.69 295.33 290.05 310.01 290.05 326.34 318.69" style="fill:#fff;stroke:#263238;stroke-linecap:round;stroke-linejoin:round"></polygon><path d="M288.68,320.29h17.74a1.29,1.29,0,0,0,0-2.57H288.68a3.07,3.07,0,0,1-2.25-1,3,3,0,0,1-.67-2.86l6.29-22.55a1.28,1.28,0,1,0-2.47-.69l-6.3,22.55a5.61,5.61,0,0,0,5.4,7.11Z" style="fill:#fff;stroke:#263238;stroke-linecap:round;stroke-linejoin:round"></path><rect x="293.98" y="261.23" width="4.05" height="52.31" transform="translate(624.1 537.49) rotate(173.16)" style="fill:#fff;stroke:#263238;stroke-linecap:round;stroke-linejoin:round"></rect><path d="M290.88,261.65a78.36,78.36,0,0,0,6.22,51.94Z" style="fill:#fff;stroke:#263238;stroke-linecap:round;stroke-linejoin:round"></path><rect x="273.57" y="320.17" width="162.25" height="91.5" style="fill:#263238"></rect><g style="clip-path:url(#freepik--clip-path-2--inject-378)"><rect x="273.57" y="320.17" width="162.25" height="91.5" style="fill:#fff;opacity:0.72"></rect></g><rect x="273.57" y="320.17" width="162.25" height="91.5" style="fill:none;stroke:#263238;stroke-linecap:round;stroke-linejoin:round"></rect><rect x="273.65" y="322.37" width="162.05" height="2.53" style="fill:#263238"></rect><rect x="270.03" y="318.67" width="166.97" height="4" style="fill:#fff;stroke:#263238;stroke-linecap:round;stroke-linejoin:round"></rect></g></svg>
