<svg xmlns="http://www.w3.org/2000/svg" viewBox="50 50 400 400"><g id="freepik--background-simple--inject-150"><path d="M391.17,170.57C360.42,130,315,99.14,268.68,90.12a138.85,138.85,0,0,0-31.58-2.53c-89,3.27-78.43,63.73-116,125.82S52.46,307.37,75.34,349s70,16.5,108.1,29.08,105.71,32.4,170.78,12.28c38.56-11.92,64.79-48.93,72.71-87.25C436.46,257,420.52,209.33,391.17,170.57Z" style="fill:#7E57C2"></path><path d="M391.17,170.57C360.42,130,315,99.14,268.68,90.12a138.85,138.85,0,0,0-31.58-2.53c-89,3.27-78.43,63.73-116,125.82S52.46,307.37,75.34,349s70,16.5,108.1,29.08,105.71,32.4,170.78,12.28c38.56-11.92,64.79-48.93,72.71-87.25C436.46,257,420.52,209.33,391.17,170.57Z" style="fill:#fff;opacity:0.8"></path></g><g id="freepik--Plants--inject-150"><path d="M420.64,197.34c5.79.51,11.2,1.33,16.45-1.81,4.15-2.49,7.9-7.11,4.28-11.73-4.89-6.25-15.31-1.28-20,2.93-2.88,2.57-6.53,6.29-8.76,8.58,1.71-3,3.22-5.41,4.25-7v0l0-.05c.49-.76.87-1.33,1.1-1.65a51.23,51.23,0,0,1,6.52-4.79c4.76-3.33,9.42-6.18,11.43-12,1.58-4.57,1.48-10.52-4.26-11.74-7.77-1.64-12.55,8.87-13.43,15.1-.63,4.38-1.08,10.59-1.27,13.48-1,1.54-3.27,5-5.79,9.54-.33-2.6.26-7.15.34-8.33.4-5.8,1.11-11.22-2.13-16.41-2.57-4.1-7.27-7.76-11.81-4.05-6.16,5-1,15.33,3.31,19.93,3.11,3.34,7.83,7.73,9.87,9.62a115.89,115.89,0,0,0-6.73,14.5c-.11.29-.22.6-.32.9-1-2.42-1.54-7-1.75-8.22-1-5.72-1.7-11.15-6.12-15.38-3.49-3.35-8.94-5.73-12.44-1-4.73,6.37,2.83,15.1,8.12,18.5,3.83,2.46,9.48,5.56,11.93,6.89-.83,2.54-1.58,5.57-2.42,9s-1.8,7.25-3,11.28l0,0c-1.59-.87-2.42-8.11-2.7-9.63-1-5.72-1.69-11.15-6.11-15.38-3.49-3.35-8.95-5.73-12.44-1-4.74,6.37,2.83,15.1,8.12,18.5,4.94,3.18,12.91,7.41,13.13,7.53l-.22.17a1.07,1.07,0,0,1,.24-.12,104.08,104.08,0,0,1-5.14,13.76c-1.73-1.43-4-7-4.56-8.26-2.51-5.24-4.56-10.31-9.93-13.23-4.25-2.32-10.14-3.19-12.28,2.28-2.89,7.39,6.69,13.83,12.69,15.72,4.76,1.5,11.82,3.17,14,3.67a75.87,75.87,0,0,1-8.94,14.74c-1.69-1.73-3.75-6.83-4.32-8C377,249,375,243.89,369.6,241c-4.25-2.31-10.13-3.18-12.27,2.28C354.43,250.64,364,257.08,370,259c4.48,1.42,11,3,13.58,3.58a70.66,70.66,0,0,1-17.55,15.79l.42.65a71.25,71.25,0,0,0,17.66-15.85c2,.2,6.77,4.8,7.89,5.74,4.43,3.76,8.37,7.55,14.47,8,4.83.37,10.56-1.25,10.27-7.11-.38-7.93-11.76-9.88-18-9.15-5.2.6-12.78,2.08-14.56,2.43l.25-.33.24.06-.21-.09a75.54,75.54,0,0,0,9.06-14.95c2.2.1,7.36,3.42,8.58,4.1,5.08,2.83,9.68,5.78,15.76,5.06,4.8-.57,10.11-3.26,8.7-9-1.92-7.7-13.46-7.41-19.45-5.49-4.71,1.51-11.36,4.2-13.49,5.07a104.94,104.94,0,0,0,5.24-14.15c2.46-.12,7.54,1.52,8.79,1.84,5.64,1.44,10.84,3.11,16.53.86,4.5-1.78,8.94-5.74,6.12-10.88-3.82-7-14.91-3.73-20.21-.34-3.72,2.38-8.69,6.06-11,7.81,1.07-3.66,1.93-7.14,2.71-10.29.82-3.34,1.56-6.31,2.36-8.8l.52.28a1.54,1.54,0,0,1-.46-.46s0-.08,0-.12c2.18-.32,7.87,2,9.2,2.44,5.51,1.85,10.58,3.89,16.41,2.06,4.62-1.44,9.34-5.07,6.9-10.4-3.3-7.22-14.6-4.81-20.13-1.81-4.33,2.35-10.35,6.21-12.3,7.47.14-.42.28-.83.43-1.22a115.1,115.1,0,0,1,6.6-14.24l.42.38a1.35,1.35,0,0,1-.33-.54l.27-.5C414.15,196.44,419.36,197.23,420.64,197.34Z" style="fill:#7E57C2"></path><path d="M420.64,197.34c5.79.51,11.2,1.33,16.45-1.81,4.15-2.49,7.9-7.11,4.28-11.73-4.89-6.25-15.31-1.28-20,2.93-2.88,2.57-6.53,6.29-8.76,8.58,1.71-3,3.22-5.41,4.25-7v0l0-.05c.49-.76.87-1.33,1.1-1.65a51.23,51.23,0,0,1,6.52-4.79c4.76-3.33,9.42-6.18,11.43-12,1.58-4.57,1.48-10.52-4.26-11.74-7.77-1.64-12.55,8.87-13.43,15.1-.63,4.38-1.08,10.59-1.27,13.48-1,1.54-3.27,5-5.79,9.54-.33-2.6.26-7.15.34-8.33.4-5.8,1.11-11.22-2.13-16.41-2.57-4.1-7.27-7.76-11.81-4.05-6.16,5-1,15.33,3.31,19.93,3.11,3.34,7.83,7.73,9.87,9.62a115.89,115.89,0,0,0-6.73,14.5c-.11.29-.22.6-.32.9-1-2.42-1.54-7-1.75-8.22-1-5.72-1.7-11.15-6.12-15.38-3.49-3.35-8.94-5.73-12.44-1-4.73,6.37,2.83,15.1,8.12,18.5,3.83,2.46,9.48,5.56,11.93,6.89-.83,2.54-1.58,5.57-2.42,9s-1.8,7.25-3,11.28l0,0c-1.59-.87-2.42-8.11-2.7-9.63-1-5.72-1.69-11.15-6.11-15.38-3.49-3.35-8.95-5.73-12.44-1-4.74,6.37,2.83,15.1,8.12,18.5,4.94,3.18,12.91,7.41,13.13,7.53l-.22.17a1.07,1.07,0,0,1,.24-.12,104.08,104.08,0,0,1-5.14,13.76c-1.73-1.43-4-7-4.56-8.26-2.51-5.24-4.56-10.31-9.93-13.23-4.25-2.32-10.14-3.19-12.28,2.28-2.89,7.39,6.69,13.83,12.69,15.72,4.76,1.5,11.82,3.17,14,3.67a75.87,75.87,0,0,1-8.94,14.74c-1.69-1.73-3.75-6.83-4.32-8C377,249,375,243.89,369.6,241c-4.25-2.31-10.13-3.18-12.27,2.28C354.43,250.64,364,257.08,370,259c4.48,1.42,11,3,13.58,3.58a70.66,70.66,0,0,1-17.55,15.79l.42.65a71.25,71.25,0,0,0,17.66-15.85c2,.2,6.77,4.8,7.89,5.74,4.43,3.76,8.37,7.55,14.47,8,4.83.37,10.56-1.25,10.27-7.11-.38-7.93-11.76-9.88-18-9.15-5.2.6-12.78,2.08-14.56,2.43l.25-.33.24.06-.21-.09a75.54,75.54,0,0,0,9.06-14.95c2.2.1,7.36,3.42,8.58,4.1,5.08,2.83,9.68,5.78,15.76,5.06,4.8-.57,10.11-3.26,8.7-9-1.92-7.7-13.46-7.41-19.45-5.49-4.71,1.51-11.36,4.2-13.49,5.07a104.94,104.94,0,0,0,5.24-14.15c2.46-.12,7.54,1.52,8.79,1.84,5.64,1.44,10.84,3.11,16.53.86,4.5-1.78,8.94-5.74,6.12-10.88-3.82-7-14.91-3.73-20.21-.34-3.72,2.38-8.69,6.06-11,7.81,1.07-3.66,1.93-7.14,2.71-10.29.82-3.34,1.56-6.31,2.36-8.8l.52.28a1.54,1.54,0,0,1-.46-.46s0-.08,0-.12c2.18-.32,7.87,2,9.2,2.44,5.51,1.85,10.58,3.89,16.41,2.06,4.62-1.44,9.34-5.07,6.9-10.4-3.3-7.22-14.6-4.81-20.13-1.81-4.33,2.35-10.35,6.21-12.3,7.47.14-.42.28-.83.43-1.22a115.1,115.1,0,0,1,6.6-14.24l.42.38a1.35,1.35,0,0,1-.33-.54l.27-.5C414.15,196.44,419.36,197.23,420.64,197.34Z" style="fill:#fff;opacity:0.5"></path><path d="M336.26,246.91c4.77-3.32,9.44-6.15,11.46-11.93,1.6-4.56,1.52-10.52-4.22-11.75-7.76-1.67-12.57,8.83-13.48,15.06-.55,3.82-1,9-1.22,12.2-.61-3.39-1-6.22-1.22-8.08l0,0s0,0,0,0c-.11-.9-.18-1.58-.21-2a51.85,51.85,0,0,1,1.94-7.85c1.52-5.61,3.28-10.79,1.11-16.51-1.71-4.52-5.6-9-10.79-6.28-7,3.71-3.95,14.84-.64,20.2,2.33,3.76,6,8.82,7.66,11.16.2,1.85.69,5.93,1.67,11-1.93-1.79-4.38-5.65-5.08-6.61-3.41-4.71-6.33-9.33-12.15-11.23-4.59-1.51-10.54-1.31-11.66,4.45-1.52,7.79,9.07,12.4,15.31,13.18,4.53.57,11,.92,13.74,1.06a115.79,115.79,0,0,0,4.12,15.45c.1.3.22.6.33.9-2.3-1.23-5.69-4.43-6.61-5.19-4.47-3.73-8.44-7.48-14.54-7.9-4.83-.33-10.55,1.33-10.22,7.19.45,7.93,11.85,9.78,18.1,9,4.51-.56,10.83-1.8,13.56-2.35,1,2.48,2.36,5.29,3.9,8.45s3.26,6.72,4.92,10.58v0c-1.78.36-7.06-4.68-8.25-5.66-4.47-3.73-8.44-7.48-14.54-7.9-4.83-.33-10.54,1.33-10.21,7.19.45,7.93,11.84,9.78,18.09,9,5.82-.73,14.66-2.58,14.91-2.63l-.07.27a1.28,1.28,0,0,1,.11-.24,103.76,103.76,0,0,1,4.87,13.85c-2.25,0-7.54-2.84-8.8-3.42-5.28-2.42-10.1-5-16.1-3.8-4.74.95-9.82,4-8,9.61,2.52,7.53,14,6.34,19.82,4,4.62-1.9,11.11-5.14,13.1-6.15a75.34,75.34,0,0,1,2.58,17.05c-2.41-.25-7.26-2.85-8.46-3.4-5.28-2.42-10.1-5-16.1-3.8-4.74.94-9.82,4-8,9.61,2.52,7.53,14,6.33,19.82,3.94,4.35-1.78,10.37-4.77,12.72-6a70.52,70.52,0,0,1-3.37,23.37l.75.23a71.56,71.56,0,0,0,3.41-23.49c1.68-1.13,8.27-.65,9.73-.64,5.81.05,11.27.43,16.25-3.12,3.94-2.8,7.31-7.71,3.34-12-5.38-5.84-15.37,0-19.7,4.51-3.6,3.79-8.49,9.78-9.62,11.19,0-.14,0-.27,0-.41l.22-.11a.71.71,0,0,1-.22.06A75.6,75.6,0,0,0,347.74,303c1.75-1.33,7.83-2.08,9.21-2.34,5.72-1.09,11.14-1.77,15.34-6.21,3.32-3.52,5.67-9,.94-12.45-6.4-4.69-15.08,2.92-18.45,8.24-2.65,4.17-6,10.5-7.11,12.53a105.37,105.37,0,0,0-5-14.22c1.81-1.67,6.76-3.66,7.93-4.22,5.25-2.51,10.31-4.55,13.24-9.92,2.31-4.25,3.19-10.14-2.27-12.28-7.39-2.9-13.84,6.68-15.73,12.68-1.33,4.21-2.8,10.23-3.46,13.06-1.53-3.5-3.1-6.72-4.52-9.64-1.5-3.09-2.84-5.84-3.82-8.27l.58-.12a1.51,1.51,0,0,1-.65-.05.69.69,0,0,0-.05-.13c1.47-1.63,7.32-3.5,8.63-4,5.42-2.12,10.62-3.79,13.93-8.93,2.62-4.07,3.92-9.88-1.37-12.41-7.16-3.43-14.29,5.66-16.62,11.5-1.82,4.58-4,11.4-4.66,13.62-.16-.41-.31-.82-.45-1.21a113.37,113.37,0,0,1-4-15.16l.56,0a1.35,1.35,0,0,1-.6-.21c0-.18-.07-.37-.11-.55C330.7,250.37,335.2,247.65,336.26,246.91Z" style="fill:#7E57C2"></path><path d="M336.26,246.91c4.77-3.32,9.44-6.15,11.46-11.93,1.6-4.56,1.52-10.52-4.22-11.75-7.76-1.67-12.57,8.83-13.48,15.06-.55,3.82-1,9-1.22,12.2-.61-3.39-1-6.22-1.22-8.08l0,0s0,0,0,0c-.11-.9-.18-1.58-.21-2a51.85,51.85,0,0,1,1.94-7.85c1.52-5.61,3.28-10.79,1.11-16.51-1.71-4.52-5.6-9-10.79-6.28-7,3.71-3.95,14.84-.64,20.2,2.33,3.76,6,8.82,7.66,11.16.2,1.85.69,5.93,1.67,11-1.93-1.79-4.38-5.65-5.08-6.61-3.41-4.71-6.33-9.33-12.15-11.23-4.59-1.51-10.54-1.31-11.66,4.45-1.52,7.79,9.07,12.4,15.31,13.18,4.53.57,11,.92,13.74,1.06a115.79,115.79,0,0,0,4.12,15.45c.1.3.22.6.33.9-2.3-1.23-5.69-4.43-6.61-5.19-4.47-3.73-8.44-7.48-14.54-7.9-4.83-.33-10.55,1.33-10.22,7.19.45,7.93,11.85,9.78,18.1,9,4.51-.56,10.83-1.8,13.56-2.35,1,2.48,2.36,5.29,3.9,8.45s3.26,6.72,4.92,10.58v0c-1.78.36-7.06-4.68-8.25-5.66-4.47-3.73-8.44-7.48-14.54-7.9-4.83-.33-10.54,1.33-10.21,7.19.45,7.93,11.84,9.78,18.09,9,5.82-.73,14.66-2.58,14.91-2.63l-.07.27a1.28,1.28,0,0,1,.11-.24,103.76,103.76,0,0,1,4.87,13.85c-2.25,0-7.54-2.84-8.8-3.42-5.28-2.42-10.1-5-16.1-3.8-4.74.95-9.82,4-8,9.61,2.52,7.53,14,6.34,19.82,4,4.62-1.9,11.11-5.14,13.1-6.15a75.34,75.34,0,0,1,2.58,17.05c-2.41-.25-7.26-2.85-8.46-3.4-5.28-2.42-10.1-5-16.1-3.8-4.74.94-9.82,4-8,9.61,2.52,7.53,14,6.33,19.82,3.94,4.35-1.78,10.37-4.77,12.72-6a70.52,70.52,0,0,1-3.37,23.37l.75.23a71.56,71.56,0,0,0,3.41-23.49c1.68-1.13,8.27-.65,9.73-.64,5.81.05,11.27.43,16.25-3.12,3.94-2.8,7.31-7.71,3.34-12-5.38-5.84-15.37,0-19.7,4.51-3.6,3.79-8.49,9.78-9.62,11.19,0-.14,0-.27,0-.41l.22-.11a.71.71,0,0,1-.22.06A75.6,75.6,0,0,0,347.74,303c1.75-1.33,7.83-2.08,9.21-2.34,5.72-1.09,11.14-1.77,15.34-6.21,3.32-3.52,5.67-9,.94-12.45-6.4-4.69-15.08,2.92-18.45,8.24-2.65,4.17-6,10.5-7.11,12.53a105.37,105.37,0,0,0-5-14.22c1.81-1.67,6.76-3.66,7.93-4.22,5.25-2.51,10.31-4.55,13.24-9.92,2.31-4.25,3.19-10.14-2.27-12.28-7.39-2.9-13.84,6.68-15.73,12.68-1.33,4.21-2.8,10.23-3.46,13.06-1.53-3.5-3.1-6.72-4.52-9.64-1.5-3.09-2.84-5.84-3.82-8.27l.58-.12a1.51,1.51,0,0,1-.65-.05.69.69,0,0,0-.05-.13c1.47-1.63,7.32-3.5,8.63-4,5.42-2.12,10.62-3.79,13.93-8.93,2.62-4.07,3.92-9.88-1.37-12.41-7.16-3.43-14.29,5.66-16.62,11.5-1.82,4.58-4,11.4-4.66,13.62-.16-.41-.31-.82-.45-1.21a113.37,113.37,0,0,1-4-15.16l.56,0a1.35,1.35,0,0,1-.6-.21c0-.18-.07-.37-.11-.55C330.7,250.37,335.2,247.65,336.26,246.91Z" style="fill:#fff;opacity:0.5"></path><path d="M104.78,206.53c5-5.47,10-10.31,11-18.08.72-6.14-1-13.53-8.54-13.47-10.14.09-13.21,14.52-12.6,22.54.37,4.91,1.28,11.51,1.88,15.55-1.71-4.06-3-7.48-3.77-9.74l0,0s0,0,0-.05c-.39-1.1-.66-1.92-.82-2.41-.42-3.35.17-8.86.23-10.32.33-7.43,1.07-14.37-3.22-20.9-3.4-5.16-9.51-9.69-15.21-4.82-7.71,6.59-.78,19.61,4.84,25.36,4,4.05,9.89,9.34,12.67,11.79.76,2.24,2.51,7.19,5.15,13.28-2.89-1.69-7-5.83-8.17-6.83-5.56-4.92-10.5-9.85-18.28-10.61-6.15-.6-13.51,1.31-13.3,8.81.29,10.14,14.77,12.92,22.78,12.16,5.79-.56,13.92-1.91,17.42-2.52a147.66,147.66,0,0,0,9.45,18.12q.32.51.66,1c-3.22-.88-8.33-3.93-9.7-4.63-6.6-3.39-12.6-7-20.33-5.78-6.11.94-12.77,4.6-10.72,11.81,2.77,9.76,17.5,8.89,25.07,6.18,5.47-2,13-5.27,16.25-6.72,1.94,2.82,4.42,5.93,7.22,9.44s5.94,7.47,9.09,11.82v.06c-2.13.93-10.11-3.86-11.87-4.77-6.61-3.39-12.61-7-20.33-5.78-6.11.94-12.77,4.6-10.73,11.81,2.78,9.76,17.51,8.89,25.07,6.18,7.06-2.53,17.56-7.3,17.86-7.44,0,.21,0,.36,0,.36a1.39,1.39,0,0,1,.07-.33,132.13,132.13,0,0,1,9.94,15.91c-2.8.63-10.19-1.44-11.92-1.81-7.27-1.54-14-3.41-21.14-.24-5.65,2.5-11.12,7.79-7.25,14.21,5.24,8.68,19.22,4,25.81-.62,5.22-3.65,12.41-9.51,14.62-11.32a96.45,96.45,0,0,1,8,20.54c-3.07.36-9.83-1.53-11.48-1.88-7.27-1.55-14-3.41-21.14-.25C103.59,294.7,98.12,300,102,306.4c5.24,8.69,19.22,4,25.81-.61,4.92-3.44,11.6-8.85,14.19-11a90.24,90.24,0,0,1,2.33,30.06l1,.09A91.34,91.34,0,0,0,143,294.73c1.77-1.88,10.13-3.12,12-3.51,7.26-1.57,14.16-2.61,19.39-8.43,4.13-4.6,7-11.65.8-15.93-8.33-5.78-19.17,4.22-23.3,11.12-3.43,5.73-7.84,14.57-8.87,16.64,0-.17-.09-.34-.13-.51l.24-.2a1.23,1.23,0,0,1-.25.14,97.33,97.33,0,0,0-8.09-20.81c1.81-2.15,9.19-4.79,10.83-5.5,6.82-2.94,13.39-5.31,17.39-12,3.16-5.31,4.57-12.79-2.3-15.79-9.3-4.06-18,7.86-20.71,15.43-2.13,5.94-4.58,14.77-5.35,17.61a135.33,135.33,0,0,0-10.27-16.33c1.8-2.59,7.41-6.45,8.72-7.47,5.84-4.59,11.58-8.55,13.73-16.07,1.7-5.94,1.15-13.53-6.26-14.67-10-1.55-15.38,12.2-16.07,20.21-.49,5.61-.63,13.52-.67,17.24-2.88-3.93-5.73-7.51-8.32-10.76-2.74-3.43-5.17-6.49-7.07-9.24l.68-.31a1.81,1.81,0,0,1-.81.11.71.71,0,0,1-.1-.14c1.37-2.45,8.15-6.41,9.64-7.41,6.16-4.15,12.18-7.69,14.87-15,2.12-5.81,2.12-13.41-5.18-15.09-9.89-2.28-16.23,11-17.5,19-1,6.22-1.78,15.32-2,18.28-.32-.47-.62-.94-.9-1.39a146.35,146.35,0,0,1-9.29-17.77l.72-.12a2,2,0,0,1-.81-.09l-.29-.66C98.81,212.4,103.67,207.74,104.78,206.53Z" style="fill:#7E57C2"></path><path d="M104.78,206.53c5-5.47,10-10.31,11-18.08.72-6.14-1-13.53-8.54-13.47-10.14.09-13.21,14.52-12.6,22.54.37,4.91,1.28,11.51,1.88,15.55-1.71-4.06-3-7.48-3.77-9.74l0,0s0,0,0-.05c-.39-1.1-.66-1.92-.82-2.41-.42-3.35.17-8.86.23-10.32.33-7.43,1.07-14.37-3.22-20.9-3.4-5.16-9.51-9.69-15.21-4.82-7.71,6.59-.78,19.61,4.84,25.36,4,4.05,9.89,9.34,12.67,11.79.76,2.24,2.51,7.19,5.15,13.28-2.89-1.69-7-5.83-8.17-6.83-5.56-4.92-10.5-9.85-18.28-10.61-6.15-.6-13.51,1.31-13.3,8.81.29,10.14,14.77,12.92,22.78,12.16,5.79-.56,13.92-1.91,17.42-2.52a147.66,147.66,0,0,0,9.45,18.12q.32.51.66,1c-3.22-.88-8.33-3.93-9.7-4.63-6.6-3.39-12.6-7-20.33-5.78-6.11.94-12.77,4.6-10.72,11.81,2.77,9.76,17.5,8.89,25.07,6.18,5.47-2,13-5.27,16.25-6.72,1.94,2.82,4.42,5.93,7.22,9.44s5.94,7.47,9.09,11.82v.06c-2.13.93-10.11-3.86-11.87-4.77-6.61-3.39-12.61-7-20.33-5.78-6.11.94-12.77,4.6-10.73,11.81,2.78,9.76,17.51,8.89,25.07,6.18,7.06-2.53,17.56-7.3,17.86-7.44,0,.21,0,.36,0,.36a1.39,1.39,0,0,1,.07-.33,132.13,132.13,0,0,1,9.94,15.91c-2.8.63-10.19-1.44-11.92-1.81-7.27-1.54-14-3.41-21.14-.24-5.65,2.5-11.12,7.79-7.25,14.21,5.24,8.68,19.22,4,25.81-.62,5.22-3.65,12.41-9.51,14.62-11.32a96.45,96.45,0,0,1,8,20.54c-3.07.36-9.83-1.53-11.48-1.88-7.27-1.55-14-3.41-21.14-.25C103.59,294.7,98.12,300,102,306.4c5.24,8.69,19.22,4,25.81-.61,4.92-3.44,11.6-8.85,14.19-11a90.24,90.24,0,0,1,2.33,30.06l1,.09A91.34,91.34,0,0,0,143,294.73c1.77-1.88,10.13-3.12,12-3.51,7.26-1.57,14.16-2.61,19.39-8.43,4.13-4.6,7-11.65.8-15.93-8.33-5.78-19.17,4.22-23.3,11.12-3.43,5.73-7.84,14.57-8.87,16.64,0-.17-.09-.34-.13-.51l.24-.2a1.23,1.23,0,0,1-.25.14,97.33,97.33,0,0,0-8.09-20.81c1.81-2.15,9.19-4.79,10.83-5.5,6.82-2.94,13.39-5.31,17.39-12,3.16-5.31,4.57-12.79-2.3-15.79-9.3-4.06-18,7.86-20.71,15.43-2.13,5.94-4.58,14.77-5.35,17.61a135.33,135.33,0,0,0-10.27-16.33c1.8-2.59,7.41-6.45,8.72-7.47,5.84-4.59,11.58-8.55,13.73-16.07,1.7-5.94,1.15-13.53-6.26-14.67-10-1.55-15.38,12.2-16.07,20.21-.49,5.61-.63,13.52-.67,17.24-2.88-3.93-5.73-7.51-8.32-10.76-2.74-3.43-5.17-6.49-7.07-9.24l.68-.31a1.81,1.81,0,0,1-.81.11.71.71,0,0,1-.1-.14c1.37-2.45,8.15-6.41,9.64-7.41,6.16-4.15,12.18-7.69,14.87-15,2.12-5.81,2.12-13.41-5.18-15.09-9.89-2.28-16.23,11-17.5,19-1,6.22-1.78,15.32-2,18.28-.32-.47-.62-.94-.9-1.39a146.35,146.35,0,0,1-9.29-17.77l.72-.12a2,2,0,0,1-.81-.09l-.29-.66C98.81,212.4,103.67,207.74,104.78,206.53Z" style="fill:#fff;opacity:0.5"></path></g><g id="freepik--character-2--inject-150"><ellipse cx="225.67" cy="353.12" rx="50.65" ry="16.34" style="fill:#7E57C2"></ellipse><ellipse cx="225.67" cy="353.12" rx="50.65" ry="16.34" style="fill:#fff;opacity:0.5"></ellipse><path d="M342.1,178.9h1.68c1.69,0,4.34-1,2.17-1.92s-8.66-1.21-9.38-.49-6.74,2.89-6.74,2.89l0,.1c-4.12-.24-14.87-.88-20.14-1.34a70.09,70.09,0,0,0-13.2.29l-5.16-2.58L285,187.33s3.45,3.73,6.32,3.73,10.9-.86,18.93-1.73,22.1-4.87,22.1-4.87l0-.09a61.66,61.66,0,0,0,9.55,1c6.5.24,6.5-.72,7-1.69a4,4,0,0,0,.49-1.54Z" style="fill:#fff;stroke:#263238;stroke-linecap:round;stroke-linejoin:round"></path><path d="M342.1,178.9s-4.27,2.12-5.14,2.62a8.46,8.46,0,0,1-3,.51" style="fill:#fff;stroke:#263238;stroke-linecap:round;stroke-linejoin:round"></path><path d="M199.1,336.48l-4.72,10.62c-2.36,5.31-2.36,14.45,3,13.86s5.31-15.34,6.19-18.88,1.18-4.71,1.18-4.71Z" style="fill:#7E57C2;stroke:#263238;stroke-linecap:round;stroke-linejoin:round"></path><path d="M202.14,352.34c-4,7-5.34,6.9-7.18,4-.94-1.46-1.22-4.53-1.27-7.32-1.6,5.33-1.07,12.47,3.64,11.95C200,360.66,201.37,356.65,202.14,352.34Z" style="fill:#fff;stroke:#263238;stroke-linecap:round;stroke-linejoin:round"></path><path d="M247.46,336.48s-4.42,6.19-3.83,9.14,3.54,2.07,6.78,4.43,3.24,3.54,6.78,5.89,8.85,2.36,7.08-2.06S256,343,255.72,341.79a30.28,30.28,0,0,0-1.18-3.24Z" style="fill:#7E57C2;stroke:#263238;stroke-linecap:round;stroke-linejoin:round"></path><path d="M250.43,347.23a45.79,45.79,0,0,0-6.49-4.14,5.35,5.35,0,0,0-.31,2.53c.59,2.95,3.54,2.07,6.78,4.43s3.24,3.54,6.78,5.89,8.85,2.36,7.08-2.06C258.8,357.5,255.67,351.09,250.43,347.23Z" style="fill:#fff;stroke:#263238;stroke-linecap:round;stroke-linejoin:round"></path><path d="M228.29,236.51s-2.06,15-5.31,25.95-5.89,20.65-7.07,23.89-8.55,14.16-10,22.41-6.19,26.54-6.78,27.72,3,5.31,5.9,5.31,23.59-38.34,26.54-43.35,15.21-36.13,17.57-39.38a10.62,10.62,0,0,1,5.17-4s3.5,23,3.5,29.53-3.24,6.19-5.6,13.86-4.72,37.16-4.72,38,1.48,2.66,3.54,3.54a9.59,9.59,0,0,0,4.42.59s8.85-26.83,12.39-35.09,8-18.87,8.26-25.07,2.94-32.14-3.54-48.36C272.53,232.09,248.94,242.41,228.29,236.51Z" style="fill:#263238;stroke:#263238;stroke-linecap:round;stroke-linejoin:round"></path><path d="M244.81,154.61s-10,6-16.07,12.06c-5.8,5.8-5.17,15.2-4.3,21.8s4,33.29,4,35-.57,15.21-.57,15.21a38.52,38.52,0,0,0,18.94,4.88c11.19,0,27-8.9,27-8.9s-3.73-21.23-3.73-27.26,2.58-33.28,2.58-33.28,4.31,8.32,6.32,10.33l5.74,5.74L295,176.13s-12.63-12.62-18.66-17.79-7.86-7.69-16.7-7.29A38.78,38.78,0,0,0,244.81,154.61Z" style="fill:#7E57C2;stroke:#263238;stroke-linecap:round;stroke-linejoin:round"></path><polyline points="272.5 163.8 272.64 174.13 275.97 166.5" style="fill:none;stroke:#263238;stroke-linecap:round;stroke-linejoin:round"></polyline><path d="M268.25,192.73s-10.42,15.43-15.43,18.91" style="fill:none;stroke:#263238;stroke-linecap:round;stroke-linejoin:round"></path><path d="M253.9,178c6.12,1.53,7.65-5,7.65-13a52.62,52.62,0,0,0-2.12-13.87,38.75,38.75,0,0,0-14.62,3.54s-.83.5-2.14,1.34a9.18,9.18,0,0,0,.13,5.55C244.71,167.62,247.77,176.42,253.9,178Z" style="fill:#fff;stroke:#263238;stroke-linecap:round;stroke-linejoin:round"></path><path d="M236.56,203.87a100.84,100.84,0,0,1,10,11.18c4.11,5.59,12.35,11.84,12.35,11.84a65.29,65.29,0,0,1,8.84-1.31c2.65,0,12.36,8.23,12.36,8.23s-.6,2.3-2.66,2.29-10.6-1.32-11.48-1.32-5,1.3-8.25,0-6.76-4.93-6.76-4.93-15.9-9.22-20.9-13.82a23.52,23.52,0,0,1-6.46-9.53l-.29-4.27Z" style="fill:#fff;stroke:#263238;stroke-linecap:round;stroke-linejoin:round"></path><path d="M228.74,166.67a11.71,11.71,0,0,0-6,7.46c-1.43,5.45-.28,12.33-.28,15.49s1.14,15.21,1.14,15.21a17.24,17.24,0,0,0,8,2.3,17.64,17.64,0,0,0,8.32-2.59l.29-23.53" style="fill:#7E57C2;stroke:#263238;stroke-linecap:round;stroke-linejoin:round"></path><path d="M244.89,156.71a77.54,77.54,0,0,0,4,12.08c2.61,5.92,6.87,6.63,8.29,3.31s1.66-9.94,1.66-9.94-4,2.13-7.58-.48S244.89,156.71,244.89,156.71Z" style="fill:#fff;stroke:#263238;stroke-linecap:round;stroke-linejoin:round"></path><path d="M264.17,142.45s3.56-1.9,4.27-4.5-.71-3.79-.71-3.79,4.5-2.37,2.84-6.4S258,117.34,249,118.05s-8.29,7.11-8.29,7.11-4.5,1.18-4.5,5,.71,9.71,3.32,13.26,5-.71,6.39-2.84,1.66-4.5,5.21-2.6,11.37,2.13,11.37,2.13Z" style="fill:#263238;stroke:#263238;stroke-linecap:round;stroke-linejoin:round"></path><path d="M267.64,129a8.08,8.08,0,0,0-1.59-1.66" style="fill:none;stroke:#fff;stroke-linecap:round;stroke-linejoin:round;stroke-width:0.75px"></path><path d="M243.7,127.88s11.55,8.8,17.08,8.29c3.88-.35,7.64-2.31,7.62-5" style="fill:none;stroke:#fff;stroke-linecap:round;stroke-linejoin:round;stroke-width:0.75px"></path><path d="M242.19,129.14s4.27,3,2.51,5.78-5.53,2.51-5.53,2.51" style="fill:none;stroke:#fff;stroke-linecap:round;stroke-linejoin:round;stroke-width:0.75px"></path><path d="M241.91,140.08s-.23,3.55-.94,3.08-2.37-3.79-2.85-5.92-2.6.94-2.13,5.92a6.76,6.76,0,0,0,5.21,5.92s4.5,11.13,9,14.44,7.82.95,9.95-2.84,4.74-23.44,4.74-23.44a19.32,19.32,0,0,1-11.14-.48,31,31,0,0,1-9-5.44s3.31,4.26.94,6.15A24.26,24.26,0,0,1,241.91,140.08Z" style="fill:#fff;stroke:#263238;stroke-linecap:round;stroke-linejoin:round"></path><path d="M256.83,146.24s1.9,5.92.71,6.63-3.31,0-3.31,0" style="fill:none;stroke:#263238;stroke-linecap:round;stroke-linejoin:round"></path><path d="M250.68,155.23s1.65,3.08,6.39,1.66" style="fill:none;stroke:#263238;stroke-linecap:round;stroke-linejoin:round"></path><path d="M252.33,146.12c0,1-.37,1.77-.83,1.77s-.82-.79-.82-1.77.37-1.78.82-1.78S252.33,145.14,252.33,146.12Z" style="fill:#263238"></path><path d="M260.27,145.76c0,1-.37,1.78-.83,1.78s-.83-.8-.83-1.78.37-1.77.83-1.77S260.27,144.78,260.27,145.76Z" style="fill:#263238"></path><path d="M248.07,142.21a4.47,4.47,0,0,1,4.5-1.42" style="fill:none;stroke:#263238;stroke-linecap:round;stroke-linejoin:round"></path><path d="M258,141.26s3.31-1.18,3.79,2.37" style="fill:none;stroke:#263238;stroke-linecap:round;stroke-linejoin:round"></path></g><g id="freepik--character-1--inject-150"><ellipse cx="151.32" cy="398.05" rx="50.65" ry="16.34" style="fill:#7E57C2"></ellipse><ellipse cx="151.32" cy="398.05" rx="50.65" ry="16.34" style="fill:#fff;opacity:0.5"></ellipse><path d="M196.53,152.64a23.44,23.44,0,0,1-.61,4.16,30.6,30.6,0,0,1-2.47,4.77l8,9.86s2.31-4.62,3.54-5.24a11,11,0,0,1,3.7-.61,46.79,46.79,0,0,0-4.93-10.32C200.54,150.33,197.77,150.33,196.53,152.64Z" style="fill:#fff;stroke:#263238;stroke-linecap:round;stroke-linejoin:round"></path><path d="M217.79,134.62s2.61,0,5.08-4.46-1.7-9.24-11.55-10.63-22,1.69-25.57,10.47,2.62,20,6.47,22.79,6.62,1.24,8,.31,1.23-3.23,1.69-3.39,2,2.31,4.47.47.31-5.39,2.62-7.09,4.31-1.85,4.16-4.62a13.75,13.75,0,0,0-.47-3.54Z" style="fill:#263238;stroke:#263238;stroke-linecap:round;stroke-linejoin:round"></path><path d="M188.66,140.1a5.72,5.72,0,0,0-1,2.35" style="fill:none;stroke:#fff;stroke-linecap:round;stroke-linejoin:round;stroke-width:0.75px"></path><path d="M216.31,125.12s3.77-.5,1,3-7,3.76-13.82,3.76c-4.53,0-9.86,2.92-13,6.06" style="fill:none;stroke:#fff;stroke-linecap:round;stroke-linejoin:round;stroke-width:0.75px"></path><path d="M205.26,137.18s-12.06,1.51-15.83,7.28" style="fill:none;stroke:#fff;stroke-linecap:round;stroke-linejoin:round;stroke-width:0.75px"></path><path d="M193,157.72s3.24,3.08,7.39,7.39,9.4,10,9.4,10-6.32,1.54-6.78,1.7-14.47-15.56-14.47-15.56Z" style="fill:#fff;stroke:#263238;stroke-linecap:round;stroke-linejoin:round"></path><path d="M123.77,361s-8.46,2.42-9.9,4.5,1.6,10.54,1.28,15.66-1,7,.48,8.46,7.35,4.8,10.71,3.84-.32-4.79-.48-6.87,3-16,3.26-16.79S125.67,362.55,123.77,361Z" style="fill:#7E57C2;stroke:#263238;stroke-linecap:round;stroke-linejoin:round"></path><path d="M122.82,388.17c-.48-1.28,2.24-14.54.16-20.14a9.4,9.4,0,0,0-4.46-5.26c-2,.81-4,1.79-4.65,2.71-1.43,2.07,1.6,10.54,1.28,15.66s-1,7,.48,8.46,7.35,4.8,10.71,3.84a2.31,2.31,0,0,0,1-.53C126.06,391.78,123.19,389.16,122.82,388.17Z" style="fill:#fff;stroke:#263238;stroke-linecap:round;stroke-linejoin:round"></path><path d="M126.52,393.37c-2-.77-4.69-2.55-5.3-4.24-.79-2.24,1.12-12.95-.47-19.66-1-4-3-5.27-4.58-5.65a6.67,6.67,0,0,0-2.3,1.66c-1.43,2.07,1.6,10.54,1.28,15.66s-1,7,.48,8.46,7.35,4.8,10.71,3.84Z" style="fill:#fff;stroke:#263238;stroke-linecap:round;stroke-linejoin:round"></path><path d="M178.81,261.48s-.93,26.62-2.84,36.95-7.82,20.08-9.73,23.52-28.7,36.73-31.38,40.56-5.74,7.27-5.74,7.27l-5.35-8.8s10.71-20.66,14.15-29.85,15.31-31.75,15.31-31.75-.21-21.31.56-24-2.3-11.86-.38-19.13S163,245.55,163,245.55" style="fill:#263238;stroke:#263238;stroke-linecap:round;stroke-linejoin:round"></path><path d="M189.81,386.34s.82.54,9,1.09,10.91-1.91,10.64.54-5.73,7.09-10.09,9-12.27,2.46-15.55,4.09-6.54,1.64-6.54-2.18,3.27-11.18,3.27-11.18S187.63,389.34,189.81,386.34Z" style="fill:#7E57C2;stroke:#263238;stroke-linecap:round;stroke-linejoin:round"></path><path d="M204.81,391.25c-4.63,3.27-11.72,4.36-18.54,6.81a12.08,12.08,0,0,1-9-.06c0,.31,0,.61,0,.88,0,3.82,3.27,3.82,6.54,2.18S195,398.88,199.36,397s9.82-6.54,10.09-9c.07-.66-.08-1-.48-1.06A14.48,14.48,0,0,1,204.81,391.25Z" style="fill:#fff;stroke:#263238;stroke-linecap:round;stroke-linejoin:round"></path><path d="M197,247.46s2.79,40.22,5.47,54.76-7,43.31-8.52,52.11-3.32,33.16-3.32,33.16-1.53,3.83-3.83,4.59-6.5,1.15-6.5-1.53-.89-20.15-.89-24.74.76-44.5.76-52.16-9.18-45.53-9.57-53.56,0-13.77,4.21-15.3S197,247.46,197,247.46Z" style="fill:#263238;stroke:#263238;stroke-linecap:round;stroke-linejoin:round"></path><path d="M202.57,206.91s-3.83,21.23-4,27.54,1.34,14.74-2.29,16.46a14.25,14.25,0,0,1-9.95.76c-2.11-.76-3.64-.19-3.44-5.35S199.32,204.23,202.57,206.91Z" style="fill:#fff;stroke:#263238;stroke-linecap:round;stroke-linejoin:round"></path><path d="M178,167.69s-22.38,16.36-28.12,20.37-6.6,9.76-5.74,13.2,12.62,31.28,12.62,31.28l6.6-10.9s-4.88-19.23-4.59-21.81,8.61-6.89,8.61-6.89Z" style="fill:#7E57C2;stroke:#263238;stroke-linecap:round;stroke-linejoin:round"></path><path d="M259.3,228.37l3.62.3s5.95-5.21,8-6.95,11.62,3.77,11.62,3.77,1.61.36-.14,1.14-6.62,1.32-6.85,1.79-6.29,6.67-8.41,7.73-11.35-1.91-11.35-1.91Z" style="fill:#fff;stroke:#263238;stroke-linecap:round;stroke-linejoin:round"></path><path d="M187.6,161.26s9.86,8.63,15.86,14,28.59,32.62,40.09,41.2,15.75,11.89,15.75,11.89l-1.64,5.69s-1.91,1.63-12.56-2.65-20.86-10.67-28.43-15.95-13-9.84-13-9.84S191.76,232.88,189,243.81s-5.7,24.64-6.93,27.72-3.54,5.39-6.47,5.39-7.39-2.15-15.71-8-13.24-9.54-14-10.78,12.78-35.88,15.7-51.13S167,170.81,187.6,161.26Z" style="fill:#7E57C2;stroke:#263238;stroke-linecap:round;stroke-linejoin:round"></path><polyline points="191.86 200.45 203.62 205.62 182.99 207.78" style="fill:none;stroke:#263238;stroke-linecap:round;stroke-linejoin:round"></polyline><path d="M201.51,175.37a12,12,0,0,0-11.57,3.47" style="fill:none;stroke:#263238;stroke-linecap:round;stroke-linejoin:round"></path><path d="M192.43,233.12s-7.65,18.36-12.82,25.06-8.41,10.71-8.41,10.71,10.52,2.49,8.61,5.74c0,0,1.53-1.15,4.59-11.48S192.43,233.12,192.43,233.12Z" style="fill:#7E57C2;stroke:#263238;stroke-linecap:round;stroke-linejoin:round"></path><path d="M203.62,147.56s-.62-5.08-3.85-6-3.85,7.7-2.31,10.63a6.32,6.32,0,0,0,4.62,3.23s3.54,8.47,6.47,10.78,4,.16,5.69-1.38,3.55-11.71,3.55-11.71,4.31-.92,4-2.62-3.39-4.15-2.93-5.69,1.54-2.93,1.54-4.16a28.5,28.5,0,0,0-2-7.09c-.61-1.07-7.54-1.07-9.85.16s2,2.46,1.38,4.46-4.31,2.78-4.62,4S206.7,149.71,203.62,147.56Z" style="fill:#fff;stroke:#263238;stroke-linecap:round;stroke-linejoin:round"></path><path d="M219.39,141.61s-.9-2.4-3.29.29" style="fill:#fff;stroke:#263238;stroke-linecap:round;stroke-linejoin:round"></path><path d="M211.28,154.71a3.86,3.86,0,0,0,3.38,2" style="fill:#fff;stroke:#263238;stroke-linecap:round;stroke-linejoin:round"></path><ellipse cx="216.63" cy="145.51" rx="0.83" ry="1.81" style="fill:#263238"></ellipse><polyline points="176.1 296.14 166.22 278.1 158.91 275.52" style="fill:none;stroke:#fff;stroke-linecap:round;stroke-linejoin:round;stroke-width:0.75px"></polyline></g><g id="freepik--character-3--inject-150"><ellipse cx="338.41" cy="372.73" rx="50.65" ry="16.34" style="fill:#7E57C2"></ellipse><ellipse cx="338.41" cy="372.73" rx="50.65" ry="16.34" style="fill:#fff;opacity:0.5"></ellipse><path d="M315,128.69c-7.88,2.64-15.21,7.83-17.77,14.64C293.86,152.24,310.57,155,315,161.7s-3.34,11.7-2.78,21.72,19.49,4.46,28.4,14.48.56,13.37,11.69,22.28,18.38,10,25.07-.56,11.69-23.39,1.67-34-27.85-13.36-26.74-21.16,9.47-18.38-.55-27.29a45,45,0,0,0-21.41-10.07C325.86,126.29,320.29,126.91,315,128.69Z" style="fill:#263238;stroke:#263238;stroke-linecap:round;stroke-linejoin:round"></path><path d="M313.3,141.6s-7-.54-6.75-5.4,16.73-6.74,22.94-6.74" style="fill:none;stroke:#fff;stroke-linecap:round;stroke-linejoin:round;stroke-width:0.75px"></path><path d="M311.68,138.36a24.13,24.13,0,0,1,16.19,6.21c7.55,6.74,18.07,9.17,25.09,7" style="fill:none;stroke:#fff;stroke-linecap:round;stroke-linejoin:round;stroke-width:0.75px"></path><path d="M310.87,144.57s-12.41.81-10,4.85S309,153.2,309,153.2" style="fill:none;stroke:#fff;stroke-linecap:round;stroke-linejoin:round;stroke-width:0.75px"></path><path d="M322,176.7s-6.87,3.49-8.06,5.54-10.57,24-10.57,24-7.49,5.28-15.16,11.93a26.89,26.89,0,0,1-8.69,4.6s-7.5,1.7-9.37,2.39-4.77,6.64-5.28,9,1.7,3.4,3.58,3.57,7.32-6.3,7.83-6.81a2,2,0,0,1,1.54-.34s-4.26,4.6-4.26,5.11.51,1.87,1.87.85,2.56-2.73,4.94-4.94,5.8-5.45,7-6.64,11.76-6,16.19-8.69a33,33,0,0,0,7.66-6c1-1.19,10.05-17.21,10.05-17.21Z" style="fill:#fff;stroke:#263238;stroke-linecap:round;stroke-linejoin:round"></path><path d="M265.29,235.15s3.25-6.08,4.38-7.21" style="fill:none;stroke:#263238;stroke-linecap:round;stroke-linejoin:round"></path><path d="M266.28,237s4.66-7.91,5.51-8.33" style="fill:none;stroke:#263238;stroke-linecap:round;stroke-linejoin:round"></path><path d="M267.69,237.55s5.09-8.06,6.22-8.62" style="fill:none;stroke:#263238;stroke-linecap:round;stroke-linejoin:round"></path><path d="M305.66,200.91a82.92,82.92,0,0,0,8,5.48c3-5.1,7.59-13.25,7.59-13.25L322,176.7s-6.87,3.49-8.06,5.54C313.12,183.63,308.51,194.27,305.66,200.91Z" style="fill:#7E57C2;stroke:#263238;stroke-linecap:round;stroke-linejoin:round"></path><path d="M344.77,299s10.9,37.83,14.31,46.34,3.75,22.15,3.41,26.24-3.58,10.74-4.6,13.29,3.06,2.56,5.28,1,8.69-3.92,10.22-9,0-11.25.34-13.64,3.07-2.38.34-6.47-6.81-7.84-7.32-10-3.07-12.1-1.71-21.81-2.21-20.45-3.06-23.51a14,14,0,0,0-1.37-3.75S349.54,300,344.77,299Z" style="fill:#fff;stroke:#263238;stroke-linecap:round;stroke-linejoin:round"></path><path d="M374.07,356.71c-.88-1.32-1.9-2.6-2.89-3.81v4c0,3.58-.34,13.29-3.07,16.36-2,2.25-4.82,1.65-6.19,1.18a95.53,95.53,0,0,1-4,10.4c-1,2.56,3.06,2.56,5.28,1s8.69-3.92,10.22-9,0-11.25.34-13.64S376.8,360.8,374.07,356.71Z" style="fill:#7E57C2;stroke:#263238;stroke-linecap:round;stroke-linejoin:round"></path><path d="M321.25,294.52s-2.38,29-4.25,39.87-4.09,21.47-5.8,23.85-9.88,8.86-11.41,10.06,0,2.72,1,3.23,7.16,1.2,11.59-2.55,5.11-6,6.81-6.65,3.07-.85,3.58-4.94-2.39-6.13-.85-10.39a125,125,0,0,1,6-14.31c3.41-7.16,6.82-14.66,6.82-20.11S334,301.34,334,300a30.44,30.44,0,0,1,.69-4.43l-13.47-2Z" style="fill:#fff;stroke:#263238;stroke-linecap:round;stroke-linejoin:round"></path><path d="M322.34,353.42a9,9,0,0,0-1,1.65c-1.16,2.54-6.93,9.46-9.93,9.23a17.23,17.23,0,0,1-5-1.4c-2.74,2.36-5.74,4.72-6.6,5.4-1.54,1.19,0,2.72,1,3.23s7.16,1.2,11.59-2.55,5.11-6,6.81-6.65,3.07-.85,3.58-4.94A9.32,9.32,0,0,0,322.34,353.42Z" style="fill:#7E57C2;stroke:#263238;stroke-linecap:round;stroke-linejoin:round"></path><path d="M329.26,173.38s-4.63,2.17-6.67,3-3.23,5.86-2.38,8.93-.32,14.12.87,18.38,8.86,8.86,10.57,10.73a14.21,14.21,0,0,1,2.55,4.77l-10.39,18.06c-3.92,6.82-20.62,44.64-20.62,44.64s4.78,12.44,30.16,17.72,52.14-3.58,55.89-6a58.49,58.49,0,0,0,8-6.65s-10.91-26.75-18.75-41.57-19.42-29-19.42-29l-.68-11.93s-2-17.21-3.58-20.62-9.54-7.66-13.8-8.69S332.67,173.21,329.26,173.38Z" style="fill:#263238;stroke:#263238;stroke-linecap:round;stroke-linejoin:round"></path><path d="M325.6,198.62s7.73,2.58,13.75,2.15" style="fill:none;stroke:#fff;stroke-linecap:round;stroke-linejoin:round;stroke-width:0.75px"></path><path d="M336.77,221S326,247.59,323.45,255.33" style="fill:none;stroke:#fff;stroke-linecap:round;stroke-linejoin:round;stroke-width:0.75px"></path><line x1="340.2" y1="223.11" x2="337.63" y2="237.28" style="fill:none;stroke:#fff;stroke-linecap:round;stroke-linejoin:round;stroke-width:0.75px"></line><path d="M354,224.4s3.87,25.34,4.73,35.22" style="fill:none;stroke:#fff;stroke-linecap:round;stroke-linejoin:round;stroke-width:0.75px"></path><line x1="356.53" y1="225.25" x2="366.41" y2="246.73" style="fill:none;stroke:#fff;stroke-linecap:round;stroke-linejoin:round;stroke-width:0.75px"></line><path d="M341,175.25c-4.26-1-8.35-2-11.76-1.87,0,0-2.54,1.19-5.09,2.35a27.77,27.77,0,0,0-1,4.81c-.51,3.91,1.36,10.05,1.36,10.05l15.85,2.21s.51-4.6,1.53-9.54a19,19,0,0,1,2.67-6.78A23.05,23.05,0,0,0,341,175.25Z" style="fill:#7E57C2;stroke:#263238;stroke-linecap:round;stroke-linejoin:round"></path><path d="M354.14,207.63a4.87,4.87,0,0,0,4.42-.29l-.16-2.78s-2-17.21-3.58-20.62c-.91-2-4.12-4.35-7.47-6.12a43,43,0,0,0-2.24,13.45C345.11,199.28,348.86,205.24,354.14,207.63Z" style="fill:#7E57C2;stroke:#263238;stroke-linecap:round;stroke-linejoin:round"></path><path d="M327.22,173a44.54,44.54,0,0,0-2.05,11.41c0,5.12,1.2,4.43,2.9,3.58a22,22,0,0,0,4.26-3.58s4.09,5.63,5.11,5,2.73-10.74,1.88-15-3.75-5.62-6.31-5.62S328.41,170.48,327.22,173Z" style="fill:#fff;stroke:#263238;stroke-linecap:round;stroke-linejoin:round"></path><path d="M324.66,172.36s3.07,4.77,3.58,6.81,2.9,6,4.09,5.28,2.73-8,2.73-11.24-2.73-9.88-2.73-9.88S325.68,172.53,324.66,172.36Z" style="fill:#fff;stroke:#263238;stroke-linecap:round;stroke-linejoin:round"></path><path d="M310.18,153.27s-1-3.23-2.56-.17,2.9,6.65,2.9,6.65Z" style="fill:#fff;stroke:#263238;stroke-linecap:round;stroke-linejoin:round"></path><path d="M337.1,151.57a4.79,4.79,0,0,0-2.22,1c-1,1.09-1.87,2-1.87,2a67.45,67.45,0,0,1-8.65-10.34c-2.4-3.8-6-4-10.09-3.5a9,9,0,0,0-3.92,4.81c-1.19,4.6-.17,14.31.17,16.52s8.52,12.78,13.12,12.1,9.54-11.76,9.54-11.76,6.82-2.55,7.5-5.11S339.49,151.23,337.1,151.57Z" style="fill:#fff;stroke:#263238;stroke-linecap:round;stroke-linejoin:round"></path><path d="M317.51,155s.85.51,0,1.7-2.9,2.73-2.05,3.41a5.16,5.16,0,0,0,2.22.85" style="fill:none;stroke:#263238;stroke-linecap:round;stroke-linejoin:round"></path><path d="M319,164s3.75,1.7,6.13-1.19" style="fill:none;stroke:#263238;stroke-linecap:round;stroke-linejoin:round"></path><path d="M322.69,154.68c0,1.13-.42,2-.94,2s-.94-.91-.94-2,.42-2.05.94-2.05S322.69,153.55,322.69,154.68Z" style="fill:#263238"></path><ellipse cx="314.54" cy="154.1" rx="0.94" ry="2.04" style="fill:#263238"></ellipse><path d="M320.91,150s2.22-2.22,4.77,1" style="fill:none;stroke:#263238;stroke-linecap:round;stroke-linejoin:round"></path><path d="M316.82,150s-2.38-3.07-4.08,0" style="fill:none;stroke:#263238;stroke-linecap:round;stroke-linejoin:round"></path><path d="M348.18,179s4.6-.51,6.64,2.22,15.24,22.55,15.24,22.55l-8.81,7.51-11.37-12.17" style="fill:#7E57C2;stroke:#263238;stroke-linecap:round;stroke-linejoin:round"></path><path d="M377,213.93c.19-1.14-3.39-5.73-6.91-10.16a12.31,12.31,0,0,0-8.81,7.51c2,2.7,3.62,5,3.62,5s-3.4,9.37-5.11,16.18c-1.19,4.77-5.29,11.19-7.65,14.63l0,0c-.77.89-2.16,2.33-3.16,2.55-1.46.33-1.79-.32-3.41,1.14s-4.07,3.74-5.21,4.55S341,256.86,342,257s3.58-2.12,3.58-2.12h1.79l-5.21,8.3s-.81,1.3.65,1.3,4.56-4.55,4.56-4.55h1.46s-3.74,5.2-3.74,5.85,1.14,1,1.79.65,4.23-5.2,4.23-5.2l-2.44,5.53s.32.81,1.46.48,3.42-5.36,3.42-5.36-1.14,4.23-.17,4.39,2.12-5.21,2.12-5.21l1.62-9.92,1.61-2.24c2.61-3.18,8.38-10.22,11.26-14.54C373.73,228.75,376.63,216,377,213.93Z" style="fill:#fff;stroke:#263238;stroke-linecap:round;stroke-linejoin:round"></path></g><g id="freepik--Lines--inject-150"><line x1="292.26" y1="248.32" x2="293.61" y2="249.83" style="fill:none;stroke:#263238;stroke-linecap:round;stroke-linejoin:round"></line><line x1="285.17" y1="240.34" x2="290.66" y2="246.51" style="fill:none;stroke:#263238;stroke-linecap:round;stroke-linejoin:round"></line><line x1="296.25" y1="228.73" x2="302.58" y2="229.79" style="fill:none;stroke:#263238;stroke-linecap:round;stroke-linejoin:round"></line><line x1="276.73" y1="210.8" x2="280.95" y2="202.89" style="fill:none;stroke:#263238;stroke-linecap:round;stroke-linejoin:round"></line><line x1="226.15" y1="233.7" x2="235.06" y2="232.43" style="fill:none;stroke:#263238;stroke-linecap:round;stroke-linejoin:round"></line><line x1="220.3" y1="234.54" x2="222.55" y2="234.21" style="fill:none;stroke:#263238;stroke-linecap:round;stroke-linejoin:round"></line><line x1="261.62" y1="257.7" x2="260.91" y2="260.38" style="fill:none;stroke:#fff;stroke-linecap:round;stroke-linejoin:round"></line><line x1="265.13" y1="244.56" x2="262.54" y2="254.25" style="fill:none;stroke:#fff;stroke-linecap:round;stroke-linejoin:round"></line><line x1="245.09" y1="238.76" x2="232.43" y2="246.14" style="fill:none;stroke:#fff;stroke-linecap:round;stroke-linejoin:round"></line></g></svg>