<svg xmlns="http://www.w3.org/2000/svg" viewBox="0 0 500 500"><g id="freepik--City--inject-11"><g id="freepik--city--inject-11"><path d="M468.9,333.75H31.1v-202L64.56,112.4,89.78,127v48.8l11.37-6.56v-19L113.51,143V70.6l37.58-21.7,17,9.8V80.36l16-9.23,17,9.81v41.24l15.49,8.91v-39l17-9.8L254.62,94.5v47l19.6-11.32V54.06l25.22-14.57,29.35,16.94V118.2l12.36,7.14v25l15.49,8.94v-85l21.1-12.18L403,76.69V97l12.36,7.14V159L430.81,168V131.42L456,116.85l12.86,7.43Zm-436.8-1H467.9V124.86L456,118l-24.23,14v37.72l-17.48-10.09V104.73L402,97.59V77.27l-24.23-14-20.1,11.61V161l-17.49-10.09v-25l-12.36-7.14V57L299.44,40.65l-24.22,14v76.14l-21.6,12.47V95.08L233.51,83.47l-16,9.23v40.12L200,122.75V81.51l-16-9.23-17,9.81V59.28l-16-9.23L114.51,71.18v72.43l-12.37,7.14v19L88.78,177.5v-50l-24.22-14L32.1,132.3Z" style="fill:#e0e0e0"></path></g></g><g id="freepik--Floor--inject-11"><ellipse id="freepik--floor--inject-11" cx="250" cy="355.78" rx="227.89" ry="131.57" style="fill:#f5f5f5"></ellipse></g><g id="freepik--Gears--inject-11"><g id="freepik--gear-icons--inject-11"><path id="freepik--Gear--inject-11" d="M115.36,229.23l-3.92-2.81a1.75,1.75,0,0,1-.59-1.67,17.94,17.94,0,0,0,.34-2.61c0-.57.72-1.28,1.58-1.6l3.36-1.26c.87-.32,1.45-1,1.31-1.51L116,212.55c-.14-.51-1-.83-1.8-.7l-3.79.55a2.29,2.29,0,0,1-2.06-.59,17.16,17.16,0,0,0-1.77-2.25,1.77,1.77,0,0,1-.2-1.81l1.79-4a1.28,1.28,0,0,0-.46-1.64l-4.62-2.6a1.47,1.47,0,0,0-1.78.55l-2.46,3.25a2.25,2.25,0,0,1-2,.81,16.46,16.46,0,0,0-2.19-.3,2.17,2.17,0,0,1-1.77-.94L91,198.36c-.19-.49-1.06-.71-1.93-.48l-4.12,1.05c-.87.22-1.51.84-1.42,1.37l.77,4.77c.08.53-.51,1.31-1.25,1.81-.46.31-.9.64-1.33,1a2.38,2.38,0,0,1-2.19.57l-4.27-1.84a1.42,1.42,0,0,0-1.71.64l-2.44,4.12a1.31,1.31,0,0,0,.2,1.71l3.92,2.8a1.76,1.76,0,0,1,.59,1.68,16.64,16.64,0,0,0-.33,2.61c0,.57-.72,1.28-1.59,1.6L70.52,223c-.86.32-1.45,1-1.31,1.51l1.46,5.22c.14.51,1,.83,1.8.7l3.8-.55a2.28,2.28,0,0,1,2,.59,17.16,17.16,0,0,0,1.77,2.25,1.76,1.76,0,0,1,.2,1.8l-1.79,4a1.27,1.27,0,0,0,.46,1.63l4.62,2.61a1.47,1.47,0,0,0,1.78-.55L87.82,239a2.22,2.22,0,0,1,2.06-.81,17.85,17.85,0,0,0,2.18.3,2.16,2.16,0,0,1,1.78.93l1.83,4.55c.19.49,1.06.71,1.93.48l4.12-1c.87-.23,1.51-.84,1.42-1.37l-.77-4.77c-.08-.53.51-1.31,1.25-1.82a15.68,15.68,0,0,0,1.33-1,2.39,2.39,0,0,1,2.19-.57l4.27,1.84a1.43,1.43,0,0,0,1.71-.65l2.44-4.11A1.31,1.31,0,0,0,115.36,229.23Zm-13-3a10.59,10.59,0,0,1-14.28,3.66A10,10,0,0,1,84.25,216a10.58,10.58,0,0,1,14.28-3.66A10,10,0,0,1,102.4,226.27Z" style="fill:#f0f0f0"></path><path id="freepik--gear--inject-11" d="M71.85,240.47l-3.2,1.3a1.29,1.29,0,0,1-1.25-.29A12.91,12.91,0,0,0,66,240.27a1.67,1.67,0,0,1-.36-1.57l.53-2.52c.14-.65-.05-1.26-.41-1.37L62,233.69c-.36-.11-.86.26-1.12.82L59.74,237a1.62,1.62,0,0,1-1.14,1,11.77,11.77,0,0,0-2,.21,1.28,1.28,0,0,1-1.18-.57l-1.72-2.62a.93.93,0,0,0-1.17-.35l-3.36,1.81a1.06,1.06,0,0,0-.35,1.29l1,2.73a1.62,1.62,0,0,1-.3,1.56,14.82,14.82,0,0,0-1,1.21,1.58,1.58,0,0,1-1.25.72l-3.46-.64c-.37-.07-.83.38-1,1l-.94,2.9c-.2.61-.07,1.23.28,1.39L45.28,250c.35.15.6.81.62,1.45a11.91,11.91,0,0,0,.09,1.19,1.68,1.68,0,0,1-.5,1.54l-2.75,1.89a1,1,0,0,0-.27,1.28L44,260.44a1,1,0,0,0,1.11.54l3.21-1.3a1.25,1.25,0,0,1,1.24.28A12.74,12.74,0,0,0,51,261.17a1.64,1.64,0,0,1,.37,1.57l-.53,2.52c-.14.65,0,1.26.41,1.37L55,267.76c.36.11.86-.26,1.11-.83l1.12-2.51a1.65,1.65,0,0,1,1.15-1,11.77,11.77,0,0,0,2-.21,1.29,1.29,0,0,1,1.18.57l1.72,2.62a.93.93,0,0,0,1.17.35l3.36-1.8a1.07,1.07,0,0,0,.34-1.3l-1-2.73a1.59,1.59,0,0,1,.31-1.56,13,13,0,0,0,1-1.21,1.6,1.6,0,0,1,1.25-.72l3.46.64c.37.07.84-.37,1-1l.94-2.9c.2-.61.07-1.23-.28-1.39l-3.19-1.36c-.36-.15-.6-.81-.62-1.45a11.91,11.91,0,0,0-.09-1.19,1.68,1.68,0,0,1,.5-1.54l2.75-1.88a1,1,0,0,0,.26-1.29L73,241A.94.94,0,0,0,71.85,240.47Zm-6.76,6.71a7.61,7.61,0,0,1-3.27,10.07,7.22,7.22,0,0,1-9.91-3,7.61,7.61,0,0,1,3.27-10.07A7.22,7.22,0,0,1,65.09,247.18Z" style="fill:#f0f0f0"></path><path id="freepik--gear--inject-11" d="M64,206.35l-2.81,1.14a1.1,1.1,0,0,1-1.09-.25,10.65,10.65,0,0,0-1.27-1.06,1.44,1.44,0,0,1-.32-1.37L59,202.6c.12-.57,0-1.11-.36-1.2l-3.26-1c-.32-.09-.76.23-1,.73l-1,2.2a1.44,1.44,0,0,1-1,.89,10.74,10.74,0,0,0-1.78.18,1.12,1.12,0,0,1-1-.5L48,201.62a.81.81,0,0,0-1-.31l-2.94,1.58a.92.92,0,0,0-.31,1.13l.9,2.4a1.39,1.39,0,0,1-.26,1.36,11.1,11.1,0,0,0-.89,1.06,1.37,1.37,0,0,1-1.1.63l-3-.56c-.32-.06-.73.33-.9.87l-.83,2.54c-.17.54-.06,1.08.25,1.21l2.79,1.2c.31.13.53.71.54,1.27,0,.35,0,.69.08,1a1.48,1.48,0,0,1-.43,1.35L38.47,220a.92.92,0,0,0-.23,1.13l1.37,2.68a.83.83,0,0,0,1,.47l2.81-1.14a1.08,1.08,0,0,1,1.09.25,10.56,10.56,0,0,0,1.27,1,1.46,1.46,0,0,1,.32,1.38l-.47,2.21c-.11.57,0,1.1.37,1.2l3.26,1c.32.1.76-.22,1-.72l1-2.2a1.44,1.44,0,0,1,1-.89,10.75,10.75,0,0,0,1.79-.18,1.1,1.1,0,0,1,1,.5l1.51,2.29a.8.8,0,0,0,1,.3l2.94-1.58a.93.93,0,0,0,.31-1.13l-.9-2.39a1.38,1.38,0,0,1,.26-1.36,11.22,11.22,0,0,0,.89-1.07,1.38,1.38,0,0,1,1.1-.62l3,.55c.32.06.73-.33.9-.86l.83-2.54c.17-.54.06-1.08-.25-1.22l-2.79-1.19a1.53,1.53,0,0,1-.55-1.28c0-.34,0-.69-.07-1a1.51,1.51,0,0,1,.43-1.36l2.41-1.64a.91.91,0,0,0,.24-1.13L65,206.82A.81.81,0,0,0,64,206.35Zm-5.93,5.88a6.66,6.66,0,0,1-2.86,8.82,6.31,6.31,0,0,1-8.68-2.62,6.65,6.65,0,0,1,2.86-8.81A6.32,6.32,0,0,1,58.05,212.23Z" style="fill:#f0f0f0"></path></g><g id="freepik--gear-icons--inject-11"><path id="freepik--gear--inject-11" d="M372.2,229.17l3.13,4.27a1.59,1.59,0,0,0,2,.53l4.51-2.48a2.64,2.64,0,0,1,2.47.38c.51.34,1,.66,1.57.95.87.47,1.61,1.27,1.57,1.87l-.33,5.34c0,.59.73,1.2,1.71,1.35l4.65.72c1,.15,1.92-.18,2.08-.74l1.53-5.21a2.43,2.43,0,0,1,1.86-1.22,19.86,19.86,0,0,0,2.37-.56,2.47,2.47,0,0,1,2.36.67l3.05,3.32a1.64,1.64,0,0,0,2,.42l4.82-3.38a1.41,1.41,0,0,0,.33-1.85l-2.41-4.19a2,2,0,0,1,0-2,19.36,19.36,0,0,0,1.71-2.66,2.51,2.51,0,0,1,2.2-.87l4.24.2c1,0,1.81-.39,1.92-1l1-5.91c.1-.58-.62-1.26-1.6-1.53l-3.84-1a2.56,2.56,0,0,1-1.92-1.6,18.68,18.68,0,0,0-.65-2.83,2,2,0,0,1,.47-1.92l4-3.5a1.46,1.46,0,0,0,0-1.91L416,198.54a1.57,1.57,0,0,0-2-.53l-4.51,2.49a2.64,2.64,0,0,1-2.47-.39c-.51-.34-1-.65-1.57-.94-.87-.48-1.61-1.28-1.57-1.87l.33-5.34c0-.6-.73-1.2-1.71-1.35l-4.65-.72c-1-.16-1.92.17-2.08.73l-1.53,5.21a2.4,2.4,0,0,1-1.86,1.22,22.18,22.18,0,0,0-2.38.56,2.48,2.48,0,0,1-2.35-.66l-3.05-3.32a1.63,1.63,0,0,0-2-.42l-4.82,3.37a1.41,1.41,0,0,0-.33,1.85l2.41,4.2a2,2,0,0,1,0,2,19.73,19.73,0,0,0-1.7,2.67,2.55,2.55,0,0,1-2.21.87l-4.23-.2c-1,0-1.82.39-1.92,1l-1,5.92c-.1.58.61,1.26,1.6,1.52l3.84,1a2.55,2.55,0,0,1,1.92,1.59,18.81,18.81,0,0,0,.65,2.84,2,2,0,0,1-.47,1.91l-4,3.51A1.46,1.46,0,0,0,372.2,229.17ZM389,206.88a11.72,11.72,0,0,1,16.14,2.5,11.12,11.12,0,0,1-2.77,15.73,11.74,11.74,0,0,1-16.14-2.5A11.12,11.12,0,0,1,389,206.88Z" style="fill:#f0f0f0"></path><path id="freepik--gear--inject-11" d="M418.86,240.54l-.47,3.77a1.13,1.13,0,0,0,.76,1.24l3.57.93a1.88,1.88,0,0,1,1.1,1.42c.1.43.22.85.36,1.27a1.87,1.87,0,0,1-.11,1.74l-2.8,2.62c-.31.29-.21,1,.23,1.55l2.07,2.67c.44.56,1.08.85,1.45.64l3.36-2a1.75,1.75,0,0,1,1.57.27,13.37,13.37,0,0,0,1.52.88,1.79,1.79,0,0,1,.89,1.51l0,3.24a1.16,1.16,0,0,0,.85,1.21l4.17.61a1,1,0,0,0,1.09-.8l.81-3.37a1.4,1.4,0,0,1,1-1,13.62,13.62,0,0,0,2.2-.55A1.84,1.84,0,0,1,444,259l2.11,2.2c.48.49,1.14.69,1.47.43l3.46-2.57c.34-.25.3-1-.08-1.58l-1.5-2.43a1.84,1.84,0,0,1-.22-1.77,12.49,12.49,0,0,0,1.06-1.8,1.4,1.4,0,0,1,1.19-.77l3.83.15a1,1,0,0,0,1-1l.47-3.78a1.14,1.14,0,0,0-.76-1.24l-3.58-.92a1.89,1.89,0,0,1-1.1-1.42,11.38,11.38,0,0,0-.35-1.27,1.93,1.93,0,0,1,.1-1.75l2.81-2.61c.31-.3.21-1-.23-1.56l-2.07-2.66c-.44-.57-1.09-.85-1.45-.64l-3.36,2a1.72,1.72,0,0,1-1.57-.28,16.25,16.25,0,0,0-1.52-.88,1.77,1.77,0,0,1-.9-1.5l0-3.24a1.16,1.16,0,0,0-.84-1.21l-4.18-.62a1,1,0,0,0-1.08.81l-.81,3.37a1.44,1.44,0,0,1-1,1,13.71,13.71,0,0,0-2.21.54,1.76,1.76,0,0,1-1.57-.63L429,229.23c-.47-.49-1.13-.69-1.47-.44l-3.46,2.57c-.33.25-.3,1,.09,1.59l1.5,2.42a1.85,1.85,0,0,1,.21,1.78,14.65,14.65,0,0,0-1.06,1.8,1.38,1.38,0,0,1-1.19.76l-3.82-.15A1,1,0,0,0,418.86,240.54Zm19.73-3.36a8.41,8.41,0,0,1,7.18,9.25,8,8,0,0,1-9.19,6.84,8.42,8.42,0,0,1-7.19-9.25A8,8,0,0,1,438.59,237.18Z" style="fill:#f0f0f0"></path><path id="freepik--gear--inject-11" d="M424.93,192.91l-1.5,3.83a1.22,1.22,0,0,0,.47,1.5l3.5,1.93a2.07,2.07,0,0,1,.78,1.79,11.22,11.22,0,0,0,0,1.42,2.07,2.07,0,0,1-.58,1.81l-3.64,2c-.41.23-.49,1-.18,1.69l1.46,3.35c.31.71.92,1.19,1.35,1.06l4.06-1.16a1.88,1.88,0,0,1,1.57.71,14.26,14.26,0,0,0,1.36,1.33,1.92,1.92,0,0,1,.54,1.82l-.91,3.39a1.27,1.27,0,0,0,.56,1.5l4.22,1.76a1.11,1.11,0,0,0,1.35-.55l1.76-3.33a1.51,1.51,0,0,1,1.33-.82,14.45,14.45,0,0,0,2.46,0,1.93,1.93,0,0,1,1.49,1.08l1.63,2.86c.36.65,1,1,1.43.86l4.31-1.77c.42-.18.57-.93.33-1.69l-.92-2.94a2,2,0,0,1,.25-1.93,14.13,14.13,0,0,0,1.59-1.6,1.52,1.52,0,0,1,1.46-.49l4,1.18a1.13,1.13,0,0,0,1.27-.77l1.5-3.83a1.22,1.22,0,0,0-.47-1.5l-3.5-1.93a2,2,0,0,1-.78-1.78,11.34,11.34,0,0,0,0-1.43c-.05-.77.17-1.58.58-1.8l3.64-2c.41-.23.48-1,.17-1.69l-1.45-3.35c-.31-.71-.92-1.19-1.35-1.06L456,193.53a1.88,1.88,0,0,1-1.57-.71,15.54,15.54,0,0,0-1.36-1.33,1.92,1.92,0,0,1-.54-1.82l.91-3.39a1.27,1.27,0,0,0-.56-1.5L448.64,183a1.1,1.1,0,0,0-1.35.56l-1.76,3.32a1.51,1.51,0,0,1-1.33.82,14.44,14.44,0,0,0-2.46,0,2,2,0,0,1-1.49-1.09l-1.63-2.86c-.37-.65-1-1-1.43-.86l-4.31,1.78c-.42.17-.57.92-.34,1.68l.93,2.95a2,2,0,0,1-.25,1.92,14.13,14.13,0,0,0-1.59,1.6,1.52,1.52,0,0,1-1.46.49l-4-1.18A1.13,1.13,0,0,0,424.93,192.91Zm21.6,1.74a9.12,9.12,0,0,1,5.07,11.63A8.64,8.64,0,0,1,440.12,211a9.12,9.12,0,0,1-5.06-11.63A8.63,8.63,0,0,1,446.53,194.65Z" style="fill:#f0f0f0"></path></g></g><g id="freepik--Puzzle--inject-11"><g id="freepik--puzzle-pieces--inject-11"><path d="M300.64,386.55c-19.95,12.65-36.57,22.76-45.2,23.06-6.83.22-9.71-3.86-10.15-7.4a8.72,8.72,0,0,0-4.6-6.67c-6.58-3.81-20-2.31-29.79,3.38s-12.43,13.38-5.85,17.19c1.88,1.07,5.39,2.43,11.56,2.64s13.17,1.94,12.85,5.85c-.6,6.56-15.43,14.81-41,27.95-5-2.91-9.63-5.66-13.68-8.14-15.11-9.14-25.06-15.15-34.7-14.64-8.27.44-12.92,5.42-14.42,9.55a12.38,12.38,0,0,1-5.58,6.34c-6.66,3.87-18.33,3.4-26-1.06s-8.49-11.18-1.83-15c1.88-1.09,5.31-2.53,11-3.21,7.15-.87,15.78-3.56,16.54-8.32,1-5.66-11.56-12.6-28.9-22.21-4.29-2.36-8.76-4.81-13.3-7.45l6.72-4c22.91-13.55,31.35-19.4,41.47-19.67,6.77-.22,9.68,3.86,10.12,7.4a8.73,8.73,0,0,0,4.57,6.66c6.61,3.81,20,2.32,29.82-3.37s12.44-13.39,5.83-17.2c-1.88-1.09-5.37-2.42-11.54-2.66s-13.17-1.94-12.82-5.85c.57-6.86,15-15.18,38.23-27.2l5,2.91c21.06,12.22,33.82,19.59,45.22,19,8.24-.43,12.92-5.41,14.42-9.55a12.3,12.3,0,0,1,5.55-6.34c6.67-3.86,18.37-3.37,26,1.06s8.51,11.19,1.85,15c-1.88,1.09-5.31,2.53-11,3.18-7.13.88-15.73,3.6-16.54,8.33-1,6.29,12.54,14.5,31.88,25.69Z" style="opacity:0.2"></path><path d="M382.1,341.87c-.38,4.76,7.65,6.78,14.64,7,5.55.25,8.65,1.42,10.29,2.34,5.79,3.35,3.26,10.23-5.64,15.35s-20.76,6.58-26.55,3.23a7.69,7.69,0,0,1-4-5.93c-.46-4.05-3.92-8.68-12.19-8.46-9.5.27-21.39,8.76-39.32,19.73-5.11,3.15-10.91,6.69-17.09,10.34L297.94,383c-20.21-11.64-36.16-20.84-35.18-27,.65-3.95,8.19-6.21,14.42-7s10.18-2.39,12.33-3.65c7.62-4.38,6.91-12-1.61-16.86s-21.63-5.34-29.25-1a14,14,0,0,0-6.31,7.13c-1.28,3.62-5.22,7.95-12.05,8.33-10.43.57-22.94-6.67-43.62-18.64l-4.44-2.59c6.45-3.29,12.66-6.34,18.18-9,18.91-9.25,31.4-15.37,31.86-20.81.38-4.77-7.64-6.78-14.64-7.05-5.55-.22-8.65-1.39-10.28-2.31-5.8-3.35-3.27-10.24,5.6-15.35s20.79-6.59,26.59-3.24a7.73,7.73,0,0,1,4,5.93c.47,4,3.95,8.68,12.19,8.47,9.26-.28,15.05-4.44,31.54-15.76,5.39-3.7,11-7.51,17-11.48,4.55,2.64,9,5.09,13.31,7.45,16.3,9,29.17,16.17,28.32,21.25-.62,3.92-8.16,6.21-14.39,7s-10.23,2.39-12.35,3.62c-7.65,4.41-6.91,12,1.6,16.92s21.66,5.34,29.31.93a14,14,0,0,0,6.28-7.13,13.31,13.31,0,0,1,12.08-8.33c8.6-.46,18.34,5.42,33,14.32,4.11,2.5,8.77,5.3,13.85,8.24-4.76,2.45-9.38,4.76-13.68,6.94C390.48,333,382.59,336,382.1,341.87Z" style="opacity:0.2"></path><path d="M242.28,264.08c.38-4.76-7.65-6.77-14.64-7.05-5.55-.21-8.65-1.38-10.29-2.31a5.46,5.46,0,0,1-3.11-4.79v24.84h0a5.48,5.48,0,0,0,3.1,4.79,13.35,13.35,0,0,0,2,.92C233.19,273.61,241.89,268.61,242.28,264.08Z" style="fill:#37474f"></path><path d="M240.29,315.15V340c6.83-.38,10.78-4.71,12.05-8.33V306.83C251.07,310.45,247.12,314.77,240.29,315.15Z" style="fill:#455a64"></path><path d="M196.67,296.52l-4.43-2.59v24.85l4.43,2.59c20.68,12,33.2,19.21,43.62,18.64V315.15C229.87,315.73,217.35,308.49,196.67,296.52Z" style="fill:#263238"></path><path d="M287.91,300.65c-8.49-4.92-21.63-5.33-29.25-.95a14.05,14.05,0,0,0-6.32,7.13v24.85a14.05,14.05,0,0,1,6.32-7.13c4.13-2.37,9.89-3.33,15.65-2.93,1-.19,1.94-.34,2.87-.45,6.32-.76,10.18-2.4,12.33-3.65C297.13,313.14,296.42,305.55,287.91,300.65Z" style="fill:#37474f"></path><path d="M329.2,262.59c2.13-1.23,6.05-2.86,12.36-3.62s13.77-3.05,14.39-7a2,2,0,0,0,.05-.48v24.89h0a2.13,2.13,0,0,1,0,.44c-.53,3.35-6.09,5.49-11.58,6.54a31.86,31.86,0,0,1-13.55-3.88C322.3,274.58,321.57,267,329.2,262.59Z" style="fill:#37474f"></path><path d="M297.94,355.1c-19.63-11.31-35.24-20.32-35.21-26.43h0v24.86h0c0,6.12,15.6,15.12,35.21,26.42l4.28,2.48V357.57Z" style="fill:#263238"></path><path d="M401.4,338.66c-8.87,5.15-20.76,6.59-26.56,3.24l-.4,24.62.4.23c5.8,3.35,17.69,1.91,26.56-3.23,5.68-3.27,8.75-7.26,8.73-10.59h0V328.28C410.05,331.57,407,335.46,401.4,338.66Z" style="fill:#455a64"></path><path d="M370.81,336c-.46-4.06-3.91-8.68-12.19-8.46v24.85c8.28-.22,11.73,4.41,12.19,8.46a7.66,7.66,0,0,0,3.63,5.7l.4-24.62A7.69,7.69,0,0,1,370.81,336Z" style="fill:#37474f"></path><path d="M319.31,347.23c-5.13,3.16-10.91,6.7-17.09,10.34v24.86c6.18-3.65,12-7.19,17.09-10.34,17.93-11,29.82-19.46,39.31-19.73V327.51C349.13,327.78,337.24,336.27,319.31,347.23Z" style="fill:#455a64"></path><path d="M425.37,287.54v24.85c-4.76,2.45-9.39,4.76-13.69,6.94-2.28,1.14-4.4,2.2-6.39,3.18a27,27,0,0,0-8.54-1.53c-7-.25-15-2.26-14.64-7,.49-5.85,8.38-8.85,29.57-19.49C416,292.3,420.61,290,425.37,287.54Z" style="fill:#455a64"></path><path d="M382.1,314c-.38,4.76,7.65,6.77,14.64,7,5.55.24,8.65,1.41,10.29,2.34,5.79,3.35,3.26,10.23-5.64,15.35s-20.76,6.58-26.55,3.23a7.69,7.69,0,0,1-4-5.93c-.46-4.05-3.92-8.68-12.19-8.46-9.5.27-21.39,8.76-39.32,19.73-5.11,3.15-10.91,6.69-17.09,10.34l-4.27-2.48c-20.21-11.65-36.16-20.84-35.18-27,.65-3.95,8.19-6.21,14.42-7s10.18-2.39,12.33-3.65c7.62-4.38,6.91-12-1.61-16.87s-21.63-5.33-29.25-.95a14,14,0,0,0-6.31,7.13c-1.28,3.62-5.22,7.95-12.05,8.33-10.43.57-22.94-6.67-43.62-18.64l-4.44-2.59c6.45-3.29,12.66-6.34,18.18-9,18.91-9.25,31.4-15.37,31.86-20.82.38-4.76-7.64-6.77-14.64-7-5.55-.22-8.65-1.39-10.28-2.32-5.8-3.34-3.27-10.23,5.6-15.34s20.79-6.59,26.59-3.24a7.73,7.73,0,0,1,4,5.93c.47,4,3.95,8.68,12.19,8.46,9.26-.27,15.05-4.43,31.54-15.75,5.39-3.7,11-7.51,17-11.48,4.55,2.64,9,5.09,13.31,7.45,16.3,9,29.17,16.17,28.32,21.25-.62,3.92-8.16,6.21-14.39,7s-10.23,2.39-12.35,3.62c-7.65,4.41-6.91,12,1.6,16.92s21.66,5.34,29.31.93a14,14,0,0,0,6.28-7.13A13.31,13.31,0,0,1,378.48,265c8.6-.46,18.34,5.42,33,14.31,4.11,2.51,8.77,5.31,13.85,8.25-4.76,2.45-9.38,4.76-13.68,6.94C390.48,305.12,382.59,308.11,382.1,314Z" style="fill:#455a64"></path><path d="M314.39,225.65c4,2.28,7.84,4.42,11.61,6.49l.7.38c8.23,4.57,15.33,8.5,20.4,12,6.53,4.51,7,6.51,6.88,7.18-.34,2.14-5.91,4.47-12.66,5.29s-10.82,2.56-13.11,3.88c-4.06,2.33-6.29,5.65-6.29,9.33,0,4.12,2.87,8.15,7.89,11.05a35.18,35.18,0,0,0,17.11,4.25,29,29,0,0,0,14.2-3.32,15.91,15.91,0,0,0,7.16-8.18c1.1-3,4.47-6.68,10.31-7,.28,0,.56,0,.85,0,7.84,0,17.57,5.89,31,14,2.9,1.77,6.58,4,10.72,6.43l-6.51,3.29-3.9,2c-3,1.49-5.66,2.82-8.12,4-16,7.94-22,10.91-22.55,17.07a5.86,5.86,0,0,0,1.55,4.46c3.48,3.91,11.66,4.6,15,4.72,5.12.22,7.93,1.25,9.38,2.07a3.53,3.53,0,0,1,2.11,3.07c0,2.65-3,6.11-7.75,8.82a36,36,0,0,1-17.23,4.77,14.91,14.91,0,0,1-7.34-1.55,5.61,5.61,0,0,1-3-4.41c-.54-4.73-4.43-10.25-13.63-10.25h-.61c-8.51.24-18.41,6.42-32.12,15-2.61,1.62-5.31,3.3-8.19,5.06-6,3.72-11.16,6.83-16.05,9.73l-3.26-1.89c-9.79-5.64-19-11-25.38-15.46-8.08-5.71-9-8.38-8.83-9.45.37-2.18,5.82-4.46,12.69-5.3,6.66-.81,10.8-2.57,13.09-3.9,4.05-2.33,6.28-5.64,6.28-9.32,0-4.12-2.88-8.14-7.88-11a35.13,35.13,0,0,0-17.12-4.25,28.89,28.89,0,0,0-14.14,3.3,16.1,16.1,0,0,0-7.2,8.19c-1.06,3-4.4,6.67-10.27,7l-1.05,0c-9.68,0-21.64-6.93-41.45-18.4l-1.27-.74c5.34-2.69,10.45-5.2,14.88-7.35,20.21-9.89,32.42-15.86,33-22.46a5.9,5.9,0,0,0-1.55-4.45c-3.46-3.9-11.65-4.62-15-4.75-5.11-.2-7.92-1.23-9.36-2a3.53,3.53,0,0,1-2.12-3.07c0-2.65,3-6.1,7.72-8.81a36.16,36.16,0,0,1,17.26-4.77,15,15,0,0,1,7.34,1.54,5.67,5.67,0,0,1,3,4.42c.54,4.72,4.43,10.24,13.62,10.24h.61c9.57-.28,15.46-4.32,31.2-15.13l1.41-1c4.24-2.91,9.82-6.72,16-10.78m-.07-2.35c-6,4-11.64,7.78-17,11.48C280.8,246.1,275,250.26,265.75,250.53h-.55c-7.85,0-11.18-4.53-11.64-8.47a7.73,7.73,0,0,0-4-5.93,17,17,0,0,0-8.33-1.8,38.25,38.25,0,0,0-18.26,5c-8.87,5.11-11.4,12-5.6,15.34,1.63.93,4.73,2.1,10.28,2.32,7,.27,15,2.28,14.64,7-.46,5.45-13,11.57-31.86,20.82-5.52,2.69-11.73,5.74-18.18,9l4.44,2.59c19.92,11.53,32.26,18.67,42.46,18.67l1.16,0c6.83-.38,10.77-4.71,12.05-8.33a14,14,0,0,1,6.31-7.13,26.91,26.91,0,0,1,13.14-3,33,33,0,0,1,16.11,4c8.52,4.9,9.23,12.49,1.61,16.87-2.15,1.26-6,2.89-12.33,3.65s-13.77,3-14.42,7c-1,6.12,15,15.31,35.18,27l4.27,2.48c6.18-3.65,12-7.19,17.09-10.34,17.93-11,29.82-19.46,39.32-19.73h.56c7.87,0,11.18,4.51,11.63,8.47a7.69,7.69,0,0,0,4,5.93,16.92,16.92,0,0,0,8.32,1.81,38.16,38.16,0,0,0,18.23-5c8.9-5.12,11.43-12,5.64-15.35-1.64-.93-4.74-2.1-10.29-2.34-7-.25-15-2.26-14.64-7,.49-5.85,8.38-8.84,29.58-19.48,4.3-2.18,8.92-4.49,13.68-6.94-5.08-2.94-9.74-5.74-13.84-8.25C397.36,270.72,387.81,265,379.44,265l-1,0a13.31,13.31,0,0,0-12.08,8.33,14,14,0,0,1-6.28,7.13,27,27,0,0,1-13.2,3.05,33,33,0,0,1-16.11-4c-8.51-4.92-9.25-12.51-1.6-16.92,2.12-1.23,6-2.86,12.35-3.62s13.77-3.05,14.39-7c.85-5.08-12-12.21-28.32-21.25-4.3-2.36-8.76-4.81-13.31-7.45Z" style="fill:#37474f"></path><path d="M300.64,358.64c-19.95,12.65-36.57,22.76-45.2,23.06-6.83.22-9.71-3.86-10.15-7.4a8.7,8.7,0,0,0-4.6-6.67c-6.58-3.81-20-2.31-29.79,3.38s-12.43,13.38-5.85,17.19c1.88,1.06,5.39,2.42,11.56,2.64s13.17,1.93,12.85,5.85c-.6,6.56-15.43,14.8-41,27.95-5-2.91-9.63-5.66-13.68-8.14-15.11-9.14-25.06-15.15-34.7-14.64-8.27.44-12.92,5.42-14.42,9.55a12.38,12.38,0,0,1-5.58,6.34c-6.66,3.87-18.33,3.4-26-1.06s-8.49-11.18-1.83-15c1.88-1.09,5.31-2.53,11-3.21,7.15-.87,15.78-3.56,16.54-8.32,1-5.66-11.56-12.6-28.9-22.21-4.29-2.36-8.76-4.81-13.3-7.45l6.72-4c22.91-13.55,31.35-19.4,41.47-19.68,6.77-.21,9.68,3.87,10.12,7.41a8.73,8.73,0,0,0,4.57,6.66c6.61,3.81,20,2.32,29.82-3.37s12.44-13.39,5.83-17.2c-1.88-1.09-5.37-2.42-11.54-2.66s-13.17-1.94-12.82-5.85c.57-6.86,15-15.18,38.23-27.2l5,2.91c21.06,12.22,33.82,19.59,45.22,19,8.24-.43,12.92-5.41,14.42-9.55a12.3,12.3,0,0,1,5.55-6.34c6.67-3.86,18.37-3.37,26,1.06s8.51,11.19,1.85,15.05c-1.88,1.09-5.31,2.53-11,3.18-7.13.87-15.73,3.6-16.54,8.33-1,6.29,12.54,14.5,31.88,25.69Z" style="fill:#fafafa"></path><path d="M189.87,296.87l4.08,2.36c20.72,12,33.22,19.27,44.87,19.27.49,0,1,0,1.46,0,9.23-.49,14.49-6.16,16.2-10.87a10.31,10.31,0,0,1,4.67-5.29A21,21,0,0,1,271.48,300a28.11,28.11,0,0,1,13.71,3.41c3.4,2,5.35,4.42,5.36,6.75S288.64,314,287,315s-4.9,2.32-10.26,2.93c-4,.48-17,2.63-18.28,10-1.25,7.6,11.67,15.49,32.87,27.74l5.4,3.11c-18.16,11.47-33.65,20.71-41.39,21h-.46c-5.12,0-7.31-2.92-7.64-5.64a10.68,10.68,0,0,0-5.58-8.17A21.67,21.67,0,0,0,231,363.53a44.17,44.17,0,0,0-21.11,5.74c-6.66,3.84-10.48,8.7-10.48,13.34,0,3,1.64,5.6,4.65,7.33s7.27,2.72,12.46,2.9c5,.2,9.28,1.34,10.6,2.83a1.08,1.08,0,0,1,.34.84c-.51,5.59-17.13,14.62-39,25.85-4.26-2.47-8.52-5-12.71-7.57-14.88-9-24.71-15-34.57-15-.42,0-.84,0-1.26,0-9.23.48-14.49,6.15-16.19,10.85a10.44,10.44,0,0,1-4.71,5.3,21,21,0,0,1-10.34,2.35A28.12,28.12,0,0,1,95,415c-3.39-2-5.34-4.41-5.34-6.74s1.92-3.89,3.53-4.82,4.88-2.31,10.2-2.95c4-.49,17.1-2.64,18.27-10,1.19-7.06-10.51-13.54-29.9-24.29l-.69-.38c-3.13-1.72-6.35-3.49-9.61-5.35l1.47-.88,2.3-1.37,7.91-4.7c16.65-9.94,24.25-14.47,32.6-14.7h.45c5.11,0,7.29,2.92,7.62,5.63a10.63,10.63,0,0,0,5.56,8.17A21.64,21.64,0,0,0,150.11,355a44,44,0,0,0,21.11-5.75c6.66-3.84,10.48-8.69,10.48-13.33,0-3-1.66-5.6-4.65-7.33s-7.19-2.72-12.47-2.93c-5-.18-9.24-1.31-10.57-2.82a1,1,0,0,1-.32-.87c.5-6,17.28-15.29,36.18-25.08m0-2.28c-23.24,12-37.66,20.34-38.23,27.2-.35,3.91,6.67,5.63,12.82,5.85s9.66,1.57,11.53,2.66c6.62,3.81,4,11.54-5.82,17.2A42,42,0,0,1,150.11,353a19.75,19.75,0,0,1-9.71-2.11,8.73,8.73,0,0,1-4.57-6.66c-.43-3.45-3.2-7.41-9.61-7.41h-.51c-10.12.28-18.56,6.13-41.47,19.68l-6.72,4c4.54,2.64,9,5.09,13.3,7.45,17.34,9.61,29.85,16.55,28.9,22.21-.76,4.76-9.39,7.45-16.54,8.32-5.66.68-9.09,2.12-11,3.21-6.66,3.84-5.87,10.59,1.83,15a30,30,0,0,0,14.69,3.68,23,23,0,0,0,11.34-2.62,12.38,12.38,0,0,0,5.58-6.34c1.5-4.13,6.15-9.11,14.42-9.55.39,0,.77,0,1.16,0,9.28,0,19,5.89,33.54,14.67,4,2.48,8.65,5.23,13.68,8.14,25.58-13.15,40.41-21.39,41-27.95.32-3.92-6.7-5.6-12.85-5.85s-9.68-1.58-11.56-2.64c-6.58-3.81-4-11.53,5.85-17.19a41.85,41.85,0,0,1,20.1-5.48,19.75,19.75,0,0,1,9.69,2.1,8.7,8.7,0,0,1,4.6,6.67c.43,3.45,3.17,7.41,9.63,7.41h.52c8.63-.3,25.25-10.41,45.2-23.06l-8.28-4.76c-19.34-11.19-32.92-19.4-31.88-25.69.81-4.73,9.41-7.46,16.54-8.33,5.71-.65,9.14-2.09,11-3.18,6.66-3.86,5.85-10.61-1.85-15.05A30.28,30.28,0,0,0,271.48,298a23.05,23.05,0,0,0-11.33,2.61,12.3,12.3,0,0,0-5.55,6.34c-1.5,4.14-6.18,9.12-14.42,9.55-.45,0-.9,0-1.36,0-11.06,0-23.63-7.27-43.86-19l-5-2.91Z" style="fill:#7E57C2"></path><path d="M90.83,392.78c-4.3-2.36-8.77-4.81-13.31-7.45V360.48c4.54,2.64,9,5.08,13.31,7.45,17.33,9.61,29.84,16.54,28.89,22.2-.76,4.77-9.39,7.46-16.54,8.33-.62.07-1.21.16-1.77.25C98.17,396.85,94.61,394.88,90.83,392.78Z" style="fill:#7E57C2"></path><path d="M90.83,392.78c-4.3-2.36-8.77-4.81-13.31-7.45V360.48c4.54,2.64,9,5.08,13.31,7.45,17.33,9.61,29.84,16.54,28.89,22.2-.76,4.77-9.39,7.46-16.54,8.33-.62.07-1.21.16-1.77.25C98.17,396.85,94.61,394.88,90.83,392.78Z" style="opacity:0.2"></path><path d="M159,351.87c-4.17-.82-7.57-2.48-7.32-5.23h0V322.06c0,3.72,6.83,5.37,12.83,5.57,6.18.25,9.66,1.58,11.54,2.67,6.61,3.81,4,11.54-5.83,17.2a41.76,41.76,0,0,1-11.16,4.38Z" style="fill:#7E57C2"></path><path d="M159,351.87c-4.17-.82-7.57-2.48-7.32-5.23h0V322.06c0,3.72,6.83,5.37,12.83,5.57,6.18.25,9.66,1.58,11.54,2.67,6.61,3.81,4,11.54-5.83,17.2a41.76,41.76,0,0,1-11.16,4.38Z" style="opacity:0.1"></path><path d="M94,416.69c-4.21-2.42-6.35-5.53-6.34-8.48h0V433h0c0,3,2.1,6.08,6.33,8.51,7.7,4.47,19.37,4.93,26,1.07V417.75C113.41,421.62,101.74,421.15,94,416.69Z" style="fill:#7E57C2"></path><path d="M94,416.69c-4.21-2.42-6.35-5.53-6.34-8.48h0V433h0c0,3,2.1,6.08,6.33,8.51,7.7,4.47,19.37,4.93,26,1.07V417.75C113.41,421.62,101.74,421.15,94,416.69Z" style="opacity:0.1"></path><path d="M120.08,417.75v24.86a12.46,12.46,0,0,0,5.57-6.34V411.41A12.41,12.41,0,0,1,120.08,417.75Z" style="fill:#7E57C2"></path><path d="M120.08,417.75v24.86a12.46,12.46,0,0,0,5.57-6.34V411.41A12.41,12.41,0,0,1,120.08,417.75Z" style="fill:#7E57C2"></path><path d="M174.77,416.5c-15.1-9.14-25.06-15.16-34.7-14.64-8.27.44-12.92,5.42-14.42,9.55v24.86c1.5-4.14,6.15-9.12,14.42-9.56,9.64-.51,19.6,5.5,34.7,14.64,4,2.48,8.65,5.23,13.68,8.14V424.64C183.42,421.72,178.82,419,174.77,416.5Z" style="fill:#7E57C2"></path><path d="M174.77,416.5c-15.1-9.14-25.06-15.16-34.7-14.64-8.27.44-12.92,5.42-14.42,9.55v24.86c1.5-4.14,6.15-9.12,14.42-9.56,9.64-.51,19.6,5.5,34.7,14.64,4,2.48,8.65,5.23,13.68,8.14V424.64C183.42,421.72,178.82,419,174.77,416.5Z" style="opacity:0.2"></path><path d="M188.45,424.64v24.85c25.58-13.14,40.41-21.39,41-27.95V396.69C228.86,403.25,214,411.49,188.45,424.64Z" style="fill:#7E57C2"></path><path d="M260.48,328.19c.82-4.74,9.42-7.46,16.54-8.33,5.72-.65,9.15-2.09,11-3.18,3-1.76,4.51-4.1,4.51-6.56v24.77h0c0,2.48-1.43,4.87-4.49,6.64-1.87,1.09-5.3,2.53-11,3.18h0C266.28,338,259.75,332.62,260.48,328.19Z" style="fill:#7E57C2"></path><path d="M260.48,328.19c.82-4.74,9.42-7.46,16.54-8.33,5.72-.65,9.15-2.09,11-3.18,3-1.76,4.51-4.1,4.51-6.56v24.77h0c0,2.48-1.43,4.87-4.49,6.64-1.87,1.09-5.3,2.53-11,3.18h0C266.28,338,259.75,332.62,260.48,328.19Z" style="opacity:0.2"></path><path d="M240.7,367.63c-6.59-3.81-20-2.31-29.8,3.38s-12.43,13.38-5.85,17.19c1.88,1.06,5.39,2.42,11.56,2.64a36.29,36.29,0,0,1,5.53.63c7.16-1.68,14.29-1.45,18.56,1a8.69,8.69,0,0,1,4.59,6.66V374.3A8.69,8.69,0,0,0,240.7,367.63Z" style="fill:#7E57C2"></path><path d="M240.7,367.63c-6.59-3.81-20-2.31-29.8,3.38s-12.43,13.38-5.85,17.19c1.88,1.06,5.39,2.42,11.56,2.64a36.29,36.29,0,0,1,5.53.63c7.16-1.68,14.29-1.45,18.56,1a8.69,8.69,0,0,1,4.59,6.66V374.3A8.69,8.69,0,0,0,240.7,367.63Z" style="opacity:0.2"></path><path d="M255.44,381.7v24.85c8.63-.3,25.25-10.41,45.2-23.06V358.63C280.69,371.29,264.07,381.4,255.44,381.7Z" style="fill:#7E57C2"></path><path d="M245.29,374.3v24.85c.44,3.54,3.32,7.62,10.15,7.4V381.7C248.61,381.92,245.73,377.84,245.29,374.3Z" style="fill:#7E57C2"></path><path d="M245.29,374.3v24.85c.44,3.54,3.32,7.62,10.15,7.4V381.7C248.61,381.92,245.73,377.84,245.29,374.3Z" style="opacity:0.1"></path><path d="M302.22,357.57v24.86l-1.58-.92V358.63l-8.27-4.76c-14.08-8.14-25.1-14.71-29.65-20.1v-5.1h0c0,6.11,15.58,15.12,35.21,26.43Z" style="fill:#263238"></path><path d="M411.68,294.48c4.3-2.18,8.92-4.49,13.68-6.94-5.08-2.94-9.74-5.74-13.85-8.25-14.69-8.89-24.43-14.77-33-14.31a13.31,13.31,0,0,0-12.08,8.33,14,14,0,0,1-6.28,7.13c-7.65,4.41-20.79,4-29.31-.93s-9.25-12.51-1.6-16.92c2.12-1.23,6-2.86,12.35-3.62s13.77-3.05,14.39-7c.85-5.08-12-12.21-28.32-21.25-4.3-2.36-8.76-4.81-13.31-7.45-6,4-11.64,7.78-17,11.48C280.8,246.1,275,250.26,265.75,250.53c-8.24.22-11.72-4.43-12.19-8.46a7.73,7.73,0,0,0-4-5.93c-5.8-3.35-17.69-1.9-26.59,3.24s-11.4,12-5.6,15.34c1.63.93,4.73,2.1,10.28,2.32,7,.27,15,2.28,14.64,7-.46,5.45-13,11.57-31.86,20.82-5.52,2.69-11.73,5.74-18.18,9l4.44,2.59c20.68,12,33.19,19.21,43.62,18.64,6.83-.38,10.77-4.71,12.05-8.33a14,14,0,0,1,6.31-7.13c7.62-4.38,20.76-4,29.25.95s9.23,12.49,1.61,16.87c-2.15,1.26-6,2.89-12.33,3.65s-13.77,3-14.42,7c-1,6.12,15,15.31,35.18,27l4.27,2.48c6.18-3.65,12-7.19,17.09-10.34,17.93-11,29.82-19.46,39.32-19.73,8.27-.22,11.73,4.41,12.19,8.46a7.69,7.69,0,0,0,4,5.93c5.79,3.35,17.68,1.91,26.55-3.23s11.43-12,5.64-15.35c-1.64-.93-4.74-2.1-10.29-2.34-7-.25-15-2.26-14.64-7C382.59,308.11,390.48,305.12,411.68,294.48Z" style="fill:#fafafa"></path><path d="M314.39,225.65c4,2.28,7.84,4.42,11.61,6.49l.7.38c8.23,4.57,15.33,8.5,20.4,12,6.53,4.51,7,6.51,6.88,7.18-.34,2.14-5.91,4.47-12.66,5.29s-10.82,2.56-13.11,3.88c-4.06,2.33-6.29,5.65-6.29,9.33,0,4.12,2.87,8.15,7.89,11.05a35.18,35.18,0,0,0,17.11,4.25,29,29,0,0,0,14.2-3.32,15.91,15.91,0,0,0,7.16-8.18c1.1-3,4.47-6.68,10.31-7,.28,0,.56,0,.85,0,7.84,0,17.57,5.89,31,14,2.9,1.77,6.58,4,10.72,6.43l-6.5,3.29-3.91,2c-3,1.49-5.66,2.82-8.12,4-16,7.94-22,10.91-22.55,17.07a5.86,5.86,0,0,0,1.55,4.46c3.48,3.91,11.66,4.6,15,4.72,5.12.22,7.93,1.25,9.38,2.07a3.53,3.53,0,0,1,2.11,3.07c0,2.65-3,6.11-7.75,8.82a36,36,0,0,1-17.23,4.77,14.91,14.91,0,0,1-7.34-1.55,5.61,5.61,0,0,1-3-4.41c-.54-4.73-4.43-10.25-13.62-10.25h-.62c-8.51.24-18.41,6.42-32.12,15-2.61,1.62-5.31,3.3-8.19,5.06-6,3.73-11.16,6.84-16.05,9.73l-3.26-1.89c-9.79-5.64-19-11-25.38-15.46-8.08-5.71-9-8.38-8.83-9.45.37-2.18,5.82-4.46,12.69-5.3,6.66-.81,10.8-2.57,13.09-3.9,4.05-2.33,6.28-5.64,6.28-9.32,0-4.12-2.88-8.14-7.88-11a35.13,35.13,0,0,0-17.12-4.25,28.89,28.89,0,0,0-14.14,3.3,16.1,16.1,0,0,0-7.2,8.19c-1.06,3-4.4,6.67-10.27,7-.35,0-.7,0-1.06,0-9.67,0-21.63-6.93-41.44-18.4l-1.27-.73c5.34-2.7,10.45-5.21,14.88-7.36,20.21-9.89,32.42-15.86,33-22.46a5.9,5.9,0,0,0-1.55-4.45c-3.46-3.89-11.65-4.62-15-4.75-5.11-.2-7.92-1.23-9.36-2a3.53,3.53,0,0,1-2.12-3.07c0-2.65,3-6.1,7.72-8.81a36.16,36.16,0,0,1,17.26-4.77,15,15,0,0,1,7.34,1.54,5.67,5.67,0,0,1,3,4.42c.54,4.72,4.43,10.24,13.62,10.24h.61c9.57-.28,15.46-4.32,31.2-15.13l1.41-1c4.24-2.91,9.82-6.72,16-10.78m-.07-2.35c-6,4-11.64,7.78-17,11.48C280.8,246.1,275,250.26,265.75,250.53h-.55c-7.85,0-11.18-4.53-11.64-8.47a7.73,7.73,0,0,0-4-5.93,17,17,0,0,0-8.33-1.8,38.25,38.25,0,0,0-18.26,5c-8.87,5.11-11.4,12-5.6,15.34,1.63.93,4.73,2.1,10.28,2.32,7,.27,15,2.28,14.64,7-.46,5.45-13,11.57-31.86,20.82-5.52,2.69-11.73,5.74-18.18,9l4.44,2.59c19.92,11.53,32.26,18.67,42.45,18.67.4,0,.78,0,1.17,0,6.83-.38,10.77-4.71,12.05-8.33a14,14,0,0,1,6.31-7.13,26.91,26.91,0,0,1,13.14-3,33,33,0,0,1,16.11,4c8.52,4.9,9.23,12.49,1.61,16.87-2.15,1.26-6,2.89-12.33,3.65s-13.77,3-14.42,7c-1,6.12,15,15.31,35.18,27l4.27,2.48c6.18-3.65,12-7.19,17.09-10.34,17.93-11,29.82-19.46,39.32-19.73h.56c7.87,0,11.18,4.51,11.63,8.47a7.69,7.69,0,0,0,4,5.93,16.92,16.92,0,0,0,8.32,1.81,38.16,38.16,0,0,0,18.23-5c8.9-5.12,11.43-12,5.64-15.35-1.64-.93-4.74-2.1-10.29-2.34-7-.25-15-2.26-14.64-7,.49-5.85,8.38-8.84,29.58-19.48,4.3-2.18,8.92-4.49,13.68-6.94-5.08-2.94-9.74-5.74-13.85-8.25C397.36,270.73,387.8,265,379.44,265l-1,0a13.31,13.31,0,0,0-12.08,8.33,14,14,0,0,1-6.28,7.13,27,27,0,0,1-13.2,3.05,33,33,0,0,1-16.11-4c-8.51-4.92-9.25-12.51-1.6-16.92,2.12-1.23,6-2.86,12.35-3.62s13.77-3.05,14.39-7c.85-5.08-12-12.21-28.32-21.25-4.3-2.36-8.76-4.81-13.31-7.45Z" style="fill:#455a64"></path></g></g><g id="freepik--Shadows--inject-11"><path id="freepik--Shadow--inject-11" d="M179.33,369.53c9-4.25,17.84-9,27.13-12.43,7.6-2.83,15.58-4.84,22.62-8.87a20.55,20.55,0,0,0,6.77-5.71,9.92,9.92,0,0,0,1.66-8.46c-1.13-3.63-4.4-4.83-7.86-5-8.53-.35-17,1.86-24.87,5.24s-15.15,7.89-22.42,12.38a87.88,87.88,0,0,1-21.72,10.05c-8.09,2.42-16.44,4.41-23.87,8.56A11.65,11.65,0,0,0,132,369.5c-2.34,4.23,1.58,8.61,5.63,9.49a38.83,38.83,0,0,0,14.77-.06C161.83,377.3,170.64,373.64,179.33,369.53Z" style="opacity:0.15"></path><path id="freepik--shadow--inject-11" d="M332.28,276.55c-2.1-2.54-5.71-3.65-9.47-3.1s-7.22,2.48-10.56,4.37c-5.53,3.14-11.06,6.27-16.31,9.88-2.7,1.87-6,3.65-8.22,6.12-1.47,1.66-3,3.5-3.24,5.71-.45,3.84,2.83,6,6.07,6.81a20.33,20.33,0,0,0,8,.18c6.72-1,13-3.94,18.86-7.21,5.51-3.06,11.2-6.08,14.73-11.53a10.72,10.72,0,0,0,2-5.78A8.47,8.47,0,0,0,332.28,276.55Z" style="opacity:0.15"></path></g></svg>
