<svg xmlns="http://www.w3.org/2000/svg" viewBox="0 0 500 500"><g id="freepik--character-2--inject-4"><g id="freepik--character--inject-4"><g id="freepik--bottom--inject-4"><path d="M199.39,346.23c1.28-13.62.29-20.38,1.88-41.66h0c.22-5.46.54-11.3,1-16.5,1.6-17.46,4.43-23.38,4.75-26.75,0,0,1-27.2,3-65.44.92-18,6.25-23.33,10.62-32.79l49.54,1c5,23.7,5.52,75.14,4.83,99.44-.34,12.39-5.71,74.21-5.84,75.73-.47,5.4-.05,7.55,2,9.87,4.33,4.85,10.67,9.52,16.14,13.79-.85,2.11-8.51,2.89-11.78,1.2A83.34,83.34,0,0,1,263.4,356c-4.5-3.48-10.28-6.31-10.25-11.46a6.5,6.5,0,0,0-.13-.93c0-3-6.16-44.14-6.52-54.44-.32-8.85,1.08-23.84,1.08-23.84l-4.91-37.59s-4,22.07-7.87,37.12c-3.16,12.24-8.39,33.14-12,48.22h0c-3.5,17.38-7.7,26.41-8.68,35.12-.29,2.08-3.68,22.46-4.75,27.13s-11.3,4.57-11.78-3.5C197.29,366.48,199.15,348.8,199.39,346.23Z" style="fill:#ffbda7"></path><path d="M242.67,227.77l4.75-26.94s16.17-1.57,22.15-7.08c0,0-7.62,10.28-18.6,11.75l-5.07,22.31L247.54,265Z" style="fill:#9a4a4d"></path><path d="M295.74,369.61c.28,0,.68,3.13-.87,4.43-1.79,1.52-7,4-13.9,3s-10.57-3.13-13.3-5.46-6.55-5.63-9.66-6.35c-2.88-.66-6-2-6.92-2.91s-.75-4.87-.75-4.87Z" style="fill:#263238"></path><path d="M252.9,342.19s-.52,0-.7.92c-.23,1.1-.49,4.28-1,6.07a31.93,31.93,0,0,0-.78,9.64c.36,2,5,3.51,8,4.69a37.93,37.93,0,0,1,9.69,6.26c3.21,2.7,10,5.45,14.46,5.56,6.85.17,11.3-1.64,12.7-4.08,1.72-3,1.39-5.8-6.44-9.53-1.48-.7-6.68-3.86-8.45-5a40,40,0,0,1-5.31-4,28.38,28.38,0,0,1-2.38-2.4,10.76,10.76,0,0,1-2-2.56c-.09-.21-.15-.46-.23-.67a12,12,0,0,1-.49-1.85c-.12-.66-.19-1.61-.81-2a5.26,5.26,0,0,0-2.81-.36,32.89,32.89,0,0,0-4.26.79,4,4,0,0,0-3,2,5.78,5.78,0,0,0-.67,2.84c0,.46,0,.92,0,1.38,0,.2.07.55-.2.47s-.55-.77-.64-1c-.22-.52-.35-1.07-.58-1.58a8.62,8.62,0,0,0-1-1.67,7.51,7.51,0,0,0-1.24-1.28,14,14,0,0,1-1.33-.89A3.13,3.13,0,0,1,252.9,342.19Z" style="fill:#37474f"></path><path d="M290.18,362.33c-9.92.58-14.08,7.66-14.54,11.45a23.59,23.59,0,0,0,7,1.55c6.85.17,11.58-1.63,13-4.08C297.26,368.4,297.18,365.08,290.18,362.33Z" style="fill:#fff"></path><path d="M274.35,363.27a.45.45,0,0,1-.31-.11.49.49,0,0,1-.06-.68c1.4-1.68,6.38-4.86,10-4.43a.48.48,0,1,1-.11,1c-3.36-.39-8,2.76-9.11,4.09A.48.48,0,0,1,274.35,363.27Z" style="fill:#f0f0f0"></path><path d="M270.11,360.74a.51.51,0,0,1-.31-.11.49.49,0,0,1-.06-.68c1.4-1.68,6.38-4.87,10-4.44a.5.5,0,0,1,.43.54.48.48,0,0,1-.54.43c-3.36-.4-8,2.76-9.11,4.09A.52.52,0,0,1,270.11,360.74Z" style="fill:#f0f0f0"></path><path d="M266.18,357.86a.5.5,0,0,1-.3-.11.49.49,0,0,1-.06-.69c1.4-1.67,6.39-4.86,10-4.43a.48.48,0,0,1-.11,1c-3.36-.39-8,2.77-9.12,4.1A.5.5,0,0,1,266.18,357.86Z" style="fill:#f0f0f0"></path><path d="M262.34,355a.49.49,0,0,1-.37-.79c1.92-2.38,7.2-4.9,10.8-4.47a.48.48,0,0,1,.42.53.49.49,0,0,1-.54.43c-3.23-.39-8.22,2-9.93,4.12A.49.49,0,0,1,262.34,355Z" style="fill:#f0f0f0"></path><path d="M213.07,378.32c-.39,4.93-1.22,8.19-3,11.05s-5.14,3.7-8.47,2.78-7.56-3.28-8.43-7.56-1.37-7.21-.51-11.77Z" style="fill:#263238"></path><path d="M199.73,342.14c-1.39.07-1.9,6.83-2.83,13.45-1,7.1-3.19,10-4.08,15.81-1,6.65,0,9.65,2.28,13.73s10.43,8.21,14.63,2.52c3.42-4.63,3.67-9.85,3.51-16.51a148.06,148.06,0,0,1,.8-16.86c.38-5,2.18-10.54,1-11.12-.21,1.11-.43,2-.54,2.72a14.75,14.75,0,0,1-.88,2.86c-.15.37-.47.75-.58.14a4.3,4.3,0,0,1,0-1.24c.24-1.83-.68-2-1.18-2.16a60.91,60.91,0,0,0-6.38-1c-1.05-.09-4.68-.33-5.17.26a4,4,0,0,0-.5,1.92c-.14,1-.39,1.73-.41,1.41a26.46,26.46,0,0,1,.08-2.65c0-.43.1-1.36.12-1.79S199.69,342.56,199.73,342.14Z" style="fill:#37474f"></path><path d="M192.36,375.26a16.61,16.61,0,0,0,2.36,10.18c2.25,4.08,11.1,8.24,15.3,2.55,2.08-2.83,2.7-6.21,3-9.67C210.73,373.82,196.29,371.55,192.36,375.26Z" style="fill:#fff"></path><path d="M210.22,371l-.17-.05c-.06,0-6.38-2.81-12.62-1.5a.52.52,0,0,1-.61-.4.51.51,0,0,1,.4-.6c6.6-1.38,13.05,1.46,13.29,1.58a.53.53,0,0,1,.23.69A.52.52,0,0,1,210.22,371Z" style="fill:#f0f0f0"></path><path d="M197.84,364.5a.51.51,0,0,1-.09-1c6.23-2,13,1.33,13.28,1.47a.51.51,0,1,1-.5.9c-.06,0-6.68-3.22-12.47-1.39A.57.57,0,0,1,197.84,364.5Z" style="fill:#f0f0f0"></path><path d="M198.16,359.82a.52.52,0,0,1-.43-.35.5.5,0,0,1,.33-.64c6.85-2.3,13.29,1.28,13.53,1.43a.52.52,0,0,1,.16.71.51.51,0,0,1-.71.15s-6.28-3.45-12.66-1.32A.55.55,0,0,1,198.16,359.82Z" style="fill:#f0f0f0"></path><path d="M198.59,355.21a.51.51,0,0,1-.42-.33.53.53,0,0,1,.32-.66c6.42-2.25,13.36,1.42,13.62,1.58a.52.52,0,0,1,.17.71.51.51,0,0,1-.7.17c-.06,0-6.79-3.58-12.76-1.49A.44.44,0,0,1,198.59,355.21Z" style="fill:#ebebeb"></path><path d="M217.2,163c-6.09,10.58-9.44,19.27-10.71,51.08s-1.68,41.58-1.88,45.42-4,9.48-4.84,27.34c-1,22-.17,39.38-.17,39.38s2.14,3.26,9.35,4.06c6.66.74,10.78-1.68,10.78-1.68s9.57-33.27,12.34-44.6,10.44-48.62,10.44-48.62l3.71,30.45s-2.26,10.39-.57,27,4.21,29.87,4.21,29.87a31.47,31.47,0,0,0,11,2.35,22.69,22.69,0,0,0,10.06-2.34s5.62-45.67,6-64.46,0-66.71-3.64-94.62Z" style="fill:#37474f"></path><path d="M249.23,199.38l-6.72,36,3.71,30.45L245,235,251,205.5c4.56-1,15-6.2,18-13.9C261.81,198.75,249.23,199.38,249.23,199.38ZM228.5,177.81c.87-3,1.78-6,2.79-9a44.79,44.79,0,0,0-4.26,8.54,81.4,81.4,0,0,0-2.91,9.09c-.79,3.08-1.45,6.19-1.93,9.33a62.67,62.67,0,0,0-.83,9.49c.83-3.07,1.6-6.13,2.37-9.18s1.52-6.11,2.32-9.14S227.66,180.83,228.5,177.81Zm-4.5-2.37c1.06-1.83,2.13-3.67,3.11-5.61a35.14,35.14,0,0,0-4.4,4.73,47.4,47.4,0,0,0-3.61,5.36,42.18,42.18,0,0,0-2.78,5.84,25.62,25.62,0,0,0-1.59,6.28l3-5.63c1-1.84,2-3.68,3.09-5.5S223,177.28,224,175.44ZM217.66,296q-3,14.63-5.52,29.32,3.71-14.46,7.05-29c2.25-9.69,4.38-19.36,6.5-29.11s3.42-19.65,4.59-29.53,2.12-19.78,2.93-29.69c-1.58,9.82-3,19.66-4.47,29.49s-3,19.63-5,29.32S219.6,286.25,217.66,296Zm52.43-48.33c.11,4.31.27,8.65.11,12.91s-.54,8.61-.85,12.92l-.92,12.95q-.94,12.94-1.59,25.93,1.8-12.87,3.14-25.8c.9-8.62,1.74-17.21,2.22-25.93.16-8.76-.4-17.38-1-26s-1.47-17.28-2.63-25.87l1.07,25.95C269.8,239,270,243.35,270.09,247.67Z" style="fill:#263238"></path></g><g id="freepik--arm--inject-4"><path d="M331.16,125.38a7.72,7.72,0,0,1-.55-2.65,3.05,3.05,0,0,0-.21-1.19,5.08,5.08,0,0,1-.39-1.47,6.62,6.62,0,0,0-.32-1.71c-.4-1-1.27-1-2.09-1.68a4.13,4.13,0,0,1-1.35-1.8c-.69-1.38-1.6-2.27-3.25-1.93a8.54,8.54,0,0,0-2.48,1.08l-2.93,1.67a5.64,5.64,0,0,1-1.63.72c-1.3.28-2.21-.16-3.48-.07a2.73,2.73,0,0,0-2.54,2.08c-.32,1.33.59,2.38,1.19,3.47a7.59,7.59,0,0,1,.87,1.76,19.33,19.33,0,0,1,.12,2.52c.1.95.21,1.9.32,2.85a2.51,2.51,0,0,1-.13,1.12,5.1,5.1,0,0,1-2,2.38c-1.16.92-11.14,8.45-11.14,8.45s-5.07-4.74-14.79-18.21c-7.88-10.93-12.85-17.84-22.24-18.25l3.42,30.54s8.27,9.21,21.37,24.71c4.73,5.6,8.5,8.55,14.39,5.14a34.51,34.51,0,0,0,9.62-8.44c6-8.28,7-9.77,11.15-15.84,3-4.31,4.94-6.14,7.39-9.41,1.15-1.54,2.23-3.4,1.82-5.28C331.25,125.75,331.21,125.56,331.16,125.38Z" style="fill:#ffbda7"></path><path d="M317.55,126.84a1.61,1.61,0,0,0-.67.65c-.19.25-.36.5-.52.76a5.54,5.54,0,0,0-.69,1.53,3.58,3.58,0,0,0-.06,1.69,6.09,6.09,0,0,0,.31.94,6.46,6.46,0,0,1,.28,1s.06.06.07,0a4.49,4.49,0,0,0-.1-1.63,4.29,4.29,0,0,1,0-1.82,5.79,5.79,0,0,1,.72-1.58c.15-.22.31-.45.47-.66s.42-.47.36-.77C317.73,126.91,317.64,126.81,317.55,126.84Z" style="fill:#f0997a"></path><path d="M299.17,141c-5.81,4.59-8.41,9.88-9.05,12.69.12-5.6,1.1-9.89,7.57-14.74Z" style="fill:#f0997a"></path></g><g id="freepik--top--inject-4"><path d="M261.62,104.05c6.64.69,9.15,2,13.82,6.58s15.91,21.06,15.91,21.06.92,5.73-5.63,11.46c-3.47,3-10.57,3.73-10.57,3.73L265,135.29Z" style="fill:#e6e6e6"></path><path id="freepik--chest--inject-4" d="M210.67,177.71c2.39-9.87,4.46-17.43,4.49-19.62.1-9.51-2.13-22.06-2.84-27.59-1.54-12.06,1.94-23.36,4.79-25.67l13.9-3.35s16.17.34,18.81.67c1.3.16,11.79,1.89,11.8,1.9s3.8,4.94,8.19,11.85c7.13,11.23,7.71,16.49,5.56,26.38-2.95,13.57-.27,27-.49,37.4C266.15,189.25,232.6,194.12,210.67,177.71Z" style="fill:#455a64"></path><path d="M256.93,57.15c.06.29,1.69,1.18,2,1.46a9.3,9.3,0,0,1,1.52,1.79,12.87,12.87,0,0,1,1.69,4.76,84.69,84.69,0,0,1,.6,8.57,54.89,54.89,0,0,0,1.48,8.2,28.3,28.3,0,0,1,1,7.25,9.44,9.44,0,0,1-2.71,6.61,15.88,15.88,0,0,0,0-7.32,14.53,14.53,0,0,1-.91,4.48,10.59,10.59,0,0,1-5,5,27.16,27.16,0,0,1-6.85,2.21,48.92,48.92,0,0,1-11.69,1.14,70.13,70.13,0,0,1-7.24-.56,21,21,0,0,1-8.9-2.75c-2.62-1.72-4.59-4.73-4.27-7.84a9,9,0,0,0-1.24,5,10,10,0,0,1-2.39-7,17.17,17.17,0,0,1,2-7.2,33.37,33.37,0,0,0,2.08-4.3,6.13,6.13,0,0,0,.18-4.26c-.42-.89-1.12-1.71-1.57-2.62a16,16,0,0,1-1.83-8c.4-5.72,3.77-13.2,14.21-15.55C237.82,44.29,254.56,45.85,256.93,57.15Z" style="fill:#263238"></path><g id="freepik--head--inject-4"><path d="M252.26,86.59a6.54,6.54,0,0,0,5.83-2.32c3-3.41,3.24-6.81,1.76-9-1.23-1.84-4.18-3-6.2-1.67s-2.21,2.5-3,4-2.94.39-2.35-5.74C244,70,244.53,63,242.17,60.15c-3.69-4.4-9.59-3.11-11.5-2a7.83,7.83,0,0,0-8.08-.34c-2.83,1.56-4.67,4.76-5.45,15.65-.8,11.11,1.3,18.45,4,20.75,1.83,1.57,5.19,2.6,9.15,2.29l.09,5.51s5,11.91,19.46,9.47c7.13-1.21.7-9,.7-9L249.8,84.9S250.07,86.24,252.26,86.59Z" style="fill:#ffbda7"></path><path d="M230.24,96.48c5.72-.33,13.34-2.49,15.32-6.15-1.06,3.93-5.05,6-8.24,7a34.09,34.09,0,0,1-7,1.34Z" style="fill:#f0997a"></path><path d="M228.21,85.13a3.27,3.27,0,0,0,3.89,2.44,3.2,3.2,0,0,0,2.48-3.82Z" style="fill:#b16668"></path><path d="M234.62,84.79a3.2,3.2,0,0,1-2.52,2.78,3.24,3.24,0,0,1-1.16,0A3.32,3.32,0,0,1,234.62,84.79Z" style="fill:#f28f8f"></path><path d="M220.27,72.63c-.33,1,.35,1.29,1.29,1.6s1.78.51,2.11-.47a1.79,1.79,0,1,0-3.4-1.13Z" style="fill:#263238"></path><path d="M223.45,71.78a4.61,4.61,0,0,0-1.35-.47,3.61,3.61,0,0,0-1.39-.06,4.41,4.41,0,0,0-1.41.43s-.06.12,0,.11c.38-.05.71-.11,1.26-.14a6.84,6.84,0,0,1,1.56.17,6.94,6.94,0,0,1,1.77.64c.18.09.54.28.57.31s.1-.1.07-.14A3,3,0,0,0,223.45,71.78Z" style="fill:#263238"></path><path d="M238.35,72.9c.23,1-.48,1.24-1.44,1.47s-1.82.34-2-.66a1.81,1.81,0,0,1,1.32-2.22A1.84,1.84,0,0,1,238.35,72.9Z" style="fill:#263238"></path><path d="M235.26,71.75a4.43,4.43,0,0,1,1.39-.34,3.55,3.55,0,0,1,1.38.07,4.33,4.33,0,0,1,1.37.56s0,.12,0,.11a12.18,12.18,0,0,0-1.24-.25,6.35,6.35,0,0,0-1.57,0,6.61,6.61,0,0,0-1.82.47l-.6.25c-.06,0-.09-.11,0-.15A3.08,3.08,0,0,1,235.26,71.75Z" style="fill:#263238"></path><path d="M220.14,66.43,224.33,65a2.16,2.16,0,0,0-2.78-1.37A2.26,2.26,0,0,0,220.14,66.43Z" style="fill:#263238"></path><path d="M235.69,64.89,239.93,67A2.23,2.23,0,0,0,239,63.9,2.53,2.53,0,0,0,235.69,64.89Z" style="fill:#263238"></path><path d="M213.85,69.11a3,3,0,0,0,.69,1.68,1.3,1.3,0,0,1,.29.6,27.42,27.42,0,0,0,.83,4.54c.5,1.22,1.59,3.15,5,3.24a8.17,8.17,0,0,0,1.78-.13l.14,0a5.61,5.61,0,0,0,1.48-.53l.09,0,.12-.07.17-.1.15-.1.16-.12.16-.12.3-.26A7,7,0,0,0,226.48,76c.85-1.58.81-3.79,2.06-4l.15,0h.16c1.68,0,1.34,2.45,2.16,4.17s2.27,3.43,5.92,3.49h.47l.38,0a7.73,7.73,0,0,0,.89-.11l.28-.06.27-.07.17,0a5.2,5.2,0,0,0,1-.43l.35-.2a5.66,5.66,0,0,0,.6-.47,5.93,5.93,0,0,0,1.21-1.59,28.14,28.14,0,0,0,1.3-4.49,1.78,1.78,0,0,1,.32-.65,3.23,3.23,0,0,0,.93-1.62,1.31,1.31,0,0,0-.92-1.42l-.89-.12a29.59,29.59,0,0,0-8.89.05c-2.87.71-3.9,1.55-5.47,1.52s-2.36-.92-5-1.75c-2.09-.66-5.6-.66-8.3-.45l-.83.08A1.42,1.42,0,0,0,213.85,69.11Zm18.42,1.75a2.52,2.52,0,0,1,.85-.61l.15-.08.08,0,.41-.18.37-.14c.38-.13.8-.24,1.23-.34l.48-.1c.42-.08.84-.14,1.25-.18l.29,0c2.73-.19,4.38.42,5,.94s.16,2.88-.17,4.07l0,.09,0,.09c0,.14-.08.31-.14.48l-.11.3h0c-.06.16-.13.33-.21.5h0l-.09.17-.05.1-.07.11a.64.64,0,0,1-.08.14.86.86,0,0,1-.1.16l-.12.17-.13.17a4.68,4.68,0,0,1-3.9,1.65,5.12,5.12,0,0,1-3.91-1.45h0A4.91,4.91,0,0,1,232,74.47C231.79,73.13,231.7,71.58,232.27,70.86ZM216.4,69.53a2.68,2.68,0,0,1,.69-.39l0,0,.31-.11.18-.05.15,0,.1,0h0l.15,0a5.61,5.61,0,0,1,.63-.09,1.87,1.87,0,0,1,.34,0l.21,0h.15c.14,0,.29,0,.44,0h.3a11.77,11.77,0,0,1,1.25.11c1.91.28,3.88,1.12,4.35,1.87s.26,2.29-.08,3.61a6.22,6.22,0,0,1-.3.89l0,.07,0,.08a.33.33,0,0,1,0,.06,1.17,1.17,0,0,1,0,.11l-.12.22-.12.19,0,.06-.09.13-.08.11h0a4.62,4.62,0,0,1-4.14,1.7,4.75,4.75,0,0,1-2-.47c-1.86-.92-2.22-2.94-2.39-3.88C216,72.4,215.79,70,216.4,69.53Z" style="fill:#37474f"></path><path d="M223.08,79.66l6.24,2.5,1.16-7.84c-.25-1.16-.5-2.36-1.52-2.43Z" style="fill:#f0997a"></path><path d="M244,69.27l9.64,4.28a10.66,10.66,0,0,0-1.45,1.19l-8.39-3.53Z" style="fill:#37474f"></path></g></g><g id="freepik--Puzzle--inject-4"><path d="M311.34,94.78,288,108.23v11.3a19.16,19.16,0,0,1-1.36,6.8l-15-8.66-23.3,13.46v31l15,8.68c-1.49,3.55-3.88,6.67-6.57,8.23l-8.47,4.89V215l15.08,8.71,9.64-5.56a4.51,4.51,0,0,0,1.42,1.31c1.44.82,13.34,7.7,15.07,8.7,1.43.83,3.3.75,5.35-.43,4.52-2.61,8.18-9.6,8.18-15.62V200.81l23.3-13.46V103.49Z" style="fill:#263238"></path><path d="M263.46,192.63V223.7l23.31-13.46v11.3c0,6,3.66,8.79,8.17,6.18s8.18-9.6,8.18-15.62V200.81l23.3-13.46V103.49l-23.3,13.45v11.3c0,6-3.66,13-8.18,15.62s-8.17-.16-8.17-6.18v-11.3l-23.31,13.46v31l8.47-4.89c2.05-1.19,3.92-1.26,5.35-.43,1.73,1,2.83,3.32,2.83,6.61,0,6-3.67,13-8.18,15.62Z" style="fill:#fff"></path><path d="M325.18,105.64v81l-22.68,13.1-.62.36v12c0,5.62-3.39,12.14-7.56,14.55a5.34,5.34,0,0,1-2.62.81c-2.24,0-3.69-2.32-3.69-5.92V208.1l-1.86,1.07L264.7,221.55V193.34l7.85-4.53c4.93-2.85,8.8-10.18,8.8-16.69,0-3.62-1.26-6.42-3.44-7.69a5.48,5.48,0,0,0-2.73-.72,7.78,7.78,0,0,0-3.87,1.15l-6.61,3.82V140.55l20.83-12v9.15c0,5,2.48,8.4,6.17,8.4a7.77,7.77,0,0,0,3.86-1.15c4.93-2.84,8.8-10.18,8.8-16.69V117.66l20.82-12m1.24-2.15-23.3,13.45v11.3c0,6-3.66,13-8.18,15.62a6.6,6.6,0,0,1-3.24,1c-2.9,0-4.93-2.68-4.93-7.16v-11.3l-23.31,13.46v31l8.47-4.89a6.52,6.52,0,0,1,3.25-1,4,4,0,0,1,2.1.56c1.73,1,2.83,3.32,2.83,6.61,0,6-3.67,13-8.18,15.62l-8.47,4.89V223.7l23.31-13.46v11.3c0,4.48,2,7.16,4.93,7.16a6.49,6.49,0,0,0,3.24-1c4.52-2.61,8.18-9.6,8.18-15.62V200.81l23.3-13.46V103.49Z" style="fill:#455a64"></path></g><g id="freepik--arm--inject-4"><g id="freepik--arm--inject-4"><path d="M238.39,165.55c-16.1,5.38-28.36,10.78-41.81,10.92-10.8.12-9.72-8.32-8.32-15.25,1.76-8.75,8.8-33.12,12.35-42.12,3.81-9.63,5.45-11.42,16.8-13.71,5,11.14,3.58,25.65.48,32.13-2.92,7.34-6.7,17.55-6.7,17.55a143.12,143.12,0,0,0,20.51-2.19" style="fill:#ffbda7"></path><path d="M212.14,152.52l-.95,2.55c-7.39-.14-15.33,3.54-16.89,6.26C196,155.39,202.69,152.51,212.14,152.52Z" style="fill:#f0997a"></path><path d="M217.79,104.67c-7,1-12.92,2.1-16.09,10s-9,27.86-9,27.86,2.19,3.65,10.34,6S213.93,150,213.93,150s4.15-12.52,6.27-18.53S222,112,217.79,104.67Z" style="fill:#e6e6e6"></path><path d="M217.79,104.67c-7,1-12.92,2.1-16.09,10s-9,27.86-9,27.86,2.19,3.65,10.34,6S213.93,150,213.93,150s4.15-12.52,6.27-18.53S222,112,217.79,104.67Z" style="fill:#e6e6e6"></path><path d="M270.92,144.89c-1.23-1-3-2.62-3.76-3.16s-3.81-2.42-3.81-2.42a15.52,15.52,0,0,0,4.21,0c2.66-.39,3.15-2.26,2.55-3.19s-4-.35-6.93-1.47-4.4-2.24-5.78-1.6-6,2.79-8.09,3.09-3.14.49-3.81,2.56-4.36,7.19-6.38,9.8c-3.46,4.48-5.43,3.69-13.3,5.54l-1.1,15.74s13.43-4.35,16.14-4.93,4-1.12,6.42-5.09,3.17-5.38,3.17-5.38a3.18,3.18,0,0,0,1.94-.6,4.67,4.67,0,0,0,1.9,1.25,6.89,6.89,0,0,0-1.74,1.35c-1,1-.86,2.29-.13,2.49s1.83-.21,3.52-.48,1.95-1,2.16-1.81.59-2,.59-2,2-.84,2.33-2.2a18.64,18.64,0,0,0,.27-4.11c0-1.38-.28-2.67-1.13-3l-4.28-1.53c.28-.57.58-.7,1.92-.76s1.94-.35,2.58-.29c.83.07.76.31,2.18,1.17s3.18,1.79,3.18,1.79c1.69,1.24,3.72,1.54,4.81,1C271.83,146.17,271.58,145.42,270.92,144.89Zm-15.41,4.23c.39.06,1.47.38,2,.42a6.6,6.6,0,0,1,0,1.48c-.15.19-.3.33-.39.44a22.4,22.4,0,0,1-2.26-1.81C254.57,149.35,255.11,149.06,255.51,149.12Z" style="fill:#ffbda7"></path><path d="M267.56,139.35a3.18,3.18,0,0,0,2.59-1.57c-.77,1-3.09,1.34-4.67.93a30.06,30.06,0,0,1-4.42-1.91c-1.06-.47-3.1-.11-4.44.22s-3.76.85-5.33,1.26a17.38,17.38,0,0,0,4.19-.26c2.4-.32,4.22-.61,5-.37a16,16,0,0,1,2.89,1.66A15.43,15.43,0,0,0,267.56,139.35Z" style="fill:#f0997a"></path><path d="M257.56,143.06h0s-3.4-.45-4.12-1.31a4,4,0,0,0,2.43,2.06C256.14,143.28,256.43,143.13,257.56,143.06Z" style="fill:#f0997a"></path><path d="M255.51,149.12a5.9,5.9,0,0,1-2.75-2.93,4.5,4.5,0,0,0,2.11,3.46C254.57,149.35,255.11,149.06,255.51,149.12Z" style="fill:#f0997a"></path><path d="M253.45,154.09a1.56,1.56,0,0,1-.63-1.92,1.39,1.39,0,0,0-.43,1.65,4.67,4.67,0,0,0,1.9,1.25,5.28,5.28,0,0,1,2.26-.32C255.69,154.13,254.27,154.6,253.45,154.09Z" style="fill:#f0997a"></path><path d="M259.74,154a2.45,2.45,0,0,0-.42-1.48,4.54,4.54,0,0,0-1.94-1.37l-.25.28c1.39,1.28,1.92,1.42,1.56,3.17A6.15,6.15,0,0,0,259.74,154Z" style="fill:#f0997a"></path><path d="M250.74,139.85c0-.07-.08-.13-.17-.19a3.35,3.35,0,0,0-.55-.23,2.62,2.62,0,0,0-.4-.11,1.82,1.82,0,0,0-.57,0c-.65.08-1.08.86-1.33,1.4-.09.18-.13.42.14.24a5.42,5.42,0,0,1,1.17-.78c.15,0,.3,0,.45-.08a1.3,1.3,0,0,1,.33-.07,1.9,1.9,0,0,0,.25,0,1,1,0,0,0,.59-.1A.15.15,0,0,0,250.74,139.85Z" style="fill:#f0997a"></path><path d="M251.08,143.89c0-.06-.06-.13-.14-.2a2.67,2.67,0,0,0-.51-.31,1.88,1.88,0,0,0-.38-.18,1.78,1.78,0,0,0-.56-.1c-.65,0-1.2.68-1.53,1.18-.11.17-.19.39.1.26a5.7,5.7,0,0,1,1.28-.59c.15,0,.31,0,.46,0a1.22,1.22,0,0,1,.33,0l.25.07a1.22,1.22,0,0,0,.6,0C251,144,251.07,143.93,251.08,143.89Z" style="fill:#f0997a"></path><path d="M252.18,149.55c0-.06,0-.15-.09-.23a4.28,4.28,0,0,0-.45-.4,4.15,4.15,0,0,0-.34-.24,2,2,0,0,0-.53-.2c-.64-.14-1.31.45-1.72.88-.14.15-.26.36,0,.28a5.52,5.52,0,0,1,1.37-.35,2.34,2.34,0,0,1,.45.07,1.19,1.19,0,0,1,.33,0c.08,0,.14.08.23.11a1.09,1.09,0,0,0,.59.1C252.14,149.6,252.17,149.58,252.18,149.55Z" style="fill:#f0997a"></path></g></g><g id="freepik--Hand--inject-4"><path d="M326.36,112.69a22.4,22.4,0,0,0-5.12-.35,13.34,13.34,0,0,0-5.68,2.11c-1,1.09-2,2.18-3.21,3.59s.83,2.32,2.19,2c2.12-.52,4.95-3.06,6.29-3.12a47.19,47.19,0,0,1,7.14.7C328.86,117.87,330.94,114,326.36,112.69Z" style="fill:#ffbda7"></path><path d="M326.36,112.69a22.67,22.67,0,0,0-5.14-.31,13.91,13.91,0,0,0-4.81,1.7,7.81,7.81,0,0,0-1.8,1.74c-.57.64-1.12,1.29-1.67,2s-1.07,1.19-.2,1.7a2.48,2.48,0,0,0,2.21.09,43.22,43.22,0,0,0,4.49-2.45,4.07,4.07,0,0,1,2.64-.4c1.73.15,3.44.35,5.15.65.39,0,.83.33,1.17,0a2.47,2.47,0,0,0,.16-3.43,4.8,4.8,0,0,0-2.2-1.28Zm0,0c1.65.38,3.39,1.82,2.8,3.69-.17.56-.61,1.49-1.33,1.28a44.74,44.74,0,0,0-7-.48c-2.43.65-4.3,3.19-7,3.23-1.32,0-2.8-1.18-1.7-2.5.93-1.14,2.05-2.27,3.08-3.34a8.65,8.65,0,0,1,3.5-1.76,15.4,15.4,0,0,1,7.69-.12Z" style="fill:#f0997a"></path><path d="M329.69,118.36c-.47-1.68-1.95-2-4.65-2.14a25,25,0,0,0-5.32.07c-.67.22-5,2.83-5.58,3.23s-1.24,1.07-2.31,2-1.67,1.55-.6,2.32,3.85-.17,5.13-.84,4.21-2.14,5.3-2.1,4.16.62,4.16.62-4.44.94-6,1.47-2.58,5.39-2.58,5.39c-.46,1.89-.08,2.36.6,2.66a1.73,1.73,0,0,0,1.41-.14,1.26,1.26,0,0,0,.79,1.55,3.18,3.18,0,0,0,3.26-1.37c.83-1,1.93-2.63,1.93-2.63a18.56,18.56,0,0,1,2.88.21c1.34.24.93,1.92-.24,2.78" style="fill:#ffbda7"></path><path d="M312.79,121a32.25,32.25,0,0,1,7-4.54,33.84,33.84,0,0,1,6-.13c1.51,0,3.51.29,3.95,2-.38-1.77-2.42-2.09-3.94-2.19a29.52,29.52,0,0,0-6.09,0,32.78,32.78,0,0,0-7.23,4.49c-.66.69-2,1.25-2,2.43.42,1.81,2.79,1.36,4.08,1,2.64-.68,5-2.94,7.74-2.79.66.08,1.32.18,2,.28-.84.2-1.68.39-2.52.6-1,.3-2.38.44-2.91,1.45a15.72,15.72,0,0,0-1.81,5,2.67,2.67,0,0,0,.22,2.24,1.75,1.75,0,0,0,1.85.41,1.47,1.47,0,0,0,1.32,1.46c1.67.24,2.93-1.13,3.76-2.36q.63-.88,1.23-1.8a12.58,12.58,0,0,1,3.13.26,1,1,0,0,1,.39,1.34,2.72,2.72,0,0,1-.94,1.28c.8-.53,1.72-2.07.6-2.73a9.72,9.72,0,0,0-3.34-.33c-1.26,1.53-2.44,4.17-4.76,3.94a1.17,1.17,0,0,1-.79-.47,1.11,1.11,0,0,1-.12-.82,5.42,5.42,0,0,1,.69-1.79l.42-.77a1.19,1.19,0,0,0,.18-.33,8.89,8.89,0,0,1,1.67-2.42,37,37,0,0,1,5.86-2,15.33,15.33,0,0,0-6.2,1.4,3.46,3.46,0,0,0-1.08,1.32,15.39,15.39,0,0,0-.88,1.83c-.25.61-.44,1.25-.7,1.86-.07.16-.16.45-.32.55a1.26,1.26,0,0,1-.54.16,1.24,1.24,0,0,1-1.05-.36c-.33-.4-.2-1.16-.07-1.8a20.3,20.3,0,0,1,1.27-3.91,3.47,3.47,0,0,1,1.12-1.5c.48-.19,1.41-.41,1.95-.55,1.35-.34,2.71-.64,4.07-.93a.32.32,0,0,0,.25-.25.32.32,0,0,0-.26-.37c-1.61-.22-3.28-.8-4.9-.54-2.43.6-4.35,2.09-6.68,2.82-1,.25-2.32.7-3.15-.1S312.28,121.61,312.79,121Z" style="fill:#f0997a"></path></g></g></g><g id="freepik--character-1--inject-4"><g id="freepik--Chartacter--inject-4"><g id="freepik--arm--inject-4"><path d="M141.79,233.82a16.18,16.18,0,0,1,.83,4.35c.07,3.64-1.87,7-3.22,10.34a3.3,3.3,0,0,0,0,3.3.82.82,0,0,0,.64.43.92.92,0,0,0,.57-.37,21.41,21.41,0,0,0,2.89-4.17,22.49,22.49,0,0,1-.95,4.51,7.87,7.87,0,0,0-.67,3.58c.19,1.21,1.38,2.37,2.55,2A3.16,3.16,0,0,0,146,256l1.34-2.53a35.29,35.29,0,0,0,1.73-3.62A17.48,17.48,0,0,0,148.4,236a6.78,6.78,0,0,0-2.41-2.9,4.23,4.23,0,0,0-3.42-.4C141.84,232.88,141.57,233.08,141.79,233.82Z" style="fill:#9a4a4d"></path><path d="M152.72,242c.42-4.75,1.1-9.7,1-14.3-.05-1.67.41-6.07.84-14.27s1.44-15.5.78-28.21-6-24-8.74-34.76c-4-15.52-9-21.54-18.29-23.69l1.56,37.46s1.51,6.08,3.32,12.44a141.72,141.72,0,0,1,3,16.17c.57,3.72,4.64,25.89,4.64,25.9.09.82.14,1.32.14,1.32.26,3.68-.68,4.49-1.91,7.16a67.54,67.54,0,0,0-3.75,10.49c-.67,2.49-1.08,4.29-1.45,6.18-.3,1.53.77,2.2,2.41.82,1.94-1.62,2.08-3.35,3.09-5.13,1.26-2.21,3.51-5.92,4.41-4.89s1.43,4.46,2.47,6.66a9.66,9.66,0,0,1,.61,7.17c-.76,2.95-3,6.69-2.89,9.31s1.45,3.42,2.16,2.47,3.41-6.79,4.32-8.8A28.56,28.56,0,0,0,152.72,242Z" style="fill:#b16668"></path><path d="M127.78,125.67c11.05,2.69,13.59,7.37,15.92,13.41s7.55,24.67,7.55,24.67,1.17-.54,2.6,5.42.58,6.59.58,6.59a12.91,12.91,0,0,0-9.74,1.73,36.23,36.23,0,0,0-8.57,8.21s-.91-.73-2.8-4.66-14.13-32.23-14.13-32.23Z" style="fill:#7E57C2"></path><path d="M127.78,125.67c11.05,2.69,13.59,7.37,15.92,13.41s7.55,24.67,7.55,24.67,1.17-.54,2.6,5.42.58,6.59.58,6.59a12.91,12.91,0,0,0-9.74,1.73,36.23,36.23,0,0,0-8.57,8.21s-.91-.73-2.8-4.66-14.13-32.23-14.13-32.23Z" style="opacity:0.30000000000000004"></path><path d="M139.41,167.38a26.61,26.61,0,0,1,4.83-2c.82-.25,1.64-.45,2.48-.62a21.24,21.24,0,0,0,2.78-.48c.24-.09.11-.52-.11-.55a10.53,10.53,0,0,0-3,.25,25.87,25.87,0,0,0-2.9.65,23,23,0,0,0-5.34,2.26c-3,1.8-6,4.73-6.27,8.46,0,.16.16.38.26.14a16.74,16.74,0,0,1,3-4.92A15.55,15.55,0,0,1,139.41,167.38ZM150,168.91a8,8,0,0,0-2.54,0,20.9,20.9,0,0,0-2.48.37A20.65,20.65,0,0,0,140,171a15.23,15.23,0,0,0-4,2.75,9,9,0,0,0-1.55,2.12,10.84,10.84,0,0,0-1.05,2.51c0,.07.06.21.14.12a23,23,0,0,0,1.37-2.23,11.21,11.21,0,0,1,1.71-2.06,15.33,15.33,0,0,1,4.11-2.68,21.21,21.21,0,0,1,4.5-1.49c.78-.17,1.57-.31,2.36-.42a12.3,12.3,0,0,0,2.37-.32C150.11,169.21,150.1,168.94,150,168.91Z" style="opacity:0.1"></path></g><g id="freepik--bottom--inject-4"><path d="M118.88,364.26l-1.82-16.91,19.36,1.27s-.3,9.18-.57,14.38c-.16,3.07,4,8.77,4,8.77s-9.09,4.87-14,3.17-7.45-7.77-7.38-9.09S118.88,364.26,118.88,364.26Z" style="fill:#b16668"></path><path d="M165.49,390.67c.3,0,.81,3.13-.82,4.5-1.89,1.58-7.47,4.21-14.91,3.44s-11.5-2.85-14.51-5.13S128,388,124.66,387.36c-3.13-.59-6.54-1.86-7.56-2.74s-.94-4.9-.94-4.9Z" style="fill:#263238"></path><path d="M118.87,364.23a1.18,1.18,0,0,0-1.11.95c-.21,1.11-.4,4.33-.86,6.16-.64,2.53-1,7.71-.57,9.76s5.55,3.39,8.82,4.49a42,42,0,0,1,10.63,6c3.53,2.63,10.92,5.31,15.76,5.19,5.72-.13,12.14-2,13.58-4.49,1.78-3.1,3-6.7-5.5-10.23-1.62-.67-7.31-3.7-9.26-4.8-5.25-3-9-5.73-11.44-11.12a3.05,3.05,0,0,0-1.25-1.63,2.89,2.89,0,0,0-1.65-.12c-1.42.21-7.05,1-8.33,1.64-1.13.52-2.73,1.14-2.69,2.51a4.5,4.5,0,0,0,.34,1.38c.11.28.2.65-.06.82s-.57,0-.8-.2a20.68,20.68,0,0,1-2.33-2.53,8.13,8.13,0,0,0-1.36-1.26,13.12,13.12,0,0,1-1.47-.85C118.79,365.46,118.91,364.87,118.87,364.23Z" style="fill:#455a64"></path><path d="M135.78,391.63a56.46,56.46,0,0,0-4.69-3.15h0s10.08,5.51,14.07,2.86c2.58-1.7,1.31-3.7,1.24-4.35s9-5.35,11.55-5.67h0c.7.35,1.3.63,1.67.79,8.55,3.53,7.28,7.13,5.5,10.23-1.44,2.51-6.08,4.53-13.48,4.66C146.8,397.07,139.31,394.26,135.78,391.63Z" style="fill:#37474f"></path><path d="M145.67,385.12c5.31,1.88,3.07,2.84,1.6,3.07s-10.45-4.49-15.93-8.41c-5.72-4.08-9.36-8.6-11.49-10.1-.79-.56-1.64-1.25-2.4-1.89.12-1.09.22-2.08.31-2.61a1.18,1.18,0,0,1,1.11-.95c0,.64-.08,1.23.45,1.71a13.12,13.12,0,0,0,1.47.85,8.13,8.13,0,0,1,1.36,1.26,20.68,20.68,0,0,0,2.33,2.53C129.18,376,140.35,383.23,145.67,385.12Z" style="fill:#37474f"></path><path d="M146.88,387.47a.55.55,0,0,1-.33-.11.47.47,0,0,1-.09-.69c1.46-1.73,8.46-5.9,12.35-5.57a.49.49,0,0,1,.47.53.5.5,0,0,1-.56.45c-3.64-.31-10.28,3.83-11.44,5.2A.56.56,0,0,1,146.88,387.47Z" style="fill:#263238"></path><path d="M142.23,384.89a.56.56,0,0,1-.33-.1.47.47,0,0,1-.09-.69c1.46-1.73,8.46-5.9,12.35-5.57a.5.5,0,0,1,.48.53.51.51,0,0,1-.57.44c-3.64-.29-10.28,3.83-11.44,5.21A.52.52,0,0,1,142.23,384.89Z" style="fill:#263238"></path><path d="M137.58,382.46a.52.52,0,0,1-.33-.11.46.46,0,0,1-.08-.68c1.46-1.73,8.45-5.91,12.35-5.57a.49.49,0,0,1,.47.53.5.5,0,0,1-.57.44c-3.64-.3-10.28,3.83-11.44,5.2A.53.53,0,0,1,137.58,382.46Z" style="fill:#263238"></path><path d="M133.27,379.66a.48.48,0,0,1-.33-.1.47.47,0,0,1-.09-.69c1.46-1.73,8.47-5.9,12.35-5.57a.49.49,0,0,1,.47.53.51.51,0,0,1-.57.45c-3.63-.3-10.27,3.82-11.43,5.2A.52.52,0,0,1,133.27,379.66Z" style="fill:#263238"></path><path d="M129,376.87a.58.58,0,0,1-.33-.1.47.47,0,0,1-.09-.69c2-2.45,9.35-6,13.24-5.63a.49.49,0,0,1,.47.53.52.52,0,0,1-.57.44c-3.5-.3-10.53,3.08-12.31,5.25A.56.56,0,0,1,129,376.87Z" style="fill:#263238"></path><path d="M80.61,373.48l4.42-16-19.7-3-.89,15.5s-2.09,5.53-.89,7.57,14.3,4.35,15.52,3S80.61,373.48,80.61,373.48Z" style="fill:#b16668"></path><path d="M78.58,408.41c-.64,5-1.72,8.16-3.91,10.82s-6,3.07-9.79,1.69-8.53-4.35-9.36-8.82-.41-7.4.75-11.92Z" style="fill:#263238"></path><path d="M64.44,369.91c-1.58-.1-1.27,6.71-2.6,13.32-1.43,7.08-4,9.74-5.29,15.53-1.41,6.63-1.2,9.7,1.21,14.15s11.61,9.76,16.63,4.54c4.1-4.26,4.58-9.53,4.66-16.32a153,153,0,0,1,.73-17.23c.63-5,2.15-9.47.82-10.22-.15.72-.32,1.65-.47,2.37-.12.55-.45,3.27-1.34,3.17a9.38,9.38,0,0,1,.1-1.91,2.13,2.13,0,0,0-.33-1.69A7.24,7.24,0,0,0,76,374.29c-1.54-.48-4.28-1.1-5.85-1.44-.78-.17-1.57-.31-2.36-.41a6.78,6.78,0,0,0-2,0,1.24,1.24,0,0,0-.9.57,2.13,2.13,0,0,0-.13.76,4.77,4.77,0,0,1-.28,1.36c-.07.19-.24.42-.46.34a.44.44,0,0,1-.23-.45c0-.81.19-1.39.3-2.33,0-.44.16-1,.2-1.47S64.38,370.34,64.44,369.91Z" style="fill:#455a64"></path><path d="M57,396.89c-.21,1-1.55,7.28.36,8.72,2.07,1.55,3.56-3.36,3.56-3.36s5.12-.68,12.26,3.16c-.44,1,.47,4.6,2.52,4.15s3.3-7.75,3.31-7.85c-.1,6.52-.67,11.61-4.65,15.74-5,5.22-14.22-.08-16.63-4.54s-2.62-7.52-1.21-14.15C56.7,398.1,56.86,397.48,57,396.89Z" style="fill:#37474f"></path><path d="M61.5,402.76c-.19,2.44-2.85,1.24-2.76-2.23s2.75-11.36,3.1-17.3c.57-8.15,1-13.42,2.6-13.32,0,.08,0,.17,0,.25L64,373.55a13.34,13.34,0,0,0-.19,1.45c-.35,5-.55,14.66-1.32,19.15A68.85,68.85,0,0,0,61.5,402.76Z" style="fill:#37474f"></path><path d="M72.36,405.22a67.83,67.83,0,0,0,2-8.36c.83-4.45,3.62-13.33,5-18.1a10.86,10.86,0,0,0,.73-2.71c.14-.67.29-1.52.44-2.22,0-.05,0-.1,0-.15,1,.56.57,4.42,0,6.41s-1.2,4.12-1.88,7c-1.71,5.63-2,14.12-3.09,17.36S71.7,407.55,72.36,405.22Z" style="fill:#37474f"></path><path d="M73.35,405.63l-.21-.09a21.67,21.67,0,0,0-12.07-2.77.64.64,0,0,1-.69-.47.48.48,0,0,1,.45-.58,22.66,22.66,0,0,1,12.91,3,.51.51,0,0,1,.2.73A.56.56,0,0,1,73.35,405.63Z" style="fill:#263238"></path><path d="M75,400.5a.62.62,0,0,1-.19-.07,26.77,26.77,0,0,0-13.52-3.1.65.65,0,0,1-.67-.49.48.48,0,0,1,.47-.56,27.83,27.83,0,0,1,14.28,3.28.52.52,0,0,1,.23.73A.54.54,0,0,1,75,400.5Z" style="fill:#263238"></path><path d="M62,392.34a.63.63,0,0,1-.47-.41.47.47,0,0,1,.4-.61c7.2-1.16,14,3,14.27,3.16a.51.51,0,0,1,.2.73.62.62,0,0,1-.8.11c-.06,0-6.65-4.06-13.35-3A.7.7,0,0,1,62,392.34Z" style="fill:#263238"></path><path d="M62.7,387.65a.63.63,0,0,1-.47-.41.47.47,0,0,1,.39-.62,21,21,0,0,1,14.56,3.16.52.52,0,0,1,.15.74.63.63,0,0,1-.82.07A19.9,19.9,0,0,0,63,387.65.53.53,0,0,1,62.7,387.65Z" style="fill:#263238"></path><path d="M63.51,382.37A.62.62,0,0,1,63,382a.48.48,0,0,1,.39-.62c7.43-1.42,14.36,3.13,14.65,3.32a.51.51,0,0,1,.17.74.6.6,0,0,1-.81.08c-.07,0-6.76-4.43-13.66-3.11A.62.62,0,0,1,63.51,382.37Z" style="fill:#263238"></path><path d="M71.69,200.71C68,240,69,296.22,69,296.22c-.33,3-2.6,11.87-4.55,26.55-1.74,13.08,0,40.24,0,41.89,0,0,9.28,6.49,17.92,3.71,0,0,10.68-40.41,15.4-58.65,4.47-17.27,10.42-45,10.42-45l3.38,28.23s-.81,11.4-.62,19.25c.22,9.13,6.63,45.44,6.63,45.44s10.35,5.85,19.39-1c0,0,5.51-53.13,5.95-64.1.86-21.52,2.12-65.25-.49-91.71Z" style="fill:#455a64"></path><path d="M108.18,264.7l4.9-27.91s10.43-1.36,15.85-6.18c0,0-3.55,6.43-13.41,8.8l-4.83,25.4.87,28.12Z" style="fill:#263238"></path></g><g id="freepik--top--inject-4"><path id="freepik--chest--inject-4" d="M94.38,123.06c-4,.82-16,5.64-20.55,8.17,0,0-5.28,11-2.6,36.56.43,4.09,1.51,15.11,2,23.61a134.17,134.17,0,0,1-.14,20.8s10.74,9.39,38.72,7.28c22-1.65,28.58-10.68,28.58-10.68s-.1-29.64-.67-45.84c-.75-21.28-7.19-33.57-11.94-37.28l-14.42-2.41Z" style="fill:#f0f0f0"></path><path d="M91.8,123.17l0,1.41s5.28,12.66,5.72,37.62,0,65.6,0,65.6a48.18,48.18,0,0,1-29-2.29s1.11-18.74.87-28.67.89-24.6,0-39a72.42,72.42,0,0,1,3.89-27Z" style="fill:#7E57C2"></path><path d="M113.67,122.35l14.13,3.33s8.44,5.27,11.43,24.85,4.48,67,4.48,67a34.05,34.05,0,0,1-9.39,3.53s-.89-23.37-2.13-44.89c-1.49-26-3.26-42.31-18.31-52.9Z" style="fill:#7E57C2"></path><path d="M94.57,154.13l.29-.56c-2.55-1-5.13-2-7.71-2.92-.34-7.62-.78-15.53-1.46-23.09-.09,7.72.09,15.77.35,23.51v.37l.35.14c2.28.88,4.57,1.76,6.87,2.6-.48.94-2.78,5.54-2.78,5.54-1.08,2.12-2.07,4.29-3.12,6.42l.21.19q4,3.63,8.1,7.12-3.63-3.78-7.36-7.46C90.23,162.52,92.75,157.62,94.57,154.13Zm44,4.05q-2.67-4.34-5.44-8.59l2.69-4.08.16-.24c-2.56-7.61-7.32-14.32-12.74-20.17A92.92,92.92,0,0,1,132.59,140a49.09,49.09,0,0,1,2.09,5.12L132,149.26l-.22.32.21.32c1.91,2.87,3.84,5.73,5.82,8.56-1.25,3.28-2.47,6.57-3.61,9.9,1.56-3.24,3-6.51,4.45-9.8l.09-.19Z" style="opacity:0.30000000000000004"></path><path d="M107.77,172.6c4-2.48,6-3.4,7.8-3.74s8.18-2.37,10.59-2.75c1.53-.24,1.93,2.2-.12,3.67-1.58,1.13-5.54,2.45-7.3,3.22s-5.39,4.48-5.39,4.48Z" style="fill:#9a4a4d"></path><path d="M62.66,138.78c2.41-4.64,5.9-5.29,10.25-6.72,12.53,6.52,3.26,33.14,3.26,33.14l-5.59,21.44s18.48-.54,21.17-1.95,10.16-8.15,12.64-10.15c3.39-2.72,4.9-2.18,6.46-1.81,5.12,1.24,6.23,1.78,7.26,2.57a2.37,2.37,0,0,1,.84,2.11c1.36.29,3.43.43,3.49,2.72a6.34,6.34,0,0,1-.07,1.82,1.48,1.48,0,0,1,.85.59c1,1.43-1.34,5.86-2.69,6.87-1,.71-2.21.7-3.83.33-1.38-.31-.6-1.67-.6-1.67l-2-.06c-4.48,2.63-5.22,8.55-10.91,9.37a38.87,38.87,0,0,0-6.94.73c-12.37,3-31.73,9.9-42.52,9.89-10.53,0-7.84-11.92-6.46-19.56C48.33,182.8,56.7,150.29,62.66,138.78Z" style="fill:#b16668"></path><path d="M119,177.41l-6.06-1.79,6,.92A2.59,2.59,0,0,1,119,177.41Z" style="fill:#9a4a4d"></path><path d="M122.37,182l-7-1.54,7.1.72A4.83,4.83,0,0,1,122.37,182Z" style="fill:#9a4a4d"></path><path d="M120.07,185.56c-.32.08-.65.14-1,.19-.78.06-2.49-.05-2.49-.05s-.1.5-1,1.28a15.54,15.54,0,0,1-1.48,1l2,.06a3.05,3.05,0,0,1,2.11-1,1.44,1.44,0,0,1,.93.26,2.25,2.25,0,0,1,.66.83,2,2,0,0,0-.54-1,1.44,1.44,0,0,0-.71-.35L119,186a5.07,5.07,0,0,0,1.1-.28,2.28,2.28,0,0,0,1-.75A2.72,2.72,0,0,1,120.07,185.56Z" style="fill:#9a4a4d"></path><path d="M73.37,130.9c-8.53,3-11.59,5.37-14.7,12.82-3.86,9.27-8.3,29-9.62,32.8-3.28,4.68-1.77,11.74-1.77,11.74s11.24-8.5,23.3-1.62c0,0,5-18.08,6.44-21.36S86.28,138.12,73.37,130.9Z" style="fill:#7E57C2"></path><path d="M73.37,130.9c-8.53,3-11.59,5.37-14.7,12.82-3.86,9.27-8.3,29-9.62,32.8-3.28,4.68-1.77,11.74-1.77,11.74s11.24-8.5,23.3-1.62c0,0,5-18.08,6.44-21.36S86.28,138.12,73.37,130.9Z" style="opacity:0.30000000000000004"></path><path d="M70.18,180.7a16,16,0,0,0-8.83-4.35,21.12,21.12,0,0,0-10.85,1.06s0,.11,0,.1a35.12,35.12,0,0,1,5.48-.87,23,23,0,0,1,5.68.33,20.37,20.37,0,0,1,4.57,1.49,21.09,21.09,0,0,1,3.86,2.47C70.21,181,70.25,180.77,70.18,180.7ZM63,180.27a14.16,14.16,0,0,0-7.14-.15s0,.07,0,.06a21.9,21.9,0,0,1,7.21.64,17.54,17.54,0,0,1,3.35,1.32c1,.54,2,1.22,3,1.81.09.06.12-.13.08-.18A13.84,13.84,0,0,0,63,180.27Z" style="opacity:0.1"></path><g id="freepik--head--inject-4"><path d="M88.73,78s-4.06,0-6.09,3-3.43,8.56-1.29,15c2.36,7,7.24,13.93,8.29,15.92a5.49,5.49,0,0,0,3.19,2.55l-.22-8.55-.32-5.95s4.8-4.36,5.21-8.64c.53-5.5-1.61-8.62-1.61-8.62Z" style="fill:#263238"></path><path d="M117.94,87.93a22,22,0,0,0-7.76-1.66L103,85.8l-7.67-.5s-8.18-1.36-8.18-7.15A8.78,8.78,0,0,1,88.87,73a17.63,17.63,0,0,1,4.25-4.06,22.19,22.19,0,0,1,11.18-3.79,36.14,36.14,0,0,1,9.38.82,18.36,18.36,0,0,0,6.33.54c1.5-.25,3.11-1.14,3.37-2.64a6.58,6.58,0,0,1,.69,7.16,4.71,4.71,0,0,1,4.53,3.48c.6,2.22-.43,4-1.75,5.67.17-.2,1,1.43,1.05,1.57a5.09,5.09,0,0,1,.41,3.1,5,5,0,0,1-3,3.22A8.24,8.24,0,0,1,117.94,87.93Z" style="fill:#263238"></path><path d="M84.8,108.35c4.43,2.16,6.45-1.35,6.45-1.35l.66,17.62c8.5,11.38,31.18,7.27,21.88-1.25l0-4a20.84,20.84,0,0,0,3.83-.38c6.17-1.1,7.72-4,8.68-8.35,1.49-6.68,1.27-16-1.09-26.65-.46-2.06-1.35-4.31-3.25-5.25-4.7-2.33-9,1-15.61,3.58-2.71,1.06-9.29,1.53-11,.71,2.29,2.52,2.27,10.5-1.1,13.74A7.42,7.42,0,0,1,92.51,99c-1.43,1.24-2.61-2-3.81-3.24A4.94,4.94,0,0,0,81,97.48,8,8,0,0,0,84.8,108.35Z" style="fill:#b16668"></path><path d="M109.73,107.94a1.56,1.56,0,0,0,2.38.68c1-.59,1.49-2.54.44-3.33-1.4-1-2.91.56-2.94,1.94A2,2,0,0,0,109.73,107.94Z" style="fill:#9a4a4d"></path><path d="M110.28,105.63a2.58,2.58,0,0,0-.67,1.6,2,2,0,0,0,.12.71,1.56,1.56,0,0,0,2.38.68,1.85,1.85,0,0,0,.4-.34A4.45,4.45,0,0,0,110.28,105.63Z" style="fill:#ffa8a7"></path><path d="M113.77,119.35c-5.14,0-9.71-.67-12.74-1.95s-6.41-5.78-7.29-9.85c.37,5,2.12,9.49,6.72,11.9s10,2.54,13.32,2.62Z" style="fill:#9a4a4d"></path><path d="M107.82,87.78l-4.34,1.83a2.48,2.48,0,0,1,1.3-3.17A2.29,2.29,0,0,1,107.82,87.78Z" style="fill:#263238"></path><path d="M123.07,88.34l-4.41-1.75a2.27,2.27,0,0,1,3-1.38A2.48,2.48,0,0,1,123.07,88.34Z" style="fill:#263238"></path><path d="M105.06,93.93a1.93,1.93,0,1,0,1.86-2A1.92,1.92,0,0,0,105.06,93.93Z" style="fill:#263238"></path><path d="M119.19,93.19a1.92,1.92,0,1,0,1.85-2A1.75,1.75,0,0,0,119.19,93.19Z" style="fill:#263238"></path><path d="M112.73,90.54l1.58,12.24,6.47-2.39A28.74,28.74,0,0,0,112.73,90.54Z" style="fill:#9a4a4d"></path></g></g></g></g><g id="freepik--puzzle--inject-4"><g id="freepik--puzzle--inject-4"><path d="M314.8,324.33l8.58-4.95V287.92l-15.27-8.82-23.6,13.62v11.44a19.43,19.43,0,0,1-1.37,6.89L268,302.28l-23.6,13.62v31.47l15.23,8.79c-.25.58-.51,1.16-.8,1.71a16.41,16.41,0,0,1-5.85,6.62l-8.58,4.95V400.9l15.27,8.82,63.75-36.8V341.45l-15.23-8.79C309.66,329.07,312.08,325.91,314.8,324.33Z" style="fill:#7E57C2"></path><path d="M314.8,324.33l8.58-4.95V287.92l-15.27-8.82-23.6,13.62v11.44a19.43,19.43,0,0,1-1.37,6.89L268,302.28l-23.6,13.62v31.47l15.23,8.79c-.25.58-.51,1.16-.8,1.71a16.41,16.41,0,0,1-5.85,6.62l-8.58,4.95V400.9l15.27,8.82,63.75-36.8V341.45l-15.23-8.79C309.66,329.07,312.08,325.91,314.8,324.33Z" style="opacity:0.2"></path><polygon points="284.51 292.72 299.78 301.54 323.38 287.92 308.11 279.1 284.51 292.72" style="fill:#7E57C2"></polygon><polygon points="284.51 292.72 299.78 301.54 323.38 287.92 308.11 279.1 284.51 292.72" style="fill:#fff;opacity:0.2"></polygon><polygon points="244.36 315.9 259.63 324.73 283.23 311.1 267.96 302.28 244.36 315.9" style="fill:#7E57C2"></polygon><polygon points="244.36 315.9 259.63 324.73 283.23 311.1 267.96 302.28 244.36 315.9" style="fill:#fff;opacity:0.2"></polygon><path d="M276.49,357.49a20.41,20.41,0,0,1-2.43,9.2,16.33,16.33,0,0,1-5.85,6.62l-8.58,4.95v31.46l63.75-36.8V341.45l-8.58,4.95c-2.28,1.32-4.35,1.28-5.84.14s-2.43-3.35-2.43-6.39c0-6.1,3.7-13.18,8.27-15.82l8.58-4.95V287.92l-23.6,13.62V313a20.4,20.4,0,0,1-2.42,9.2,16.31,16.31,0,0,1-5.85,6.61c-4.57,2.64-8.28-.16-8.28-6.25V311.1l-23.6,13.62v31.47l8.58-5C272.78,348.6,276.49,351.4,276.49,357.49Z" style="fill:#fff"></path><path d="M322.13,290.1v28.56l-7.95,4.58c-5,2.89-8.91,10.31-8.91,16.91,0,3.35,1,6,2.92,7.39a5.45,5.45,0,0,0,3.33,1.11,7.83,7.83,0,0,0,3.91-1.16l6.7-3.86v28.56l-61.24,35.36V379l7.95-4.59a17.38,17.38,0,0,0,6.33-7.11,21.58,21.58,0,0,0,2.57-9.79,10.46,10.46,0,0,0-1.62-6.05A5.57,5.57,0,0,0,271.5,349a7.89,7.89,0,0,0-3.92,1.17L260.89,354V325.45L282,313.28v9.26c0,5.09,2.52,8.5,6.25,8.5a7.9,7.9,0,0,0,3.92-1.16,17.57,17.57,0,0,0,6.34-7.12A21.65,21.65,0,0,0,301,313V302.27l21.09-12.17m1.25-2.18-23.6,13.62V313a20.4,20.4,0,0,1-2.42,9.2,16.31,16.31,0,0,1-5.85,6.61,6.6,6.6,0,0,1-3.29,1c-2.93,0-5-2.71-5-7.25V311.1l-23.6,13.62v31.47l8.58-5a6.68,6.68,0,0,1,3.29-1c2.93,0,5,2.71,5,7.25a20.41,20.41,0,0,1-2.43,9.2,16.33,16.33,0,0,1-5.85,6.62l-8.58,4.95v31.46l63.75-36.8V341.45l-8.58,4.95a6.54,6.54,0,0,1-3.28,1,4.14,4.14,0,0,1-2.56-.86c-1.51-1.12-2.43-3.35-2.43-6.39,0-6.1,3.7-13.18,8.27-15.82l8.58-4.95V287.92Z" style="fill:#7E57C2"></path><path d="M259.63,342.74v-18l-15.27-8.82L235,321.29,217.9,311.4c-1.45-.84-3.34-.76-5.41.44-4.58,2.64-8.28,9.72-8.28,15.81v11.44l-23.6,13.62v31.46L172,389.12c-4.58,2.64-8.28,9.72-8.28,15.82,0,3.31,1.09,5.66,2.83,6.68l14,8.1v18l15.27,8.82,63.75-36.81V378.26l8.58-4.95c4.57-2.64,8.28-9.72,8.28-15.82,0-3.31-1.1-5.65-2.83-6.67C272.2,350,259.63,342.74,259.63,342.74Z" style="fill:#263238"></path><path d="M187.31,397.94l8.57-4.95V361.53l23.6-13.62V336.47c0-6.09,3.71-13.17,8.28-15.81s8.28.16,8.28,6.25v11.44l23.59-13.63v31.47l8.58-4.95c2.07-1.2,4-1.28,5.42-.44,1.75,1,2.86,3.36,2.86,6.69,0,6.1-3.71,13.18-8.28,15.82l-8.58,4.95v31.46l-63.75,36.81V415.07L187.31,420c-4.57,2.64-8.28-.16-8.28-6.26S182.74,400.58,187.31,397.94Z" style="fill:#fff"></path><path d="M231.05,320.92c2.26,0,3.73,2.35,3.73,6v13.61l1.88-1.08,21.72-12.54v31.46l1.88-1.09,8.58-4.95a5.46,5.46,0,0,1,2.65-.82,3,3,0,0,1,1.51.39c1.42.82,2.23,2.86,2.23,5.6,0,5.69-3.43,12.3-7.65,14.73L259,377.17l-.62.37V409l-61.24,35.35V412.89L195.26,414l-8.58,4.95a5.38,5.38,0,0,1-2.66.83c-2.27,0-3.73-2.36-3.73-6,0-5.69,3.43-12.29,7.65-14.73l8.57-4.95.63-.36V362.26l23-13.27.63-.36V336.47c0-5.68,3.43-12.29,7.65-14.73a5.43,5.43,0,0,1,2.66-.82m0-1.26a6.6,6.6,0,0,0-3.28,1c-4.57,2.64-8.28,9.72-8.28,15.81v11.44l-23.6,13.62V393l-8.57,4.95c-4.57,2.64-8.28,9.72-8.28,15.82,0,4.54,2.05,7.25,5,7.25a6.68,6.68,0,0,0,3.29-1l8.57-4.95v31.46l63.75-36.81V378.26l8.58-4.95c4.57-2.64,8.28-9.72,8.28-15.82,0-3.33-1.11-5.67-2.86-6.69a4.17,4.17,0,0,0-2.14-.56,6.6,6.6,0,0,0-3.28,1l-8.58,4.95V324.72L236,338.35V326.91c0-4.53-2.06-7.25-5-7.25Z" style="fill:#455a64"></path><path d="M259.63,257.72v-18h0l-15.27-8.82h0l-9.75,5.63a4.72,4.72,0,0,0-1.44-1.32L217.9,226.4c-1.45-.83-3.34-.75-5.41.44-4.58,2.64-8.28,9.72-8.28,15.82v11.43l-23.6,13.63v85l15.27,8.82h0l23.6-13.62V336.47a19.35,19.35,0,0,1,1.38-6.88L236,338.35h0l23.59-13.62V293.26l8.58-4.95c4.57-2.64,8.28-9.72,8.28-15.81,0-3.4-1.15-5.77-3-6.75C272.09,265,259.63,257.72,259.63,257.72Z" style="fill:#7E57C2"></path><path d="M259.63,257.72v-18h0l-15.27-8.82h0l-9.75,5.63a4.72,4.72,0,0,0-1.44-1.32L217.9,226.4c-1.45-.83-3.34-.75-5.41.44-4.58,2.64-8.28,9.72-8.28,15.82v11.43l-23.6,13.63v85l15.27,8.82h0l23.6-13.62V336.47a19.35,19.35,0,0,1,1.38-6.88L236,338.35h0l23.59-13.62V293.26l8.58-4.95c4.57-2.64,8.28-9.72,8.28-15.81,0-3.4-1.15-5.77-3-6.75C272.09,265,259.63,257.72,259.63,257.72Z" style="opacity:0.2"></path><path d="M233.17,235.22,217.9,226.4c-1.45-.83-3.34-.75-5.41.44-4.58,2.64-8.28,9.72-8.28,15.82v11.43l-23.6,13.63,15.27,8.81,63.75-36.8-15.27-8.82-9.75,5.63A4.72,4.72,0,0,0,233.17,235.22Z" style="fill:#7E57C2"></path><path d="M233.17,235.22,217.9,226.4c-1.45-.83-3.34-.75-5.41.44-4.58,2.64-8.28,9.72-8.28,15.82v11.43l-23.6,13.63,15.27,8.81,63.75-36.8-15.27-8.82-9.75,5.63A4.72,4.72,0,0,0,233.17,235.22Z" style="fill:#fff;opacity:0.2"></path><polygon points="204.21 254.09 219.48 262.91 219.48 251.47 204.21 242.66 204.21 254.09" style="fill:#7E57C2"></polygon><path d="M195.88,361.53l23.6-13.62V336.47a20.53,20.53,0,0,1,2.42-9.2,16.33,16.33,0,0,1,5.86-6.61c4.57-2.64,8.28.16,8.28,6.25v11.44l23.59-13.62V293.26l8.58-4.95c4.57-2.64,8.28-9.72,8.28-15.81s-3.71-8.9-8.28-6.26l-8.58,4.95V239.73L236,253.35V241.92c0-6.1-3.71-8.9-8.28-6.26s-8.28,9.72-8.28,15.81v11.44l-23.6,13.62Z" style="fill:#fff"></path><path d="M231,235.92c2.27,0,3.74,2.35,3.74,6v13.61l1.88-1.09,21.72-12.54v31.46l1.88-1.08,8.58-4.95a5.38,5.38,0,0,1,2.65-.83c2.27,0,3.74,2.35,3.74,6,0,5.68-3.43,12.29-7.65,14.72l-8.58,5-.62.36V324l-21.09,12.17v-9.26c0-5.09-2.51-8.5-6.25-8.5a7.86,7.86,0,0,0-3.91,1.16,17.5,17.5,0,0,0-6.34,7.12,21.65,21.65,0,0,0-2.56,9.78v10.71l-21.09,12.17V277.26l23-13.26.63-.37V251.47c0-5.68,3.43-12.29,7.65-14.72a5.35,5.35,0,0,1,2.65-.83m0-1.26a6.6,6.6,0,0,0-3.28,1c-4.57,2.64-8.28,9.72-8.28,15.81v11.44l-23.6,13.62v85l23.6-13.62V336.47a20.53,20.53,0,0,1,2.42-9.2,16.33,16.33,0,0,1,5.86-6.61,6.6,6.6,0,0,1,3.28-1c2.94,0,5,2.71,5,7.25v11.44l23.59-13.62V293.26l8.58-4.95c4.57-2.64,8.28-9.72,8.28-15.81,0-4.54-2.06-7.26-5-7.26a6.6,6.6,0,0,0-3.28,1l-8.58,4.95V239.73L236,253.35V241.92c0-4.54-2.06-7.26-5-7.26Z" style="fill:#7E57C2"></path><path d="M276.49,357.49a20.41,20.41,0,0,1-2.43,9.2,16.33,16.33,0,0,1-5.85,6.62l-8.58,4.95v31.46l63.75-36.8V341.45l-8.58,4.95c-2.28,1.32-4.35,1.28-5.84.14s-2.43-3.35-2.43-6.39c0-6.1,3.7-13.18,8.27-15.82l8.58-4.95V287.92l-23.6,13.62V313a20.4,20.4,0,0,1-2.42,9.2,16.31,16.31,0,0,1-5.85,6.61c-4.57,2.64-8.28-.16-8.28-6.25V311.1l-23.6,13.62v31.47l8.58-5C272.78,348.6,276.49,351.4,276.49,357.49Z" style="fill:#fff"></path><path d="M322.13,290.1v28.56l-7.95,4.58c-5,2.89-8.91,10.31-8.91,16.91,0,3.35,1,6,2.92,7.39a5.45,5.45,0,0,0,3.33,1.11,7.83,7.83,0,0,0,3.91-1.16l6.7-3.86v28.56l-61.24,35.36V379l7.95-4.59a17.38,17.38,0,0,0,6.33-7.11,21.58,21.58,0,0,0,2.57-9.79,10.46,10.46,0,0,0-1.62-6.05A5.57,5.57,0,0,0,271.5,349a7.89,7.89,0,0,0-3.92,1.17L260.89,354V325.45L282,313.28v9.26c0,5.09,2.52,8.5,6.25,8.5a7.9,7.9,0,0,0,3.92-1.16,17.57,17.57,0,0,0,6.34-7.12A21.65,21.65,0,0,0,301,313V302.27l21.09-12.17m1.25-2.18-23.6,13.62V313a20.4,20.4,0,0,1-2.42,9.2,16.31,16.31,0,0,1-5.85,6.61,6.6,6.6,0,0,1-3.29,1c-2.93,0-5-2.71-5-7.25V311.1l-23.6,13.62v31.47l8.58-5a6.68,6.68,0,0,1,3.29-1c2.93,0,5,2.71,5,7.25a20.41,20.41,0,0,1-2.43,9.2,16.33,16.33,0,0,1-5.85,6.62l-8.58,4.95v31.46l63.75-36.8V341.45l-8.58,4.95a6.54,6.54,0,0,1-3.28,1,4.14,4.14,0,0,1-2.56-.86c-1.51-1.12-2.43-3.35-2.43-6.39,0-6.1,3.7-13.18,8.27-15.82l8.58-4.95V287.92Z" style="fill:#7E57C2"></path><path d="M187.31,397.94l8.57-4.95V361.53l23.6-13.62V336.47c0-6.09,3.71-13.17,8.28-15.81s8.28.16,8.28,6.25v11.44l23.59-13.63v31.47l8.58-4.95c2.07-1.2,4-1.28,5.42-.44,1.75,1,2.86,3.36,2.86,6.69,0,6.1-3.71,13.18-8.28,15.82l-8.58,4.95v31.46l-63.75,36.81V415.07L187.31,420c-4.57,2.64-8.28-.16-8.28-6.26S182.74,400.58,187.31,397.94Z" style="fill:#fff"></path><path d="M231.05,320.92c2.26,0,3.73,2.35,3.73,6v13.61l1.88-1.08,21.72-12.54v31.46l1.88-1.09,8.58-4.95a5.47,5.47,0,0,1,2.66-.82,2.94,2.94,0,0,1,1.5.39c1.42.82,2.23,2.86,2.23,5.6,0,5.69-3.43,12.3-7.65,14.73L259,377.17l-.62.37V409l-61.24,35.35V412.89L195.26,414l-8.58,4.95a5.38,5.38,0,0,1-2.66.83c-2.27,0-3.73-2.36-3.73-6,0-5.69,3.43-12.29,7.65-14.73l8.57-4.95.63-.36V362.26l23-13.27.63-.36V336.47c0-5.68,3.43-12.29,7.65-14.73a5.43,5.43,0,0,1,2.66-.82m0-1.26a6.6,6.6,0,0,0-3.29,1c-4.57,2.64-8.28,9.72-8.28,15.81v11.44l-23.6,13.62V393l-8.57,4.95c-4.57,2.64-8.28,9.72-8.28,15.82,0,4.54,2.05,7.25,5,7.25a6.68,6.68,0,0,0,3.29-1l8.57-4.95v31.46l63.75-36.81V378.26l8.58-4.95c4.57-2.64,8.28-9.72,8.28-15.82,0-3.33-1.11-5.67-2.86-6.69a4.16,4.16,0,0,0-2.13-.56,6.6,6.6,0,0,0-3.29,1l-8.58,4.95V324.72L236,338.35V326.91c0-4.53-2.06-7.25-5-7.25Z" style="fill:#455a64"></path><path d="M195.88,361.53l23.6-13.62V336.47a20.53,20.53,0,0,1,2.42-9.2,16.33,16.33,0,0,1,5.86-6.61c4.57-2.64,8.28.16,8.28,6.25v11.44l23.59-13.62V293.26l8.58-4.95c4.57-2.64,8.28-9.72,8.28-15.81s-3.71-8.9-8.28-6.26l-8.58,4.95V239.73L236,253.35V241.92c0-6.1-3.71-8.9-8.28-6.26s-8.28,9.72-8.28,15.81v11.44l-23.6,13.62Z" style="fill:#fff"></path><path d="M231,235.92c2.27,0,3.74,2.35,3.74,6v13.61l1.88-1.09,21.72-12.54v31.46l1.88-1.08,8.58-4.95a5.38,5.38,0,0,1,2.66-.83c2.26,0,3.73,2.35,3.73,6,0,5.68-3.43,12.29-7.65,14.72l-8.58,5-.62.36V324l-21.09,12.17v-9.26c0-5.09-2.51-8.5-6.25-8.5a7.86,7.86,0,0,0-3.91,1.16,17.5,17.5,0,0,0-6.34,7.12,21.65,21.65,0,0,0-2.56,9.78v10.71l-21.09,12.17V277.26l23-13.26.63-.37V251.47c0-5.68,3.43-12.29,7.65-14.72a5.35,5.35,0,0,1,2.65-.83m0-1.26a6.6,6.6,0,0,0-3.28,1c-4.57,2.64-8.28,9.72-8.28,15.81v11.44l-23.6,13.62v85l23.6-13.62V336.47a20.53,20.53,0,0,1,2.42-9.2,16.33,16.33,0,0,1,5.86-6.61,6.6,6.6,0,0,1,3.28-1c2.94,0,5,2.71,5,7.25v11.44l23.59-13.62V293.26l8.58-4.95c4.57-2.64,8.28-9.72,8.28-15.81,0-4.54-2.06-7.26-5-7.26a6.6,6.6,0,0,0-3.29,1l-8.58,4.95V239.73L236,253.35V241.92c0-4.54-2.06-7.26-5-7.26Z" style="fill:#7E57C2"></path></g></g><g id="freepik--speech-bubble--inject-4"><g id="freepik--speech-bubble--inject-4"><g id="freepik--speech-bubble--inject-4"><path d="M186.46,48.74a25.28,25.28,0,0,1,9.88,15.76l.36,2.87A25.31,25.31,0,0,1,146.82,75l-.5-2.85a25.3,25.3,0,0,1,40.14-23.39Z" style="fill:#fff"></path><path d="M149.31,52.87a27.47,27.47,0,0,0,41.25,36l8.24,2.23a1.6,1.6,0,0,0,1.77-2.4L196,81.51a27.47,27.47,0,0,0-46.67-28.64Zm37.15-4.13a25.28,25.28,0,0,1,9.88,15.76l.36,2.87A25.31,25.31,0,0,1,146.82,75l-.5-2.85a25.3,25.3,0,0,1,40.14-23.39Z" style="fill:#455a64"></path><path d="M186.46,48.74a25.28,25.28,0,0,1,9.88,15.76l.36,2.87A25.31,25.31,0,0,1,146.82,75l-.5-2.85a25.3,25.3,0,0,1,40.14-23.39Z" style="fill:#fff;opacity:0.7000000000000001"></path></g><path d="M189.53,66.23a.46.46,0,0,0-.38-.37l-3.35-.42a2.13,2.13,0,0,1-1.69-1.35s0,0,0,0h0a2.13,2.13,0,0,1,.28-2.14l2.13-2.61a.45.45,0,0,0,0-.53,17.57,17.57,0,0,0-2-2.41,18.82,18.82,0,0,0-2.38-2.06.45.45,0,0,0-.53,0L179,56.37a2.11,2.11,0,0,1-2.13.25l-.06,0a2.1,2.1,0,0,1-1.31-1.71l-.35-3.36a.43.43,0,0,0-.36-.38,17.39,17.39,0,0,0-6.23-.06.43.43,0,0,0-.37.37l-.42,3.34a2.17,2.17,0,0,1-1.35,1.7h0a2.14,2.14,0,0,1-2.14-.29l-2.62-2.13a.45.45,0,0,0-.53,0,18.55,18.55,0,0,0-4.47,4.37.45.45,0,0,0,0,.52l2.07,2.67a2.14,2.14,0,0,1,.24,2.15s0,0,0,0a2.14,2.14,0,0,1-1.73,1.31l-3.34.35a.47.47,0,0,0-.4.36,17.68,17.68,0,0,0-.06,6.24.44.44,0,0,0,.38.36l3.34.42a2.14,2.14,0,0,1,1.68,1.36l0,0a2.11,2.11,0,0,1-.29,2.12L156.39,79a.45.45,0,0,0,0,.53,19.19,19.19,0,0,0,2,2.42,17.87,17.87,0,0,0,2.36,2,.43.43,0,0,0,.53,0l2.68-2.07a2.14,2.14,0,0,1,2.15-.24l0,0a2.08,2.08,0,0,1,1.31,1.72l.36,3.35a.44.44,0,0,0,.35.39,18,18,0,0,0,6.25.07.42.42,0,0,0,.35-.38l.43-3.34a2.1,2.1,0,0,1,1.36-1.69l0,0a2.09,2.09,0,0,1,2.13.29l2.62,2.13a.45.45,0,0,0,.53,0,17.73,17.73,0,0,0,2.42-2,18.11,18.11,0,0,0,2-2.38.45.45,0,0,0,0-.52l-2.07-2.67a2.11,2.11,0,0,1-.25-2.13l0,0a2.14,2.14,0,0,1,1.73-1.32l3.35-.34a.44.44,0,0,0,.38-.36A18.11,18.11,0,0,0,189.53,66.23Zm-11.6,9.52a9.26,9.26,0,1,1,.14-13.07A9.26,9.26,0,0,1,177.93,75.75Z" style="fill:#7E57C2"></path></g></g></svg>
