<svg viewBox="0 0 694 174" fill="none" xmlns="http://www.w3.org/2000/svg">
<circle cx="99" cy="87" r="61" stroke="#6B1FB7" stroke-width="4"/>
<circle cx="99.0001" cy="87.0001" r="48.4" stroke="#E6CEFF" stroke-width="4"/>
<circle cx="99.0002" cy="87.0002" r="35.8" stroke="#6B1FB7" stroke-width="4"/>
<path d="M195.889 56.9091H207.075L226.524 104.398H227.24L246.689 56.9091H257.875V118H249.105V73.7926H248.539L230.521 117.911H223.243L205.226 73.7628H204.659V118H195.889V56.9091ZM270.56 118V72.1818H279.479V118H270.56ZM275.064 65.1122C273.513 65.1122 272.181 64.5952 271.067 63.5611C269.974 62.5071 269.427 61.2543 269.427 59.8026C269.427 58.331 269.974 57.0781 271.067 56.044C272.181 54.9901 273.513 54.4631 275.064 54.4631C276.616 54.4631 277.938 54.9901 279.032 56.044C280.145 57.0781 280.702 58.331 280.702 59.8026C280.702 61.2543 280.145 62.5071 279.032 63.5611C277.938 64.5952 276.616 65.1122 275.064 65.1122ZM308.63 118.895C304.931 118.895 301.63 117.95 298.727 116.061C295.843 114.152 293.576 111.437 291.926 107.918C290.295 104.378 289.48 100.132 289.48 95.1804C289.48 90.2287 290.305 85.9929 291.955 82.473C293.626 78.9531 295.913 76.2585 298.816 74.3892C301.72 72.5199 305.011 71.5852 308.69 71.5852C311.534 71.5852 313.82 72.0625 315.551 73.017C317.301 73.9517 318.653 75.0455 319.607 76.2983C320.582 77.5511 321.338 78.6548 321.874 79.6094H322.411V56.9091H331.33V118H322.62V110.871H321.874C321.338 111.845 320.562 112.959 319.548 114.212C318.553 115.464 317.181 116.558 315.431 117.493C313.681 118.428 311.414 118.895 308.63 118.895ZM310.599 111.288C313.164 111.288 315.332 110.612 317.102 109.26C318.892 107.888 320.244 105.989 321.159 103.562C322.093 101.136 322.561 98.3125 322.561 95.0909C322.561 91.9091 322.103 89.125 321.188 86.7386C320.274 84.3523 318.931 82.4929 317.161 81.1605C315.392 79.8281 313.204 79.1619 310.599 79.1619C307.914 79.1619 305.677 79.858 303.887 81.25C302.097 82.642 300.745 84.5412 299.83 86.9474C298.936 89.3537 298.488 92.0682 298.488 95.0909C298.488 98.1534 298.945 100.908 299.86 103.354C300.775 105.8 302.127 107.739 303.917 109.17C305.727 110.582 307.954 111.288 310.599 111.288ZM361.212 118.895C357.513 118.895 354.212 117.95 351.309 116.061C348.425 114.152 346.158 111.437 344.508 107.918C342.877 104.378 342.062 100.132 342.062 95.1804C342.062 90.2287 342.887 85.9929 344.537 82.473C346.208 78.9531 348.495 76.2585 351.398 74.3892C354.302 72.5199 357.593 71.5852 361.272 71.5852C364.116 71.5852 366.403 72.0625 368.133 73.017C369.883 73.9517 371.235 75.0455 372.189 76.2983C373.164 77.5511 373.92 78.6548 374.457 79.6094H374.993V56.9091H383.912V118H375.202V110.871H374.457C373.92 111.845 373.144 112.959 372.13 114.212C371.135 115.464 369.763 116.558 368.013 117.493C366.263 118.428 363.996 118.895 361.212 118.895ZM363.181 111.288C365.746 111.288 367.914 110.612 369.684 109.26C371.474 107.888 372.826 105.989 373.741 103.562C374.675 101.136 375.143 98.3125 375.143 95.0909C375.143 91.9091 374.685 89.125 373.77 86.7386C372.856 84.3523 371.513 82.4929 369.743 81.1605C367.974 79.8281 365.786 79.1619 363.181 79.1619C360.496 79.1619 358.259 79.858 356.469 81.25C354.68 82.642 353.327 84.5412 352.412 86.9474C351.518 89.3537 351.07 92.0682 351.07 95.0909C351.07 98.1534 351.528 100.908 352.442 103.354C353.357 105.8 354.709 107.739 356.499 109.17C358.309 110.582 360.536 111.288 363.181 111.288ZM405.561 56.9091V118H396.642V56.9091H405.561ZM437.307 118.925C432.793 118.925 428.905 117.96 425.644 116.031C422.403 114.082 419.897 111.348 418.127 107.828C416.377 104.288 415.502 100.142 415.502 95.3892C415.502 90.696 416.377 86.5597 418.127 82.9801C419.897 79.4006 422.363 76.6065 425.525 74.598C428.706 72.5895 432.425 71.5852 436.681 71.5852C439.266 71.5852 441.772 72.0128 444.198 72.8679C446.624 73.723 448.802 75.0653 450.731 76.8949C452.66 78.7244 454.181 81.1009 455.295 84.0241C456.408 86.9276 456.965 90.4574 456.965 94.6136V97.7756H420.543V91.0938H448.225C448.225 88.7472 447.748 86.669 446.793 84.8594C445.839 83.0298 444.496 81.5881 442.766 80.5341C441.056 79.4801 439.047 78.9531 436.741 78.9531C434.235 78.9531 432.047 79.5696 430.178 80.8026C428.329 82.0156 426.897 83.6065 425.883 85.5753C424.888 87.5241 424.391 89.642 424.391 91.929V97.1491C424.391 100.212 424.928 102.817 426.002 104.964C427.096 107.112 428.617 108.753 430.566 109.886C432.515 111 434.792 111.557 437.397 111.557C439.087 111.557 440.628 111.318 442.02 110.841C443.412 110.344 444.616 109.608 445.63 108.634C446.644 107.659 447.42 106.456 447.957 105.024L456.398 106.545C455.722 109.031 454.509 111.209 452.759 113.078C451.029 114.928 448.851 116.369 446.226 117.403C443.621 118.418 440.648 118.925 437.307 118.925ZM476.712 118L463.229 72.1818H472.447L481.425 105.83H481.873L490.881 72.1818H500.099L509.047 105.68H509.495L518.414 72.1818H527.631L514.178 118H505.08L495.773 84.919H495.087L485.78 118H476.712ZM549.429 119.014C546.526 119.014 543.901 118.477 541.554 117.403C539.208 116.31 537.348 114.729 535.976 112.661C534.624 110.592 533.948 108.057 533.948 105.054C533.948 102.469 534.445 100.341 535.439 98.6705C536.433 97 537.776 95.6776 539.466 94.7031C541.156 93.7287 543.046 92.9929 545.134 92.4957C547.222 91.9986 549.35 91.6207 551.517 91.3622C554.262 91.044 556.489 90.7855 558.199 90.5866C559.909 90.3679 561.152 90.0199 561.928 89.5426C562.703 89.0653 563.091 88.2898 563.091 87.2159V87.0071C563.091 84.402 562.355 82.3835 560.884 80.9517C559.432 79.5199 557.264 78.804 554.381 78.804C551.378 78.804 549.012 79.4702 547.281 80.8026C545.571 82.1151 544.388 83.5767 543.732 85.1875L535.35 83.2784C536.344 80.4943 537.796 78.2472 539.705 76.5369C541.634 74.8068 543.851 73.554 546.357 72.7784C548.862 71.983 551.497 71.5852 554.262 71.5852C556.091 71.5852 558.03 71.804 560.078 72.2415C562.146 72.6591 564.075 73.4347 565.865 74.5682C567.675 75.7017 569.156 77.3224 570.31 79.4304C571.463 81.5185 572.04 84.233 572.04 87.5739V118H563.33V111.736H562.972C562.395 112.889 561.53 114.023 560.377 115.136C559.223 116.25 557.742 117.175 555.932 117.911C554.122 118.646 551.955 119.014 549.429 119.014ZM551.368 111.855C553.834 111.855 555.942 111.368 557.692 110.393C559.462 109.419 560.804 108.146 561.719 106.575C562.654 104.984 563.121 103.284 563.121 101.474V95.5682C562.803 95.8864 562.186 96.1847 561.271 96.4631C560.377 96.7216 559.352 96.9503 558.199 97.1491C557.046 97.3281 555.922 97.4972 554.828 97.6562C553.735 97.7955 552.82 97.9148 552.084 98.0142C550.354 98.233 548.773 98.6009 547.341 99.1179C545.929 99.6349 544.796 100.381 543.941 101.355C543.105 102.31 542.688 103.582 542.688 105.173C542.688 107.381 543.503 109.051 545.134 110.185C546.764 111.298 548.843 111.855 551.368 111.855ZM583.92 118V72.1818H592.54V79.4602H593.018C593.853 76.9943 595.324 75.0554 597.432 73.6435C599.56 72.2116 601.966 71.4957 604.651 71.4957C605.208 71.4957 605.864 71.5156 606.62 71.5554C607.395 71.5952 608.002 71.6449 608.439 71.7045V80.2358C608.081 80.1364 607.445 80.027 606.53 79.9077C605.616 79.7685 604.701 79.6989 603.786 79.6989C601.678 79.6989 599.799 80.1463 598.148 81.0412C596.518 81.9162 595.225 83.1392 594.27 84.7102C593.316 86.2614 592.839 88.0312 592.839 90.0199V118H583.92ZM634.264 118.925C629.75 118.925 625.862 117.96 622.601 116.031C619.36 114.082 616.854 111.348 615.084 107.828C613.334 104.288 612.459 100.142 612.459 95.3892C612.459 90.696 613.334 86.5597 615.084 82.9801C616.854 79.4006 619.32 76.6065 622.482 74.598C625.664 72.5895 629.382 71.5852 633.638 71.5852C636.223 71.5852 638.729 72.0128 641.155 72.8679C643.581 73.723 645.759 75.0653 647.688 76.8949C649.617 78.7244 651.138 81.1009 652.252 84.0241C653.365 86.9276 653.922 90.4574 653.922 94.6136V97.7756H617.5V91.0938H645.182C645.182 88.7472 644.705 86.669 643.75 84.8594C642.796 83.0298 641.453 81.5881 639.723 80.5341C638.013 79.4801 636.004 78.9531 633.698 78.9531C631.192 78.9531 629.004 79.5696 627.135 80.8026C625.286 82.0156 623.854 83.6065 622.84 85.5753C621.845 87.5241 621.348 89.642 621.348 91.929V97.1491C621.348 100.212 621.885 102.817 622.959 104.964C624.053 107.112 625.574 108.753 627.523 109.886C629.472 111 631.749 111.557 634.354 111.557C636.044 111.557 637.585 111.318 638.977 110.841C640.369 110.344 641.573 109.608 642.587 108.634C643.601 107.659 644.377 106.456 644.914 105.024L653.355 106.545C652.679 109.031 651.466 111.209 649.716 113.078C647.986 114.928 645.808 116.369 643.183 117.403C640.578 118.418 637.605 118.925 634.264 118.925Z" fill="#E7E9FF"/>
</svg>
